<?xml version="1.0" encoding="utf-8"?>
<!-- Generator: Adobe Illustrator 17.0.0, SVG Export Plug-In . SVG Version: 6.00 Build 0)  -->
<!DOCTYPE svg PUBLIC "-//W3C//DTD SVG 1.1//EN" "http://www.w3.org/Graphics/SVG/1.1/DTD/svg11.dtd">
<svg version="1.1" id="Objects" xmlns="http://www.w3.org/2000/svg" xmlns:xlink="http://www.w3.org/1999/xlink" x="0px" y="0px"
	 width="113.878px" height="113.877px" viewBox="0 0 113.878 113.877" enable-background="new 0 0 113.878 113.877"
	 xml:space="preserve">
<g>
	<g>
		<path d="M113.878,106.869c0,3.871-3.137,7.008-7.008,7.008H7.008c-3.87,0-7.008-3.137-7.008-7.008V7.008C0,3.137,3.138,0,7.008,0
			h99.862c3.871,0,7.008,3.137,7.008,7.008V106.869z"/>
		<path fill="none" stroke="#FFFFFF" stroke-width="1.752" stroke-miterlimit="10" d="M110.375,103.797
			c0,3.633-2.945,6.578-6.577,6.578H10.08c-3.632,0-6.576-2.945-6.576-6.578V10.08c0-3.633,2.944-6.576,6.576-6.576h93.718
			c3.632,0,6.577,2.943,6.577,6.576V103.797z"/>
	</g>
	<g>
		<circle fill="#FFFFFF" cx="30.753" cy="23.896" r="7.087"/>
		<path fill="#FFFFFF" d="M21.148,60.141c0,1.744-1.414,3.158-3.159,3.158l0,0c-1.743,0-3.158-1.414-3.158-3.158V35.953
			c0-1.744,1.415-3.16,3.158-3.16l0,0c1.745,0,3.159,1.416,3.159,3.16V60.141z"/>
		<path fill="#FFFFFF" d="M18.178,38.727c-1.813,0-3.28-1.416-3.28-3.158l0,0c0-1.744,1.467-3.16,3.28-3.16h25.133
			c1.813,0,3.28,1.416,3.28,3.16l0,0c0,1.742-1.467,3.158-3.28,3.158H18.178z"/>
		<path fill="#FFFFFF" d="M46.623,60.141c0,1.744-1.415,3.158-3.158,3.158l0,0c-1.745,0-3.16-1.414-3.16-3.158V35.953
			c0-1.744,1.415-3.16,3.16-3.16l0,0c1.743,0,3.158,1.416,3.158,3.16V60.141z"/>
		<path fill="#FFFFFF" d="M29.388,92.377c0,2.074-1.528,3.756-3.414,3.756l0,0c-1.886,0-3.415-1.682-3.415-3.756V63.615
			c0-2.074,1.529-3.756,3.415-3.756l0,0c1.886,0,3.414,1.682,3.414,3.756V92.377z"/>
		<path fill="#FFFFFF" d="M38.925,92.514c0,2.074-1.528,3.756-3.415,3.756l0,0c-1.885,0-3.412-1.682-3.412-3.756V63.752
			c0-2.074,1.527-3.756,3.412-3.756l0,0c1.887,0,3.415,1.682,3.415,3.756V92.514z"/>
		<rect x="22.586" y="37.828" fill="#FFFFFF" width="16.333" height="26.02"/>
	</g>
	<rect x="55.377" y="15.326" fill="#FFFFFF" width="3.287" height="84.971"/>
	<g>
		<circle fill="#FFFFFF" cx="82.836" cy="23.896" r="7.087"/>
		<path fill="#FFFFFF" d="M70.091,59.941c-0.424,1.689-2.141,2.717-3.833,2.293l0,0c-1.691-0.426-2.719-2.141-2.294-3.832
			l5.887-23.463c0.424-1.691,2.141-2.719,3.833-2.295l0,0c1.691,0.426,2.721,2.143,2.296,3.834L70.091,59.941z"/>
		<path fill="#FFFFFF" d="M72.854,38.727c-1.457,0-2.639-1.416-2.639-3.158l0,0c0-1.744,1.182-3.16,2.639-3.16h20.215
			c1.456,0,2.638,1.416,2.638,3.16l0,0c0,1.742-1.182,3.158-2.638,3.158H72.854z"/>
		<path fill="#FFFFFF" d="M101.117,58.58c0.371,1.703-0.708,3.389-2.411,3.76l0,0c-1.704,0.373-3.389-0.707-3.762-2.408
			l-5.171-23.631c-0.372-1.705,0.706-3.389,2.411-3.762l0,0c1.704-0.373,3.388,0.707,3.761,2.41L101.117,58.58z"/>
		<path fill="#FFFFFF" d="M81.469,92.377c0,2.074-1.527,3.756-3.413,3.756l0,0c-1.886,0-3.414-1.682-3.414-3.756V63.615
			c0-2.074,1.528-3.756,3.414-3.756l0,0c1.886,0,3.413,1.682,3.413,3.756V92.377z"/>
		<path fill="#FFFFFF" d="M91.008,92.514c0,2.074-1.53,3.756-3.414,3.756l0,0c-1.886,0-3.414-1.682-3.414-3.756V63.752
			c0-2.074,1.528-3.756,3.414-3.756l0,0c1.884,0,3.414,1.682,3.414,3.756V92.514z"/>
		<polygon fill="#FFFFFF" points="77.354,38.188 69.232,72.58 96.689,72.58 88.471,38.312 		"/>
	</g>
</g>
</svg>
