<?xml version="1.0" encoding="utf-8"?>
<!-- Generator: Adobe Illustrator 17.0.0, SVG Export Plug-In . SVG Version: 6.00 Build 0)  -->
<!DOCTYPE svg PUBLIC "-//W3C//DTD SVG 1.1//EN" "http://www.w3.org/Graphics/SVG/1.1/DTD/svg11.dtd">
<svg version="1.1" id="图层_1" xmlns:ev="http://www.w3.org/2001/xml-events"
	 xmlns="http://www.w3.org/2000/svg" xmlns:xlink="http://www.w3.org/1999/xlink" x="0px" y="0px" width="200px" height="200px"
	 viewBox="0 0 200 200" enable-background="new 0 0 200 200" xml:space="preserve">
<path fill="#08A1EF" d="M192,200v-3h2.173l-3.36-3.36l2.827-2.827l3.36,3.36V192h3v8H192z M197,176h3v8h-3V176z M197,160h3v8h-3V160
	z M197,144h3v8h-3V144z M197,128h3v8h-3V128z M197,112h3v8h-3V112z M197,102h-5v-3h5v-3h3v8h-3V102z M197,80h3v8h-3V80z M197,64h3v8
	h-3V64z M197,48h3v8h-3V48z M197,32h3v8h-3V32z M197,16h3v8h-3V16z M197,5.827l-3.36,3.36l-2.827-2.827l3.36-3.36H192V0h8v8h-3
	V5.827z M178.092,180.919l2.827-2.827l6.36,6.36l-2.827,2.827L178.092,180.919z M178.092,19.081l6.36-6.36l2.827,2.827l-6.36,6.36
	L178.092,19.081z M176,0h8v3h-8V0z M165.371,168.198l2.827-2.827l6.36,6.36l-2.827,2.827L165.371,168.198z M165.371,31.802
	l6.36-6.36l2.827,2.827l-6.36,6.36L165.371,31.802z M160,0h8v3h-8V0z M155.477,47.35l-2.827-2.827l6.361-6.36l2.826,2.826
	L155.477,47.35z M144,99h8v3h-8V99z M144,0h8v3h-8V0z M149.117,53.71l-6.361,6.361l-2.827-2.827l6.361-6.361L149.117,53.71z
	 M127.208,130.035l2.827-2.827l6.361,6.361l-2.827,2.827L127.208,130.035z M136,102h-8v-3h8V102z M127.208,69.965l6.361-6.361
	l2.827,2.827l-6.361,6.361L127.208,69.965z M128,0h8v3h-8V0z M114.488,117.314l2.826-2.826l6.361,6.36l-2.827,2.827L114.488,117.314
	z M114.488,82.686l6.36-6.361l2.827,2.827l-6.361,6.36L114.488,82.686z M112,0h8v3h-8V0z M120,102h-8v-3h8V102z M101.767,104.594
	l2.827-2.827l6.36,6.36l-2.827,2.827L101.767,104.594z M101.767,95.406l6.36-6.36l2.827,2.827l-6.36,6.36L101.767,95.406z M102,8h-3
	V3h-3V0h8v3h-2V8z M95.406,98.233l-6.36-6.36l2.827-2.827l6.36,6.36L95.406,98.233z M80,99h8v3h-8V99z M80,0h8v3h-8V0z
	 M82.686,85.512l-6.361-6.36l2.827-2.827l6.36,6.361L82.686,85.512z M63.604,133.569l6.361-6.361l2.827,2.827l-6.361,6.361
	L63.604,133.569z M72,102h-8v-3h8V102z M63.604,66.431l2.827-2.827l6.361,6.361l-2.827,2.827L63.604,66.431z M64,0h8v3h-8V0z
	 M50.883,146.29l6.361-6.361l2.827,2.827l-6.361,6.361L50.883,146.29z M50.883,53.71l2.827-2.827l6.361,6.361l-2.827,2.827
	L50.883,53.71z M48,0h8v3h-8V0z M56,102h-8v-3h8V102z M38.163,159.011l6.36-6.361l2.827,2.827l-6.361,6.36L38.163,159.011z
	 M38.163,40.989l2.826-2.826l6.361,6.36l-2.827,2.827L38.163,40.989z M32,0h8v3h-8V0z M31.802,34.629l-6.36-6.36l2.827-2.827
	l6.36,6.36L31.802,34.629z M16,197h8v3h-8V197z M16,0h8v3h-8V0z M19.081,21.908l-6.36-6.36l2.827-2.827l6.36,6.36L19.081,21.908z
	 M8,197v3H0v-8h3v2.173l3.36-3.36l2.827,2.827L5.827,197H8z M6.36,9.187L3,5.827V8H0V0h8v3H5.827l3.36,3.36L6.36,9.187z M3,24H0v-8
	h3V24z M3,40H0v-8h3V40z M3,56H0v-8h3V56z M3,72H0v-8h3V72z M3,88H0v-8h3V88z M3,99h5v3H3v2H0v-8h3V99z M3,120H0v-8h3V120z M3,136H0
	v-8h3V136z M3,152H0v-8h3V152z M3,168H0v-8h3V168z M3,184H0v-8h3V184z M16,99h8v3h-8V99z M21.908,180.919l-6.36,6.36l-2.827-2.827
	l6.36-6.36L21.908,180.919z M40,99v3h-8v-3H40z M34.629,168.198l-6.36,6.36l-2.827-2.827l6.36-6.36L34.629,168.198z M40,200h-8v-3h8
	V200z M56,200h-8v-3h8V200z M72,200h-8v-3h8V200z M85.512,117.314l-6.36,6.361l-2.827-2.827l6.361-6.36L85.512,117.314z M88,200h-8
	v-3h8V200z M98.233,104.594l-6.36,6.36l-2.827-2.827l6.36-6.36L98.233,104.594z M102,184h-3v-8h3V184z M102,168h-3v-8h3V168z
	 M102,152h-3v-8h3V152z M99,112h3v8h-3V112z M102,136h-3v-8h3V136z M102,88h-3v-8h3V88z M102,72h-3v-8h3V72z M102,56h-3v-8h3V56z
	 M99,16h3v8h-3V16z M102,40h-3v-8h3V40z M99,104v-2h-3v-3h3v-3h3v3h2v3h-2v2H99z M99,192h3v5h2v3h-8v-3h3V192z M120,200h-8v-3h8V200
	z M136,200h-8v-3h8V200z M149.117,146.29l-2.827,2.827l-6.361-6.361l2.827-2.827L149.117,146.29z M152,200h-8v-3h8V200z M168,99v3
	h-8v-3H168z M161.837,159.011l-2.826,2.826l-6.361-6.36l2.827-2.827L161.837,159.011z M168,200h-8v-3h8V200z M184,102h-8v-3h8V102z
	 M184,200h-8v-3h8V200z"/>
</svg>
