<?xml version="1.0" encoding="utf-8"?>
<!-- Generator: Adobe Illustrator 16.0.0, SVG Export Plug-In . SVG Version: 6.00 Build 0)  -->
<!DOCTYPE svg PUBLIC "-//W3C//DTD SVG 1.1//EN" "http://www.w3.org/Graphics/SVG/1.1/DTD/svg11.dtd">
<svg version="1.1" id="eqxiu" xmlns="http://www.w3.org/2000/svg" xmlns:xlink="http://www.w3.org/1999/xlink" x="0px" y="0px"
	 width="596.412px" height="310.105px" viewBox="0 0 596.412 310.105" enable-background="new 0 0 596.412 310.105"
	 xml:space="preserve">
<path id="XMLID_1_" fill="#FF394C" d="M572.051,40.227c-9.064-13.599-24.931-21.152-42.305-19.643
	c-12.843,0.755-25.687,8.311-37.018,22.663c-29.462-32.482-56.656-39.282-83.098-20.396c-46.081,24.174-84.607,23.418-111.805-1.512
	l-0.755-0.755l-0.756,0.755c-33.239,26.439-68.744,26.439-108.026,0.757c-32.481-17.375-65.723-9.821-89.896,21.151
	c-7.557-11.332-18.888-18.887-33.239-20.396c-16.619-1.512-33.239,4.532-43.062,16.619c-6.799,11.332-14.354,30.217,8.312,62.7
	c6.799,9.064,9.821,17.375,8.31,24.93c-1.511,8.31-7.554,15.863-18.13,23.418l-1.511,0.756l0.755,1.511
	c21.152,21.907,24.174,40.793,9.065,58.168c-17.375,22.662-17.375,39.283,0,64.969l0,0c24.93,15.861,48.348,12.086,71.011-12.088
	c13.598,14.354,30.217,28.705,52.88,28.705c10.576,0,21.908-3.02,34.75-9.817c47.593-24.933,83.098-23.421,107.271,5.286
	l0.756,1.513l0.755-1.513c22.662-27.194,55.146-30.219,99.717-9.819c38.526,21.151,71.012,16.619,95.938-12.842
	c13.6,14.354,33.995,21.149,51.37,18.129c12.842-2.267,22.663-10.576,27.95-23.418c7.555-16.619,4.532-33.238-10.575-51.369
	c-12.087-17.375-7.556-35.506,13.599-54.392l1.511-0.756l-1.511-0.756c-12.087-8.31-18.132-17.375-19.643-27.194
	c-1.512-12.842,3.776-27.195,18.131-44.57C580.36,67.422,579.605,53.069,572.051,40.227z M553.164,124.835
	c1.512,10.575,7.556,19.643,18.887,27.95c-20.396,19.642-24.931,38.527-12.843,56.658c14.354,18.131,18.131,33.238,10.575,49.104
	c-4.531,11.332-13.599,19.642-25.686,21.906c-16.618,3.021-36.261-3.775-49.857-18.129l-0.755-0.756l-0.756,1.51
	c-24.93,29.463-56.657,33.994-93.675,13.6c-45.325-21.151-78.563-18.131-101.981,9.064c-25.685-28.707-61.945-30.217-109.538-5.289
	c-42.304,21.152-65.723,2.269-86.119-19.641l-0.755-0.756l-0.756,0.756c-21.152,23.418-44.57,27.951-67.989,12.842
	c-16.619-23.418-16.619-40.037,0-61.189c15.864-18.131,13.6-37.771-7.554-60.434c10.576-7.555,16.619-15.864,18.13-24.174
	c1.511-8.311-1.511-17.375-9.062-26.439c-16.62-24.175-18.889-42.305-8.312-59.68c9.821-11.332,24.93-16.62,40.794-15.108
	c14.354,1.512,25.687,9.064,31.729,21.151l0.756,1.512l1.511-1.512c24.174-31.728,55.902-39.282,87.63-22.663
	c40.038,25.687,75.543,25.687,110.293,0c19.643,18.131,55.902,32.483,114.07,1.512c25.686-18.13,52.125-10.575,80.831,21.151
	l0.756,1.512l0.755-1.512c12.087-14.354,23.419-21.907,36.262-23.418c16.618-1.511,30.973,5.288,39.281,18.13
	c7.556,11.332,8.311,24.93,1.512,36.262C556.942,96.128,550.898,111.991,553.164,124.835z M293.296,7.742
	c2.269-2.266,5.288-2.266,7.556,0c2.267,2.268,2.267,5.288,0,7.556c-2.268,2.267-5.287,2.267-7.556,0
	C291.785,13.031,291.785,9.253,293.296,7.742z M303.872,9.253c-2.267-2.267-2.267-5.288,0-7.555c2.268-2.266,5.287-2.266,7.555,0
	c2.268,2.268,2.268,5.288,0,7.555C309.159,11.52,305.383,11.52,303.872,9.253z M283.476,9.253c-2.269-2.267-2.269-5.288,0-7.555
	c2.266-2.266,5.286-2.266,7.554,0c2.267,2.268,2.267,5.288,0,7.555C288.763,11.52,284.987,11.52,283.476,9.253z M301.606,302.361
	c-2.269,2.268-5.288,2.268-7.557,0c-2.266-2.267-2.266-5.289,0-7.555c2.269-2.269,5.288-2.269,7.557,0
	C303.116,297.072,303.116,300.849,301.606,302.361z M291.785,300.849c2.266,2.268,2.266,5.289,0,7.555
	c-2.267,2.268-5.288,2.268-7.555,0c-2.269-2.266-2.269-5.287,0-7.555C286.497,299.34,289.519,299.34,291.785,300.849z
	 M312.181,300.849c2.267,2.268,2.267,5.289,0,7.555c-2.268,2.268-5.288,2.268-7.556,0c-2.266-2.266-2.266-5.287,0-7.555
	C306.138,299.34,309.915,299.34,312.181,300.849z M588.67,156.562c-2.267,2.268-5.287,2.268-7.555,0
	c-2.268-2.267-2.268-5.288,0-7.555s5.288-2.267,7.555,0C590.18,151.275,590.18,154.296,588.67,156.562z M593.957,158.83
	c2.268,2.267,2.268,5.287,0,7.555c-2.266,2.267-5.288,2.267-7.554,0c-2.268-2.268-2.268-5.288,0-7.555
	C588.67,157.318,592.447,157.318,593.957,158.83z M587.158,145.987c-2.267-2.268-2.267-5.288,0-7.555
	c2.268-2.268,5.288-2.268,7.556,0c2.267,2.267,2.267,5.287,0,7.555C592.447,148.254,588.67,148.253,587.158,145.987z
	 M14.541,155.052c-2.266,2.267-5.288,2.267-7.554,0c-2.267-2.268-2.267-5.287,0-7.556c2.266-2.267,5.288-2.267,7.554,0
	C16.808,149.764,16.808,152.785,14.541,155.052z M9.253,157.318c2.269,2.266,2.269,5.287,0,7.555c-2.266,2.269-5.287,2.269-7.554,0
	c-2.267-2.268-2.267-5.289,0-7.555C3.966,155.052,6.988,155.052,9.253,157.318z M1.699,144.476c-2.267-2.269-2.267-5.288,0-7.556
	c2.267-2.267,5.288-2.267,7.554,0c2.269,2.268,2.269,5.287,0,7.556C6.988,146.742,3.966,146.742,1.699,144.476z"/>
</svg>
