<?xml version="1.0" encoding="utf-8"?>
<!-- Generator: Adobe Illustrator 16.0.0, SVG Export Plug-In . SVG Version: 6.00 Build 0)  -->
<!DOCTYPE svg PUBLIC "-//W3C//DTD SVG 1.1//EN" "http://www.w3.org/Graphics/SVG/1.1/DTD/svg11.dtd">
<svg version="1.1" id="eqxiu" xmlns="http://www.w3.org/2000/svg" xmlns:xlink="http://www.w3.org/1999/xlink" x="0px" y="0px"
	 width="132.543px" height="138.092px" viewBox="0 0 132.543 138.092" enable-background="new 0 0 132.543 138.092"
	 xml:space="preserve">
<path opacity="0.77" enable-background="new    " d="M130.047,60.396c0-0.316-0.031-0.656-0.066-1.002
	c-1.404-32.316-29.383-58.107-63.707-58.107C31.053,1.287,2.5,28.441,2.5,61.939c0,0.027,0.002,0.053,0.002,0.08
	c0,0.021-0.002,0.041-0.002,0.062c0,0.26,0.002,10.377,0.006,10.635c0.438,33.141,28.82,59.875,63.768,59.875
	c34.775,0,63.051-26.473,63.76-59.387c0.006-0.332,0.011-7.885,0.013-11.238c0-0.01,0.001-0.02,0.001-0.027
	c0-0.01-0.001-0.018-0.001-0.027C130.047,61.057,130.047,60.482,130.047,60.396z M66.273,90.745c-10.92,0-19.773-8.42-19.773-18.807
	c0-10.386,8.854-18.806,19.773-18.806c10.92,0,19.773,8.42,19.773,18.806C86.046,82.325,77.193,90.745,66.273,90.745z"/>
<path opacity="0.22" enable-background="new    " d="M132.547,63.396c0-0.375-0.031-0.777-0.072-1.186
	C130.96,28.321,101.896,1.786,66.274,1.786C29.729,1.787,0,30.117,0,64.939c0,0.014,0,0.043,0.001,0.07C0,65.035,0,65.062,0,65.082
	c0,0.102,0.002,10.383,0.006,10.668c0.454,34.375,30.181,62.342,66.268,62.342c17.438,0,33.902-6.399,46.36-18.022
	c12.474-11.637,19.541-27.195,19.899-43.82c0.001-0.094,0.006-0.375,0.013-11.238c0.001-0.025,0.001-0.051,0.001-0.07
	c0-0.021,0-0.045-0.001-0.068L132.547,63.396z M66.273,91.245C56.749,91.245,49,83.931,49,74.938
	c0-8.991,7.749-16.306,17.273-16.306s17.273,7.314,17.273,16.306C83.546,83.931,75.798,91.245,66.273,91.245z"/>
<path fill="#C78017" d="M66.273,8.287C31.053,8.287,2.5,34.109,2.5,59.082c0,0.26,0.002,10.377,0.006,10.635
	c0.438,33.142,28.82,59.875,63.768,59.875c34.775,0,63.051-26.473,63.76-59.387c0.008-0.42,0.014-12.385,0.014-12.809
	C130.047,45.037,101.494,8.287,66.273,8.287z M66.273,87.745c-10.92,0-19.773-8.42-19.773-18.806s8.854-18.806,19.773-18.806
	c10.92,0,19.773,8.42,19.773,18.806S77.193,87.745,66.273,87.745z"/>
<path fill="#FFBA57" d="M66.273-1.713C31.053-1.713,2.5,25.441,2.5,58.939c0,33.498,28.553,60.652,63.773,60.652
	c35.22,0,63.773-27.154,63.773-60.652C130.046,25.441,101.494-1.713,66.273-1.713z M66.273,77.745
	c-10.92,0-19.773-8.42-19.773-18.806s8.854-18.806,19.773-18.806c10.92,0,19.773,8.42,19.773,18.806S77.193,77.745,66.273,77.745z"
	/>
<path fill="#FF5047" d="M128.09,58.576c0-4.195-2.35-10.208-7.332-16.388c-2.095-2.598-3.181-5.01-3.876-8.693
	c-0.942-4.995-2.396-10.769-5.132-14.289c-0.686-0.881-2.883-2.977-3.807-3.63c-3.688-2.611-9.74-3.997-14.979-4.897
	c-3.861-0.662-6.39-1.698-9.111-3.697C78.71,3.21,73.677,1.018,69.621,0.276C68.568,0.082,67.214,0,66.273,0
	c-0.842,0-2.275,0.081-3.317,0.27c-4.062,0.737-9.107,2.93-14.261,6.711c-2.724,1.999-5.252,3.035-9.113,3.697
	c-5.238,0.9-11.289,2.286-14.979,4.897c-0.923,0.653-3.12,2.749-3.806,3.63c-2.738,3.521-4.19,9.294-5.133,14.289
	c-0.695,3.684-1.78,6.096-3.876,8.693c-4.98,6.18-7.331,12.192-7.331,16.388c0,0.128,0.008,0.241,0.013,0.363
	c-0.005,0.121-0.013,0.235-0.013,0.361c0,4.197,2.351,10.21,7.331,16.388c2.096,2.6,3.181,5.012,3.876,8.695
	c0.942,4.995,2.395,10.77,5.133,14.289c0.686,0.881,2.883,2.977,3.806,3.63c3.689,2.611,9.74,3.997,14.979,4.896
	c3.861,0.663,6.39,1.698,9.113,3.696c5.153,3.781,10.198,5.976,14.261,6.713c1.042,0.188,2.476,0.271,3.317,0.271
	c0.94,0,2.295-0.083,3.348-0.274c4.057-0.744,9.09-2.935,14.232-6.707c2.723-1.998,5.25-3.035,9.111-3.697
	c5.237-0.899,11.289-2.285,14.979-4.896c0.924-0.654,3.121-2.749,3.807-3.63c2.736-3.521,4.189-9.294,5.132-14.289
	c0.695-3.685,1.781-6.097,3.876-8.694c4.982-6.179,7.332-12.19,7.332-16.389c0-0.126-0.008-0.24-0.013-0.361
	C128.082,58.817,128.09,58.704,128.09,58.576z M89.348,67.576c-0.885,2.139-2.193,3.848-3.398,5.139
	c-0.356,0.382-1.598,1.394-2.773,2.513c-1.096,1.045-2.13,2.198-2.518,2.525c-1.344,1.132-3.111,2.352-5.311,3.18
	c-2.266,0.851-3.92,0.992-6.216,1.008c-0.306,0.002-1.274-0.074-2.769-0.074c-1.472,0-2.714,0.041-3.104,0.037
	c-2.196-0.024-3.878-0.15-6.059-0.971c-2.2-0.828-3.968-2.048-5.311-3.18c-0.389-0.327-1.422-1.48-2.519-2.525
	c-1.175-1.119-2.416-2.131-2.772-2.513c-1.205-1.291-2.515-3-3.398-5.139c-1.142-2.762-1.075-5.224-1.057-8.218
	c0-0.007,0.005-0.013,0.005-0.02c0-0.138-0.002-0.266-0.003-0.399c0.001-0.135,0.003-0.264,0.003-0.399
	c0-0.008-0.005-0.014-0.005-0.02c-0.019-2.994-0.085-5.455,1.057-8.218c0.884-2.139,2.193-3.848,3.398-5.14
	c0.356-0.38,1.598-1.393,2.772-2.511c1.097-1.046,2.13-2.199,2.519-2.527c1.343-1.132,3.11-2.352,5.311-3.179
	c2.181-0.82,3.862-0.945,6.059-0.971c0.39-0.005,1.632,0.038,3.104,0.038c1.495,0,2.463-0.077,2.769-0.075
	c2.296,0.016,3.95,0.157,6.216,1.008c2.198,0.827,3.967,2.047,5.311,3.179c0.388,0.328,1.422,1.481,2.518,2.527
	c1.176,1.118,2.417,2.131,2.773,2.511c1.205,1.292,2.515,3.001,3.398,5.14c1.141,2.763,1.073,5.224,1.057,8.218
	c0,0.006-0.004,0.012-0.004,0.02c0,0.136,0,0.265,0.002,0.399C90.4,59.073,90.4,59.201,90.4,59.338c0,0.007,0.004,0.013,0.004,0.02
	C90.421,62.353,90.486,64.814,89.348,67.576z"/>
<path fill="#C70C00" d="M34.258,49.929c1.304,0,2.361-1.058,2.361-2.361v-3.594c0-1.305-1.058-2.361-2.361-2.361h-7.564
	c-1.304,0-2.36,1.057-2.36,2.361v3.594c0,1.304,1.057,2.361,2.36,2.361H34.258z M98.488,36.132h7.564c1.303,0,2.36-1.058,2.36-2.361
	v-3.594c0-1.305-1.058-2.361-2.36-2.361h-7.564c-1.305,0-2.36,1.057-2.36,2.361v3.594C96.128,35.074,97.186,36.132,98.488,36.132z
	 M18.178,56.246c-0.97-0.872-2.462-0.792-3.333,0.178l-1.249,0.657c-0.406,0.451-1.759,0.031-1.76,0.594
	c0,0.037,0.001,3.073,0.002,3.109c0.029,0.609,0.291,1.207,0.781,1.646l5.626,5.057c0.969,0.871,2.462,0.793,3.334-0.178
	l2.402-2.672c0.423-0.471,0.622-1.063,0.604-1.648c-0.001-0.027-0.003-2.977-0.004-3.002c-0.038-0.596-1.868-0.148-2.346-0.578
	L18.178,56.246z M81.098,33.25c0.971,0.872,2.463,0.792,3.334-0.177l2.403-2.674c0.36-0.4,0.558-0.891,0.599-1.39
	c0.002-0.037,0.004-3.118,0.006-3.155c0.021-0.672-1.896-0.277-2.437-0.762l-3.972-3.084c-0.971-0.871-2.463-0.792-3.334,0.178
	l-1.57,1.079c-0.38,0.423-1.412-0.375-1.436,0.151c-0.002,0.045-0.002,3.003-0.002,3.047c0.006,0.637,0.271,1.27,0.781,1.729
	L81.098,33.25z M34.893,72.847l-1.632-0.604c-1.071-0.744-2.542-0.479-3.286,0.592l-3.238,3.528
	c-0.273,0.395-1.49,0.603-1.502,1.048c-0.001,0.032-0.001,2.983,0,3.016c0.011,0.734,0.364,1.453,1.013,1.904l2.951,2.053
	c1.07,0.744,2.542,0.479,3.286-0.592l4.317-6.211c0.279-0.401,0.417-0.858,0.423-1.313c0.001-0.024,0.001-3.064,0-3.091
	C37.211,72.442,35.539,73.296,34.893,72.847z M57.163,20.243l2.95,2.052c1.071,0.744,2.543,0.479,3.287-0.591l4.317-6.211
	c0.271-0.391,0.408-0.835,0.422-1.277c0.002-0.051,0.002-3.127,0-3.178c-0.025-0.717-0.949,0.16-1.584-0.281l-2.379-0.602
	c-1.07-0.744-2.541-0.48-3.286,0.591l-3.102,3.774c-0.259,0.372-1.612,0.359-1.635,0.783c-0.002,0.031-0.003,2.937-0.004,2.967
	C56.14,19.028,56.493,19.778,57.163,20.243z M117.296,61.087l-1.509-0.343c-1.07-0.744-2.541-0.479-3.286,0.591l-2.972,4.275
	c-0.271,0.39-1.754-0.209-1.768,0.232c-0.002,0.039-0.002,3.058,0,3.097c0.014,0.73,0.366,1.444,1.012,1.893l2.951,2.052
	c1.07,0.744,2.543,0.479,3.287-0.592l4.316-6.211c0.279-0.4,0.416-0.858,0.423-1.313c0-0.018,0-3.108,0-3.126
	C119.745,60.901,117.95,61.54,117.296,61.087z M43.3,90.983c-0.564-1.174-1.976-1.668-3.15-1.104l-2.132,0.186
	c-0.845,0.406-2.444-0.362-2.444,0.516c0,0.039,0.001,3.062,0.003,3.102c0.015,0.305,0.09,0.613,0.23,0.908l3.28,6.816
	c0.565,1.174,1.977,1.668,3.151,1.104l3.238-1.559c0.842-0.405,1.334-1.245,1.338-2.121c0-0.025-0.001-2.943-0.002-2.969
	c-0.009-0.321-1.37-0.426-1.518-0.732L43.3,90.983z M103.086,85.108c-0.564-1.176-1.977-1.67-3.15-1.104l-2.199-0.032
	c-0.84,0.403-2.369-0.154-2.377,0.719c0,0.024,0,3.037,0.002,3.062c0.008,0.324,0.084,0.649,0.232,0.961l3.28,6.815
	c0.563,1.175,1.976,1.67,3.149,1.104l3.24-1.559c0.86-0.414,1.355-1.284,1.336-2.183c0-0.025-0.002-2.912-0.004-2.938
	c-0.017-0.301-2.003-0.898-2.142-1.188L103.086,85.108z M46.109,23.532c-0.564-1.174-1.976-1.668-3.15-1.104l-1.422,0.162
	c-0.837,0.403-3.146-0.37-3.154,0.5c0,0.037,0,3.076,0.002,3.113c0.012,0.314,0.087,0.633,0.232,0.935l3.28,6.816
	c0.564,1.175,1.976,1.669,3.15,1.104l3.239-1.558c0.835-0.402,1.326-1.232,1.337-2.1c0.001-0.029,0.001-2.951,0-2.98
	c-0.009-0.324-1.911-1.254-2.061-1.566L46.109,23.532z M106.658,48.394l-1.783-3.398c-0.564-1.176-1.977-1.67-3.15-1.104
	l-2.604-0.25c-0.835,0.401-1.962,0.078-1.973,0.947c-0.002,0.032,0,3.025,0,3.059c0.01,0.32,0.084,0.645,0.232,0.953l3.28,6.816
	c0.565,1.174,1.978,1.669,3.151,1.104l3.237-1.559c0.845-0.406,1.337-1.247,1.339-2.125c0-0.033-0.002-3.025-0.002-3.059
	C108.375,49.466,106.803,48.693,106.658,48.394z M83.955,92.769l-4.201-1.035c-1.219-0.463-2.582,0.15-3.044,1.371l-0.552,0.728
	c-0.102,0.267-0.872,0.217-0.876,0.483c-0.001,0.031-0.001,3.018,0,3.049c0.024,0.929,0.602,1.796,1.524,2.146l7.072,2.683
	c1.219,0.461,2.582-0.152,3.045-1.371l1.273-3.36c0.111-0.294,0.16-0.597,0.152-0.894c0-0.025-0.002-3.101-0.002-3.125
	C88.296,92.538,84.854,93.11,83.955,92.769z M65.206,101.431c-0.965-0.878-2.457-0.808-3.335,0.156l-3.463,3.291
	c-0.416,0.456-2.246,0.335-2.243,0.906c0,0.031,0.001,3.062,0.003,3.094c0.027,0.605,0.286,1.2,0.77,1.641l2.657,2.418
	c0.965,0.877,2.459,0.808,3.336-0.158l5.09-5.594c0.404-0.443,0.607-1,0.615-1.557c0-0.037,0-2.979-0.002-3.016
	c-0.02-0.615-1.501-0.006-1.992-0.453L65.206,101.431z"/>
<path fill="#EAECEC" d="M34.258,46.929c1.304,0,2.361-1.058,2.361-2.361v-3.594c0-1.305-1.058-2.361-2.361-2.361h-7.564
	c-1.304,0-2.36,1.057-2.36,2.361v3.594c0,1.304,1.057,2.361,2.36,2.361H34.258z M98.488,33.132h7.564c1.303,0,2.36-1.058,2.36-2.361
	v-3.594c0-1.305-1.058-2.361-2.36-2.361h-7.564c-1.305,0-2.36,1.057-2.36,2.361v3.594C96.128,32.074,97.186,33.132,98.488,33.132z
	 M18.178,53.246c-0.97-0.872-2.462-0.792-3.333,0.178l-2.403,2.673c-0.871,0.97-0.792,2.463,0.178,3.334l5.626,5.057
	c0.969,0.871,2.462,0.793,3.334-0.178l2.402-2.672c0.872-0.971,0.792-2.463-0.178-3.335L18.178,53.246z M81.098,30.25
	c0.971,0.872,2.463,0.792,3.334-0.177l2.403-2.674c0.871-0.969,0.791-2.463-0.179-3.334l-5.625-5.057
	c-0.971-0.871-2.463-0.792-3.334,0.178l-2.402,2.673c-0.872,0.97-0.793,2.462,0.178,3.334L81.098,30.25z M36.211,71.294l-2.95-2.053
	c-1.071-0.744-2.542-0.479-3.286,0.592l-4.318,6.211c-0.744,1.068-0.479,2.541,0.591,3.285l2.951,2.053
	c1.07,0.744,2.542,0.479,3.286-0.592l4.317-6.211C37.546,73.509,37.282,72.038,36.211,71.294z M57.163,17.243l2.95,2.052
	c1.071,0.744,2.543,0.479,3.287-0.591l4.317-6.211c0.744-1.07,0.479-2.542-0.591-3.286l-2.951-2.052
	c-1.07-0.744-2.541-0.48-3.286,0.591l-4.317,6.211C55.828,15.026,56.092,16.499,57.163,17.243z M118.738,59.796l-2.951-2.052
	c-1.07-0.744-2.541-0.479-3.286,0.591l-4.317,6.211c-0.744,1.07-0.479,2.542,0.592,3.286l2.949,2.052
	c1.071,0.744,2.543,0.479,3.287-0.592l4.317-6.211C120.072,62.011,119.809,60.54,118.738,59.796z M43.3,87.983
	c-0.564-1.174-1.976-1.668-3.15-1.104l-3.239,1.559c-1.175,0.565-1.669,1.977-1.104,3.151l3.28,6.816
	c0.565,1.174,1.977,1.668,3.151,1.104l3.238-1.559c1.175-0.566,1.669-1.978,1.104-3.152L43.3,87.983z M103.086,82.108
	c-0.564-1.176-1.977-1.67-3.15-1.104l-3.238,1.56c-1.174,0.563-1.668,1.975-1.104,3.149l3.28,6.815
	c0.563,1.175,1.976,1.67,3.149,1.104l3.24-1.559c1.174-0.565,1.668-1.978,1.104-3.151L103.086,82.108z M46.109,20.532
	c-0.564-1.174-1.976-1.668-3.15-1.104l-3.238,1.559c-1.175,0.566-1.669,1.977-1.104,3.151l3.28,6.816
	c0.564,1.175,1.976,1.669,3.15,1.104l3.239-1.558c1.175-0.566,1.668-1.978,1.104-3.152L46.109,20.532z M108.154,48.811l-3.279-6.815
	c-0.564-1.176-1.977-1.67-3.15-1.104l-3.238,1.559c-1.176,0.564-1.67,1.975-1.104,3.15l3.28,6.816
	c0.564,1.174,1.977,1.669,3.15,1.104l3.238-1.559C108.227,51.396,108.721,49.985,108.154,48.811z M86.827,91.414l-7.073-2.681
	c-1.219-0.463-2.582,0.149-3.044,1.369l-1.274,3.36c-0.461,1.22,0.151,2.582,1.371,3.045l7.073,2.683
	c1.22,0.461,2.582-0.152,3.045-1.371l1.273-3.36C88.66,93.239,88.046,91.876,86.827,91.414z M65.206,98.431
	c-0.965-0.878-2.457-0.808-3.335,0.156l-5.091,5.596c-0.878,0.965-0.808,2.457,0.157,3.336l2.657,2.418
	c0.965,0.877,2.459,0.808,3.336-0.158l5.091-5.594c0.877-0.965,0.807-2.457-0.158-3.336L65.206,98.431z"/>
</svg>
