<?xml version="1.0" encoding="utf-8"?>
<!-- Generator: Adobe Illustrator 16.0.0, SVG Export Plug-In . SVG Version: 6.00 Build 0)  -->
<!DOCTYPE svg PUBLIC "-//W3C//DTD SVG 1.1//EN" "http://www.w3.org/Graphics/SVG/1.1/DTD/svg11.dtd">
<svg version="1.1" id="eqxiu.com" xmlns="http://www.w3.org/2000/svg" xmlns:xlink="http://www.w3.org/1999/xlink" x="0px" y="0px"
	 width="82.849px" height="87.334px" viewBox="0 0 82.849 87.334" enable-background="new 0 0 82.849 87.334" xml:space="preserve">
<path id="eqxiu.com_1_" fill-rule="evenodd" clip-rule="evenodd" fill="#10AD44" d="M29.648,30.48
	c1.349,3.066,0.464,7.243-0.52,10.143c-0.935-0.279-1.897-0.531-2.341-1.301c0.842-3.267-0.43-6.864-0.521-9.103
	c-0.729-1.662-3.249,0.067-3.381-2.08c-6.406-0.047-11.135,0.909-16.385,3.641C3.217,33.488,1.727,35.205,0,31.259
	c0.68-1.919,3.901-1.299,5.201-2.599c-1.375-1.051-1.304-3.55-1.3-5.983c1.04,0.001,1.561,0.52,2.6,0.52
	c1.539-0.803,1.996-2.686,4.162-2.86c-0.249,3.219-1.601,5.334-2.861,7.542c0.719-0.148,1.458-0.276,1.301-1.301
	c4.633,0.319,8.976-2.103,14.565-0.519c0.7,0.676-0.319,0.784-0.261,1.56c2.172,0.394,0.506-2.983,2.081-4.162
	c-1.007-0.728-2.387-1.081-2.34-2.86c4.411-1.81,7.354-2.895,12.224-4.682c-0.34-0.614-0.11-1.798-0.52-2.341
	c-2.347-0.091-4.276,0.233-5.203,1.561c-3.214,0.745-7.486,0.405-10.143,1.04c0.694-1.3,1.707-2.28,1.299-4.682
	c6.381,0.387,6.948-4.539,9.104-7.802c-0.006-1.38-1.102-1.672-0.78-3.38c1.968-1.312,5.414,2.081,5.723,0
	c0.869,2.994-2.146,6.49-2.862,9.622c2.855,1.917,3.508-2.448,5.982-2.6c2.706,1.891,3.299,6.889,0.521,9.102
	c0.301,1.26,1.639,1.482,1.561,3.122c-2.9,1.134-6.603,1.482-9.623,1.819c-0.499,1.669-1.143,3.193-1.822,4.683
	c2.869,0.325,6.913-1.114,10.663-1.041c2.52,0.048,6.23,0.184,7.283,1.82c2.315,3.599-1.982,6.39-2.601,9.623
	c-0.558,0.481-1.905,0.177-2.86,0.261c-0.061-2.694,0.159-3.497,0.26-5.982c-0.794-0.941-2.418-1.05-4.162-1.041
	c0.357,4.83,0.073,11.535-1.82,15.604c-0.795-0.188-0.948,0.267-1.562,0.26c-0.8-2.909-1.552-5.138-2.08-7.802
	c0.152-2.468,3.31-6.686-0.261-7.542c-0.121-0.554,0.372-0.495,0.78-0.52C31.515,28.359,30.297,30.105,29.648,30.48z M18.205,11.754
	c-1.415-0.738-4.137,0.664-5.201,0.259c1.786-0.869,2.664-3.994,1.041-5.46c-2.582-0.091-5.47-1.023-7.543-0.782
	c1.005,3.245,3.218,5.279,6.243,6.502c-2.724,0.969-6.277,2.159-8.843,1.821c-0.208,2.202,0.862,3.126,1.56,4.42
	C10.612,17.165,16.68,16.731,18.205,11.754z M19.766,21.376c-0.694-2.774-2.891-4.044-6.501-3.9
	c0.424,3.688-1.821,4.972-2.341,8.322C14.201,24.655,17.676,23.709,19.766,21.376z M22.626,41.404
	c1.459-3.759,0.016-7.212,0.78-11.185C18.197,26.352,18.861,41.791,22.626,41.404z M67.626,38.184
	c-0.609-1.278,0.414-1.923-0.498-4.244c2.203-1.788,7.764-0.219,9.232-2.744c0.078-3.775-5.855-2.389-9.98-2.495
	c-3.119,2.954-7.123,5.021-11.977,6.238c1.149-1.438,3.836-3.804,5.738-4.991c1.017-0.634,2.305-0.627,2.494-1.747
	c0.354-2.07-5.313-5.857-7.732-3.991c-0.837,0.724,0.023,0.646,0,1.746c-2.479,2.147-3.959,4.908-5.989,7.485
	c-1.365,1.73-2.946,3.644-2.745,5.987c0.611,0.472,1.209,0.953,1.996,1.247c1.232-1.732,2.664-1.29,4.74-1.496
	c2.838-0.283,5.201-3.095,7.734-2.745c0.884,2.202,0.284,4.653,0.5,7.734c-8.512,2.549-16.479,5.645-24.452,8.733
	c-0.786-0.047-0.32-1.344-1.248-1.248c-1.254,1.49-3.524,1.965-4.242,3.992c0.922,2.142,3.299,3.642,6.487,2.744
	c6.167-5.477,13.952-9.334,23.454-11.477c0.174,13.984-0.459,28.314,1.248,40.419c5.86-8.038,4.69-21.938,4.989-33.433
	c0.084-3.214-0.284-6.15,0.998-8.732c4.616-0.519,9.284-0.558,13.224,0.499c0.768-0.753,1.205-0.922,1.247-1.997
	C83.083,37.662,69.921,42.988,67.626,38.184z"/>
</svg>
