<?xml version="1.0" encoding="utf-8"?>
<!-- Generator: Adobe Illustrator 16.0.0, SVG Export Plug-In . SVG Version: 6.00 Build 0)  -->
<!DOCTYPE svg PUBLIC "-//W3C//DTD SVG 1.1//EN" "http://www.w3.org/Graphics/SVG/1.1/DTD/svg11.dtd">
<svg version="1.1" id="eqxiu.com" xmlns="http://www.w3.org/2000/svg" xmlns:xlink="http://www.w3.org/1999/xlink" x="0px" y="0px"
	 width="160px" height="160px" viewBox="0 0 160 160" enable-background="new 0 0 160 160" xml:space="preserve">
<path fill="#FFFFFF" d="M113,116l11.5,20L86,132.167l-4.5-3.833l-7,1.833L45,124.334l1-5.167l-11,4l-9.333-2.833l-1.38-10.39
	c-0.171-0.267,4.338-23.041,4.604-23.228l13.792-9.735l-6.533-1.44c-0.656-0.145,0.252-8.945,0.252-8.945s-2.942-1.196-2.8-1.879
	l4.587-22.143c0.124-0.596,3.105-0.715,3.105-0.715l0.535-2.46c0.072-0.333-2.513-1.986-2.376-2.668c0,0,1.852-8.542,2.143-8.728
	c0,0,7.4-4.626,7.639-4.626c0.085,0,0.17,0.009,0.255,0.026c0,0,80.659,16.719,80.842,17.006L139.167,51L124,105.667L113,116z"/>
<path fill="#040000" d="M61.435,63.972l-4.85-0.843l1.054-3.374l44.286,9.49v3.164l-8.013-1.477l1.265-1.898l-32.266-6.537
	L61.435,63.972z M126.061,105.631c-0.062,0.233-11.338,10.689-11.338,10.689l10.905,19.69c0.229,0.414-0.688,1.878-1.106,1.878
	c-0.049,0-0.097-0.002-0.146-0.009L86.1,133.451c-0.3-0.034-4.321-4.206-4.321-4.206s-6.54,2.337-6.764,2.295l-30.762-5.853
	c-0.375-0.071-1.078-1.385-0.928-1.737l1.093-2.576l-8.048,2.84c-0.242,0.086-11.348-2.817-11.348-2.817
	c-0.479-0.129-0.838-0.525-0.919-1.015l-1.739-10.438c-0.082-0.493,0.136-0.963,0.517-1.234l4.259-21.452
	c0.126-0.636,0.492-1.199,1.022-1.574l11.45-8.083l-3.734-0.823c-1.312-0.289-2.169-1.554-1.953-2.88l1.033-6.312
	c0,0-2.878-1.759-2.595-3.124l4.587-22.144c0.247-1.191,3.557-2.793,3.557-2.793s-2.568-1.678-2.295-3.042l1.582-7.909
	c0.135-0.676,0.541-1.268,1.123-1.638l6.959-4.429c0.409-0.26,0.881-0.396,1.359-0.396c0.17,0,0.341,0.017,0.509,0.052
	l80.032,16.449c0.434,0.089,10.577,11.039,10.577,11.039C140.621,49.967,126.061,105.631,126.061,105.631z M135.367,60.696
	l-6.501-6.715l-0.3,1.286c-0.197,0.85-0.806,1.498-1.566,1.788l7.325,7.567L135.367,60.696z M131.092,76.804l-5.667-5.854
	l-0.815,3.835l5.509,5.69L131.092,76.804z M129.55,82.616l-5.417-5.594l-0.662,3.113l5.288,5.462L129.55,82.616z M128.19,87.739
	l-5.196-5.367l-0.111,0.526c-0.248,1.169-1.28,2.005-2.476,2.005h-0.277l6.916,7.146L128.19,87.739z M126.498,94.115
	c-0.104-0.048-0.202-0.112-0.287-0.2l-7.134-7.37L118.38,90.5c0.021,0.019,0.048,0.026,0.067,0.047l7.062,7.294L126.498,94.115z
	 M124.951,99.944c-0.068-0.041-0.134-0.089-0.191-0.148l-7.061-7.293c0.087,0.707-0.127,1.428-0.606,1.975l-1.103,1.261
	c0.024,0.021,0.055,0.03,0.077,0.055l7.802,8.231L124.951,99.944z M122.701,105.552l-7.954-8.393l-2.085,2.383l7.718,8.143
	L122.701,105.552z M118.981,108.969l-7.575-7.992l-2.056,2.351l7.342,7.746L118.981,108.969z M131.661,74.661l0.561-2.115
	l-5.85-6.043l-0.471,2.209L131.661,74.661z M133.757,66.764l-6.104-6.306c-0.013,0.081-0.025,0.161-0.046,0.239l-0.759,3.568
	l5.942,6.139L133.757,66.764z M135.936,58.553l0.666-2.509l-6.624-6.842l-0.6,2.577L135.936,58.553z M131.405,43.062l-0.916,3.939
	l6.681,6.901l0.826-3.113L131.405,43.062z M40.692,36.979l85.41,17.715l3.163-13.603L49.233,24.642l-6.959,4.429L40.692,36.979z
	 M25.35,109.261l13.128,2.847L58.09,96.924l1.898,2.53l-9.648,6.802l-1.265,7.75l25.781,5.694l6.168-3.797l4.745,5.853l18.505,2.688
	l-5.693-12.653l16.607-18.979l-40.017-8.541l2.531-1.898l38.119,8.067l1.423-8.067h3.163l4.745-22.301h-2.688l0.949-3.954
	l-24.674-5.219v3.796h-4.112v-5.22l-24.042-4.903v4.903l-4.271-1.107v-4.271l-23.25-4.429l-0.791,3.638l-2.847-0.474L34.84,64.974
	l3.005,0.633l-1.423,8.699l9.332,2.056L29.62,87.75L25.35,109.261z M106.579,125.478c-0.076,0.172-4.138,1.258-4.138,1.258
	l6.854,6.853l6.102,0.706L106.579,125.478z M106.261,133.236l-6.96-6.957l-4.163-0.605l7.099,7.098L106.261,133.236z M99.201,132.42
	l-7.204-7.202l-4.441-0.646l7.353,7.351L99.201,132.42z M80.492,127.021l-4.904-4.902c-0.237,0.071-4.992-0.768-4.992-0.768
	l6.807,6.806L80.492,127.021z M58.977,118.785l-4.529-1.001l8.729,8.928l4.267,0.812C67.443,127.523,59.007,118.975,58.977,118.785z
	 M59.915,126.092l-8.853-9.055l-2.533-0.56c-1.312-0.29-2.168-1.555-1.952-2.88l0.852-5.22l-4.987,3.861l12.1,12.83L59.915,126.092z
	 M39.513,120.422l-6.328-6.872l-3.845-0.834l7.569,8.624L39.513,120.422z M26.464,119.163l7.863,2.112l-9.084-9.448L26.464,119.163z
	 M45.542,118.294l-4.608-4.888l-4.524,0.843l5.051,5.484L45.542,118.294z M46.267,123.495l5.096,0.97l-3.798-4.028L46.267,123.495z
	 M75.441,128.878l-8.29-8.288l-5.082-1.122c0,0,8.539,8.576,8.583,8.666L75.441,128.878z M91.873,131.572l-11.415-12.349
	l-3.146,1.936l5.746,5.745c0.001,0,0.001,0,0.001,0.001l0.004,0.003l3.346,3.346C86.558,130.402,91.873,131.572,91.873,131.572z
	 M122.223,135.084l-0.821-1.481l-18.599-18.595l3.281,7.291l12.349,12.347L122.223,135.084z M112.026,116.675
	c-0.033-0.061-0.061-0.123-0.084-0.187l-7.336-7.739l-2.514,2.872c0.007,0.006,0.016,0.009,0.021,0.015l15.957,15.952
	L112.026,116.675z M115.294,112.358l-7.2-7.596l-2.231,2.551l6.946,7.329L115.294,112.358z"/>
</svg>
