<?xml version="1.0" encoding="utf-8"?>
<!-- Generator: Adobe Illustrator 17.0.0, SVG Export Plug-In . SVG Version: 6.00 Build 0)  -->
<!DOCTYPE svg PUBLIC "-//W3C//DTD SVG 1.1//EN" "http://www.w3.org/Graphics/SVG/1.1/DTD/svg11.dtd">
<svg version="1.1" id="图层_1" xmlns="http://www.w3.org/2000/svg" xmlns:xlink="http://www.w3.org/1999/xlink" x="0px" y="0px"
	 width="500px" height="499.992px" viewBox="0 0 500 499.992" enable-background="new 0 0 500 499.992" xml:space="preserve">
<path id="ry" fill="#08A1EF" d="M249.996,128.157c67.291,0,121.841,54.55,121.841,121.841s-54.55,121.841-121.841,121.841
	s-121.841-54.55-121.841-121.841S182.705,128.157,249.996,128.157z M423.392,249.998c0,95.606-77.784,173.389-173.388,173.389
	c-95.607,0-173.394-77.785-173.394-173.389c0-95.606,77.789-173.386,173.394-173.386
	C345.608,76.612,423.391,154.392,423.392,249.998z M396.443,249.998c0-80.749-65.694-146.444-146.439-146.444
	c-80.753,0-146.448,65.695-146.448,146.444c0,80.748,65.695,146.443,146.448,146.443
	C330.753,396.441,396.444,330.748,396.443,249.998z M463.237,250.004c0,117.576-95.658,213.228-213.241,213.228
	c-117.579,0-213.234-95.654-213.234-213.228c0-117.579,95.655-213.239,213.234-213.239
	C367.579,36.765,463.238,132.425,463.237,250.004z M449.763,250.007c0-110.156-89.621-199.771-199.767-199.771
	c-110.148,0-199.767,89.617-199.767,199.771c0,110.152,89.62,199.756,199.767,199.756S449.766,360.156,449.763,250.007z
	 M500,250.004c0,137.845-112.156,249.988-249.996,249.988C112.154,499.992,0,387.849,0,250.004C0,112.156,112.155,0,250.004,0
	C387.844,0,500,112.156,500,250.004z M491.015,250.004c0-132.907-108.115-241.026-241.011-241.026
	C117.1,8.978,8.982,117.097,8.982,250.004c0,132.893,108.118,241.008,241.022,241.008
	C382.9,491.012,491.014,382.897,491.015,250.004z"/>
</svg>
