<?xml version="1.0" encoding="utf-8"?>
<!-- Generator: Adobe Illustrator 16.0.0, SVG Export Plug-In . SVG Version: 6.00 Build 0)  -->
<!DOCTYPE svg PUBLIC "-//W3C//DTD SVG 1.1//EN" "http://www.w3.org/Graphics/SVG/1.1/DTD/svg11.dtd">
<svg version="1.1" id="eqxiu.com" xmlns="http://www.w3.org/2000/svg" xmlns:xlink="http://www.w3.org/1999/xlink" x="0px" y="0px"
	 width="61.177px" height="47.305px" viewBox="0 0 61.177 47.305" enable-background="new 0 0 61.177 47.305" xml:space="preserve">
<path id="eqxiu.com_1_" fill="#EC6643" d="M25.729,11.056c0.076-9.24,11.772-16.111,17.771-6.191
	c7.094-9.657,17.745-2.778,17.676,6.455C61.1,20.553,43.292,31.377,43.292,31.377S25.657,20.286,25.729,11.056z M11.08,43.741
	l-5-8.661H0v1.693h3.386v8.436H0v1.693h7.611v-1.693H5.064v-8.484l5.887,10.178h0.258l5.869-10.178v8.484h-2.532v1.693h7.597v-1.693
	h-3.371v-8.436h3.371V35.08h-6.065L11.08,43.741z M37.979,38.531c0.42,0.764,0.628,1.582,0.628,2.451
	c0,0.872-0.208,1.691-0.628,2.46c-0.42,0.77-0.993,1.44-1.718,2.016c-0.726,0.576-1.579,1.026-2.558,1.355
	c-0.978,0.327-2.021,0.491-3.128,0.491s-2.147-0.164-3.121-0.491c-0.973-0.329-1.822-0.779-2.547-1.355
	c-0.727-0.575-1.299-1.246-1.718-2.016c-0.42-0.769-0.628-1.588-0.628-2.46c0-0.869,0.208-1.688,0.628-2.451
	c0.419-0.764,0.991-1.432,1.718-2.007c0.725-0.575,1.574-1.026,2.547-1.354c0.974-0.329,2.014-0.492,3.121-0.492
	s2.15,0.163,3.128,0.492c0.979,0.328,1.832,0.779,2.558,1.354C36.986,37.1,37.56,37.768,37.979,38.531z M36.735,40.982
	c0-0.623-0.153-1.217-0.467-1.781c-0.312-0.564-0.744-1.062-1.298-1.492s-1.207-0.773-1.959-1.032s-1.564-0.388-2.436-0.388
	s-1.681,0.129-2.427,0.388c-0.747,0.259-1.397,0.603-1.951,1.032c-0.555,0.43-0.987,0.928-1.299,1.492s-0.468,1.158-0.468,1.781
	c0,0.624,0.156,1.221,0.468,1.791c0.312,0.569,0.744,1.07,1.299,1.499c0.554,0.431,1.204,0.774,1.951,1.032
	c0.746,0.259,1.556,0.389,2.427,0.389s1.684-0.13,2.436-0.389c0.752-0.258,1.405-0.602,1.959-1.032
	c0.554-0.429,0.985-0.93,1.298-1.499C36.582,42.203,36.735,41.606,36.735,40.982z M50.09,43.741l-5-8.661h-6.079v1.693h3.387v8.436
	h-3.387v1.693h7.612v-1.693h-2.549v-8.484l5.887,10.178h0.258l5.87-10.178v8.484h-2.532v1.693h7.596v-1.693h-3.37v-8.436h3.37V35.08
	h-6.063L50.09,43.741z M0.05,4.791h8.855v22.055H0.05v4.426h22.096v-4.426h-8.854V4.791h8.854V0.364H0.05V4.791z"/>
</svg>
