<?xml version="1.0" encoding="utf-8"?>
<!-- Generator: Adobe Illustrator 16.0.0, SVG Export Plug-In . SVG Version: 6.00 Build 0)  -->
<!DOCTYPE svg PUBLIC "-//W3C//DTD SVG 1.1//EN" "http://www.w3.org/Graphics/SVG/1.1/DTD/svg11.dtd">
<svg version="1.1" xmlns="http://www.w3.org/2000/svg" xmlns:xlink="http://www.w3.org/1999/xlink" x="0px" y="0px"
	 width="269.645px" height="293.961px" viewBox="0 0 269.645 293.961" enable-background="new 0 0 269.645 293.961"
	 xml:space="preserve">
<g id="background">
</g>
<g id="objects">
	<path fill="#FDD835" d="M222.787,61.616c0,21.975,10.144,39.789-26.512,39.789s-66.37-17.814-66.37-39.789
		c0-21.977,29.715-39.791,66.37-39.791S222.787,39.64,222.787,61.616z"/>
	<path fill="none" stroke="#90A4AE" stroke-width="7" stroke-linecap="round" stroke-linejoin="round" stroke-miterlimit="10" d="
		M182.8,230.724c0,0-9.494,49.596,7.267,60.148"/>
	<path fill="#29B6F6" d="M10.553,103.606L64.37,88.833V31.771L10.553,16.997C10.553,16.997,0,36.56,0,60.302
		C0,82.99,10.553,103.606,10.553,103.606z"/>
	<path fill="#F06292" d="M209.979,3.847c-27.101,0-64.359,13.912-95.035,27.924H64.37v57.062h50.587
		c21.219,9.691,45.554,19.314,67.531,24.331c6.585,1.503,10.092,8.71,7.158,14.794c-5.349,11.092-10.346,25.27-14.131,41.031
		c-9.292,38.699-7.762,72.248,3.419,74.933s27.778-26.511,37.07-65.21c4.816-20.055,6.724-38.721,5.889-52.429
		c-0.305-5.002,2.758-9.579,7.511-11.167l6.4-2.139V7.81C228.511,5.263,219.946,3.847,209.979,3.847z M216.311,90.839
		c-4.203,1.41-9.16,2.191-14.971,2.191c-16.057,0-38.274-8.424-56.272-16.725V44.298c17.998-8.3,40.216-16.724,56.272-16.724
		c5.778,0,10.742,0.821,14.971,2.298V90.839z"/>
	<path fill="#29B6F6" d="M269.645,60.302c0-23.841-10.14-44.216-33.84-52.492v105.168
		C260.117,104.819,269.645,84.319,269.645,60.302z"/>
	
		<ellipse transform="matrix(0.9805 0.1964 -0.1964 0.9805 33.7388 -33.9289)" fill="#F06292" cx="187.956" cy="153.164" rx="17.939" ry="5.804"/>
	
		<ellipse transform="matrix(0.9805 0.1964 -0.1964 0.9805 39.1924 -31.947)" fill="#F06292" cx="180.689" cy="181.655" rx="17.939" ry="5.804"/>
	<path fill="#FFFFFF" d="M3.715,69.589c0-23.742,10.553-43.305,10.553-43.305L64.37,41.058v-9.287L10.553,16.997
		C10.553,16.997,0,36.56,0,60.302c0,18.716,7.176,36.01,9.69,41.496C6.841,93.667,3.715,81.938,3.715,69.589z"/>
	<path fill="#FFFFFF" d="M64.37,41.058h54.289c30.676-14.012,67.935-27.924,95.035-27.924c8.328,0,15.663,1,22.11,2.811V7.81
		c-7.294-2.547-15.858-3.963-25.825-3.963c-27.101,0-64.359,13.912-95.035,27.924H64.37V41.058z"/>
</g>
</svg>
