<?xml version="1.0" encoding="utf-8"?>
<!-- Generator: Adobe Illustrator 16.0.0, SVG Export Plug-In . SVG Version: 6.00 Build 0)  -->
<!DOCTYPE svg PUBLIC "-//W3C//DTD SVG 1.1//EN" "http://www.w3.org/Graphics/SVG/1.1/DTD/svg11.dtd">
<svg version="1.1" id="eqxiu.com" xmlns="http://www.w3.org/2000/svg" xmlns:xlink="http://www.w3.org/1999/xlink" x="0px" y="0px"
	 width="93.589px" height="141.804px" viewBox="0 0 93.589 141.804" enable-background="new 0 0 93.589 141.804"
	 xml:space="preserve">
<path id="eqxiu.com_4_" fill="#2E836A" d="M9.54,135.653H9.439l-1.366,2.426H4.339V44.917l2.876-3.612V13.781l-2.751-2.575L4.333,0
	L2.001,3.285v84.151L0,90.342v48.729l2.086,2.731h5.991l2.167-2.247h12.367l-1.786-3.73L9.54,135.653z M10.101,139.218l-2.167,2.248
	H2.253l-1.916-2.51v-48.51l2-2.905V3.393l1.67-2.352l0.12,10.313l2.75,2.573v27.261L4.002,44.8v93.617H8.27l1.364-2.424
	l10.977,0.165l1.465,3.061L10.101,139.218L10.101,139.218z M8.712,90.451l-1.334-1.677l0.019-12.207l1.315-2.549V0.52h0.337v73.581
	l-1.334,2.586v11.972l1.334,1.676v42h5.75v0.338H8.712V90.451z M91.316,95.688l0.152-92.5V3.114l-3.14-2.803v134.075l-2.045,2.653
	v4.765h4.095l3.21-2.888V97.963L91.316,95.688z M93.253,138.765l-3.002,2.701h-3.629v-4.312l2.045-2.652V1.063l2.465,2.201
	L90.98,95.758v0.07l2.271,2.274L93.253,138.765L93.253,138.765z"/>
<path id="eqxiu.com_3_" fill="#66B8A0" d="M11.256,0.745h0.225v0.449h-0.225V0.745z M30.958,1.194h0.453V0.745h-0.453V1.194z
	 M30.053,1.194h0.453V0.745h-0.453V1.194z M11.935,1.194h0.453V0.745h-0.453V1.194z M26.429,1.194h0.453V0.745h-0.453V1.194z
	 M29.147,1.194H29.6V0.745h-0.453V1.194z M27.335,1.194h0.453V0.745h-0.453V1.194z M32.771,1.194h0.453V0.745h-0.453V1.194z
	 M28.241,1.194h0.453V0.745h-0.453V1.194z M38.206,1.194h0.453V0.745h-0.453V1.194z M39.112,1.194h0.453V0.745h-0.453V1.194z
	 M37.3,1.194h0.453V0.745H37.3V1.194z M36.394,1.194h0.453V0.745h-0.453V1.194z M33.676,1.194h0.453V0.745h-0.453V1.194z
	 M34.582,1.194h0.453V0.745h-0.453V1.194z M35.488,1.194h0.453V0.745h-0.453V1.194z M31.864,1.194h0.453V0.745h-0.453V1.194z
	 M25.523,1.194h0.453V0.745h-0.453V1.194z M18.276,1.194h0.453V0.745h-0.453V1.194z M15.558,1.194h0.453V0.745h-0.453V1.194z
	 M17.37,1.194h0.453V0.745H17.37V1.194z M12.84,1.194h0.453V0.745H12.84V1.194z M13.746,1.194h0.453V0.745h-0.453V1.194z
	 M14.652,1.194h0.453V0.745h-0.453V1.194z M16.464,1.194h0.453V0.745h-0.453V1.194z M23.711,1.194h0.453V0.745h-0.453V1.194z
	 M19.182,1.194h0.453V0.745h-0.453V1.194z M24.617,1.194h0.453V0.745h-0.453V1.194z M22.805,1.194h0.453V0.745h-0.453V1.194z
	 M20.088,1.194h0.453V0.745h-0.453V1.194z M40.018,1.194h0.453V0.745h-0.453V1.194z M20.994,1.194h0.453V0.745h-0.453V1.194z
	 M21.899,1.194h0.453V0.745h-0.453V1.194z M40.924,1.194h0.225V0.745h-0.225V1.194z M55.342,135.192h0.225v-0.45h-0.225V135.192z
	 M64.305,135.192h0.459v-0.45h-0.459V135.192z M63.384,135.192h0.46v-0.45h-0.46V135.192z M65.223,135.192h0.461v-0.45h-0.461
	V135.192z M67.98,135.192h0.461v-0.45H67.98V135.192z M62.464,135.192h0.46v-0.45h-0.46V135.192z M67.062,135.192h0.459v-0.45
	h-0.459V135.192z M66.143,135.192h0.461v-0.45h-0.461V135.192z M59.705,135.192h0.46v-0.45h-0.46V135.192z M56.945,135.192h0.461
	v-0.45h-0.461V135.192z M61.544,135.192h0.461v-0.45h-0.461V135.192z M57.866,135.192h0.459v-0.45h-0.459V135.192z M56.025,135.192
	h0.461v-0.45h-0.461V135.192z M58.785,135.192h0.46v-0.45h-0.46V135.192z M60.625,135.192h0.46v-0.45h-0.46V135.192z M68.9,135.192
	h0.226v-0.45H68.9V135.192z M71.449,135.192h0.225v-0.45h-0.225V135.192z M81.33,135.192h0.46v-0.45h-0.46V135.192z M79.491,135.192
	h0.46v-0.45h-0.46V135.192z M80.41,135.192h0.46v-0.45h-0.46V135.192z M84.089,135.192h0.46v-0.45h-0.46V135.192z M78.57,135.192
	h0.461v-0.45H78.57V135.192z M83.169,135.192h0.461v-0.45h-0.461V135.192z M82.25,135.192h0.46v-0.45h-0.46V135.192z
	 M73.055,135.192h0.459v-0.45h-0.459V135.192z M73.973,135.192h0.461v-0.45h-0.461V135.192z M77.65,135.192h0.461v-0.45H77.65
	V135.192z M72.134,135.192h0.46v-0.45h-0.46V135.192z M74.893,135.192h0.461v-0.45h-0.461V135.192z M76.732,135.192h0.459v-0.45
	h-0.459V135.192z M75.812,135.192h0.459v-0.45h-0.459V135.192z M85.009,134.742v0.45h0.226v-0.45H85.009z"/>
<path id="eqxiu.com_2_" fill="#FFFFFF" d="M85.33,131.296H11.787V4.46H85.33V131.296z"/>
<path id="eqxiu.com_1_" fill="#3EA98D" d="M6.921,92.237h0.625v28.57l-1.25,2.114v9.847h-1.25V59.376l1.875-1.847V92.237z
	 M8.359,31.121h1.064V15.527H8.359V31.121z M87.893,84.19l1.666-2.039V38.1l-1.666-1.446V84.19z M90.393,43.948v35.463h0.789V43.948
	H90.393z M8.6,4.46h0.562V0.801h0.803V0.239H8.6V4.46z"/>
</svg>
