<?xml version="1.0" encoding="utf-8"?>
<!-- Generator: Adobe Illustrator 16.0.0, SVG Export Plug-In . SVG Version: 6.00 Build 0)  -->
<!DOCTYPE svg PUBLIC "-//W3C//DTD SVG 1.1//EN" "http://www.w3.org/Graphics/SVG/1.1/DTD/svg11.dtd">
<svg version="1.1" id="eqxiu" xmlns="http://www.w3.org/2000/svg" xmlns:xlink="http://www.w3.org/1999/xlink" x="0px" y="0px"
	 width="426.294px" height="563.221px" viewBox="0 0 426.294 563.221" enable-background="new 0 0 426.294 563.221"
	 xml:space="preserve">
<polygon fill="#DB5D31" points="129.347,24.861 120.323,0 99.914,13.384 "/>
<polygon fill="#D16B50" points="129.347,24.861 97.166,30.568 99.914,13.384 "/>
<polygon fill="#D16B50" points="129.347,24.861 147.497,6.387 120.323,0 "/>
<polygon fill="#D88277" points="129.347,24.861 139.805,30.568 147.497,6.387 "/>
<polygon fill="#D16B50" points="147.497,6.387 156.422,16.385 139.805,30.568 "/>
<polygon fill="#DB5D31" points="139.805,30.568 155.333,40.1 156.422,16.385 "/>
<polygon fill="#D16B50" points="156.422,16.385 162.978,39.092 155.333,40.1 "/>
<polygon fill="#D88277" points="139.805,30.568 151.398,51.986 155.333,40.1 "/>
<polygon fill="#D88277" points="129.347,24.861 113.257,38.429 97.166,30.568 "/>
<polygon fill="#D88136" points="113.257,38.429 91.301,43.32 97.166,30.568 "/>
<polygon fill="#BF733A" points="113.257,38.429 99.914,53.361 91.301,43.32 "/>
<polygon fill="#D89032" points="129.347,24.861 139.805,30.568 113.257,38.429 "/>
<polygon fill="#E8C0BF" points="373.958,107.463 378.515,139.806 395.835,121.61 "/>
<polygon fill="#EAA8A4" points="395.835,121.61 389.458,150.629 378.515,139.806 "/>
<polygon fill="#E8C0BF" points="391.593,140.913 404.199,149.12 395.835,121.61 "/>
<polygon fill="#F4D7D7" points="395.835,121.61 416.539,138.005 400.82,138.005 "/>
<polygon fill="#F4D7D7" points="400.82,138.005 414.511,146.819 404.199,149.12 "/>
<polygon fill="#E8C0BF" points="416.539,138.005 420.724,150.629 400.82,138.005 "/>
<polygon fill="#EAA8A4" points="414.511,146.689 419.806,157.11 404.199,149.12 "/>
<polygon fill="#EAA8A4" points="420.724,150.629 425.201,149.058 416.539,138.005 "/>
<polygon fill="#F4D7D7" points="414.511,146.689 420.724,150.629 419.806,157.11 "/>
<polygon fill="#E8C0BF" points="391.593,140.913 401.583,153.848 389.458,150.629 "/>
<polygon fill="#EAA8A4" points="389.458,150.629 404.199,166.148 401.583,153.848 "/>
<polygon fill="#E8C0BF" points="401.583,153.848 407.666,160.757 404.199,166.148 "/>
<polygon fill="#EFAC6A" points="378.515,139.806 363.216,143.562 362.3,129.294 "/>
<polygon fill="#EFBB8E" points="362.3,129.294 373.958,107.463 378.515,139.806 "/>
<polygon fill="#EFAC6A" points="373.958,107.463 356.792,120.276 362.3,129.294 "/>
<polygon fill="#DB9D5A" points="378.515,139.806 381.425,157.11 363.216,143.562 "/>
<polygon fill="#BF8F56" points="363.216,143.562 374.546,159.999 381.425,157.11 "/>
<polygon fill="#DB9D5A" points="374.546,159.999 377.085,165.195 381.425,157.11 "/>
<polygon fill="#EFAC6A" points="381.425,157.11 381.425,164.314 377.085,165.195 "/>
<polygon fill="#EAA8A4" points="407.666,160.757 408.41,164.053 404.199,166.148 "/>
<polygon fill="#F9DF6E" points="139.805,30.568 137.513,51.986 113.257,38.429 "/>
<polygon fill="#F9DF6E" points="137.513,51.986 129.347,61.353 155.333,62.663 "/>
<polygon fill="#F9DF6E" points="129.347,61.353 130.047,71.832 115.899,58.34 "/>
<polygon fill="#E2DABA" points="115.899,58.34 115.899,74.714 130.047,71.832 "/>
<polygon fill="#E2DABA" points="151.398,51.986 155.333,62.663 162.14,58.863 "/>
<polygon fill="#DBC775" points="113.257,38.429 115.899,58.34 99.914,53.361 "/>
<polygon fill="#E2DABA" points="113.257,38.429 137.513,51.986 114.838,50.351 "/>
<polygon fill="#DBC775" points="139.805,30.568 151.398,51.986 137.513,51.986 "/>
<polygon fill="#DBC775" points="155.333,62.663 130.047,71.832 129.347,61.353 "/>
<polygon fill="#F2D144" points="155.333,62.663 146.421,99.473 130.047,71.832 "/>
<polygon fill="#F2D144" points="155.333,62.663 151.398,51.986 137.513,51.986 "/>
<polygon fill="#F2D144" points="151.398,51.986 165.535,49.585 162.14,58.863 "/>
<polygon fill="#F9DF6E" points="165.535,49.585 155.333,40.1 151.398,51.986 "/>
<polygon fill="#D5B92A" points="155.333,40.1 162.978,39.092 165.535,49.585 "/>
<polygon fill="#D5B92A" points="155.333,62.663 158.467,89.91 146.421,99.473 "/>
<polygon fill="#F2D144" points="155.333,62.663 162.978,75.893 158.467,89.91 "/>
<polygon fill="#D5B92A" points="130.047,71.832 115.899,87.553 138.421,85.969 "/>
<polygon fill="#B2A157" points="130.047,71.832 115.899,74.714 115.899,87.553 "/>
<polygon fill="#DBC775" points="115.899,74.714 107.123,67.902 115.899,87.553 "/>
<polygon fill="#B2A157" points="99.914,53.361 107.123,61.353 115.899,58.34 "/>
<polygon fill="#D5B92A" points="115.899,58.34 115.899,74.714 107.123,61.353 "/>
<polygon fill="#F2D144" points="107.123,61.353 107.123,67.902 115.899,74.714 "/>
<polygon fill="#D5B92A" points="115.899,58.34 137.513,51.986 114.838,50.351 "/>
<polygon fill="#B2A157" points="137.513,51.986 129.347,61.353 115.899,58.34 "/>
<polygon fill="#DBC775" points="162.14,58.863 162.978,75.893 155.333,62.663 "/>
<polygon fill="#DBC775" points="138.421,85.969 129.347,102.878 115.899,87.553 "/>
<polygon fill="#F9DF6E" points="138.421,85.969 146.421,99.473 129.347,102.878 "/>
<polygon fill="#F2D144" points="43.781,158.101 0.591,149.839 18.766,183.243 "/>
<polygon fill="#B2A157" points="0.591,149.839 0,167.345 18.766,183.243 "/>
<polygon fill="#B2A157" points="43.781,158.101 22.895,130.818 0.591,149.839 "/>
<polygon fill="#B2A157" points="300.634,89.222 279.185,75.956 282.164,96.001 "/>
<polygon fill="#D5B92A" points="279.185,75.956 305.941,59.648 300.634,89.222 "/>
<polygon fill="#F2D144" points="305.941,59.648 276.761,59.648 279.185,75.956 "/>
<polygon fill="#D5B92A" points="300.634,89.222 329.322,71.438 329.322,101.012 "/>
<polygon fill="#D5B92A" points="329.322,101.012 356.792,120.276 353.982,93.644 "/>
<polygon fill="#F2D144" points="305.941,59.648 329.322,71.438 300.634,89.222 "/>
<polygon fill="#DBC775" points="329.322,71.438 353.982,93.644 329.322,101.012 "/>
<polygon fill="#F9DF6E" points="353.982,93.644 373.958,107.463 356.792,120.276 "/>
<polygon fill="#85A665" points="115.899,87.553 93.176,92.922 112.388,79.692 "/>
<path fill="#85A665" d="M158.467,89.91"/>
<polygon fill="#98DD3E" points="228.412,115.731 205.041,65.086 230.585,58.863 "/>
<polygon fill="#BDE577" points="214.973,86.61 117.34,191.037 228.412,115.731 "/>
<polygon fill="#98DD3E" points="214.973,86.61 158.467,89.91 161.197,144.129 "/>
<polygon fill="#BDE577" points="230.585,58.863 254.753,59.648 228.412,115.731 "/>
<polygon fill="#9DC165" points="254.753,59.648 265.429,99.509 228.412,115.731 "/>
<polygon fill="#BDE577" points="254.753,59.648 276.761,59.648 265.429,99.509 "/>
<polygon fill="#98DD3E" points="276.761,59.648 282.164,96.001 265.429,99.509 "/>
<polygon fill="#5CEA87" points="228.412,115.731 124.479,207.411 117.34,191.037 "/>
<polygon fill="#8EDDA0" points="228.412,115.731 232.582,146.503 124.479,207.411 "/>
<polygon fill="#75C68A" points="232.582,146.503 214.08,236.885 205.041,162.021 "/>
<polygon fill="#4DCE78" points="232.582,146.503 250.037,219.64 214.08,236.885 "/>
<polygon fill="#5CEA87" points="205.041,162.021 176.46,253.976 214.08,236.885 "/>
<polygon fill="#4E9B64" points="176.46,253.976 124.479,207.411 160.012,275.617 "/>
<polygon fill="#75C68A" points="205.041,162.021 146.453,227.097 124.479,207.411 "/>
<polygon fill="#4DCE78" points="205.041,162.021 176.46,253.976 146.453,227.097 "/>
<polygon fill="#5CEA87" points="250.037,219.64 272.72,251.812 214.08,236.885 "/>
<polygon fill="#BDE577" points="214.973,86.61 186.721,65.086 205.041,65.086 "/>
<polygon fill="#CEE0A4" points="214.973,86.61 186.721,65.086 172.876,69.278 "/>
<polygon fill="#BDE577" points="214.973,86.61 158.467,89.91 162.978,75.893 "/>
<polygon fill="#E0F2AF" points="214.973,86.61 172.876,69.278 162.978,75.893 "/>
<polygon fill="#E0F2AF" points="161.197,144.129 129.347,102.878 104.537,138.823 "/>
<polygon fill="#CEE0A4" points="161.197,144.129 146.421,99.473 129.347,102.878 "/>
<polygon fill="#BDE577" points="161.197,144.129 158.467,89.91 146.421,99.473 "/>
<polygon fill="#98DD3E" points="161.197,144.129 117.34,162.021 117.34,191.037 "/>
<polygon fill="#BDE577" points="161.197,144.129 104.537,138.823 117.34,162.021 "/>
<polygon fill="#CEE0A4" points="129.347,102.878 115.899,87.553 104.537,138.823 "/>
<polygon fill="#BDE577" points="115.899,87.553 85.949,127.769 104.537,138.823 "/>
<polygon fill="#98DD3E" points="115.899,87.553 85.949,127.769 93.176,92.922 "/>
<polygon fill="#9DC165" points="93.176,92.922 67.774,128.696 85.949,127.769 "/>
<polygon fill="#98DD3E" points="93.176,92.922 72.769,95.192 67.774,128.696 "/>
<polygon fill="#BDE577" points="72.769,95.192 55.931,105.642 67.774,128.696 "/>
<polygon fill="#98DD3E" points="55.931,105.642 37.778,119.286 67.774,128.696 "/>
<polygon fill="#9DC165" points="67.774,128.696 52.775,142.177 37.778,119.286 "/>
<polygon fill="#85A665" points="37.778,119.286 22.895,130.818 52.775,142.177 "/>
<polygon fill="#858C65" points="22.895,130.818 43.781,158.101 52.775,142.177 "/>
<polygon fill="#BDE577" points="214.08,236.885 206.94,253.26 272.72,251.812 "/>
<polygon fill="#CEE0A4" points="214.08,236.885 206.94,253.26 176.46,253.976 "/>
<polygon fill="#CEE0A4" points="206.94,253.26 225.541,279.065 272.72,251.812 "/>
<polygon fill="#BDE577" points="272.72,251.812 272.294,288.336 225.541,279.065 "/>
<polygon fill="#98DD3E" points="225.541,279.065 250.037,316.924 272.294,288.336 "/>
<polygon fill="#9DC165" points="225.541,279.065 219.205,315.256 250.037,316.924 "/>
<polygon fill="#577F11" points="250.037,316.924 233.794,367.358 273.72,349.307 "/>
<polygon fill="#577F11" points="233.794,367.358 219.205,315.256 215.925,385.555 "/>
<polygon fill="#5E8052" points="219.205,315.256 196.854,359.889 215.925,385.555 "/>
<polygon fill="#5E8052" points="250.037,316.924 233.794,367.358 219.205,315.256 "/>
<polygon fill="#728065" points="219.205,315.256 187.815,338.276 196.854,359.889 "/>
<polygon fill="#858C65" points="219.205,315.256 187.16,323.081 187.815,338.276 "/>
<polygon fill="#858C65" points="256.685,308.383 273.72,349.307 250.037,316.924 "/>
<polygon fill="#F9DF6E" points="176.46,253.976 178.775,309.588 206.94,253.26 "/>
<polygon fill="#DBC775" points="206.94,253.26 225.541,279.065 178.775,309.588 "/>
<polygon fill="#D5B92A" points="225.541,279.065 219.205,315.256 178.775,309.588 "/>
<polygon fill="#B2A157" points="219.205,315.256 187.16,323.081 178.775,309.588 "/>
<polygon fill="#D5B92A" points="187.16,323.081 177.335,331.987 178.775,309.588 "/>
<polygon fill="#F9DF6E" points="178.775,309.588 140.394,312.338 146.788,333.711 "/>
<polygon fill="#D5B92A" points="178.775,309.588 138.206,295.305 140.394,312.338 "/>
<polygon fill="#DBC775" points="178.775,309.588 148.781,286.426 138.206,295.305 "/>
<polygon fill="#F9DF6E" points="148.781,286.426 160.012,275.617 178.775,309.588 "/>
<polygon fill="#EBE4A7" points="178.775,309.588 176.46,253.976 160.012,275.617 "/>
<polygon fill="#F2D144" points="178.775,309.588 177.335,331.987 146.788,333.711 "/>
<polygon fill="#F2D144" points="187.16,323.081 187.815,338.276 177.335,331.987 "/>
<polygon fill="#D89032" points="146.788,333.711 178.818,368.006 148.331,379.557 "/>
<polygon fill="#DB9D5A" points="146.788,333.711 177.335,331.987 178.818,368.006 "/>
<polygon fill="#DB9D5A" points="178.818,368.006 173.432,391.797 148.331,379.557 "/>
<polygon fill="#D89032" points="177.335,331.987 187.815,338.276 178.818,368.006 "/>
<polygon fill="#D89032" points="173.432,391.797 151.628,395.618 148.331,379.557 "/>
<polygon fill="#D88136" points="148.331,379.557 138.626,392.901 151.628,395.618 "/>
<polygon fill="#D88136" points="151.628,395.618 167.51,411.762 173.432,391.797 "/>
<polygon fill="#E8C0BF" points="138.626,392.901 167.51,411.762 151.628,395.618 "/>
<polygon fill="#EAA8A4" points="138.626,392.901 144.812,429.518 167.51,411.762 "/>
<polygon fill="#EAA8A4" points="138.626,392.901 110.554,408.836 125.462,387.588 "/>
<polygon fill="#E8C0BF" points="125.462,387.588 95.606,380.549 110.554,408.836 "/>
<polygon fill="#EAA8A4" points="110.554,408.836 88.516,384.721 95.606,380.549 "/>
<polygon fill="#D39590" points="110.554,408.836 88.516,396.831 88.516,384.721 "/>
<polygon fill="#D88277" points="110.554,408.836 95.606,406.458 88.516,396.831 "/>
<polygon fill="#C17465" points="110.554,408.836 110.056,414.874 95.606,406.458 "/>
<polygon fill="#D16B50" points="110.554,408.836 128.217,414.819 110.056,414.874 "/>
<polygon fill="#D88277" points="128.217,414.819 138.626,392.901 110.554,408.836 "/>
<polygon fill="#C17465" points="138.626,392.901 144.812,429.518 128.217,414.819 "/>
<polygon fill="#D88277" points="167.51,411.762 152.982,441.85 144.812,429.518 "/>
<polygon fill="#D39590" points="167.51,411.762 169.227,439.067 152.982,441.85 "/>
<polygon fill="#EAA8A4" points="167.51,411.762 173.799,417.854 169.227,439.067 "/>
<polygon fill="#F2D144" points="233.794,367.358 256.632,418.243 273.72,349.307 "/>
<polygon fill="#DBC775" points="273.72,349.307 280.376,413.356 256.632,418.243 "/>
<polygon fill="#DBC775" points="280.376,413.356 300.009,400.512 305.468,415.692 "/>
<polygon fill="#F9DF6E" points="273.72,349.307 300.009,400.512 280.376,413.356 "/>
<polygon fill="#F9DF6E" points="305.468,415.692 325.66,422.977 289.14,443.792 "/>
<polygon fill="#F2D144" points="305.468,415.692 280.376,413.356 289.14,443.792 "/>
<polygon fill="#D5B92A" points="280.376,413.356 271.271,432.881 289.14,443.792 "/>
<polygon fill="#B2A157" points="280.376,413.356 256.632,418.243 271.271,432.881 "/>
<polygon fill="#F2D144" points="325.66,422.977 305.468,461.87 289.14,443.792 "/>
<polygon fill="#B2A157" points="233.794,367.358 215.925,385.555 256.632,418.243 "/>
<polygon fill="#EFAC6A" points="325.66,422.977 357.912,454.008 317.603,438.493 "/>
<polygon fill="#DB9D5A" points="357.912,454.008 305.468,461.87 317.603,438.493 "/>
<polygon fill="#D89032" points="357.912,454.008 347.708,489.745 305.468,461.87 "/>
<polygon fill="#BF8F56" points="357.912,454.008 380.115,513.155 347.708,489.745 "/>
<polygon fill="#DB9D5A" points="357.912,454.008 413.025,501.174 380.115,513.155 "/>
<polygon fill="#BF8F56" points="413.025,501.174 410.431,512.61 380.115,513.155 "/>
<polygon fill="#D39590" points="410.431,512.61 375.185,529.538 380.115,513.155 "/>
<polygon fill="#D39590" points="410.431,512.61 413.025,501.174 426.294,514.03 "/>
<polygon fill="#EAA8A4" points="413.025,501.174 417.49,499.866 426.294,514.03 "/>
<polygon fill="#EAA8A4" points="410.431,512.61 426.294,526.319 426.294,514.03 "/>
<polygon fill="#D39590" points="410.431,512.61 413.025,537.518 426.294,526.319 "/>
<polygon fill="#D88277" points="410.431,512.61 413.025,537.518 375.185,529.538 "/>
<polygon fill="#C17465" points="375.185,529.538 391.119,560.116 413.025,537.518 "/>
<polygon fill="#D16B50" points="375.185,529.538 366.748,563.221 391.119,560.116 "/>
<polygon fill="#DB5D31" points="375.185,529.538 359.861,545.901 366.748,563.221 "/>
<polygon fill="#D16B50" points="359.861,545.901 355.566,554.069 366.748,563.221 "/>
<path fill="#5555AA" d="M67.774,128.696c0,0-42.365,12.328-14.999,65.862c12.821,25.081,42.874,25.612,51.762,19.61
	c0,0,19.418-28.568,7.694-55.487C100.507,131.762,67.774,128.696,67.774,128.696"/>
<path fill="#F7F0D2" d="M67.774,128.696c0,0,1.19,16.053,8.243,37.841c2.409,7.441,11.194,29.217,11.194,29.217l0,0l17.325,18.415
	c0,0-28.311,2.553-42.215-27.454C48.418,156.707,66.16,129.032,67.774,128.696z"/>
<path fill="#D5B92A" d="M67.774,128.696c0,0,20.747,1.003,36.08,32.071c12.238,30.27,1.168,48.183,0.683,53.401
	c0,0,22.622-11.235,12.803-52.148C113.854,147.502,100.619,118.378,67.774,128.696z"/>
<polygon fill="#D39590" points="103.854,160.768 99.707,168.729 107.512,171.912 "/>
<polygon fill="#E8C0BF" points="103.854,160.768 82.495,160.768 99.707,168.729 "/>
<polygon fill="#EAA8A4" points="99.707,168.729 82.495,181.737 82.495,160.768 "/>
<polygon fill="#E8C0BF" points="82.495,160.768 76.018,166.537 82.495,181.737 "/>
<polygon fill="#EAA8A4" points="76.018,166.537 65.597,166.34 82.495,181.737 "/>
<polygon fill="#D39590" points="65.597,166.34 62.322,186.715 82.495,181.737 "/>
<polygon fill="#D88277" points="82.495,181.737 87.212,195.754 62.322,186.715 "/>
<polygon fill="#D39590" points="82.495,181.737 102.853,176.121 87.212,195.754 "/>
<polygon fill="#E8C0BF" points="82.495,181.737 99.707,168.729 102.853,176.121 "/>
<polygon fill="#EAA8A4" points="102.853,176.121 110.79,184.487 95.649,185.16 "/>
<polygon fill="#D39590" points="102.853,176.121 112.231,175.232 110.79,184.487 "/>
<polygon fill="#D88277" points="112.231,175.232 119.955,180.641 110.79,184.487 "/>
<polygon fill="#C17465" points="112.231,175.232 119.753,176.526 119.955,180.641 "/>
<polygon fill="#E8C0BF" points="110.79,184.487 109.538,192.131 95.649,185.16 "/>
<polygon fill="#EAA8A4" points="95.649,185.16 91.698,190.121 109.538,192.131 "/>
<polygon fill="#EAA8A4" points="110.79,184.487 117.34,191.037 109.538,192.131 "/>
<polygon fill="#D88277" points="110.79,184.487 119.579,186.448 117.34,191.037 "/>
<polygon fill="#D88277" points="91.698,190.121 100.597,202.934 87.212,195.754 "/>
<polygon fill="#EAA8A4" points="91.698,190.121 103.905,197.827 100.597,202.934 "/>
<polygon fill="#D39590" points="103.905,197.827 108.27,201.091 100.597,202.934 "/>
<polygon fill="#F2D144" points="43.781,158.101 62.322,186.715 65.597,166.34 "/>
<polygon fill="#D5B92A" points="43.781,158.101 62.322,186.715 18.766,183.243 "/>
<polygon fill="#EAA8A4" points="103.854,160.768 108.27,167.583 107.512,171.912 "/>
</svg>
