<?xml version="1.0" encoding="utf-8"?>
<!-- Generator: Adobe Illustrator 16.0.0, SVG Export Plug-In . SVG Version: 6.00 Build 0)  -->
<!DOCTYPE svg PUBLIC "-//W3C//DTD SVG 1.1//EN" "http://www.w3.org/Graphics/SVG/1.1/DTD/svg11.dtd">
<svg version="1.1" id="eqxiu" xmlns="http://www.w3.org/2000/svg" xmlns:xlink="http://www.w3.org/1999/xlink" x="0px" y="0px"
	 width="456px" height="229px" viewBox="0 0 456 229" enable-background="new 0 0 456 229" xml:space="preserve">
<path fill="#C4BDB7" d="M456,229H4V4h452V229z"/>
<path fill="#FFFFFF" d="M452,225H0V0h452V225z"/>
<path fill="none" stroke="#80EEAF" stroke-width="0.75" stroke-linecap="round" stroke-miterlimit="10" d="M23.334,53.667h355.999"
	/>
<path fill="none" stroke="#80EEAF" stroke-width="0.75" stroke-linecap="round" stroke-miterlimit="10" d="M23.334,100.111h355.999"
	/>
<path fill="none" stroke="#80EEAF" stroke-width="0.75" stroke-linecap="round" stroke-miterlimit="10" d="M23.334,146.557h286.995"
	/>
<path fill="none" stroke="#80EEAF" stroke-width="0.75" stroke-linecap="round" stroke-miterlimit="10" d="M23.334,193h244.992"/>
<path fill="#FEBBA4" d="M431.981,122.352c1.567-5.097-4.287-7.345-8.751-7.826c-1.331-0.144-2.595-0.225-3.794-0.269
	c1.138-0.25,2.299-0.535,3.462-0.87c4.127-1.189,9.729-4.435,7.029-9.402c-2.545-4.686-8.247-2.074-11.714,0.78
	c-1.192,0.983-2.271,1.961-3.25,2.908c0.812-1.207,1.623-2.494,2.38-3.836c2.109-3.742,3.829-9.982-1.577-11.633
	c-5.1-1.558-7.335,4.302-7.807,8.767c-0.183,1.728-0.268,3.351-0.29,4.851c-0.327-1.509-0.721-3.085-1.203-4.66
	c-1.258-4.107-4.595-9.654-9.517-6.874c-4.645,2.623-1.938,8.28,0.974,11.699c0.759,0.891,1.513,1.714,2.252,2.481
	c-0.967-0.604-1.973-1.2-3.015-1.762c-3.779-2.041-10.05-3.647-11.604,1.789c-1.464,5.127,4.437,7.256,8.908,7.646
	c2.822,0.246,5.369,0.242,7.531,0.127c-2.204,0.474-4.687,1.109-7.152,1.961c-4.061,1.4-9.486,4.931-6.536,9.752
	c2.784,4.547,8.345,1.646,11.658-1.385c0.506-0.462,0.982-0.921,1.446-1.378c-0.262,0.435-0.521,0.874-0.772,1.321
	c-2.109,3.74-3.831,9.98,1.574,11.633c5.102,1.559,7.337-4.301,7.811-8.766c0.021-0.221,0.037-0.434,0.059-0.65
	c0.041,0.188,0.078,0.372,0.121,0.559c0.971,4.186,3.916,9.949,9.019,7.518c4.813-2.295,2.507-8.127-0.161-11.739
	c-1.158-1.569-2.318-2.956-3.427-4.178c1.446,1.012,3.037,2.042,4.708,2.987C424.082,126.021,430.318,127.754,431.981,122.352z
	 M407.319,120.102c-3.037-0.928-4.747-4.142-3.82-7.179c0.928-3.038,4.142-4.748,7.179-3.82c3.037,0.927,4.748,4.142,3.82,7.179
	C413.57,119.318,410.356,121.027,407.319,120.102z"/>
<path fill="#BFF7D7" d="M411.418,158.15c-4.609-6.276-12.342-1.371-16.793,3.442c-1.326,1.435-2.521,2.845-3.617,4.212
	c0.696-1.55,1.374-3.16,1.993-4.813c2.199-5.874,3.272-15.265-4.899-16.427c-7.709-1.098-9.611,7.86-9.284,14.408
	c0.112,2.256,0.318,4.372,0.579,6.342c-0.707-2.002-1.512-4.073-2.426-6.129c-2.55-5.73-8.366-13.181-15.01-8.281
	c-6.267,4.623-1.344,12.346,3.479,16.785c1.866,1.719,3.694,3.23,5.434,4.563c-2.054-0.931-4.243-1.842-6.51-2.647
	c-5.909-2.101-15.316-3.019-16.343,5.172c-0.97,7.727,8.02,9.48,14.562,9.045c1.704-0.113,3.326-0.28,4.869-0.479
	c-1.55,0.607-3.124,1.269-4.69,2c-5.683,2.653-13.024,8.605-8.005,15.157c4.735,6.182,12.367,1.119,16.719-3.785
	c2.746-3.094,4.959-6.082,6.706-8.717c-1.363,2.996-2.778,6.457-3.93,10.091c-1.893,5.979-2.479,15.414,5.741,16.152
	c7.755,0.696,9.192-8.349,8.528-14.87c-0.103-0.995-0.226-1.954-0.355-2.895c0.281,0.686,0.571,1.371,0.875,2.056
	c2.549,5.729,8.365,13.181,15.009,8.282c6.268-4.621,1.347-12.345-3.478-16.785c-0.238-0.221-0.475-0.424-0.711-0.637
	c0.254,0.114,0.504,0.232,0.761,0.344c5.75,2.507,15.071,4.074,16.662-4.025c1.501-7.641-7.344-10.014-13.899-10.031
	c-2.851-0.009-5.484,0.146-7.882,0.379c2.446-0.814,5.039-1.783,7.604-2.916C408.842,170.604,416.303,164.803,411.418,158.15z
	 M387.307,185.1c-3.73,2.752-8.987,1.959-11.739-1.772c-2.753-3.731-1.959-8.988,1.771-11.74c3.731-2.753,8.988-1.959,11.741,1.772
	C391.832,177.09,391.039,182.348,387.307,185.1z"/>
<path fill="#FEF17C" d="M332.929,202.479c3.296-4.055-1.196-8.246-5.075-10.32c-1.155-0.619-2.271-1.156-3.346-1.637
	c1.124,0.189,2.283,0.356,3.463,0.479c4.187,0.435,10.463-0.457,9.836-5.959c-0.592-5.19-6.729-4.911-10.925-3.592
	c-1.445,0.455-2.784,0.946-4.02,1.448c1.181-0.799,2.39-1.67,3.568-2.61c3.29-2.625,7.144-7.661,2.839-11.146
	c-4.061-3.287-8.241,1.215-10.31,5.098c-0.8,1.502-1.473,2.943-2.044,4.299c0.257-1.491,0.479-3.066,0.618-4.674
	c0.365-4.192-0.63-10.455-6.121-9.736c-5.18,0.678-4.799,6.811-3.41,10.982c0.362,1.088,0.745,2.113,1.135,3.08
	c-0.655-0.902-1.352-1.813-2.091-2.707c-2.684-3.24-7.79-7-11.193-2.635c-3.213,4.12,1.363,8.219,5.283,10.215
	c2.473,1.261,4.787,2.191,6.793,2.881c-2.176-0.379-4.662-0.713-7.216-0.846c-4.203-0.218-10.427,0.996-9.516,6.459
	c0.858,5.152,6.974,4.558,11.096,3.021c0.629-0.232,1.229-0.477,1.819-0.721c-0.397,0.299-0.795,0.604-1.188,0.916
	c-3.29,2.623-7.144,7.66-2.84,11.146c4.061,3.287,8.242-1.214,10.311-5.096c0.103-0.192,0.193-0.379,0.293-0.569
	c-0.031,0.186-0.065,0.367-0.096,0.553c-0.653,4.156-0.096,10.474,5.433,10.138c5.214-0.317,5.259-6.462,4.161-10.722
	c-0.477-1.852-1.021-3.535-1.577-5.053c0.941,1.45,2.009,2.971,3.179,4.442C324.407,202.91,329.436,206.773,332.929,202.479z
	 M311.355,191.38c-2.418-1.957-2.791-5.504-0.834-7.922c1.956-2.418,5.504-2.792,7.922-0.835c2.418,1.958,2.792,5.505,0.835,7.923
	C317.32,192.964,313.773,193.337,311.355,191.38z"/>
</svg>
