<?xml version="1.0" encoding="utf-8"?>
<!-- Generator: Adobe Illustrator 16.0.0, SVG Export Plug-In . SVG Version: 6.00 Build 0)  -->
<!DOCTYPE svg PUBLIC "-//W3C//DTD SVG 1.1//EN" "http://www.w3.org/Graphics/SVG/1.1/DTD/svg11.dtd">
<svg version="1.1" id="图层_1" xmlns="http://www.w3.org/2000/svg" xmlns:xlink="http://www.w3.org/1999/xlink" x="0px" y="0px"
	 width="86.583px" height="109.804px" viewBox="0 0 86.583 109.804" enable-background="new 0 0 86.583 109.804"
	 xml:space="preserve">
<path fill="#FFFFFF" d="M78.206,17.3l-7.922-9.955L20.707,1.102L11.16,7.345L0.875,85.566l12.949,18.961l49.125,4.25l13.07-8.889
	l9.43-75.736L78.206,17.3z M38.566,71.621l4.725-36.052h5.795l-5.61,36.822L29.43,70.188L38.566,71.621z"/>
<path fill="#070001" d="M49.975,29.713L35.377,27.51c-0.291-0.044-1.215,0.646-1.256,0.938l-5.783,41.59
	c-0.084,0.593,0.326,1.145,0.92,1.237l14.048,2.204c0.057,0.01,0.114,0.014,0.171,0.014c0.233,0,1.045-0.646,1.088-0.937
	l6.334-41.589C50.944,30.679,50.264,29.757,49.975,29.713z M44.491,31.113l2.488,3.403l-2.16-0.298l-2.509-3.435L44.491,31.113z
	 M40.008,30.437l2.859,3.91c-0.187,0.167-0.639,2.626-0.639,2.626l-5.096-6.97L40.008,30.437z M35.965,31.203l5.931,8.113
	l-0.481,3.375l-5.858-8.016c-0.021-0.026-0.042-0.048-0.063-0.071L35.965,31.203z M35.166,36.943l5.914,8.092l-0.515,3.604
	l-5.903-8.077L35.166,36.943z M34.334,42.917l5.896,8.066l-0.416,2.916l-5.889-8.056L34.334,42.917z M30.668,69.267l0.485-3.484
	l2.755,3.992L30.668,69.267z M37.471,70.334l-1.387-0.218c-0.022-0.094-4.506-6.63-4.506-6.63c-0.027-0.038-0.059-0.072-0.091-0.106
	l0.509-3.658l5.848,7.999L37.471,70.334z M38.178,65.378l-5.764-7.885c-0.029-0.038-0.061-0.071-0.094-0.104l0.469-3.36l5.863,8.022
	L38.178,65.378z M38.986,59.708l-5.74-7.853c-0.039-0.055-0.086-0.101-0.136-0.143l0.489-3.518l5.881,8.048L38.986,59.708z
	 M42.554,71.131l-2.905-0.455l4.889-34.272l3.238,0.447L42.554,71.131z M48.286,33.503l-1.494-2.042l1.766,0.266L48.286,33.503z
	 M86.524,23.533c-0.02-0.031-0.043-0.062-0.064-0.092c-0.01-0.012-0.018-0.023-0.027-0.036l-7.254-7.986v-0.001
	c-0.002,0-0.002-0.001-0.002-0.002L71.096,6.6c-0.176-0.191-50.25-6.592-50.25-6.592c-0.262-0.032-0.521,0.028-0.741,0.171
	l-9.548,6.243C10.287,6.598-0.176,86.005,0.002,86.238l7.317,9.513l6.033,9.415c0.185,0.289,0.494,0.475,0.835,0.504l49.301,4.131
	c0.031,0.003,0.062,0.004,0.094,0.004c0.23,0,0.457-0.073,0.646-0.211l6.865-4.992c0.066-0.035,0.133-0.066,0.189-0.12
	c0.012-0.012,0.016-0.025,0.025-0.038l5.037-3.663c0.248-0.179,10.252-77.128,10.236-77.157
	C86.565,23.591,86.545,23.561,86.524,23.533z M2.028,85.256L12.186,7.991l8.786-5.745l48.773,6.142l7.457,8.134l-10.49,77.05
	c-0.041,0.066-7.725,5.185-7.725,5.185L8.801,94.062L2.028,85.256z M14.914,103.518l-4.547-7.097L12.6,96.63
	c0.033,0.103,0.089,0.202,0.166,0.288l6.16,6.936L14.914,103.518z M21.229,104.047c-0.034-0.092-6.316-7.201-6.316-7.201
	l3.601,0.337c0.034,0.105,0.088,0.206,0.167,0.294l6.1,6.867L21.229,104.047z M27.103,104.541c-0.032-0.066-6.283-7.142-6.283-7.142
	l3.888,0.363c0.027,0.139,0.078,0.273,0.178,0.387l5.955,6.703L27.103,104.541z M33.217,105.051c-0.008-0.01-0.01-0.022-0.02-0.032
	l-6.26-7.048l4.117,0.385c0.025,0.043,0.041,0.09,0.074,0.129l6.135,6.906L33.217,105.051z M39.576,105.584
	c-0.033-0.08-0.072-0.161-0.134-0.23l-6.021-6.775l3.418,0.318c0.007,0.01,0.009,0.021,0.017,0.029l6.171,6.947L39.576,105.584z
	 M45.329,106.067c-0.035-0.097-6.088-6.944-6.088-6.944l4.127,0.386c0.029,0.05,0.047,0.104,0.088,0.149l6,6.756L45.329,106.067z
	 M51.829,106.611c-0.02-0.027-0.037-0.058-0.062-0.085l-6.039-6.798l3.527,0.33c0.029,0.138,5.918,6.833,5.918,6.833L51.829,106.611
	z M57.561,107.091l-6.061-6.823l3.645,0.341l6.027,6.785L57.561,107.091z M63.415,107.462c-0.031-0.053-0.064-0.104-0.105-0.151
	l-5.754-6.477l3.01-0.478l5.119,5.454L63.415,107.462z M67.03,104.833l-5.061-5.394l2.143-1.396l4.971,5.296L67.03,104.833z
	 M70.43,102.36l-4.912-5.232l2.277-1.485l4.816,5.131L70.43,102.36z M74.67,99.275l-0.711,0.519l-5.127-5.462l0.41-3.016
	l5.678,6.051L74.67,99.275z M75.198,95.248l-5.668-6.039l0.359-2.648l5.656,6.026L75.198,95.248z M75.825,90.466l-5.646-6.016
	l0.398-2.932l5.633,6.002L75.825,90.466z M76.485,85.403l-5.623-5.99l0.264-1.922l5.613,5.981L76.485,85.403z M77.016,81.353
	l-5.604-5.972l0.414-3.032l5.59,5.957L77.016,81.353z M77.692,76.187l-5.58-5.945l0.252-1.86l5.572,5.937L77.692,76.187z
	 M78.215,72.2l-5.562-5.928l0.42-3.082l5.549,5.912L78.215,72.2z M78.897,66.983l-5.539-5.9l0.42-3.086l5.525,5.887L78.897,66.983z
	 M79.581,61.762l-5.516-5.875l0.334-2.453l5.504,5.864L79.581,61.762z M80.182,57.178l-5.494-5.854l0.262-1.923l5.484,5.845
	L80.182,57.178z M80.711,53.128l-5.477-5.834l0.283-2.071l5.465,5.824L80.711,53.128z M81.262,48.927l-5.457-5.812l0.4-2.94
	l5.441,5.799L81.262,48.927z M81.926,43.854l-5.434-5.788l0.258-1.889l5.424,5.779L81.926,43.854z M82.452,39.836l-5.414-5.77
	l0.289-2.125l5.402,5.759L82.452,39.836z M83.008,35.583l-5.396-5.748l0.301-2.206l5.385,5.738L83.008,35.583z M83.577,31.248
	L78.2,25.52l0.264-1.922l5.365,5.717L83.577,31.248z M84.106,27.197l-5.357-5.707l0.389-2.843l5.32,5.86L84.106,27.197z"/>
</svg>
