<?xml version="1.0" encoding="utf-8"?>
<!-- Generator: Adobe Illustrator 16.0.0, SVG Export Plug-In . SVG Version: 6.00 Build 0)  -->
<!DOCTYPE svg PUBLIC "-//W3C//DTD SVG 1.1//EN" "http://www.w3.org/Graphics/SVG/1.1/DTD/svg11.dtd">
<svg version="1.1" id="eqxiu.com" xmlns="http://www.w3.org/2000/svg" xmlns:xlink="http://www.w3.org/1999/xlink" x="0px" y="0px"
	 width="89.646px" height="80.576px" viewBox="0 0 89.646 80.576" enable-background="new 0 0 89.646 80.576" xml:space="preserve">
<path id="eqxiu.com_1_" fill="#29B729" d="M29.124,41.246h-5.245V5.768c-0.067-4.131,3.118-4.131,3.118-4.131h14.177
	c3.837,0.015,3.684,3.207,3.684,3.207v32.083c-0.362,4.208-4.628,4.32-4.628,4.32h-8.793v-2.468l4.499-0.014
	c3.009-0.146,3.06-3.688,3.06-3.688V9.469c0-4.626-3.085-4.626-3.085-4.626h-6.787V41.246z M62.805,18.148
	c-15.894,4.652-16.196,23.11-16.196,23.11h4.778c1.853-19.208,10.944-21.232,16.74-22.801C85.79,13.674,89.646,1.636,89.646,1.636
	H59.62V0h-6.701c-1.233,8.124-4.285,13.393-4.285,13.393v7.122h6.153l-0.023-4.448c0.197-3.407,2.461-3.904,2.461-3.904H74.24
	l2.376-2.891H53.985l1.726-3.619l26.552,0.033C80.413,15.327,66.752,16.992,62.805,18.148z M85.466,10.104v6.81
	c0,0,0,0.628-0.664,0.753c-3.383,0.631-10.267,1.3-13.582,2.224c-6.892,1.921-12.5,4.181-17.622,21.358l3.702-0.003
	c0,0,3.29-17.643,12.761-20.062c5.567-1.421,17.221-1.35,17.221-1.35s2.229-0.101,2.344-2.424l-0.036-7.307H85.466z M89.625,24.888
	l-0.036-2.307c0,0-9.134,1.772-9.311,7.186c-0.063,1.969,0,8.354,0,10.458c0,4.344,6.251,6.981,9.347,7.507v-2.628
	c0,0-5.673-1.13-5.669-4.879c0.002-1.51,0-8.025,0-10.458C83.957,27.125,87.706,25.431,89.625,24.888z M80.071,58.367H44.815v3.561
	l32.589-0.008c0,0,2.445,0.225,2.649,1.586l0.017,4.863c0,0,0,1.557-2.602,1.913H61.695c0,0,0.038,2.287-3.559,4.062h21.935
	c0,0,4.649-0.586,4.891-4.062v-8.338C84.961,60.817,83.807,58.367,80.071,58.367z M59.633,72.66
	c-0.701,0.646-1.456,1.13-2.264,1.456c-1.132,0.537-2.371,0.755-3.719,0.7c-0.915-0.056-1.831-0.271-2.747-0.433
	c-0.648-0.163-1.294-0.217-1.938-0.268c-2.749-0.109-4.797,1.615-6.792,3.283c0,0-0.053,0.055-0.107,0.055
	c-1.78,1.456-3.664,2.588-5.927,2.965c-0.055,0.056-0.162,0.056-0.216,0.056c-1.615,0.212-3.286,0.105-4.848-0.433
	c-0.701-0.27-1.402-0.593-2.049-0.973c-0.861-0.587-1.508-1.237-2.155-1.937c-0.809-0.918-1.508-1.939-2.317-2.966
	c-0.808-0.97-1.671-1.563-2.91-1.507c-1.022,0-1.238,1.077-2.209,1.456c-1.939,0.755-4.041-0.595-4.148-2.59
	c-2.21-0.484-3.447-2.909-2.531-4.901c0.375-0.862,1.076-1.509,1.938-1.831c0.485-0.216,1.024-0.27,1.508-0.165
	c0.809,0.11,0.648-0.268,1.132-0.86c-1.617-0.862-2.048-3.071-0.863-4.472c0.325-0.324,0.702-0.646,1.132-0.808
	c-0.269-0.377-0.43-0.81-0.43-1.295c-0.054-0.752,0.215-1.562,0.701-2.1c0.591-0.702,1.454-1.079,2.37-1.079
	c-0.053-0.808,0.162-1.615,0.485-2.371c0.702-1.454,2.049-2.584,3.61-2.963c0.862-0.162,1.724-0.162,2.533,0.055
	c0.916,0.216,1.779,0.646,2.425,1.293c0.376,0.324,0.698,0.701,0.915,1.13c0.378,0.596,0.378,0.377,0.864,0.163
	c0.052,0,0.107,0,0.16,0c0.755-0.214,1.564-0.056,2.21,0.322c0.81,0.485,1.347,1.348,1.401,2.317c0.054,0.539,0.7,0.539,1.293,0.7
	c0.162,0,0.324,0.107,0.431,0.163c1.401,0.862,1.833,2.8,0.864,4.202c0.7,0.27,0.755,0.701,1.399,0.214
	c0.378-0.321,0.864-0.483,1.401-0.538c0.647-0.053,1.348,0.055,1.94,0.377c0.214,0.11,0.432,0.217,0.594,0.38
	c1.725,1.398,1.725,4.094,0,5.495c0.485,1.132,0.162,2.424-0.594,3.234c-0.484,0.591-1.184,0.968-2.047,0.968
	c-0.7,0.054-1.401-0.161-1.993-0.646c-0.376,0.323-0.809,0.484-1.24,0.591c-0.27,0.055-0.484,0.108-0.754,0.108
	c-0.376,0-0.753-0.054-1.078-0.161c-0.27,0.484-0.379,1.023-0.27,1.509c0.161,0.968,0.647,1.616,1.347,1.992
	c0.968,0.538,2.317,0.485,3.449,0.109c0.971-0.271,1.779-0.862,2.585-1.4c0.755-0.54,1.456-1.079,2.318-1.402
	c2.101-0.861,4.31-0.433,6.412,0.216c0.161,0.055,0.324,0.161,0.483,0.216c2.103,0.701,3.934,1.293,5.982,1.13
	c0.486,0,0.971-0.054,1.456-0.159c0.159-0.056,0.481-0.27,0.808-0.485c0.43-0.27,0.862-0.485,1.077-0.11
	c0.269,0.487-0.378,1.24-0.7,1.562C59.901,72.39,59.739,72.498,59.633,72.66z M34.092,70.881c-0.164-0.7-0.055-1.456,0.269-2.101
	c-0.538-0.324-1.022-0.808-1.345-1.348c-0.649-1.077-0.596-2.423,0-3.503c-0.972,0.377-1.618,1.08-1.941,1.889
	c-0.486,1.185-0.378,2.638,0,3.985c0.214,0.755,0.537,1.509,0.915,2.155c0.97,1.617,2.479,2.694,4.149,2.965
	c1.077,0.215,2.208,0.106,3.394-0.379c0.972-0.324,1.834-0.862,2.641-1.401c1.456-0.969,2.857-1.939,4.689-2.102
	c1.4-0.104,2.747,0.162,4.041,0.54c2.103,0.54,4.205,1.293,6.466,0.699c-2.316,0.217-4.363-0.699-6.466-1.4
	c-0.862-0.322-1.779-0.592-2.695-0.7c-2.532-0.323-4.147,0.861-6.035,1.994c-0.484,0.271-0.969,0.537-1.508,0.808
	c-1.4,0.7-3.18,0.916-4.526,0.377C35.17,72.982,34.361,72.227,34.092,70.881z M36.786,59.565c-0.215-0.055-0.432-0.105-0.646-0.16
	c-0.593-0.108-1.239-0.108-1.832,0c-1.239,0.214-2.317,0.81-3.232,1.616c-0.218,0.215-0.431,0.431-0.649,0.646
	c-2.316,2.693-1.992,6.949,0.649,9.322c-0.755-1.725-1.025-4.259,0-5.929c0.432-0.809,1.186-1.401,2.316-1.615
	c0.592-0.755,1.723-1.134,2.748-1.134c1.669,0,3.235,1.025,2.531,3.021c-0.16,0.485-0.862,0.214-0.7-0.217
	c0.218-0.701,0-1.348-0.592-1.778c-0.377-0.27-0.809-0.377-1.24-0.377c-0.862-0.055-1.778,0.322-2.316,1.078
	c-1.402,1.884,0.214,4.473,2.316,4.417c0.378,0,0.754-0.055,1.131-0.267c0.753-0.38,0.646-0.649,1.455-0.108
	c0.649,0.431,1.508,0.482,2.21,0.158c0.592-0.321,1.077-0.86,1.238-1.453c0.054-0.108,0.054-0.216,0.054-0.322
	c0.055-0.163,0-0.322-0.054-0.541c-0.107-0.484-0.323-1.022-0.161-1.345c0.054-0.054,0.108-0.163,0.161-0.217
	c0.539-0.646,1.079-0.968,1.186-1.941c0.054-0.807-0.27-1.562-0.754-2.152c-0.162-0.108-0.27-0.217-0.432-0.324
	c-1.132-0.916-2.262-0.324-3.448,0.324C38.189,60.59,37.271,59.729,36.786,59.565z M20.567,60.858
	c0.055,1.24,0.541,0.918,1.509,0.918c0.807-0.055,1.617,0.105,2.369,0.322c0.919,0.271,1.725,0.756,2.427,1.348
	c0.485,0.377,0.971,0.86,1.348,1.4c0.267-1.725,1.129-3.342,2.478-4.472c0.109-0.107,0.271-0.216,0.378-0.271
	c0.485-0.376,1.023-0.699,1.617-0.971c0.806-0.322,0.538-1.021,0.051-1.668c-0.376-0.54-1.021-0.918-1.667-0.971
	c-0.27,0-0.486,0-0.701,0.107c-0.379,0.106-0.917,0.646-1.293,0.215c-0.595-0.81-1.294-1.452-2.209-1.617
	c-0.323,0-0.647,0-1.024,0.108c-0.807,0.161-1.509,0.699-1.94,1.455c-0.215,0.376-0.161,1.562-0.702,1.671
	C21.807,58.65,20.515,59.19,20.567,60.858z M17.875,63.229c0.752-0.646,1.669-1.078,2.583-1.294
	c-0.807-1.721,0.432-3.771,2.32-3.932c0.646-0.056,0.592-1.132,1.023-1.778c0.486-0.646,1.185-1.131,1.938-1.292
	c0.378-0.108,0.754-0.108,1.133-0.056c0.593,0.056,1.131,0.27,1.615,0.592c0.378,0.271,0.702,0.647,0.92,1.078
	c0.267-0.161,0.536-0.269,0.805-0.322c0.27-0.108,0.594-0.108,0.864-0.055c1.345,0.108,2.53,1.24,2.53,2.641
	c0.809-0.216,1.672-0.27,2.534-0.161c0.162,0,0.378,0.053,0.539,0.107c0.969-1.133,0.485-2.641-0.539-3.288
	c-0.484-0.322-1.025-0.431-1.616-0.27c-0.753,0.165-0.377-1.185-0.486-1.562c-0.161-0.7-0.753-1.293-1.454-1.562
	c-0.484-0.161-1.023,0.054-1.508,0.219c-0.325,0.105-0.649,0.158-0.917,0.051c-0.752-0.324-1.078-1.562-1.779-2.101
	c-0.432-0.322-0.969-0.594-1.508-0.754c-1.456-0.431-3.125-0.108-4.312,0.969c-0.808,0.648-1.347,1.616-1.508,2.693
	c-0.054,0.485,0.108,1.348-0.594,1.616c-0.859,0.325-1.616,0.164-2.208,1.026c-0.43,0.646-0.485,1.507-0.109,2.208
	c0.433,0.86,0.485,0.808-0.321,1.187c-0.647,0.32-1.131,0.914-1.238,1.668C16.42,61.831,16.957,62.854,17.875,63.229z
	 M22.883,71.582c0.648-0.378,1.133-1.023,1.348-1.725c0.431-1.401-0.431-2.963-1.83-3.394c-1.349-0.377-4.097,0.806-3.128,2.586
	c0.971,1.778-0.968,0.646-0.913-0.702c0.16-3.338,4.956-3.393,6.303-0.915c0.431,0.807,0.108,1.833,0.97,2.102
	c0.431,0.108,0.861,0.323,1.24,0.646c0.323,0.217,0.593,0.431,0.861,0.757c1.132,1.185,1.833,2.691,2.857,3.934
	c0.161,0.159,0.323,0.322,0.486,0.428c1.4,1.403,3.232,1.941,5.064,1.887c1.508-0.053,3.018-0.483,4.419-1.295
	c0.538-0.375,1.076-0.752,1.615-1.13c0.97-0.701,1.887-1.454,3.019-1.939c1.723-0.699,3.556-0.375,5.385,0
	c0.108,0.054,0.217,0.054,0.326,0.108c2.103,0.43,4.417,0.646,6.466-0.108c0.322-0.109,0.647-0.271,0.971-0.432
	c-0.323,0.108-0.648,0.214-0.971,0.271c-2.261,0.537-4.311-0.162-6.466-0.756c-0.54-0.106-1.023-0.268-1.616-0.378
	c-2.694-0.484-4.688,0.378-6.9,1.889c-0.052,0.053-0.16,0.053-0.214,0.106c-1.778,1.185-3.717,2.103-5.98,1.886
	c0,0-0.054,0-0.054-0.055c-2.264-0.268-3.447-2.101-5.064-3.394c-0.054,0-0.054-0.055-0.054-0.055c-0.971-0.7-1.724-1.67-2.21-2.747
	c-0.482-1.132-0.324-2.64-0.968-3.558c-0.271-0.431-0.595-0.806-0.971-1.185c-1.456-1.399-3.557-2.155-5.604-1.885
	c-1.292,0.214-2.587,0.753-3.34,1.776c-0.325,0.487-0.541,1.185-1.24,1.132c-0.486,0-0.917-0.214-1.35-0.053
	c-2.476,0.537-2.853,4.039-0.59,5.173c0.916,0.432,1.023,0.322,1.344,1.346c0.217,0.699,0.704,1.293,1.403,1.563
	c0.754,0.27,1.618,0.108,2.209-0.379c0.377-0.32,0.485-0.967,0.861-1.185C21.161,71.526,22.185,71.959,22.883,71.582z
	 M58.449,72.712c-0.326,0.218-0.701,0.377-1.079,0.485c-2.049,0.757-4.311,0.485-6.466,0.109c-0.326-0.109-0.701-0.163-1.023-0.218
	c-1.941-0.485-3.772-0.485-5.551,0.594c-0.754,0.434-1.455,1.023-2.155,1.511c-0.592,0.483-1.238,0.916-1.94,1.293
	c-1.347,0.699-2.748,1.021-4.094,1.076c-1.832,0.055-3.61-0.538-5.064-1.78c-0.541-0.483-1.025-0.966-1.455-1.615
	c-0.863-1.185-1.563-2.641-2.749-3.556c-0.162-0.106-0.323-0.214-0.484-0.322c-0.431-0.271-0.862-0.432-1.347-0.538
	c-0.056,0.322-0.165,0.646-0.324,0.969c-0.325,0.593-0.809,1.131-1.401,1.455c1.561,0.808,2.371,2.425,3.448,3.716
	c0.053,0.057,0.053,0.109,0.108,0.165c0.971,1.185,2.101,2.208,3.503,2.907c0.215,0.106,0.431,0.217,0.701,0.271
	c1.617,0.646,3.394,0.755,5.064,0.429c1.618-0.322,3.235-1.022,4.579-2.046c0.486-0.377,0.971-0.756,1.455-1.131
	c2.425-1.887,4.689-3.504,8.082-2.965c0.217,0,0.431,0.055,0.648,0.107c2.208,0.325,4.417,0.701,6.466-0.27
	C57.748,73.197,58.123,72.982,58.449,72.712z M4.333,23.066c-0.401,0.07-0.804,0.165-1.205,0.188
	c-0.592,0.024-1.136-0.07-1.632-0.307C1.142,22.805,0.808,22.592,0.5,22.31c-0.046-0.072-0.118-0.119-0.166-0.191
	c-0.14-0.142-0.424-0.472-0.306-0.686c0.096-0.165,0.284-0.071,0.472,0.048c0.143,0.093,0.285,0.189,0.355,0.213
	c0.213,0.046,0.425,0.072,0.64,0.072c0.898,0.07,1.702-0.192,2.625-0.497c0.071-0.025,0.142-0.073,0.212-0.096
	c0.922-0.282,1.895-0.473,2.814-0.094c0.38,0.142,0.687,0.376,1.017,0.615c0.357,0.235,0.711,0.498,1.138,0.616
	c0.495,0.163,1.087,0.188,1.512-0.049c0.308-0.167,0.522-0.45,0.593-0.876c0.046-0.213,0-0.45-0.118-0.662
	c-0.143,0.048-0.31,0.072-0.475,0.072c-0.118,0-0.211-0.023-0.331-0.047c-0.188-0.049-0.378-0.119-0.544-0.26
	c-0.259,0.211-0.567,0.307-0.875,0.284c-0.378,0-0.686-0.166-0.9-0.426c-0.33-0.354-0.472-0.923-0.26-1.421
	c-0.757-0.614-0.757-1.796,0-2.412c0.071-0.07,0.166-0.118,0.26-0.166c0.263-0.143,0.569-0.189,0.854-0.165
	c0.234,0.021,0.448,0.093,0.614,0.236c0.283,0.212,0.306,0.023,0.615-0.094c-0.425-0.618-0.237-1.468,0.378-1.847
	c0.047-0.024,0.118-0.069,0.188-0.069c0.261-0.073,0.544-0.073,0.568-0.31c0.024-0.425,0.261-0.804,0.615-1.017
	c0.284-0.166,0.638-0.236,0.97-0.143c0.023,0,0.047,0,0.071,0c0.212,0.095,0.212,0.191,0.377-0.071
	c0.097-0.188,0.238-0.354,0.403-0.496c0.285-0.284,0.663-0.473,1.063-0.567c0.357-0.095,0.735-0.095,1.111-0.024
	c0.687,0.166,1.28,0.663,1.587,1.301c0.141,0.331,0.235,0.685,0.212,1.042c0.402,0,0.782,0.165,1.041,0.472
	c0.214,0.236,0.332,0.592,0.308,0.923c0,0.212-0.071,0.402-0.188,0.567c0.188,0.071,0.354,0.213,0.498,0.356
	c0.521,0.615,0.33,1.583-0.38,1.961c0.213,0.262,0.141,0.427,0.497,0.38c0.213-0.048,0.449-0.024,0.662,0.071
	c0.379,0.143,0.686,0.426,0.853,0.805c0.4,0.875-0.143,1.939-1.111,2.152c-0.049,0.875-0.971,1.467-1.822,1.136
	c-0.428-0.166-0.521-0.638-0.971-0.638c-0.544-0.025-0.922,0.235-1.277,0.66c-0.356,0.452-0.661,0.899-1.019,1.302
	c-0.284,0.308-0.566,0.593-0.944,0.851c-0.285,0.166-0.591,0.309-0.9,0.426c-0.686,0.237-1.42,0.285-2.129,0.19
	c-0.024,0-0.071,0-0.095-0.023c-0.992-0.167-1.82-0.663-2.601-1.302c-0.024,0-0.049-0.024-0.049-0.024
	c-0.875-0.733-1.773-1.49-2.979-1.442C4.901,22.969,4.617,22.994,4.333,23.066z M10.579,16.204c0.07-0.021,0.165-0.046,0.235-0.046
	c0.379-0.048,0.759-0.023,1.113,0.07c0-0.613,0.521-1.111,1.111-1.158c0.118-0.024,0.261-0.024,0.377,0.023
	c0.12,0.023,0.238,0.072,0.355,0.142c0.095-0.189,0.237-0.354,0.402-0.472c0.213-0.142,0.449-0.236,0.709-0.26
	c0.167-0.025,0.332-0.025,0.499,0.024c0.33,0.07,0.637,0.282,0.851,0.566c0.188,0.285,0.166,0.757,0.449,0.781
	c0.829,0.072,1.372,0.971,1.019,1.727c0.4,0.096,0.803,0.285,1.133,0.569c0.402-0.167,0.639-0.616,0.568-1.041
	c-0.048-0.332-0.26-0.592-0.544-0.733c-0.354-0.167-0.33-0.143-0.141-0.521c0.164-0.307,0.141-0.685-0.048-0.97
	c-0.259-0.377-0.592-0.308-0.968-0.45c-0.309-0.118-0.238-0.497-0.261-0.71c-0.072-0.471-0.308-0.897-0.664-1.182
	c-0.519-0.473-1.253-0.615-1.892-0.425c-0.237,0.071-0.472,0.188-0.662,0.33c-0.308,0.237-0.449,0.781-0.779,0.924
	c-0.119,0.045-0.261,0.021-0.403-0.024c-0.214-0.072-0.451-0.166-0.663-0.095c-0.308,0.119-0.566,0.377-0.638,0.685
	c-0.046,0.167,0.118,0.756-0.213,0.686c-0.26-0.072-0.496-0.023-0.71,0.119C10.365,15.046,10.152,15.707,10.579,16.204z
	 M16.492,16.064c-0.236-0.048-0.211-0.568-0.309-0.735c-0.19-0.331-0.497-0.566-0.852-0.637c-0.165-0.048-0.306-0.048-0.449-0.048
	c-0.4,0.07-0.709,0.354-0.97,0.71c-0.166,0.19-0.4-0.047-0.566-0.095c-0.096-0.048-0.191-0.048-0.309-0.048
	c-0.285,0.024-0.567,0.19-0.733,0.427c-0.213,0.284-0.331,0.59,0.022,0.732c0.26,0.119,0.497,0.261,0.71,0.426
	c0.047,0.024,0.118,0.072,0.166,0.118c0.591,0.498,0.97,1.206,1.088,1.965c0.166-0.239,0.377-0.45,0.59-0.617
	c0.308-0.259,0.663-0.472,1.064-0.591c0.333-0.094,0.687-0.166,1.042-0.141c0.425,0,0.639,0.141,0.663-0.402
	C17.674,16.395,17.106,16.158,16.492,16.064z M11.832,18.522c-0.237-0.33-0.639-0.496-1.018-0.472c-0.188,0-0.378,0.048-0.544,0.167
	c-0.26,0.187-0.354,0.472-0.26,0.781c0.07,0.188-0.237,0.307-0.307,0.094c-0.308-0.875,0.377-1.326,1.111-1.326
	c0.45,0,0.948,0.167,1.207,0.497c0.497,0.096,0.828,0.354,1.018,0.711c0.449,0.733,0.33,1.846,0,2.6
	c1.159-1.039,1.301-2.907,0.285-4.09c-0.095-0.097-0.191-0.19-0.285-0.284c-0.403-0.354-0.875-0.616-1.42-0.71
	c-0.26-0.047-0.543-0.047-0.804,0c-0.095,0.023-0.188,0.047-0.281,0.071c-0.216,0.071-0.617,0.449-0.854,0.309
	c-0.521-0.286-1.016-0.544-1.515-0.144c-0.07,0.049-0.118,0.096-0.189,0.144c-0.212,0.26-0.354,0.59-0.331,0.945
	c0.048,0.427,0.284,0.568,0.52,0.852c0.025,0.023,0.049,0.07,0.073,0.094c0.071,0.142-0.024,0.378-0.073,0.592
	c-0.022,0.094-0.045,0.165-0.022,0.237c0,0.047,0,0.094,0.022,0.142c0.073,0.261,0.285,0.497,0.544,0.638
	c0.31,0.142,0.687,0.119,0.971-0.071c0.355-0.237,0.308-0.119,0.638,0.048c0.166,0.093,0.332,0.117,0.497,0.117
	C11.737,20.487,12.448,19.352,11.832,18.522z M1.496,22.143c0.994,0.26,1.916-0.07,2.837-0.307c0.568-0.166,1.159-0.284,1.774-0.237
	c0.804,0.071,1.42,0.496,2.057,0.923c0.357,0.236,0.734,0.473,1.16,0.615c0.521,0.213,1.018,0.26,1.49,0.166
	c0.734-0.118,1.396-0.59,1.821-1.302c0.166-0.284,0.309-0.615,0.403-0.946c0.166-0.592,0.212-1.23,0-1.75
	c-0.142-0.355-0.426-0.664-0.853-0.828c0.263,0.472,0.286,1.062,0,1.535c-0.141,0.239-0.353,0.45-0.59,0.593
	c0.142,0.285,0.19,0.615,0.117,0.924c-0.117,0.59-0.472,0.92-0.898,1.086c-0.592,0.236-1.372,0.142-1.986-0.166
	c-0.237-0.119-0.45-0.235-0.664-0.355c-0.826-0.496-1.538-1.016-2.649-0.874c-0.4,0.048-0.804,0.165-1.182,0.309
	C3.412,21.835,2.513,22.237,1.496,22.143z M1.069,22.191c0.143,0.07,0.285,0.139,0.427,0.188c0.898,0.333,1.916,0.235,2.837,0.048
	c0.048-0.025,1.751-0.354,2.508-0.048c0.497,0.213,0.899,0.544,1.323,0.852c0.238,0.165,0.476,0.331,0.711,0.496
	c0.615,0.356,1.276,0.544,1.938,0.568c0.804,0.023,1.61-0.212,2.224-0.828c0.071-0.047,0.143-0.119,0.212-0.19
	c0.45-0.545,0.758-1.205,1.253-1.726c0.119-0.142,0.239-0.236,0.378-0.332c0.167-0.142,0.357-0.236,0.544-0.285
	c0.378-0.116,0.236-0.567,0.427-0.923c0.59-1.087,2.697-1.062,2.767,0.404c0.025,0.591-0.828,1.087-0.4,0.307
	c0.425-0.781-0.781-1.301-1.372-1.134c-0.616,0.19-0.994,0.874-0.806,1.49c0.096,0.307,0.309,0.591,0.592,0.757
	c0.307,0.165,0.757-0.024,1.018,0.142c0.164,0.096,0.211,0.378,0.378,0.52c0.258,0.215,0.638,0.285,0.969,0.166
	c0.307-0.118,0.52-0.378,0.615-0.686c0.141-0.448,0.188-0.404,0.592-0.592c0.992-0.495,0.826-2.033-0.262-2.27
	c-0.19-0.072-0.378,0.022-0.592,0.022c-0.306,0.023-0.4-0.283-0.543-0.497c-0.331-0.448-0.897-0.685-1.466-0.78
	c-0.9-0.119-1.822,0.214-2.46,0.828c-0.165,0.166-0.307,0.331-0.424,0.52c-0.285,0.403-0.215,1.065-0.428,1.562
	c-0.211,0.472-0.543,0.898-0.969,1.206c0,0,0,0.023-0.023,0.023c-0.71,0.569-1.229,1.372-2.224,1.49
	c0,0.024-0.023,0.024-0.023,0.024c-0.994,0.095-1.845-0.307-2.627-0.828c-0.022-0.023-0.07-0.023-0.094-0.047
	c-0.968-0.662-1.843-1.041-3.027-0.828c-0.26,0.047-0.474,0.118-0.71,0.166c-0.946,0.26-1.843,0.568-2.837,0.333
	C1.354,22.285,1.211,22.237,1.069,22.191z M4.333,22.733c0.096-0.021,0.19-0.047,0.284-0.047c1.49-0.237,2.485,0.473,3.547,1.302
	c0.214,0.165,0.427,0.331,0.639,0.498c0.593,0.448,1.302,0.754,2.011,0.898c0.734,0.142,1.514,0.094,2.224-0.189
	c0.118-0.024,0.212-0.072,0.309-0.118c0.614-0.309,1.111-0.758,1.536-1.278c0.025-0.024,0.025-0.047,0.048-0.071
	c0.473-0.568,0.829-1.278,1.513-1.633c-0.26-0.141-0.472-0.377-0.614-0.639c-0.07-0.139-0.118-0.283-0.143-0.423
	c-0.211,0.046-0.402,0.117-0.59,0.236c-0.07,0.048-0.142,0.094-0.214,0.142c-0.521,0.401-0.827,1.039-1.206,1.559
	c-0.189,0.285-0.403,0.499-0.639,0.711c-0.639,0.544-1.42,0.805-2.224,0.78c-0.592-0.023-1.206-0.165-1.796-0.473
	c-0.31-0.166-0.591-0.356-0.854-0.567c-0.306-0.214-0.614-0.474-0.943-0.664c-0.782-0.472-1.588-0.472-2.438-0.26
	c-0.142,0.024-0.307,0.048-0.45,0.095c-0.946,0.165-1.939,0.282-2.837-0.047c-0.167-0.048-0.333-0.118-0.474-0.215
	c0.141,0.119,0.308,0.215,0.474,0.285C2.394,23.041,3.364,22.875,4.333,22.733z M14.47,59.008h-2.459
	c-2.678,0.022-4.062,0-4.062-1.693v-5.639c0.449-1.022,0.527-1.344,4.052-1.329h9.176c0.711-1.226,2.368-2.083,4.298-2.083
	c1.931,0,3.588,0.857,4.298,2.083h43.775c0,0,4.319,0.308,4.319-4.474V22.581H73.24c0,0-8.846-0.154-13.061,18.665h4.834
	c0,0,0.717-12.958,7.196-16.043V44.33c0,0-0.05,2.674-1.902,2.775H7.066c0,0-3.089,0-3.575,3.227v8.676
	c0.166,1.754,1.305,2.629,3.575,2.884l7.404,0.003V59.008z M5.369,23.545c0,0-0.735-0.079-1.851,0.293v14.323
	c-0.027,1.507,1.47,3.097,5.557,3.101l11.132-0.003v-3.167h-7.135c0,0-3.991,0.639-3.997-3.7V26.29
	C8.011,25.052,6.743,23.596,5.369,23.545z M7.182,20.19c0,0-1.312-2.971,0-4.319c0,0,0.652-0.731,1.893-0.816l0.006-7.149
	c0-2.243,1.866-3.056,3.991-3.056l7.135,0.013V1.67L9.081,1.661c0,0-5.123-0.375-5.562,3.182v15.919
	c0.115-0.075,0.231-0.13,0.346-0.224C3.864,20.539,6.564,19.536,7.182,20.19z"/>
</svg>
