<?xml version="1.0" encoding="utf-8"?>
<!-- Generator: Adobe Illustrator 17.0.0, SVG Export Plug-In . SVG Version: 6.00 Build 0)  -->
<!DOCTYPE svg PUBLIC "-//W3C//DTD SVG 1.1//EN" "http://www.w3.org/Graphics/SVG/1.1/DTD/svg11.dtd">
<svg version="1.1" id="图层_1" xmlns:ev="http://www.w3.org/2001/xml-events"
	 xmlns="http://www.w3.org/2000/svg" xmlns:xlink="http://www.w3.org/1999/xlink" x="0px" y="0px" width="200px" height="200px"
	 viewBox="0 0 200 200" enable-background="new 0 0 200 200" xml:space="preserve">
<path fill="#08A1EF" d="M0,200V0h200v200H0z M197,102h-5v-3h5V5.827l-3.36,3.36l-2.827-2.827l3.36-3.36H102v5h-3V3H5.827l3.36,3.36
	L6.36,9.187L3,5.827V99h5v3H3v92.173l3.36-3.36l2.827,2.827L5.827,197H99v-5h3v5h92.173l-3.36-3.36l2.827-2.827l3.36,3.36V102z
	 M178.092,180.919l2.827-2.827l6.36,6.36l-2.827,2.827L178.092,180.919z M178.092,19.081l6.36-6.36l2.827,2.827l-6.36,6.36
	L178.092,19.081z M184,102h-8v-3h8V102z M165.371,168.198l2.827-2.827l6.36,6.36l-2.827,2.827L165.371,168.198z M165.371,31.802
	l6.36-6.36l2.827,2.827l-6.36,6.36L165.371,31.802z M152.65,44.523l6.361-6.36l2.826,2.826l-6.36,6.361L152.65,44.523z M144,99h8v3
	h-8V99z M139.929,57.244l6.361-6.361l2.827,2.827l-6.361,6.361L139.929,57.244z M127.208,130.035l2.827-2.827l6.361,6.361
	l-2.827,2.827L127.208,130.035z M136,102h-8v-3h8V102z M127.208,69.965l6.361-6.361l2.827,2.827l-6.361,6.361L127.208,69.965z
	 M114.488,117.314l2.826-2.826l6.361,6.36l-2.827,2.827L114.488,117.314z M114.488,82.686l6.36-6.361l2.827,2.827l-6.361,6.36
	L114.488,82.686z M120,102h-8v-3h8V102z M101.767,104.594l2.827-2.827l6.36,6.36l-2.827,2.827L101.767,104.594z M101.767,95.406
	l6.36-6.36l2.827,2.827l-6.36,6.36L101.767,95.406z M99,80h3v8h-3V80z M99,64h3v8h-3V64z M99,48h3v8h-3V48z M99,32h3v8h-3V32z
	 M99,16h3v8h-3V16z M99,96h3v3h2v3h-2v2h-3v-2h-3v-3h3V96z M89.046,91.873l2.827-2.827l6.36,6.36l-2.827,2.827L89.046,91.873z
	 M80,99h8v3h-8V99z M76.325,79.152l2.827-2.827l6.36,6.361l-2.826,2.826L76.325,79.152z M63.604,133.569l6.361-6.361l2.827,2.827
	l-6.361,6.361L63.604,133.569z M72,102h-8v-3h8V102z M63.604,66.431l2.827-2.827l6.361,6.361l-2.827,2.827L63.604,66.431z
	 M50.883,146.29l6.361-6.361l2.827,2.827l-6.361,6.361L50.883,146.29z M50.883,53.71l2.827-2.827l6.361,6.361l-2.827,2.827
	L50.883,53.71z M56,102h-8v-3h8V102z M38.163,159.011l6.36-6.361l2.827,2.827l-6.361,6.36L38.163,159.011z M38.163,40.989
	l2.826-2.826l6.361,6.36l-2.827,2.827L38.163,40.989z M25.442,28.269l2.827-2.827l6.36,6.36l-2.827,2.827L25.442,28.269z M40,99v3
	h-8v-3H40z M34.629,168.198l-6.36,6.36l-2.827-2.827l6.36-6.36L34.629,168.198z M85.512,117.314l-6.36,6.361l-2.827-2.827
	l6.361-6.36L85.512,117.314z M98.233,104.594l-6.36,6.36l-2.827-2.827l6.36-6.36L98.233,104.594z M102,120h-3v-8h3V120z M102,136h-3
	v-8h3V136z M102,152h-3v-8h3V152z M102,168h-3v-8h3V168z M102,184h-3v-8h3V184z M149.117,146.29l-2.827,2.827l-6.361-6.361
	l2.827-2.827L149.117,146.29z M168,99v3h-8v-3H168z M161.837,159.011l-2.826,2.826l-6.361-6.36l2.827-2.827L161.837,159.011z M16,99
	h8v3h-8V99z M12.721,15.548l2.827-2.827l6.36,6.36l-2.827,2.827L12.721,15.548z M21.908,180.919l-6.36,6.36l-2.827-2.827l6.36-6.36
	L21.908,180.919z"/>
</svg>
