<?xml version="1.0" encoding="utf-8"?>
<!-- Generator: Adobe Illustrator 17.0.0, SVG Export Plug-In . SVG Version: 6.00 Build 0)  -->
<!DOCTYPE svg PUBLIC "-//W3C//DTD SVG 1.1//EN" "http://www.w3.org/Graphics/SVG/1.1/DTD/svg11.dtd">
<svg version="1.1" id="图层_1" xmlns:ev="http://www.w3.org/2001/xml-events"
	 xmlns="http://www.w3.org/2000/svg" xmlns:xlink="http://www.w3.org/1999/xlink" x="0px" y="0px" width="250px" height="250px"
	 viewBox="0 0 250 250" enable-background="new 0 0 250 250" xml:space="preserve">
<path fill="#08A1EF" d="M250,128h-90.71l89.332,15.752l-1.042,5.908l-89.332-15.751l85.24,31.024l-2.052,5.639l-85.24-31.025
	l78.557,45.355l-3,5.196l-78.557-45.355l69.488,58.307l-3.857,4.597l-69.488-58.308l58.308,69.488l-4.597,3.857l-58.307-69.488
	l45.355,78.557l-5.196,3l-45.355-78.557l31.025,85.24l-5.639,2.052l-31.024-85.24l15.751,89.332l-5.908,1.042L128,159.29V250h-6
	v-90.71l-15.752,89.332l-5.908-1.042l15.751-89.332l-31.024,85.24l-5.639-2.052l31.025-85.24l-45.355,78.557l-5.196-3l45.355-78.557
	L46.95,222.684l-4.597-3.857l58.308-69.488l-69.488,58.308l-3.857-4.597l69.488-58.307l-78.557,45.355l-3-5.196l78.557-45.355
	l-85.24,31.025l-2.052-5.639l85.24-31.024L2.42,149.66l-1.042-5.908L90.71,128H0v-6h90.71L1.378,106.248l1.042-5.908l89.332,15.751
	L6.512,85.067l2.052-5.639l85.24,31.025L15.247,65.098l3-5.196l78.557,45.355L27.316,46.95l3.857-4.597l69.488,58.308L42.353,31.173
	l4.597-3.857l58.307,69.488L59.902,18.247l5.196-3l45.355,78.557L79.428,8.564l5.639-2.052l31.024,85.24L100.34,2.42l5.908-1.042
	L122,90.71V0h6v90.71l15.752-89.332l5.908,1.042l-15.751,89.332l31.024-85.24l5.639,2.052l-31.025,85.24l45.355-78.557l5.196,3
	l-45.355,78.557l58.307-69.488l4.597,3.857l-58.308,69.488l69.488-58.308l3.857,4.597l-69.488,58.307l78.557-45.355l3,5.196
	l-78.557,45.355l85.24-31.025l2.052,5.639l-85.24,31.024l89.332-15.751l1.042,5.908L159.29,122H250V128z"/>
</svg>
