<?xml version="1.0" encoding="utf-8"?>
<!-- Generator: Adobe Illustrator 16.0.0, SVG Export Plug-In . SVG Version: 6.00 Build 0)  -->
<!DOCTYPE svg PUBLIC "-//W3C//DTD SVG 1.1//EN" "http://www.w3.org/Graphics/SVG/1.1/DTD/svg11.dtd">
<svg version="1.1" id="eqxiu.com" xmlns="http://www.w3.org/2000/svg" xmlns:xlink="http://www.w3.org/1999/xlink" x="0px" y="0px"
	 width="113.493px" height="112.896px" viewBox="0 0 113.493 112.896" enable-background="new 0 0 113.493 112.896"
	 xml:space="preserve">
<path fill="#FFFFFF" d="M95.413,109.46l-12.549,1.269c-0.189,0.449-0.619,0.756-1.111,0.756c-0.063,0-0.129-0.005-0.193-0.015
	l-21.127-3.368c-0.324-0.052-0.612-0.23-0.804-0.496c-0.148-0.207-0.203-0.455-0.205-0.705l-1.043-0.2
	c-0.089,0.237-0.228,0.453-0.441,0.597c-0.203,0.137-0.441,0.207-0.682,0.207c-0.085,0-0.171-0.009-0.256-0.026l-22.964-4.898
	c-0.398-0.085-0.691-0.365-0.845-0.713l-1.369-0.263c-0.109,0.589-0.624,1.002-1.203,1.002c-0.069,0-0.14-0.006-0.211-0.019
	L2.239,97.688c-0.477-0.083-0.926-1.873-0.544-2.172l6.644-5.199l0.339-2.712c0,0-7.502,0.197-7.438-0.198l5.205-32.15
	c0.083-0.514,0.481-0.918,0.994-1.01l7.722-1.379l0.591-3.543l-6.251-1.562c-0.622-0.156,4.911-32.419,5.501-32.419
	c0.033,0,1.383,0.107,1.383,0.107l7.956-13.823l87.405,15.667L95.413,109.46z"/>
<path fill="#040000" d="M113.474,16.573c0.115-0.664-0.327-1.296-0.99-1.415L60.842,5.87c-0.152-0.026-5.657,1.045-5.657,1.045
	s0.583-1.581,0.405-1.928c-0.177-0.347-32.05-5.397-32.305-4.96L15.02,14.119c-0.006,0-0.013-0.001-0.019-0.001
	c-1.181,0-2.206,0.849-2.411,2.031L7.385,46.155c-0.219,1.265,0.574,2.483,1.819,2.794l5.155,1.289l-0.262,1.577l-6.872,1.227
	c-1.024,0.183-1.821,0.993-1.987,2.02L0.032,87.211c-0.129,0.792,2.738,2.825,2.898,2.793l4.322-0.863l-6.312,5.412
	c-0.762,0.597-1.102,1.586-0.866,2.525c0.236,0.938,1.002,1.65,1.956,1.816c0,0,28.453,4.936,28.592,4.936
	c0.717,0,1.383-0.317,1.839-0.837c0.336,0.382,0.787,0.669,1.321,0.783l22.964,4.899c0.169,0.036,1.469-0.089,1.876-0.362
	c0.002-0.001,0.004-0.002,0.006-0.003c0.001,0.003,0.004,0.005,0.006,0.008c0.381,0.532,0.959,0.89,1.605,0.992
	c0,0,21.752,3.598,21.822,3.586l14.288-2.45C96.86,110.359,113.474,16.573,113.474,16.573z M96.443,100.352l-10.899,2.271
	l0.857-5.011l10.912-2.274L96.443,100.352z M87.731,89.842l10.932-2.279l-0.898,5.179l-10.919,2.276L87.731,89.842z M99.114,84.967
	l-10.938,2.279l0.826-4.822l10.95-2.282L99.114,84.967z M100.402,77.546l-10.957,2.283c0,0,2.799-1.977,2.991-3.163l0.463-2.853
	l8.457-1.763L100.402,77.546z M64.096,18.351l4.291-8.634l3.729,0.67l-4.317,8.687L64.096,18.351z M61.588,8.494l4.288,0.771
	l-4.273,8.598c0,0-4.168-0.646-4.379-0.589L61.588,8.494z M74.626,10.839l3.896,0.7l-4.364,8.778l-3.867-0.756L74.626,10.839z
	 M81.032,11.991l3.664,0.659l-4.407,8.867l-3.637-0.711L81.032,11.991z M87.207,13.101l3.191,0.574l-4.447,8.948l-3.169-0.62
	L87.207,13.101z M92.908,14.126l3.123,0.562l-4.487,9.028l-3.101-0.606L92.908,14.126z M98.542,15.14l3.55,0.638l-4.53,9.115
	l-3.524-0.689L98.542,15.14z M99.963,25.561l4.639-9.332l4.206,0.756l-8.289,13.528l0.478-2.456
	C101.189,27.064,100.751,26.095,99.963,25.561z M108.801,29.169l-5.379,1.293l7.192-11.739L108.801,29.169z M102.965,62.781
	l-8.567,1.787l0.604-3.727l8.611-1.796L102.965,62.781z M101.807,69.455l-8.488,1.769l0.659-4.066l8.537-1.779L101.807,69.455z
	 M104.065,56.45l-8.643,1.802c0,0,0.719-4.695,0.692-4.919l8.811-1.836L104.065,56.45z M105.374,48.912
	c-0.019,0.003-0.037-0.003-0.056,0l-8.846,1.844c0.104-0.203,0.968-4.41,0.968-4.41l8.693-1.812L105.374,48.912z M106.583,41.943
	c-0.008,0.001-0.016-0.002-0.023,0l-8.612,1.795l0.69-3.553l8.561-1.784L106.583,41.943z M107.649,35.806l-8.504,1.772l0.039-0.197
	l2.428-3.963l6.733-1.62L107.649,35.806z M58.75,8.7l-4.737,9.528l-5.235,1.571l5.025-10.11L58.75,8.7z M48.116,15.629
	c-0.387-0.469-3.929-1.216-3.929-1.216l4.52-8.425c0.023-0.043,0.024-0.091,0.042-0.137l3.914,0.636L48.116,15.629z M30.712,2.922
	l3.423,0.556l-4.733,8.823l-3.432-0.49l4.707-8.774C30.697,3,30.696,2.959,30.712,2.922z M36.691,3.893l3.373,0.548l-4.676,8.715
	l-3.405-0.486L36.691,3.893z M42.621,4.856l3.6,0.585l-4.616,8.603l-3.634-0.519L42.621,4.856z M24.974,1.99l3.207,0.521
	l-4.792,8.931l-3.18,3.085l-2.472-0.198L24.974,1.99z M30.618,101.381L2.45,96.481l7.042-5.511l0.612-4.899l-7.654,1.53
	l5.205-32.148l8.573-1.531l0.919-5.511l-7.349-1.837l4.997-28.808c0.489,0.085,1.564-1.089,1.564-1.089l6.299,0.504v-3.369
	l23.576,3.369L30.618,101.381z M63.38,72.293l-6.124,33.986l-22.964-4.898l14.39-78.996l9.186-2.756l40.723,7.961l-4.286,22.045
	l-25.72-4.593l-0.612,4.593l25.72,3.98l-3.675,22.658h-2.449l-5.817,33.986l-21.127-3.368l5.817-33.985L63.38,72.293z
	 M84.276,110.031l0.823-4.813l10.893-2.27l-0.908,5.23L84.276,110.031z"/>
</svg>
