<?xml version="1.0" encoding="utf-8"?>
<!-- Generator: Adobe Illustrator 16.0.0, SVG Export Plug-In . SVG Version: 6.00 Build 0)  -->
<!DOCTYPE svg PUBLIC "-//W3C//DTD SVG 1.1//EN" "http://www.w3.org/Graphics/SVG/1.1/DTD/svg11.dtd">
<svg version="1.1" id="eqxiu" xmlns="http://www.w3.org/2000/svg" xmlns:xlink="http://www.w3.org/1999/xlink" x="0px" y="0px"
	 width="81.265px" height="143.66px" viewBox="39.367 16.34 81.265 143.66" enable-background="new 39.367 16.34 81.265 143.66"
	 xml:space="preserve">
<path fill="#E84D12" d="M83.125,20.896c0.096-0.136,0.2-0.262,0.314-0.374c2.125-2.069,6.479-3.484,9.271-4.183
	c-0.286,0.999-0.287,1.003-0.287,1.003c-0.221,0.773-2.638,2.295-3.21,2.894c-1.303,1.362-2.289,4.095-4.276,4.577
	C82.354,25.441,82.02,22.48,83.125,20.896z"/>
<path d="M51.278,71.25c0,0-0.43,11.326-0.43,11.613c0.287-0.573,9.749-6.738,9.749-6.738c2.007-0.574,2.294,1.146,2.436,1.29
	c-1.865,0.86-14.766,12.76-15.052,13.047c-0.717-0.717-2.868-3.298-2.868-3.298l2.868-2.007V71.25H51.278z M58.416,151.284v0.885
	c0.751,0.076,1.319,0.301,1.682,0.688c0.453,0.543,0.754,1.479,0.905,2.804h0.452v-7.777h-0.452
	c-0.151,1.326-0.452,2.231-0.905,2.714C59.735,150.982,59.167,151.208,58.416,151.284z M63.641,148.697h0.528v-4.612h-5.753v0.858
	c0.223-0.065,0.503-0.084,0.853-0.045c1.507,0,2.563,0.271,3.166,0.813C63.087,146.255,63.49,147.25,63.641,148.697z M58.446,63.222
	c0.287,0.286,12.473-8.603,10.896-24.373c0,0.144-2.294-6.452-4.158-5.592c0,0,5.591,15.914-8.602,29.248
	C56.726,62.505,57.299,64.799,58.446,63.222z M53.285,48.311c2.007,0.431,2.15-5.305,1.577-5.878
	c-0.574-1.721-8.029-6.021-8.315-6.021c-2.294-2.294-2.868,0-2.868,0C46.833,38.418,53.428,48.311,53.285,48.311z M113.867,151.291
	v0.871c0.805,0.064,1.41,0.29,1.79,0.693c0.452,0.543,0.754,1.479,0.903,2.805h0.453v-7.777h-0.453
	c-0.149,1.326-0.451,2.231-0.903,2.713C115.277,151.002,114.672,151.227,113.867,151.291z M74.36,35.407h7.312v25.807h3.871V36.268
	l2.438-0.876l-3.871-3.568l-2.723,2.15l-11.328,0.431l2.151,2.007L74.36,35.407z M119.2,148.697h0.526v-4.612h-5.859v0.892
	c0.234-0.097,0.554-0.123,0.961-0.078c1.508,0,2.562,0.272,3.166,0.814C118.646,146.255,119.05,147.25,119.2,148.697z
	 M48.411,69.816h3.011l0.287-10.753l2.438-2.724l-3.441-3.298c0,0-3.011,3.584-3.154,3.441c-1.72,0-8.172,0.859-8.172,0.859v2.868
	c2.724-0.717,9.032-1.435,9.032-1.435L48.411,69.816L48.411,69.816z M120.525,34.404H113.5l-0.145-14.051l2.008-1.146
	c0,0-1.434-2.007-6.596-2.867v19.211h11.758V34.404z M73.667,144.538c-0.151,0-0.428-0.091-0.83-0.272
	c-0.787-0.332-1.462-0.505-2.035-0.531v0.744c1.638,0.172,2.823,1.569,3.543,4.22h0.528v-4.974H74.27
	C74.22,144.266,74.018,144.538,73.667,144.538z M75.938,80.855c4.158-5.734,8.171-15.055,8.171-15.055
	c0.287-0.717-3.297-3.44-3.297-3.44c-4.73,1.146-17.778,2.294-17.778,2.294l-2.436,2.867c4.731,6.882,11.326,13.333,11.326,13.333
	c-9.032,10.18-19.642,16.058-19.498,15.914c-0.144,0.431,1.003,2.008,1.003,1.863C70.776,88.454,74.074,82.72,73.93,82.72
	c0.86,0.573,12.903,14.48,13.046,14.48c8.603-0.86,13.477-1.005,13.477-1.005s0,0,0-2.149c-5.878,0.431-12.616-2.294-12.473-2.438
	C85.975,90.748,75.794,80.855,75.938,80.855z M107.191,36.698v-2.294H90.848l2.15,2.294H107.191z M73.291,151.048l-2.488-1.45v4.34
	l0.15,0.096c1.508,0.664,2.236,1.598,2.187,2.804c-0.1,1.599-0.88,2.438-2.337,2.522v0.631c2.866-0.17,4.4-1.729,4.599-4.691
	C75.401,153.43,74.697,152.014,73.291,151.048z M90.402,144.085v0.543c1.257,0.062,1.834,0.633,1.734,1.718v10.941
	c0,0.724-0.103,1.207-0.303,1.447c-0.201,0.242-0.678,0.393-1.432,0.451v0.543h4.447v-0.543c-0.754-0.06-1.258-0.271-1.509-0.633
	c-0.252-0.301-0.377-0.873-0.377-1.718v-10.762l4.825,13.655h0.527l0.539-1.568v-3.958l-3.555-10.118L90.402,144.085L90.402,144.085
	z M120.104,154.938c-0.955,2.772-2.639,4.129-5.051,4.068c-0.519,0.026-0.908-0.043-1.187-0.195v0.92h6.012l0.754-4.793H120.104z
	 M85.503,144.628c1.356,0,1.983,0.784,1.886,2.351v7.055c0.092,3.044-0.856,4.686-2.839,4.936v0.904
	c1.099-0.214,1.97-0.684,2.612-1.408c0.65-0.845,1.004-2.32,1.055-4.432v-7.415c-0.102-1.267,0.402-1.929,1.508-1.989v-0.543h-4.222
	V144.628z M39.367,144.628c0.703,0.062,1.13,0.212,1.281,0.452c0.251,0.302,0.377,0.874,0.377,1.718v10.22
	c0,0.844-0.101,1.416-0.301,1.717c-0.151,0.242-0.604,0.394-1.357,0.453v0.543h4.776v-15.646h-4.776V144.628z M81.206,154.484
	v-7.688c0-0.904,0.124-1.477,0.377-1.718c0.149-0.302,0.651-0.452,1.507-0.452v-0.543h-6.558v0.543
	c0.704,0.061,1.131,0.241,1.282,0.543c0.2,0.241,0.302,0.783,0.302,1.627v7.688c-0.051,1.988,0.401,3.406,1.356,4.25
	c0.905,0.845,2.211,1.266,3.92,1.266c0.198-0.007,0.393-0.021,0.58-0.042v-0.953C82.077,158.992,81.156,157.486,81.206,154.484z
	 M99.438,154.204v2.276l3.705-10.769h0.076v11.665c0,0.664-0.126,1.116-0.377,1.355c-0.15,0.182-0.604,0.332-1.357,0.453v0.543
	h6.408v-0.543c-0.805-0.121-1.281-0.302-1.432-0.543c-0.202-0.24-0.303-0.783-0.303-1.627v-10.22c0-0.844,0.125-1.416,0.377-1.718
	c0.15-0.24,0.604-0.393,1.355-0.452v-0.543h-4.897L99.438,154.204z M108.57,144.628c1.207,0,1.783,0.573,1.734,1.718v11.123
	c0,0.604-0.127,1.025-0.378,1.266c-0.149,0.182-0.604,0.332-1.356,0.453v0.543h4.718v-15.646h-4.718V144.628z M53.012,144.628
	c1.206,0,1.783,0.573,1.733,1.718v11.123c0,0.604-0.125,1.025-0.376,1.266c-0.151,0.182-0.603,0.332-1.357,0.453v0.543h4.826V158.1
	c-0.013-0.11-0.016-0.229-0.001-0.358v-5.607c0,0,0,0,0.001,0v-0.812h-0.001v-5.335c-0.016-0.135-0.012-0.254,0.001-0.362v-1.537
	h-4.826V144.628z M51.881,158.734l-3.92-6.603c2.06-0.723,3.065-2.049,3.016-3.979c-0.051-2.651-1.86-4.008-5.428-4.068h-0.827
	v0.825c0.181-0.04,0.403-0.048,0.676-0.013c1.557,0,2.336,1.117,2.336,3.348c0,1.387-0.251,2.32-0.753,2.803
	c-0.393,0.42-1.147,0.655-2.259,0.711v0.741l3.993,7.229h3.92v-0.543C52.383,159.188,52.132,159.037,51.881,158.734z
	 M66.355,148.335c-0.102,1.931,1.004,3.56,3.317,4.883l0.552,0.353v-4.315c-0.691-0.412-1.16-0.78-1.382-1.1
	c-0.252-0.361-0.376-0.873-0.376-1.537c0.045-1.204,0.636-1.905,1.758-2.116v-0.753C67.788,143.957,66.498,145.484,66.355,148.335z
	 M44.722,159.729h1.128v-0.543c-0.53-0.078-0.904-0.186-1.128-0.316V159.729z M66.731,154.484h-0.527V160h0.527
	c0.101-0.421,0.302-0.633,0.604-0.633c0.151,0,0.426,0.061,0.83,0.181c0.737,0.246,1.422,0.388,2.06,0.433v-0.653
	C68.494,159.07,67.328,157.459,66.731,154.484z M59.495,159.006c-0.451,0.021-0.81-0.021-1.079-0.135v0.857h5.903l0.754-4.793
	h-0.527C63.59,157.71,61.907,159.066,59.495,159.006z M114.396,41.137c-0.024,0.466-0.283,0.929-0.772,1.391
	c-0.513,0.44-1.213,0.668-2.099,0.685c-0.977-0.028-1.672-0.333-2.088-0.911c-0.373-0.601-0.558-1.366-0.551-2.297
	c0-0.066,0.014-0.145,0.035-0.232l0.034-0.199c0-0.089-0.011-0.188-0.031-0.3c-0.021-0.089-0.044-0.145-0.065-0.166
	c0.066-0.022,0.111-0.044,0.134-0.065c0.267-0.065,0.521-0.086,0.765-0.062l1.895,0.146c0.134,0,0.354,0.013,0.664,0.037
	c0.289,0.002,0.511,0.015,0.666,0.037c0.396,0.07,0.651,0.104,0.764,0.105c0.354,0.002,0.586,0.07,0.695,0.204
	c-0.021,0-0.032,0.011-0.032,0.033c-0.181,0.309-0.347,0.474-0.502,0.495c-0.044-0.022-0.11-0.046-0.199-0.068
	c-0.199-0.067-0.365-0.091-0.498-0.069c0.021,0.021,0.088,0.056,0.199,0.102C114.07,40.359,114.4,40.738,114.396,41.137z
	 M113.865,41.267c0.023-0.311-0.174-0.578-0.594-0.802c-0.529-0.292-1.205-0.54-2.022-0.744c-0.155-0.046-0.276-0.068-0.365-0.069
	l-0.563-0.004c-0.531-0.092-0.82-0.104-0.864-0.039c-0.046,0.044-0.058,0.321-0.039,0.831c-0.004,0.599,0.138,1.098,0.423,1.498
	c0.307,0.401,0.926,0.604,1.855,0.611c0.621-0.019,1.076-0.104,1.365-0.258c0.312-0.22,0.522-0.406,0.635-0.561
	C113.764,41.575,113.818,41.421,113.865,41.267z M112.033,46.872c-0.049,0.553-0.416,0.861-1.104,0.923
	c-0.598-0.093-0.929-0.438-0.99-1.037c0.002-0.199,0.059-0.398,0.17-0.597v-0.033c-0.045-0.001-0.077-0.001-0.101-0.001
	c-0.442-0.003-0.666,0.217-0.669,0.66c-0.002,0.311,0.096,0.71,0.292,1.198c0.043,0.111,0.087,0.212,0.132,0.301l-0.398-0.003
	c-0.198-0.29-0.342-0.545-0.428-0.767c-0.043-0.245-0.074-0.467-0.097-0.666c0.025-0.354,0.127-0.643,0.306-0.862
	c0.269-0.309,0.602-0.45,1-0.426c0.442,0.003,0.853,0.127,1.228,0.374C111.793,46.205,112.014,46.517,112.033,46.872z
	 M111.467,47.001c-0.021-0.2-0.175-0.39-0.461-0.568c-0.045-0.022-0.111-0.057-0.199-0.102c-0.089-0.045-0.178-0.078-0.266-0.101
	l-0.032-0.001l-0.034,0.1c-0.045,0.066-0.057,0.133-0.035,0.2c0.043,0.398,0.272,0.633,0.694,0.702
	C111.354,47.232,111.466,47.155,111.467,47.001z M112.037,51.326l0.195,0.6l-0.365-0.003l-0.1-0.001
	c-0.379-0.002-0.832,0.116-1.365,0.357c-0.578,0.262-0.935,0.403-1.066,0.425c-0.312-0.002-0.465-0.181-0.463-0.535l0.001-0.133
	c0.024-0.244,0.069-0.487,0.138-0.73c0.09-0.177,0.135-0.276,0.137-0.298l-0.229-0.6l1.457,0.674
	c0.354,0.157,0.797,0.238,1.329,0.241l0.132,0.034l0.033,0.033L112.037,51.326z M110.506,51.682
	c-0.133-0.09-0.331-0.181-0.597-0.271c-0.155-0.067-0.267-0.112-0.332-0.135c-0.021,0-0.056,0.044-0.101,0.133
	c-0.156,0.242-0.235,0.385-0.235,0.43c-0.001,0.089,0.075,0.167,0.231,0.234c0.088,0.001,0.286-0.064,0.598-0.195L110.506,51.682z
	 M109.684,55.299c0.289-0.021,0.666,0.026,1.131,0.141c0.109,0.022,0.199,0.046,0.265,0.068c0.067,0,0.155,0.012,0.267,0.034
	c0.065,0.022,0.11,0.046,0.133,0.067c0.133-0.021,0.244-0.076,0.334-0.164c0.065-0.11,0.102-0.254,0.103-0.431
	c-0.843-0.139-1.34-0.208-1.494-0.209c-0.288-0.047-0.565-0.049-0.831-0.006c-0.134,0.021-0.244,0.064-0.334,0.131l-0.334,0.264
	c-0.045,0.11-0.068,0.254-0.068,0.432c0.021,0.088,0.031,0.21,0.03,0.366l0.196,0.399l0.6,0.004l-0.33-0.533l-0.132-0.201
	C109.218,55.417,109.374,55.297,109.684,55.299z M112.743,55.153c-0.089-0.134-0.177-0.201-0.265-0.202
	c-0.223,0.021-0.356,0.198-0.402,0.53c-0.001,0.154,0.031,0.276,0.097,0.365c0.065,0.09,0.166,0.146,0.3,0.169
	c0.133,0.001,0.242-0.065,0.332-0.197c0.022-0.066,0.034-0.166,0.036-0.299c0-0.066-0.012-0.123-0.032-0.167
	c0-0.045-0.012-0.089-0.033-0.133c-0.021-0.021-0.021-0.033,0.002-0.033C112.754,55.142,112.743,55.131,112.743,55.153z
	 M108.482,61.041c0-0.022,0-0.045,0-0.066c-0.021-0.045-0.043-0.066-0.065-0.066l-0.332-0.002c-1.085-0.053-1.681-0.477-1.787-1.275
	l-0.062-0.599v-0.1c0.025-0.555,0.25-0.841,0.671-0.86c0.421,0.003,0.807,0.315,1.155,0.938l0.724,1.368l0.366,0.002
	c-0.197-0.334-0.297-0.645-0.295-0.933c0.004-0.51,0.293-0.763,0.869-0.759c0.399,0.003,0.83,0.16,1.295,0.474
	c0.463,0.357,0.692,0.703,0.69,1.035c-0.002,0.111-0.067,0.266-0.203,0.464l0.033,0.034l0.198,0.134
	c-0.022,0.066-0.066,0.144-0.135,0.231c0,0.022,0,0.044,0,0.066c-0.09,0.044-0.179,0.087-0.268,0.132l-1.261-0.341l-1.229-0.008
	l0.032,0.1c-0.001,0.088-0.022,0.166-0.067,0.232c-0.022,0.11-0.068,0.298-0.138,0.564L108.482,61.041z M109.29,59.65l0.032,0.067
	c0.152,0.244,0.352,0.467,0.594,0.668c0.109,0.089,0.453,0.147,1.029,0.173l0.135-0.099c0.021-0.066,0.033-0.089,0.033-0.066
	c0.044-0.066,0.066-0.11,0.066-0.133v-0.065c-0.461-0.646-0.969-1.016-1.521-1.107c-0.134-0.001-0.232,0.031-0.3,0.098l-0.067,0.1
	l-0.001,0.199l-0.001,0.133V59.65z M108.154,60.341l-0.492-0.867c-0.219-0.467-0.482-0.768-0.792-0.902v0.033
	c-0.134,0.176-0.201,0.364-0.203,0.563c-0.002,0.31,0.085,0.555,0.261,0.732c0.178,0.201,0.377,0.324,0.598,0.37L108.154,60.341z
	 M111.453,64.219l0.365,0.002l0.172-0.73c-0.133,0-0.266-0.001-0.398-0.002c-0.134,0.021-0.322,0.031-0.564,0.029l-0.102-0.001h-0.1
	c-0.62-0.004-1.318-0.064-2.094-0.181l-0.004,0.632c0.731-0.018,1.385,0.12,1.959,0.412c0.529,0.27,0.793,0.515,0.793,0.736
	c0,0.066-0.035,0.121-0.102,0.165v0.034c-0.111,0.021-0.268,0.042-0.466,0.062h-0.101c-0.287-0.047-0.51-0.07-0.664-0.071
	l-0.232-0.001c-0.753-0.027-1.131,0.247-1.137,0.823c0.021,0.421,0.107,0.665,0.263,0.732c0.088,0.022,0.21,0.035,0.365,0.036
	l-0.095-0.071l0.129-0.128c-0.09-0.023-0.131-0.223-0.129-0.6c0-0.11,0.033-0.177,0.102-0.198c0.154-0.088,0.434-0.097,0.831-0.028
	c0.021,0.001,0.065,0.001,0.133,0.001c1.041,0.073,1.563-0.178,1.567-0.754c0.002-0.354-0.229-0.655-0.692-0.901l-0.032-0.034h0.032
	C111.32,64.162,111.387,64.174,111.453,64.219z"/>
</svg>
