<?xml version="1.0" encoding="utf-8"?>
<!-- Generator: Adobe Illustrator 16.0.0, SVG Export Plug-In . SVG Version: 6.00 Build 0)  -->
<!DOCTYPE svg PUBLIC "-//W3C//DTD SVG 1.1//EN" "http://www.w3.org/Graphics/SVG/1.1/DTD/svg11.dtd">
<svg version="1.1" id="eqxiu" xmlns="http://www.w3.org/2000/svg" xmlns:xlink="http://www.w3.org/1999/xlink" x="0px" y="0px"
	 width="258.025px" height="449px" viewBox="0 0 258.025 449" enable-background="new 0 0 258.025 449" xml:space="preserve">
<path fill="#6C8A33" d="M232.116,203c5.251,0.153,13.477,0.592,17,3c2.667,0,5.334,0,8,0c-0.333-0.333-0.666-0.667-1-1
	c-7.188-10.321-21.492-6.088-30-13c-0.333-0.333-0.667-0.667-1-1c2.484-1.793,4.948-4.839,8-6c3.521-1.339,8.147-0.261,11-2
	c0.334-0.333,0.667-0.667,1-1c-9.778-2.252-26.473-2.207-35-4c0.325-2.307,0.464-2.484,1-4c3.831-0.994,12.532-4.058,17-1
	c1.333,0,2.667,0,4,0c0-0.667,0-1.333,0-2c-5.847-3.635-19.859-12.063-30-5c-2,0-4,0-6,0c2.032-5.729,8.001-6.345,12-10
	c1.726-0.645,0.979-0.196,2-1c-0.333-0.333-0.667-0.667-1-1c-12.418-0.252-23.725,0.823-30,9c-3.067-2.046-0.674-2.585-2-5
	c-1.012-1.038-15.533,4.972-18,7c-0.667,0-1.333,0-2,0c1.129-2.394,2.262-5.181,4-7c0,0-0.225-3.923-1-2
	c-0.333,0.333-0.667,0.667-1,1c0-9.333,0-18.667,0-28c11.332-0.333,22.668-0.667,34-1c-0.921-18.197-7.084-28.917-13-41
	c11.706-3.69,19.569,13.385,33,5c8.63-0.625,16.002-16.729,9-25c-1.701-4.797-5.208-4.533-10-6c0.366-4.022,3.743-9.263,3-10
	c0-0.333,0-0.667,0-1c0.667,0.333,1.333,0.667,2,1c0-0.333,0-0.667,0-1c2.681-2.108,3.091-3.983,3-9c-2.388-2.332-2.948-5.215-5-8
	c-1.917-2.602-5.698-3.746-8-6c-4.791-0.095-8.479-0.023-11,2c-2.421,1.77-2.266,3.616-4,6c0,0.333,0,0.667,0,1
	c-2.647-1.282-7.399-6.688-10-9c-4.579,1.649-6.955,5.57-11,8c-0.075,5.279,0.412,8.05,2,11c4.245,0.333,8.839,2.092,12,0
	c5.043,0.747,5.278,3,9,5c0.022,2.727,0.039,4.583,1,6c0,2,0,4,0,6c-2.77-0.482-2.889-1.207-5,0c-3.301,1.264-3.531,1.956-4,6
	c-5.333-2-10.667-4-16-6c-2.563-0.418-13.216,3.483-17,1c-1.391-0.913-0.988-4.154-3-5c-7.527-3.167-6.685,3.151-9-7
	c-4.623,0.14-5.135,0.306-7,3c-3.275-1.635-2.967-4.32-5-7c-2.015-1.646-4.189-1.985-8-2c-0.961-2.617-1.918-5.905-3-8
	c-2.319,0.227-2.82,0.197-4,1c-0.667,0-1.333,0-2,0c-0.333-2.333-0.667-4.667-1-7c-2.667-1.333-5.333-2.667-8-4c0-2,0-4,0-6
	c-2.766-1.074-7.537-1.624-9-4c-1.504-2.442,0.411-4.63-2-6c-1.808-1.027-5.19-1.053-7-2c0-2.333,0-4.667,0-7
	c-4.502-0.464-4.275-1.292-7-3c-1.333,1.667-2.667,3.333-4,5c-5.849-0.693-12.728,1.617-19,0c-4.217-1.087-10.611-2.996-16-4
	c-2.725,2.913-6.258,5.102-9,8c-2.533-0.106-3.705-0.123-5-1c-1.056-1.93-0.32-1.158,0-4c-0.333-0.333-0.667-0.667-1-1
	c-11.971-0.172-17.551,0.813-24,5v129.25c3.816-0.039,8.552-0.1,11,0.75c0,7.666,0,15.334,0,23c-3.333,0-7.783,0.094-11.116,0.094
	c0,1.667,0,2.604,0,4.271c4.93,0.13,40.784,0,52.116,0c0-9.999,0-20.366,0-30.365c10.666,0,21.334,0,32,0
	c0.009,7.934-0.256,16.491-1,23c-0.333,0.333-0.667,0.667-1,1c-6.478,0.077-15.134,0.657-20-1c-0.074-5.656-0.405-12.895,1-17
	c4.099-0.123,10.522-0.645,13,1c0.239,0.397,0.331,6.901,1,9c-0.333,0.333-0.667,0.667-1,1c-1.667,0-3.333,0-5,0
	c0-2.667,0-5.333,0-8c-1,0-2,0-3,0c0,3.667,0,7.333,0,11c4.333,0,8.667,0,13,0c0-6,0-12,0-18c-7.666,0-15.334,0-23,0
	c0.333,8.999,0.667,17.668,1,26.667c3.296,0.089,16.333,0,20,0c-0.879,2.36-0.376,0.983-2,2.333c4.986,4.889,14.439,9.091,21,12
	c0,0.333,0,0.667,0,1c-7.64-1.806-20.098-4.522-26-9c-4.186,0.895-3.378,1.997-6,4c0.007,3.326,0.287,5.951,1,8
	c9.524,2.553,21.513,5.139,34,5c-6.842,4.944-19.825,2.445-27,7c-2.533,0.105-3.705,0.123-5,1c0.405,0.639-0.248,5.018,1,7
	c0,1.667,0,3.333,0,5c12.947-5.045,30.954-11.005,46-9c-0.09-7.196,0.691-10.877,3-15c0.333-0.333,0.667-0.667,1-1
	c0.333,0,0.667,0,1,0c-0.346,23.152-0.031,42.655,0,69c-7.853-1.361-7.123-10.761-11-16c-6.063-8.194-20.637-9-28-16
	c-0.333,0-0.667,0-1,0c1.882,7.952,10.246,16.489,15,20c0,0.667,0,1.333,0,2c-2.796-1.788-5.359-4.009-7-7c-0.333,0-0.667,0-1,0
	c0.333,2,0.667,4,1,6c-2.931-1.361-4.521-4.304-6-7c-1.056,1.93-0.32,1.157,0,4c-4.596-0.761-6.221-2.414-11-3
	c0.929,0.911,1.743,1.35,3,2c-0.739,3.625,0.1,2.776-3,4c1.174,0.807,1.672,0.805,4,1c1.308,2.778,1.214,2.61,1,5
	c5.824,0.286,3.302,1.18,5,3c0.977,0.59,1.9,0.084,5,0c0,1.667,0,3.333,0,5c9.396,0.258,12.332,4.35,18,8c0,0.333,0,0.667,0,1
	c-4.878-0.079-10.982,0.991-13,0c-2.333,0-4.667,0-7,0c0.667,0.667,1.333,1.333,2,2c-1.817,1.325-5.245,1.675-7,3
	c-0.668,1.308,0.32,3.286,2,5c0,0.333,0,0.667,0,1c-2.533-0.105-3.705-0.123-5-1c-3.749,0.362-3.719,0.774-6,2
	c1.293,2.239,2.603,2.12,5,3c-1.511,1.427-3.878,2.183-6,3c0.667,0.667,1.333,1.333,2,2c-1.211,3.461-4.543,7.532-7,10
	c0,0.333,0,0.667,0,1c3.177-0.856,5.076-1.982,7-4c2.636,1.614,1.079-0.052,1,4c0.667-0.333,1.333-0.667,2-1
	c0.659-2.519,0.287-0.543,0-3c1.8,0.998,2.544,1.854,4,3c0.743-2.32,1.039-2.234,2-4c0.758,1.075,0.628,0.924,1,3
	c0.333,0,0.667,0,1,0c0.506-2.127,0.895-3.616,2-5c0-0.333,0-0.667,0-1c0.758,1.075,0.628,0.924,1,3c1.224-1.392,1.524-2.788,3-4
	c0.78,0.177,0.655-0.306,2,2c0.688-0.769,1.318-2.229,2-3c0-0.667,0-1.333,0-2c0.807,1.174,0.805,1.672,1,4c0.333,0,0.667,0,1,0
	c0.635-2.231,0.738-2.642,2-4c0-0.333,0-0.667,0-1c0.758,1.075,0.628,0.924,1,3c1.979-2.238,4.29-4.712,6-7
	c3.296-0.089,7.162-0.238,9,1c4.092,1.095,3.338,2.829,6,5c0,10.333,0,20.667,0,31c-1,0-2,0-3,0c0,1.667,0,3.333,0,5
	c-1.333,0-2.808-0.099-4.462,1.729c-2.521,7.734,2.404,15.817,2.237,17.859c-0.245,1.357-1.278,1.861-1.758,2.917
	c-0.741,1.632-1.033,3.135-1.5,5.011c-0.5,0-1,0-1.5,0c0,34.33,0,68.16,0,102.49c1,0,2,0,3,0c0-34.33,0-68.16,0-102.49
	c0.992,0,1.986,0,3,0c0,29.997,0,72.493,0,102.49c0.667,0,1.333,0,2,0c0-29.997,0-72.493,0-102.49c1.337,0,2.669,0,4,0
	c0,32.663,0,69.826,0,102.49c1,0,2,0,3,0c0-32.663,0-69.826,0-102.49c0.662,0,1.334,0,1.982,0c0,31.996,0,70.487,0,102.484
	c1,0,2,0,3,0c0-24.997,0-56.003,0-81.001c0-3.293,0.005-14.577,0.005-21.483c0.189,0.021,1.225,0.024,2.127,0.017
	c0,34.324,0,68.431,0,102.755c1,0,2,0,3,0c0-34.33,0-68.441,0-102.771c-0.646,0-1.293,0-1.939,0
	c0.135-3.197-1.176-5.467-1.192-5.517c-0.146-0.425-2.991-3.086-3-4c-0.039-3.978,2.513-12.921,0-17c-1.076-0.759-0.924-0.628-3-1
	c0-1.667,0-3.333,0-5c-1,0-2,0-3,0c0-11.332,0-22.668,0-34c4.262-8.812,11.379,0.12,11,9c0.758-1.076,0.628-0.925,1-3
	c2.48,1.545,1.55,3.711,3,6c0,0.333,0,0.667,0,1c0.803-1.185,1.223-4.806,2-6c0-0.333,0-0.667,0-1c1.331,1.929,1.79,7.288,2,10
	c0.911-0.929,1.35-1.743,2-3c0.807,1.174,0.805,1.672,1,4c2.429-1.319,0.706,0.467,2-2c2.602,1.573,2.195,3.852,2,8
	c0.807-1.029,0.369-0.246,1-2c2.999,1.479,0.819,3.668,3,7c0.645,1.726,0.196,0.979,1,2c0.635-2.231,0.738-2.642,2-4
	c0.57,1.604,0.839,2.388,1,5c1-0.333,2-0.667,3-1c-0.658,3.905-0.22,5.075,0,10c0.663-0.854,1.352-3.14,2-4c0-0.667,0-1.333,0-2
	c0.713,1.001,1.308,3.991,2,5c0,0.667,0,1.333,0,2c2.472-1.484,1.583-0.421,2-4c2.373,1.437,1.57,2.916,3,5c0,0.333,0,0.667,0,1
	c0.758-1.076,0.628-0.925,1-3c0.333,0,0.667,0,1,0c1.247,2.417,2.661,3.849,4,6c0.667,0,1.333,0,2,0c-0.211-3.411-0.479-5.104-2-7
	c1.405-4.246,0.078-2.15,4-2c-1.128-3.132-2.104-2.97-4-5c-0.333,0-0.667,0-1,0c1.284-0.88,2.468-0.927,5-1c0-0.333,0-0.667,0-1
	c-2.42-1.173-4.037-2.286-7-3c1.411-1.972,1.316-2.109,4-3c-2.03-1.651-5.104-2.248-7-4c-0.333-0.333-0.667-0.667-1-1
	c1.721-0.609,3.144-0.933,6-1c-0.333-0.333-0.667-0.667-1-1c-3.179-4.017-8.547-3.188-13-6c-0.333,0-0.667,0-1,0
	c1.402-0.961,3.28-1.007,6-1c0-0.333,0-0.667,0-1c-3.956-2.063-6.42-4.384-12-5c0.333-1,0.667-2,1-3c-2.077-0.915-6.911-1.647-9-3
	c-0.333,0-0.667,0-1,0c1.484-2.472,0.42-1.583,4-2c0-0.333,0-0.667,0-1c-2.617-0.792-5.892,0.036-9-2c-2.699-0.847,0.854-1.562,2-2
	c-1.929-1.331-7.288-1.79-10-2c0-0.333,0-0.667,0-1c8.924-0.333,13.706-0.257,17,5c0.918-1.916,0.4-0.734,0-3
	c2.157,0.916,1.454,0.866,3,2c0,0.667,0,1.333,0,2c0.805,1.907,1-2,1-2c2.657,1.288,4.582,4.581,6,7c0.758-1.076,0.628-0.925,1-3
	c0.333,0,0.667,0,1,0c0.879,1.819,1.683,3.634,3,5c0.333,0.333,0.667,0.667,1,1c0.549-1.523,0.706-1.671,1-4
	c0.333,0.333,0.667,0.667,1,1c3.225,1.548-0.036,0.553,2,3c0.621,0.784,0.032,0.251,1,0c1.022,1.719,0.029,0,0,2
	c2.472-1.484,1.583-0.421,2-4c2.333,2.333,4.667,4.667,7,7c0.088,3.196,0.249,6.368,0,7c0,1,0,2,0,3c0.333,0,0.667,0,1,0
	c1-2.667,2-5.333,3-8c0.667,0,1.333,0,2,0c2.44,5.135,4.123,11.164,4,19c1.672-2.584,1.279-7.667,3-10c0.769-0.688,2.229-1.318,3-2
	c2.785,3.317,3.638,8.254,7,11c0,0.667,0,1.333,0,2c0.667,0,1.333,0,2,0c-2.333-7.999-4.667-16.001-7-24
	c5.497-0.062,8.358,0.401,11,3c0.667,0,1.333,0,2,0c-2.217-8.097-11.596-16.874-18-21c0-0.667,0-1.333,0-2
	c3.296-0.089,7.162-0.238,9,1c0.667,0,1.333,0,2,0c0-0.667,0-1.333,0-2c-5.666-2.667-11.334-5.333-17-8c-0.667,0-1.333,0-2,0
	c3.455-2.75,11.693-2.229,18-2c0-0.333,0-0.667,0-1c-4.893-2.183-19.396-9.526-24-7c-2.233-1.16,0.556-1.403-3-2
	c0-0.667,0-1.333,0-2c3.159-1.509,5.345-2.769,10-3c0-0.333,0-0.667,0-1c-5.543-1.277-10.159-2.976-17-3
	c-0.333-0.333-0.667-0.667-1-1c1.151-4.351,3.304-3.571,6-6c-4.443-1.785-12.066-2.296-16-5c-0.667,0-1.333,0-2,0
	c1.217-2.501,2.268-2.276,4-4c0.333,0,0.667,0,1,0c-3.112-2.231-12.454-9.854-19-14c0-0.667,0-1.333,0-2c1-0.333,2-0.667,3-1
	c3.083,4.847,7.663,7.673,11,12c2.286-1.316,1.555-2.15,3-4c1.468-1.687,1.079,1.038,2-1c0.954,1.6,2.562,8.21,3,12
	c0.663-0.855,1.352-3.14,2-4c0.645-1.726,0.196-0.979,1-2c0.649,2.88,1.331,5.206,3,7c0,0.333,0,0.667,0,1
	c0.803-1.185,1.223-4.806,2-6c0-0.333,0-0.667,0-1c2.062,2.867,1.938,8.212,4,11c0,0.333,0,0.667,0,1c1.269-1.751,1.779-5.312,2-8
	c0.333,0,0.667,0,1,0c1.722,3.672,3.323,9.112,6,12c0,0.333,0,0.667,0,1c1.251-1.558,1.782-4.421,3-6c0-0.667,0-1.333,0-2
	c1.96,2.88,1.133,8.946,3,12c0,0.667,0,1.333,0,2c1.766-2.171,2.288-5.788,4-8c0-0.333,0-0.667,0-1c3.214,5.116,0.667,14.522,4,19
	c0,0.333,0,0.667,0,1c1.333-3.667,2.667-7.333,4-11c0.333-0.333,0.667-0.667,1-1c3.571,5.653,0.452,16.747,4,22c0,0.333,0,0.667,0,1
	c2.072-3.019,1.885-8.185,4-11c1.029-0.808,0.246-0.369,2-1c2.545,5.56,4.03,13.706,8,18c0,0.667,0,1.333,0,2c0.667,0,1.333,0,2,0
	c0.141-6.173,0.575-13.472-2-17c0-1,0-2,0-3c3.577,1.69,9.101,3.399,12,6c0.333,0,0.667,0,1,0c-1.645-5.853-8.584-12.701-13-16
	c0-0.667,0-1.333,0-2c4.59,0.317,10.577,2.183,13,1c0.333-0.333,0.667-0.667,1-1c-3.667-3.667-7.333-7.333-11-11
	c-3.207-2.067-7.327-1.634-10-4c-0.333,0-0.667,0-1,0c0.743-2.319,1.039-2.234,2-4c1.667-0.333,3.333-0.667,5-1c0-1,0-2,0-3
	c-2.728-0.023-4.583-0.039-6-1c-4.068,0.051-8.333-0.076-11-1c0.688-4.076,1.438-4.888,5-6c-2.508-4.221-8.025-2.39-14-2
	c1.166-3.04,3.457-4.488,6-6c-2.012-5.238-4.176-8.372-4-17c6.015,1.41,9.041,9.613,9,17c0.333,0,0.667,0,1,0
	c1.85-4.126,1.472-5.521,1-11c0.667,0,1.333,0,2,0c1.587,4.948,3.692,10.203,4,17c0.667,0,1.333,0,2,0c1-2.667,2-5.333,3-8
	c0-0.667,0-1.333,0-2c0.667,0,1.333,0,2,0c0.141,6.449,0.525,11,1,18c0.333,0,0.667,0,1,0c0.667-3.333,1.333-6.667,2-10
	c4.493,6.301,2.093,18.319,7,24c0,0.333,0,0.667,0,1c0.333,0,0.667,0,1,0c0.104-3.493,0.337-8.008-1-10c0-1.667,0-3.333,0-5
	c5.934,2.061,12.827,11.005,16,16c0.334,0,0.667,0,1,0c-2.04-13.021-8.034-17.352-15-22c0-0.667,0-1.333,0-2
	C231.449,203.667,231.783,203.333,232.116,203z M211.462,77.001c1,0,2,0,3,0c0,0.667,0,1.333,0,2c0.784,0.621,0.251,0.032,0,1
	c-0.646,1.726-0.196,0.979-1,2c-1.029,0.807-0.246,0.369-2,1c-0.333-0.333-0.667-0.667-1-1
	C210.662,79.405,210.904,78.605,211.462,77.001z M204.462,42.001c2.338,0.62,3.131,1.163,5,2c-0.362,3.749-0.775,3.719-2,6
	c-2.055-0.398-1.927-0.248-3-1c-2.43-1.319-0.706,0.467-2-2c-0.808-1.029-0.369-0.246-1-2
	C202.462,44.001,203.462,43.001,204.462,42.001z M173.462,75.001c1,0,2,0,3,0c0.333,1,0.667,2,1,3c0.784,0.621,0.251,0.032,0,1
	c-0.333,1-0.667,2-1,3c-3.168-0.565-2.909-0.878-5-2C172.027,76.833,172.34,77.092,173.462,75.001z M171.462,113.001
	c2.494,1.136,3.524,2.389,6,1c3.264-0.422,4.076-0.61,6-4c1.144,1.749,1.185,3.246,0,5c-0.362,3.749-0.775,3.719-2,6
	c-7.319-0.305-6.795-2.986-10-7C171.462,113.668,171.462,113.334,171.462,113.001z M76.462,181.001c0-0.667,0-1.333,0-2
	c5.666,0.667,11.334,1.334,17,2C89.485,183.576,82.007,181.203,76.462,181.001z M97.462,192.001c-8.978,1.922-17.551,5.448-23,11
	c-0.667,0-1.333,0-2,0c1.723-7.503,14.473-8.032,20-12c1.667,0,3.334,0,5,0C97.462,191.334,97.462,191.668,97.462,192.001z
	 M94.462,232.001c0-0.667,0-1.333,0-2c7.547,3.754,12.079,13.33,18,19c0,0.333,0,0.667,0,1
	C103.584,246.802,102.328,235.305,94.462,232.001z M85.462,241.001c6.893,2.762,15.225,5.056,20,10c2.299,2.38,2.746,6.607,5,9
	c0,0.667,0,1.333,0,2C107.114,260.416,87.431,244.187,85.462,241.001z M112.462,272.001c-2.794,1.824-7.483,0.688-11,2
	c-4.96,1.851-14.059,6.398-18,10c-0.333,0-0.667,0-1,0c6.625-11.346,12.974-9.188,23-16c2.333,0,4.667,0,7,0
	c0.333,0.333,0.667,0.667,1,1C113.063,271.055,113.213,270.928,112.462,272.001z M162.462,300.001c2.486,3.977,2.527,8.119,6,11
	c0,0.667,0,1.333,0,2c-9.025-5.979-14.358-23.045-25-24c0.333-0.667,0.667-1.333,1-2c-0.969-2.482-3.712-5.174-5-8
	C147.356,281.757,158.243,293.257,162.462,300.001z M155.462,68.001c1.667,0,3.334,0,5,0c0.667,0.667,1.333,1.333,2,2
	c-0.362,3.749-0.775,3.719-2,6c-4.167-0.199-4.582-0.698-7-2C153.823,70.252,154.237,70.282,155.462,68.001z M149.462,113.001
	c4.151,0.952,9.067,1.763,12-1c0.333,0,0.667,0,1,0c0.545,2.724,1.399,3.761,0,6c-0.743,2.32-1.039,2.234-2,4
	c-8.544,0.135-12.218-3.61-13-11C148.129,111.668,148.796,112.335,149.462,113.001z M138.462,60.001c1,0,2,0,3,0
	c0.333,0.333,0.667,0.667,1,1c-0.228,2.319-0.197,2.82-1,4c0,0.667,0,1.333,0,2c-2.32-0.743-2.234-1.039-4-2
	C137.795,63.334,138.129,61.668,138.462,60.001z M136.462,122.001c-6.761,0.08-9.243-0.799-13-3c-0.646-1.726-0.196-0.979-1-2
	c0-2,0-4,0-6c2.359,0.879,1.649,0.376,3,2c6.208,0.328,9.44,0.62,11-4c0.667,0.667,1.334,1.334,2,2
	C138.537,116.28,138.05,119.051,136.462,122.001z M124.462,50.001c1,0,2,0,3,0c0.667,0.667,1.333,1.333,2,2
	c-0.368,4.121,0.238,3.727-3,5c-1.029,0.807-0.246,0.369-2,1c-0.93-0.911-1.743-1.35-3-2
	C121.94,51.472,122.391,52.373,124.462,50.001z M110.462,44.001c1,0,2,0,3,0c0.667,0.667,1.333,1.333,2,2
	c-0.565,3.168-0.878,2.909-2,5c-3.168-0.565-2.909-0.878-5-2C109.027,45.833,109.34,46.092,110.462,44.001z M98.462,34.001
	c2.319,0.743,2.233,1.039,4,2c-0.2,2.596-0.442,3.396-1,5c-1.333,0-2.667,0-4,0c-0.646-1.726-0.196-0.979-1-2
	C97.027,35.833,97.34,36.092,98.462,34.001z M91.462,42.001c6.918,1.936,8.144,9.201,13,13c9.568,7.486,21.542,13.903,32,20
	c-0.333,0.333-0.667,0.667-1,1c-1.06,1.275-11.453-4.714-14-6c-13.452-6.788-27.406-15.5-34-29
	C89.781,41.228,90.282,41.198,91.462,42.001z M87.462,136.001c0-0.333,0-0.667,0-1c7.333,0,14.667,0,22,0c0,5.666,0,11.334,0,17
	c-4.666,0-9.334,0-14,0c0-3.333,0-6.667,0-10c2.865-0.129,1.455-0.708,3,0c0.667,0,1.333,0,2,0c0,2.333,0,4.667,0,7
	c1.333,0,2.667,0,4,0c0-3.667,0-7.333,0-11c-4.333,0-8.667,0-13,0c0,6,0,12,0,18c7.333,0,14.667,0,22,0c0-8.333,0-16.667,0-25
	c2.848-0.11,4.275-0.401,6-1c0.333,0.333,0.667,0.667,1,1c0.081,8.699,1.343,21.057-1,28c-7.91,0.134-25.415,2.577-31-1
	C86.692,155.147,90.382,140.693,87.462,136.001z M100.462,116.001c0-0.667,0-1.333,0-2c1.455,0.881,2.856,1.805,4,3
	c4.496-0.083,5.458-0.628,8-2c0.333-1.667,0.667-3.333,1-5c2.522,3.411,1.409,6.305,1,11c-0.333,0.333-0.667,0.667-1,1
	C105.029,121.942,105.089,119.201,100.462,116.001z M84.462,26.001c0,0.333,0,0.667,0,1c-3.694,0.381-6.357,1.697-9,0
	c-3.581-0.422-2.613,0.53-3-2c3.667,0,7.334,0,11,0C83.795,25.334,84.129,25.668,84.462,26.001z M74.462,11.001
	c2.055,0.399,1.928,0.249,3,1c2.157,0.916,1.454,0.867,3,2c-0.565,3.168-0.878,2.909-2,5c-4.459-0.102-4.684,0.362-6-3
	C71.485,13.523,72.911,13.489,74.462,11.001z M104.462,79.001c0,0.667,0,1.333,0,2c-5.106-3.345-30.225-27.921-32-33
	c-0.758-1.076-0.628-0.924-1-3C90.508,48.424,93.317,67.697,104.462,79.001z M60.462,42.001c7.524,5.067,7.183,17.234,13,24
	c0,4.666,0,9.334,0,14c-0.333,0-0.667,0-1,0C66.209,65.463,59.225,62.511,60.462,42.001z M43.462,13.001c1.667,0,3.334,0,5,0
	c0.667,0.667,1.333,1.333,2,2c-0.508,4.046-2.438,7.412-6,5c-2.157-0.916-1.454-0.867-3-2C42.027,14.833,42.34,15.092,43.462,13.001
	z M39.462,27.001c5.333,0,10.667,0,16,0c0,0.667,0,1.333,0,2c-6.356,0.282-9.645,0.283-16,0
	C39.462,28.334,39.462,27.668,39.462,27.001z M54.462,79.001c-0.333,0.667-0.667,1.333-1,2c-0.667,0-1.333,0-2,0
	c-3.145-11.349-10.022-22.938-7-37c1.727,0.645,0.979,0.196,2,1c3.258,5.087,1.942,12.016,6,17
	C52.262,68.45,51.316,78.463,54.462,79.001z M42.462,115.001c0.333,0,0.667,0,1,0c-0.862,2.684-1.865,3.674-3,6
	c-7.168-0.017-7.7-2.563-10-7c2.653,0.934,2.604,0.994,4,3C38.627,117.001,40.424,116.883,42.462,115.001z M27.462,45.001
	c1.863,2.766,0.335,7.731,2,11c1.362,2.675,9.427,21.902,4,30c-0.333,0.333-0.667,0.667-1,1
	C29.865,75.815,22.52,58.919,27.462,45.001z M12.462,15.001c1.333,0,2.667,0,4,0c0.667,0.667,1.333,1.333,2,2
	c-0.565,3.168-0.878,2.909-2,5c-3.749-0.362-3.719-0.775-6-2C11.027,16.833,11.34,17.092,12.462,15.001z M10.462,29.001
	c1.245-0.669,2.067-1.087,3-2c2.727,0.024,4.583,0.039,6,1c1,0,2,0,3,0c-2.344,4.253-7.208,2.724-12,2
	C10.462,29.668,10.462,29.334,10.462,29.001z M14.462,74.001c0,3,0,6,0,9c-0.333,0-0.667,0-1,0c-2.498-12.379-3.078-26.695-2-40
	C13.715,45.778,17.625,69.392,14.462,74.001z M9.462,117.001c0-0.333,0-0.667,0-1c4.395,1.462,6.124,3.099,13,3
	c1.333-1.333,2.667-2.667,4-4c1.734,2.973-0.106,4.808-1,8c-3,0.667-6,1.333-9,2C14.115,122.475,11.892,119.503,9.462,117.001z
	 M48.462,161.001c-11.105-0.104-25.028-1.265-32,1c0-0.333,0-0.667,0-1c0-7.666,0-15.334,0-23c7.672,0.069,16.282,0.142,20-1
	c1.493,4.323,1.124,12.099,1,18c-4.666,0-9.334,0-14,0c0-3.667,0-7.333,0-11c1.667,0,3.333,0,5,0c0,2.667,0,5.333,0,8
	c1.333,0,2.667,0,4,0c0-3.667,0-7.333,0-11c-4.333,0-8.667,0-13,0c0,6,0,12,0,18c7.333,0,14.667,0,22,0c0-8.666,0-17.334,0-26
	c2.333,0,4.667,0,7,0C48.462,142.334,48.462,151.668,48.462,161.001z M61.462,123.001c-1.727,0.645-0.979,0.196-2,1
	c-5.952-0.207-6.014-1.648-10-3c-0.333-2.333-0.667-4.667-1-7c2.333,1.667,4.667,3.334,7,5c4.377-0.435,4.551-1.072,7-1
	c0.669-1.245,1.087-2.068,2-3c0-0.333,0-0.667,0-1c0.333,0,0.667,0,1,0C64.589,118.486,62.7,119.104,61.462,123.001z
	 M71.462,114.001c0-0.667,0-1.333,0-2c5.054,2.473,12.294,4.639,17,0c1,0,2,0,3,0c-1.333,2.667-2.667,5.333-4,8
	C76.855,120.217,76.883,117.862,71.462,114.001z M82.462,166.001c0-0.667,0-1.667,0-2.334c5.465,1.501,12.859,6.257,16,10.334
	C93.129,171.334,87.795,168.668,82.462,166.001z M93.462,164.001c0-0.333,0-0.667,0-1c7.668-0.312,16.857-1.125,28-1
	c0.131,6.172-0.013,10.17,0,18C108.318,179.244,102.033,169.592,93.462,164.001z M121.462,271.001c-2.597-0.2-3.396-0.442-5-1
	c0-5,0-10,0-15c1,0,2,0,3,0c0.667,0.667,1.333,1.333,2,2c0.667,3.667,1.333,7.333,2,11
	C122.551,268.93,122.112,269.744,121.462,271.001z M131.462,260.001c0-0.667,0-1.333,0-2c7.192,0.298,20.033,0.027,26,3
	c5.43,2.706,9.463,10.622,14,11c0.549,1.523,0.706,1.671,1,4C155.218,274.301,150.389,261.886,131.462,260.001z M164.462,263.001
	c0.743-2.32,1.039-2.234,2-4c0.667,0,1.333,0,2,0c0,1.333,0,2.667,0,4C167.129,263.001,165.795,263.001,164.462,263.001z
	 M175.462,278.001c0-0.667,0-1.333,0-2c1.333,0,2.667,0,4,0C177.978,278.473,179.042,277.584,175.462,278.001z M154.462,228.001
	c3.333,2.667,6.667,5.333,10,8c4.183,5.604,8.417,12.322,12,18c3.637,5.764,5.498,13.074,10,18c0,1,0,2,0,3
	c-0.333-0.333-0.667-0.667-1-1c-6.091-4.657-9.494-13.635-15-21c-8.942-11.963-22.754-21.373-30-35
	C147.889,219.163,150.253,223.767,154.462,228.001z M141.462,230.001c0.667,0,1.333,0,2,0c-0.333,5-0.667,10-1,15
	c1.762-2.405,2.051-5.875,4-8c0-0.333,0-0.667,0-1c3.87,2.359,1.771,8.136,4,12c0.645,1.726,0.195,0.979,1,2
	c1.126-2.443,1.771-3.237,2-7c3.026,1.828,3.214,8.117,3,13c0.333,0,0.667,0,1,0c1.159-2.293,2.199-3.311,3-6c0.667,0,1.333,0,2,0
	c-0.079,3.988-0.31,6.154,0,8c-0.333,0.333-0.667,0.667-1,1c-3,0-6,0-9,0c0-0.667,0-1.333,0-2c2.607-1.788,0.154-0.983,3-1
	c-2.046-3.744-21.458-8.93-27-5c-2.597-0.2-3.396-0.442-5-1c-0.134-8.339-2.794-27.062,1-33c0-0.333,0-0.667,0-1
	c0.758,1.076,0.628,0.924,1,3c0.667,0,1.333,0,2,0c1.328-3.13,2.572-5.994,3-10c0.713,1.001,1.308,3.992,2,5c0,6,0,12,0,18
	c0.333,0,0.667,0,1,0c0.656-2.6,1.523-5.189,3-7c0-0.333,0-0.667,0-1c0.333,0,0.667,0,1,0c-0.228,2.318-0.197,2.82-1,4c0,3,0,6,0,9
	c0.333,0,0.667,0,1,0C138.474,233.891,139.986,232.504,141.462,230.001z M124.462,180.001c-4.086-12.178-1.142-33.721-1-48
	c11,0,22.001,0,33,0c-0.129,2.865-0.708,1.455,0,3c0.078,6.752,0.742,15.877-1,21c-7,0-14,0-21,0c-0.13-4.931-1.066-13.849,1-17
	c0.671-0.399,9.451-0.183,12-1c0.93,2.646,1.097,6.944,1,11c-1.667,0-3.333,0-5,0c0.124-6.808,0.221-6.554-3-8
	c-0.969,2.583-1.787,8.465,0,11c0.878,0.55,8.502-0.571,11,1c0.333,0,0.667,0,1,0c0-6.333,0-12.667,0-19c-7.333,0-14.667,0-22,0
	c0,8.999,0,18.001,0,27c4.666,0,9.334,0,14,0C141.81,169.435,132.204,176.486,124.462,180.001z M155.462,160.001
	c-1.922,5.372-7.031,7.579-10,12c-0.333,0-0.667,0-1,0c0.282-2.792,0.661-7.975,2-10c0.769-0.689,2.229-1.318,3-2
	C151.462,160.001,153.462,160.001,155.462,160.001z M196.462,223.001c3.343,2.668,4.895,8.002,8,11c0,0.667,0,1.333,0,2
	c-5.242-3.528-8.934-9.368-14-13c-6.75-4.839-15.069-8.794-22-13c-7.825-4.748-19.617-6.899-25-14
	C165.644,200.848,181.547,211.1,196.462,223.001z M194.462,194.001c-1.741,3.544-8.438,6.386-12,8c-0.333-0.333-0.667-0.667-1-1
	c0.701-2.696,1.38-4.327,3-6c0-1.333,0-2.667,0-4c-4.506,2.221-8.48,4.85-14,6c-0.93-0.911-1.743-1.35-3-2
	c0.106-3.087,0.589-4.038,0-5c1.279-1.537,0.044,0.417,2,0c0-0.333,0-0.667,0-1c0.333,0,0.667,0,1,0c0-0.333,0-0.667,0-1
	c-7.493,0.185-21.197,3.768-27,0c-0.808-1.029-0.369-0.246-1-2c3.253-1.563,11.995-4.748,16-2c2.667,0,5.333,0,8,0
	c-1.128-2.081-1.495-1.812-2-5c7.966,0.354,10.663,5.026,15,9c0.667,0,1.333,0,2,0c-0.832-1.476-1.892-3.688-3-5
	c0.325-2.307,0.464-2.484,1-4C189.044,180.728,188.55,189.015,194.462,194.001z M175.462,175.001c-5.855-0.007-17.081-1.555-21,1
	c-1,0-2,0-3,0c0-0.333,0-0.667,0-1c4.874-1.961,20.543-2.918,24-5c23.795,2.698,41.148,10.32,51,27
	C210.222,186.154,204.074,175.035,175.462,175.001z"/>
</svg>
