<?xml version="1.0" encoding="utf-8"?>
<!-- Generator: Adobe Illustrator 16.0.0, SVG Export Plug-In . SVG Version: 6.00 Build 0)  -->
<!DOCTYPE svg PUBLIC "-//W3C//DTD SVG 1.1//EN" "http://www.w3.org/Graphics/SVG/1.1/DTD/svg11.dtd">
<svg version="1.1" id="eqxiu" xmlns="http://www.w3.org/2000/svg" xmlns:xlink="http://www.w3.org/1999/xlink" x="0px" y="0px"
	 width="134.363px" height="458.965px" viewBox="0 0 134.363 458.965" enable-background="new 0 0 134.363 458.965"
	 xml:space="preserve">
<path fill="#E60012" d="M115.789,336.967c-2.765,1.348-4.939-1.384-7.097,1.42c-2.188-0.425-3.349,0.112-4.609-1.42
	c-0.783,0.281-0.462,1.667-1.417,1.771c-6.812,1.152-16.116-0.43-23.771-0.352c-1.604,0.016-3.174,0.877-4.968,1.061
	c-10.324,1.068-24.159,1.308-33.339,0.715c-3.389-0.223-5.405,0.135-9.578,0.709c-2.176,0.296-4.236-0.062-5.32,0.354
	c-3.244,1.238-5.188,5.771-7.447,7.801c-2.06-2.693,1.263-4.092,2.837-6.027c0.446-0.553,0.225-1.633,0.707-2.127
	c1.023-1.055,4.685-3.736,5.678-3.903c5.527-0.931,15.215-2.093,23.766-2.839c7.129-0.619,14.924,0.455,21.637,0.709
	c3.571,0.139,6.904-0.48,9.577,0.709c1.315-0.222,2.079-0.994,3.195-1.418c8.84,0.018,16.104-0.505,23.408,0.354
	c0.808,0.097,1.344,0.916,2.128,1.063C112.814,335.864,115.654,334.482,115.789,336.967L115.789,336.967z"/>
<path fill="#E60012" d="M120.401,335.191c0.742,1.859,4.282,0.916,4.608,3.193c0.26,0.879,1.066-1.173,1.771,0
	c2.925,8.434,4.275,22.815,4.261,34.407c-0.006,2.368,0.756,4.884,0.71,7.095c-0.07,3.262,0.406,8.35-2.484,10.286
	c-3.301-8.708-0.632-26.2-4.608-36.181c0.604-6.297-1.382-12.711-4.614-16.317C120.048,336.734,119.91,335.648,120.401,335.191
	L120.401,335.191z"/>
<path fill="#E60012" d="M116.852,335.9h1.065c0.068,1.017,0.042,1.938-1.065,1.774C116.396,337.211,116.396,336.369,116.852,335.9
	L116.852,335.9z"/>
<path fill="#E60012" d="M24.627,366.404c1.722,3.609,2.915,14.82,2.838,20.933c-0.019,1.263-0.769,2.302-0.711,3.546
	c0.057,1.195,0.871,2.467,1.066,3.9c0.189,1.429-0.269,2.992,0,4.26c0.279,1.344,1.51,2.54,1.77,3.899
	c0.683,3.538-0.656,7.311,0,10.997c0.241,1.329,1.229,2.575,1.422,3.898c0.34,2.379-0.352,4.826,0,7.097
	c0.229,1.472,1.18,2.766,1.418,4.258c0.275,1.707-0.229,3.616,0,5.32c0.256,1.862,1.617,3.035,1.067,4.966
	c-1.01,1.007-2.302,1.724-4.26,1.769c-1.252-1.23-1.188-3.775-2.483-4.964C25.924,414.312,22.217,388.025,24.627,366.404
	L24.627,366.404z"/>
<path fill="#E60012" d="M74.287,388.753c1.306-0.328,0.645,1.87,0.354,2.13C73.764,390.385,74.016,389.66,74.287,388.753
	L74.287,388.753z"/>
<path fill="#E60012" d="M87.057,390.174c0.373,1.571,0.628,4.159,0,5.678C85.156,395.534,85.002,390.42,87.057,390.174
	L87.057,390.174z"/>
<path fill="#E60012" d="M129.267,391.592c1.309,0.232,1.896,2.891,0.709,3.547C128.515,395.232,128.729,392.391,129.267,391.592
	L129.267,391.592z"/>
<path fill="#E60012" d="M16.824,404.361h1.063c-0.739,4.598,3.729,14.354-1.421,15.606C13.435,416.04,17.658,410.166,16.824,404.361
	L16.824,404.361z"/>
<path fill="#E60012" d="M130.334,407.555h1.771C132.385,409.05,130.203,408.764,130.334,407.555L130.334,407.555z"/>
<path fill="#E60012" d="M98.408,423.872c0.441,4.582-4.08,4.196-7.804,4.614c-1.553-1.481-2.287-3.984-1.066-6.389
	C93.134,418.818,95.396,423.764,98.408,423.872L98.408,423.872z"/>
<path fill="#E60012" d="M16.468,424.936h1.062c0.45,4.388,1.403,10.103,2.84,14.545c-0.052,1.13-1.311,1.051-1.423,2.128
	c1.56,3.059,0.739,8.484,3.906,9.933c1.601-0.056,1.301-2.009,2.838-2.13c20.812,1.27,42.183,3.198,63.492,0.709
	c1.324-0.376,1.146,0.751,1.774,1.062c5.404-2.913,12.938-0.915,19.864-1.771c4.06-0.503,7.863-1.964,11.704-2.128
	c2.081-0.09,4.316,0.76,6.028,0c2.913-1.585,1.282-7.704,4.257-9.225c0.398,4.207,0.226,12.35-3.546,15.967
	c-4.417,0.095-8.853,1.613-13.478,1.771c-2.302,0.079-4.506-0.834-6.741-0.707c-1.335,0.071-2.497,0.868-3.901,1.063
	c-6.006,0.831-12.645,0.244-18.09-0.356c-20.227,1.144-43.991,1.844-64.561-1.416C11.91,451.452,15.815,434.656,16.468,424.936
	L16.468,424.936z"/>
<path fill="#E60012" d="M61.516,424.936c0.822,0.111,1.361-0.059,1.776-0.354c0.099-0.81-0.087-1.334-0.713-1.418
	C62.263,423.79,61.723,424.2,61.516,424.936L61.516,424.936z M69.32,430.256c0.696-8.481,2.033-20.593-2.84-25.54h-1.06
	C63.507,411.042,63.026,426.089,69.32,430.256L69.32,430.256z M41.297,415.003c0.223,6.942-1.733,14.15,3.55,15.253
	c1.972-1.934,1.88-6.241,1.771-8.869c-0.24-5.771-1.384-11.702-2.484-16.671c-0.452-0.019-0.489-0.453-1.062-0.354
	C40.051,406.914,41.148,410.356,41.297,415.003L41.297,415.003z M66.836,395.852c0.619,0.021,1.103-0.082,1.423-0.356
	c0.104-0.935-0.493-1.164-1.423-1.065V395.852L66.836,395.852z M115.789,384.854c0.59,0.469,1.185,0.938,2.483,0.709
	c0.701-0.963,0.521-3.41-1.066-3.193C116.658,383.122,116.186,383.95,115.789,384.854L115.789,384.854z M114.016,355.768
	c1.611,0.338,2.231-1.492,1.42-2.482C113.85,352.979,113.305,354.877,114.016,355.768L114.016,355.768z M104.438,357.186
	c0.912,0.864,2.301,1.248,1.771,3.545c-4.094,1.972-8.19,0.162-12.415,0.356c-4.397,0.201-10.522,0.569-12.413,3.194
	c6.133,6.275,18.016-0.17,26.249,1.775c-0.488,0.457-0.352,1.536-0.354,2.479c-7.759,4.609-18.914,3.449-28.38,4.611
	c-0.107,2.459-1.965,2.463-3.188,2.131c-3.457,2.254-0.849,7.269-1.42,9.574c-0.862-0.203,0.166-2.293-1.064-2.127
	c-1.307,1.842,1.449,2.198,0.706,4.611c-0.073,1.461-2.079,0.986-1.417,3.191c0.085,0.98,2.003,0.127,1.775,1.418
	c-0.728,4.842-1.195,11.555,1.062,15.256c-0.188,1.229-0.96,1.874-1.422,2.837c1.98,3.826,0.271,9.843,2.841,13.479
	c-0.659,3.8-1.022,11.991,2.481,13.832c2.005-2.449,0.976-5.655,0.713-9.933c-0.206-3.334-0.827-11.727,1.771-11.705
	c0.183,0.003,2.016,2.881,2.126,3.19c2.024,5.651,1.097,12.547,5.678,14.901c10.427-1.856,20.146-0.953,30.505-3.904
	c1.201-12.571-3.918-26.048-3.191-38.309c-1.711-0.947-1.617-1.498-1.416-4.255c-1.554-0.579-2.836-1.423-4.26-2.13
	c-1.005,7.318,0.104,16.715,2.481,21.639c-0.343,3.495,0.272,5.882-0.354,9.222c2.713,1.073,1.092,6.478,2.837,8.515
	c-2.059,1.667-8.992,1.754-12.415,0c-0.043-2.054-0.112-4.133,0.711-5.321c1.104-0.194,2.312-0.288,3.192-0.709
	c0.435-2.045,1.441-3.521,2.128-5.321c-2.294-9.407,0.074-24.658-6.031-31.215c-0.533,0.414-0.866,1.025-1.771,1.062
	c-0.84,6.902,0.432,14.468,0.354,21.284c0.959,2.225,2.742,9.193,0.355,10.286c-2.592-2.26-0.094-5.504-0.355-8.868
	c-0.147-1.848-2.299-4.371-2.84-7.095c-0.656-3.3-0.71-5.975-1.062-8.156c-0.814-5.01,1.104-7.875-3.194-8.516
	c-2.757,7.943,0.485,17.907,1.421,26.25c0.436,3.924,0.243,7.94-0.356,10.996c-2.824-2.175-1.091-8.602-1.419-12.414
	c-0.303-1.114-1.338-1.495-1.417-2.84c0.693-4.868-1.037-10.516-1.773-13.479c-0.788-3.181-0.485-8.06-4.611-6.738
	c-0.926,1.429,0.643,3.4-0.711,4.611c-3.949-1.514-8.146-4.424-6.027-9.934c1.154-0.266,2.193-0.641,3.191-1.062
	c4.327,1.117,10.617,1.812,15.605,1.416c4.239-0.334,6.649-3.088,9.227-3.543c2.21-1.928,2.428-5.849,6.025-6.389
	c-1.168-2.271,0.965-2.005,1.067-3.898c-0.215-3.688-2.534-5.276-2.481-9.225C109.891,353.801,104.32,349.506,104.438,357.186
	L104.438,357.186z M116.142,349.736c3.641,2.812,2.794,8.795,3.192,14.545c0.411,5.879,3.245,12.086,0.709,17.023
	c-0.244,1.428,1.496,0.872,1.421,2.129c-1.563,5.289,0.482,10.847,1.062,15.251c0.435,3.312,0.554,9.454,0.355,12.77
	c-0.059,0.972-0.775,2.223-0.71,3.194c0.287,4.289,2.569,9.037,3.194,13.479c0.394,2.812-0.021,5.554-0.357,8.512
	c-7.418,1.589-15.511,0.958-23.055,2.131c-14.234,2.21-30.876-0.104-47.89,2.477c-4.356-0.844-10.668,0.786-15.254-0.706
	c-2.381-5.363-0.672-12.454-1.771-18.799c-0.662-3.824-1.105-10.223-1.062-15.605c0.029-4.311-1.61-9.561,1.062-12.414
	c0.884,0.536,1.26,1.582,1.063,3.19c2.452,1.392,5.519,6.019,9.224,2.839c-3.498-5.959-4.769-19.551,4.61-19.156
	c-0.087,2.516-1.947,3.254-3.897,3.905c1.293,3.54,0.097,8.255,3.188,10.282c-0.147,2.688,0.479,6.156-0.71,7.805
	c2.187,10.271,2.327,21.628,6.386,30.862c1.197-5.366,1.479-11.88,1.064-17.738c-0.11-1.554-1.132-2.651-1.422-4.258
	c-1.113-6.255,0.962-12.649-2.127-17.381c3.5-2.728,5.282-10.239,1.772-14.188c-0.013-1.312,0.55-2.057,1.062-2.837
	c-0.788-0.746-0.976-2.098-2.125-2.48c-5.174,0.968-9.417,0.976-12.773,3.189c-2.812,1.857-3.644,5.928-7.444,6.385
	c-0.021-5.461-3.542-16.008,1.063-19.861c4.625-1.572,10.67-1.17,15.252-1.064c1.17,1.809,4.386,2.575,3.191,5.674
	c1.479,0.961,2.479,1.006,4.61,0.709c2.011,2.486,3.559,5.43,5.677,7.806c0.438,6.464,0.342,11.77-3.549,14.542
	c0.575,2.63-1.3,3.958,0,5.322c2.016-1.582,5.699-3.274,7.099-6.031c0.237-0.479-0.295-1.571,0-2.484
	c0.271-0.847,1.308-1.311,1.417-1.771c0.271-1.17,0.793-4.016,0.71-5.321c-0.082-1.244-1.341-2.32-1.775-3.9
	c-0.225-0.813,0.241-1.942,0-2.481c-1.671-3.746-6.551-6.02-9.222-8.159v-3.899c2.593,0.092,6.09,0.178,9.222,0
	c1.651-1.268,1.124-5.244,0.354-7.095c-10.392-1.01-24.087,2.258-36.892,1.062c-0.939,1.543-3.657,1.311-5.319,2.127
	c-1.068,0.588,0.593,3.906-1.062,3.906c-1.285-5.688-1.626-11.14,2.839-13.48c1.116-0.172,1.249,0.638,2.481,0.354
	c0.199-0.508,0.554-0.865,1.062-1.066c13.261,1.662,27.518,0.099,41.148,0c2.466-0.016,4.847,0.869,7.45,1.066
	c10.513,0.812,21.862,0.357,30.503-1.066C112.787,349.311,113.923,350.064,116.142,349.736L116.142,349.736z"/>
<path fill="#231815" d="M92.597,214.581c-2.907-2.424,3.392-4.365,3.392-4.365c4.361-2.427,9.211,4.847,8.729,9.21
	C104.23,223.789,95.505,217.005,92.597,214.581L92.597,214.581z M100.836,227.181c1.455,0,7.754-0.968,9.211-3.392
	c1.456-2.424,3.395-2.91,1.456-6.303c-1.939-3.392-4.364-7.271-4.364-7.271s-3.875-4.843,1.455-3.874
	c5.332,0.969,4.848-0.486,4.848,2.905s-3.875,11.637,0,7.758c3.876-3.879-0.974-5.334,6.783-6.789
	c7.76-1.45,12.604-3.874,7.271-7.753c-5.331-3.879-4.361-9.694-9.209-9.694c-4.847,0-10.667-2.911-17.451,0
	c-6.783,2.905-12.604,4.847-14.541,4.36c-1.938-0.481-7.754-0.481,1.939-4.848c9.692-4.36,11.635-2.902,13.571-4.36
	c1.938-1.458,4.844-1.937,1.455-5.334c-3.393-3.392-6.785-6.303-6.785-6.303s-8.241-2.905-8.241-1.45
	c0,2.905-4.363,0.969-4.363,4.848c0,3.874,1.453,7.753-1.453,9.208c-2.908,1.455-7.271,10.66-7.271,10.66s-4.363,4.368-4.363,9.216
	c0,4.847,1.454,7.752,6.785,10.176c5.332,2.424,6.785,4.36,8.726,3.393c1.939-0.969,3.395,0,3.395,0s3.875,5.331,0.482,13.57
	c-2.101,5.109-2.525,6.49-2.549,6.803c0.075-0.005,0.127-0.011,0.127-0.011s-0.142,0.206-0.127,0.011
	c-1.006,0.111-8.184,0.82-9.082-0.984c-0.972-1.937-4.362-3.873-5.817-6.297s0.003-7.276-2.908-5.821
	c-2.908,1.456-6.301,0.974-6.301,3.397s-2.425,8.727-4.848,9.694c-2.425,0.969-2.425,7.753,4.848,8.721
	c7.271,0.972,6.784,4.366,8.239-0.481c1.455-4.847-0.481-6.791,3.395-5.334c3.873,1.455,5.326,0.975,6.301,4.366
	c0.97,3.392,4.363,7.753,8.24,9.694c3.875,1.938-0.483,4.359,5.332,2.424c5.814-1.941,7.271-1.458,6.785-6.303
	C101.324,250.936,99.381,227.181,100.836,227.181L100.836,227.181z M132.832,247.057c-4.849-2.424-5.817-9.693-9.212-10.182
	c-3.396-0.48-11.149-1.938-11.149-0.48c0,3.424-3.395,0.48-4.848,4.357c-1.451,3.881,6.3,0.489,7.27,7.76
	c0.974,7.271,9.209,6.299,10.181,7.754c0.973,1.454,3.877,2.909,7.271,0.971C135.738,255.297,137.679,249.48,132.832,247.057
	L132.832,247.057z M79.021,171.924c4.851-1.455,13.09-1.455,20.362-1.455c7.27,0,12.601-3.874,22.297-5.329
	c9.693-1.455,15.511-2.91,13.085-6.789c-2.422-3.879-2.903-4.85-9.206-3.879c-6.303,0.974-24.721,9.213-31.507,9.213
	c-6.787,0-14.543,2.424-15.998,0c-1.453-2.424-1.453-3.879-1.453-3.879s-7.271-6.305-10.18,1.455
	c-2.907,7.753-5.816,20.839-5.816,22.295c0,1.455-6.3,12.118-7.27,16.965c-0.975,4.848-2.423,8.727-5.333,12.118
	c-2.911,3.396-13.087,15.511-14.058,16.966c-0.972,1.456-14.059,14.061-15.999,17.939c-1.938,3.873-4.844,1.937-1.45,8.239
	c3.392,6.303,5.815,9.691,8.725,8.238c2.906-1.455,1.938-0.486,2.906-6.303s8.244-12.6,12.604-15.023
	c4.361-2.424,11.152-4.846,12.119-12.117c0.968-7.271,2.904-11.637,3.877-13.573c0.971-1.942,15.513-19.39,15.997-22.303
	C73.209,191.8,74.176,173.374,79.021,171.924L79.021,171.924z M84.357,106.485c-0.97,7.271-3.396,15.997-5.336,17.935
	c-1.936,1.941-4.846,4.365-4.846-0.482s1.455-6.789,1.455-8.723c0-1.945-0.482-4.369-0.482-4.369s-2.425-5.811,5.33-6.297
	C80.479,104.549,85.328,99.215,84.357,106.485L84.357,106.485z M97.444,77.399c-1.456-2.421-3.876-1.453-3.392-6.3
	c0.484-4.848-0.971-8.727-1.456-10.185c-0.485-1.447-7.272-2.415-8.726-1.934c-1.453,0.486-5.33,4.847-0.97,5.334
	c4.363,0.481,2.423,0.968,2.423,5.329c0,4.368-0.481,14.541-0.481,14.541s-8.241,3.397-9.212,1.453
	c-0.968-1.935-0.482-2.902,0-6.781c0,0-0.482-2.424-5.332-1.942c-4.848,0.484-4.848,4.366-7.271,8.724
	c-2.424,4.368-4.361,9.702,0,11.64c4.363,1.937,4.359,3.392,5.815,5.815c1.454,2.424,2.909,0.481,2.909,2.424
	c0,1.937,3.877,4.845-1.455,5.328c-5.329,0.487-10.664,6.303-10.664,9.692c0,3.399-1.456,8.239,1.939,12.607
	c3.396,4.36,7.271,2.424,11.148,5.334c3.878,2.905,4.85-3.395,9.209-4.365c4.362-0.969,18.906-3.879,22.298-1.455
	c3.394,2.426-2.424,6.308,5.333,8.244c7.754,1.937,10.661,6.303,15.026,2.905c4.36-3.392,5.813-4.848,2.906-10.663
	c-2.906-5.815-15.028-21.812-16.966-23.749c-1.938-1.942-11.632-4.366-11.632-0.974c0,3.396,1.938,11.149-1.455,11.149
	c-3.392,0-5.813,1.942-5.813-2.905s0.967-19.389,3.875-21.331c2.906-1.937,5.818-3.393,11.147-3.393c5.331,0,3.88,3.879,9.212-0.968
	c5.332-4.848,7.268-8.239,3.877-10.663c-3.392-2.424-7.27-3.397-10.663-3.397C105.681,76.913,98.899,79.825,97.444,77.399
	L97.444,77.399z M16.496,153.501c1.937-2.903,3.877-8.724,8.237-8.724c4.362,0,12.604,2.429,11.636-0.969
	c-0.971-3.392-0.486-3.392-0.486-5.815c0-2.423,12.117-38.778,16.479-49.441c4.364-10.663,13.088-18.421,16.482-18.907
	c3.395-0.484,9.21,0.968,9.21-2.424c0-3.393-1.937-13.573,1.455-14.545c3.393-0.966,20.845-4.357,24.721-4.845
	c3.878-0.481,7.754-3.394,5.333-5.815c-2.425-2.424-5.33-3.873-0.97-4.848c4.362-0.971,6.784,0.969,6.784-3.879
	c0-4.846-2.419-10.662,0.486-16.963c2.907-6.305,7.268-11.633-0.973-14.543c-8.239-2.906-15.512-2.906-21.328,0
	c-5.813,2.91-17.934,17.451-28.112,23.754c0,0-5.331-2.424-3.393,2.422c1.938,4.848,2.422,4.848,6.785,4.848
	c4.364,0,11.151-1.453,11.151-1.453s9.209-11.641,16.963-15.027c7.758-3.395,5.817-5.336,7.758-1.939
	c1.937,3.393,0.48,5.332,0.48,10.664c0,5.334-4.848,9.207-4.848,9.207s-19.876,8.24-23.749,7.271c-3.878-0.969-7.27-1.938-9.209,0
	c-1.94,1.941-19.877,16.965-27.146,32.962c-7.271,16-16.482,36.842-22.3,43.626c-5.812,6.789-18.418,13.092-17.934,17.939
	c0.484,4.847,6.301,5.328,8.725,10.176C11.16,151.08,14.559,156.416,16.496,153.501L16.496,153.501z"/>
</svg>
