<?xml version="1.0" encoding="utf-8"?>
<!-- Generator: Adobe Illustrator 17.0.0, SVG Export Plug-In . SVG Version: 6.00 Build 0)  -->
<!DOCTYPE svg PUBLIC "-//W3C//DTD SVG 1.1//EN" "http://www.w3.org/Graphics/SVG/1.1/DTD/svg11.dtd">
<svg version="1.1" id="图层_1" xmlns="http://www.w3.org/2000/svg" xmlns:xlink="http://www.w3.org/1999/xlink" x="0px" y="0px"
	 width="500.002px" height="500.004px" viewBox="0 0 500.002 500.004" enable-background="new 0 0 500.002 500.004"
	 xml:space="preserve">
<path id="ry" fill="#08A1EF" d="M167.362,50.502h165.277l116.86,116.866v165.271L332.64,449.504H167.362L50.501,332.638v-165.27
	L167.362,50.502z M127.858,449.504h39.504l27.938,27.938c30.088,30.084,79.312,30.084,109.404,0l27.938-27.938h39.502
	c42.546,0,77.356-34.812,77.356-77.36v-39.506l27.937-27.933c30.087-30.089,30.087-79.32,0-109.403l-27.938-27.936v-39.509
	c0-42.548-34.812-77.356-77.356-77.356h-39.502l-27.938-27.938c-30.092-30.085-79.316-30.085-109.404,0l-27.938,27.938h-39.504
	c-42.548,0-77.356,34.809-77.356,77.356v39.509l-27.938,27.937c-30.085,30.083-30.085,79.315,0,109.401l27.938,27.934v39.506
	C50.501,414.694,85.311,449.504,127.858,449.504z"/>
</svg>
