<?xml version="1.0" encoding="utf-8"?>
<!-- Generator: Adobe Illustrator 16.0.0, SVG Export Plug-In . SVG Version: 6.00 Build 0)  -->
<!DOCTYPE svg PUBLIC "-//W3C//DTD SVG 1.1//EN" "http://www.w3.org/Graphics/SVG/1.1/DTD/svg11.dtd">
<svg version="1.1" id="eqxiu.com" xmlns="http://www.w3.org/2000/svg" xmlns:xlink="http://www.w3.org/1999/xlink" x="0px" y="0px"
	 width="105.269px" height="44.933px" viewBox="0 0 105.269 44.933" enable-background="new 0 0 105.269 44.933"
	 xml:space="preserve">
<path fill="#10AD44" d="M23.458,12.602H5.428V9.516h10.471l-5.247-7.982h5.278l3.458,7.982h4.07V12.602z M11.826,14.541v21.908
	c0,0-0.192,2.714,4.073,3.297h7.56v-3.781l-3.312-0.009c0,0-2.458,0-2.503-2.025v-19.39H11.826z M27.677,11.609h13.16
	c1.308-0.218,1.236-1.14,1.236-1.14V0h-5.43v8.556c-5.041,1.235-5.041-2.934-5.041-2.934V0h-6.592v8.264
	C24.963,10.518,27.677,11.609,27.677,11.609z M32.378,14.34l-10.275,0.201c0,0-2.23,0-2.52,2.958v16.041h5.427V19.438
	C25.009,19.438,24.525,15.946,32.378,14.34z M37.954,14.34c0,0-9.453-0.526-11.002,9.702v15.704l4.845-0.003V23.265
	C31.796,23.265,31.603,17.691,37.954,14.34z M75.145,14.3V7.096h9.438V4.557H63.405c0,0,0.418-0.427,1.604-3.023H59.36
	c0,0,0.014,4.136-3.86,8.984c0,0,2.745,0.067,5.799-3.422l9.574-0.002V14.3l-20.526,0.04c0,0,1.956-1.428,2.288-3.879l0.009-8.927
	h-4.284l-0.023,7.495c0,0-0.11,4.075-6.263,5.311c0,0-7.451,1.519-8.577,11.705v7.52l4.628-0.021v-7.498c0,0-0.172-9.361,8.78-9.639
	h1.849c0,0-8.716,0.672-9.253,9.639v7.498h3.801v-7.498c0,0,0.9-6.214,5.216-6.649v13.811c0,0,0.278,2.9-2.812,2.826l-9.987,0.019
	v3.694h12.798c0,0,3.893,0,4.461-3.183V16.406h17.894v23.34c0,0-0.026,2.583-2.48,2.747L0,42.51v2.423h72.782
	c0,0,2.362-0.261,2.362-3.088V16.406h30.124V14.3H75.145z"/>
</svg>
