<?xml version="1.0" encoding="utf-8"?>
<!DOCTYPE svg PUBLIC "-//W3C//DTD SVG 1.1//EN" "http://www.w3.org/Graphics/SVG/1.1/DTD/svg11.dtd">
<svg version="1.1" id="eqxiu" xmlns="http://www.w3.org/2000/svg" xmlns:xlink="http://www.w3.org/1999/xlink" x="0px" y="0px"
	 width="310.886px" height="102.692px" viewBox="0 0 310.886 102.692" enable-background="new 0 0 310.886 102.692"
	 xml:space="preserve">
<path fill="#49DBAD" d="M26.896,31.631c-5.205,2.99-13.154,3.426-14.901,0.993c-1.902-2.649,2.649-4.636,7.947-2.98
	c3.793,1.185,5.012-5.106,2.649-4.967C11.333,25.34,8.703,19.913,8.684,19.711C3.717,18.717-5.72,11.66,4.71,3.817
	c3.908-2.938,8.729,2.296,5.298,5.298c-2.649,2.318-8.637,5.896,6.291,5.629c1.097-4.341,5.913-12.364,14.238-5.298
	c5.771,4.898,32.45,7.285,36.755-0.331c-2.371-2.202-4.744,3.361-6.954-2.318c-2.904-7.464,15.503-11.403,14.24,2.318
	c-0.619,6.724-4.305,7.616-13.245,9.934c-1.324,2.207-3.642,12.914-19.868,2.98c-3.7-2.265-4.145,6.291,0.331,5.96
	c-0.509-1.4,3.642-6.954,3.311,1.656c-0.237,6.151,9.972,6.629,1.324,21.523c-5.96,10.265,6.383,18.431,6.291,18.543
	c-1.661,2.024-1.661,2.024-4.305,4.967c-7.258-4.412-16.225-11.921-6.638-31.399C45.385,35.955,35.505,30.969,26.896,31.631z
	 M113.762,40.982c3.544,0,6.417-2.873,6.417-6.417s-2.873-6.417-6.417-6.417s-6.417,2.873-6.417,6.417
	S110.218,40.982,113.762,40.982z M56.217,78.744h67.979v-6.328H59.383L56.217,78.744z M80.486,33.259l-3.07-1.835L45.514,84.78
	l-2.509-1.5l-7.868,13.161c0,0-0.188,2.329,0.148,3.001c0.706,1.417,3.853,3.213,5.436,3.25c0.729,0.017,2.57-1.376,2.57-1.376
	l7.868-13.161l-2.575-1.539L80.486,33.259z M112.945,70.072h1.641l0.469-5.625l-0.469-0.234c-0.938,0-1.406-0.857-1.406-2.578
	l-0.234-7.819h-6.328l0.469,10.397C107.24,67.963,109.195,69.918,112.945,70.072z M74.64,48.78h43.222l-0.464,11.917
	c-0.157,2.344-0.626,3.596-1.406,3.75h-0.469l0.938,5.625h1.641c3.593-0.469,5.468-3.124,5.625-7.969l0.657-18.954H77.55
	L74.64,48.78z M310.883,35.316c-2.095-1.556-8.336-8.089-11.667,1.333c-23.5-6-3.333,19.667-13,32.833
	c-3.268,4.451-12.857,12.25-18.379,12.25c-12.621,0-44.121,0-44.121,0l0.009-27.906l-37.202,0.329v15.827h-8.906V54.155
	L145.758,53.9v3.047h13.125v16.406c-0.157,3.281-1.721,4.999-4.688,5.156h-2.812v-5.156h0.703c0.469,0,0.703-0.703,0.703-2.109
	v-7.969h-2.578v15.703h-6.328V63.51h-2.812v15.234h-6.094V63.275h-2.812v15.469h-6.328V56.713h11.25V53.9h-11.25v-6.563
	l51.781-0.151V24.858h-10.312c-1.563,2.19-3.281,3.127-5.156,2.812l-3.266,0.15V38.9c-0.315,3.75-1.956,5.706-4.922,5.859h-28.359
	V25.775h7.031v11.953h6.328V24.837h7.031v13.125h4.688c0.78,0.157,1.172-0.388,1.172-1.641l-0.135-14.735l5.744-0.714
	c0.623,0,1.483-0.469,2.578-1.406l3.984-5.625h10.312l-2.344,3.281h36.094v7.734h-21.562v22.328l25.952-0.032v-7.625h-5.859v-7.734
	h5.859v-3.516h8.906v3.516h22.266v-3.75h8.672v3.75h6.562v7.734h-6.562v7.625h6.328v17.297c0,3.281-1.563,4.922-4.687,4.922h-12.188
	v-7.266h6.328c1.091,0.157,1.641-0.389,1.641-1.641v-6.641h-16.875v20.656c9.641,0,24.313,0,30.85,0c2,0,11.556-4.494,13.333-8.667
	c4.833-11.344-3.058-26.84,2.833-31.667c1.397-1.145,6.561-3.097,9.333-3.729c1.711-2.739,4.462-2.144,9.167-0.938
	C303.383,23.649,311.037,30.316,310.883,35.316z M243.647,47.154v-7.625h-22.266v7.625H243.647z"/>
<path fill="#070707" d="M167.354,72.092l0.141-0.316h1.371l-0.141,0.316h3.762v1.863h-1.16v-0.738h-3.059l-1.16,2.531
	c-0.164,0.398-0.363,0.609-0.598,0.633v2.109c-0.023,0.188,0.047,0.27,0.211,0.246h1.23v1.02h-1.898
	c-0.562,0.047-0.809-0.234-0.738-0.844v-2.496h-0.809v-1.055h1.195c0.188,0.023,0.305-0.047,0.352-0.211l0.879-1.934h-1.16v0.738
	h-1.16v-1.863L167.354,72.092L167.354,72.092z M169.499,79.158l-1.336-4.852h1.23l0.457,1.758h0.879
	c0.164,0.023,0.258-0.047,0.281-0.211l0.387-1.09h1.16l-0.598,1.723c-0.094,0.445-0.363,0.645-0.809,0.598h-1.02l0.352,1.336
	c0.023,0.258,0.141,0.363,0.352,0.316h1.688v1.055h-2.25C169.827,79.838,169.569,79.627,169.499,79.158z M174.034,71.881h7.523v1.02
	H175.3v6.258c0,0.445-0.199,0.656-0.598,0.633h-1.02v-0.914h0.176c0.094,0,0.152-0.059,0.176-0.176L174.034,71.881L174.034,71.881z
	 M175.686,74.096h1.16l0.105-0.844h1.336l-0.105,0.844h3.375v4.992c0.023,0.539-0.188,0.785-0.633,0.738h-1.828v-0.914h1.02
	c0.117,0.047,0.176-0.012,0.176-0.176v-3.621h-2.25l-0.492,3.973c-0.047,0.492-0.293,0.727-0.738,0.703h-1.125v-0.914h0.352
	c0.188,0.023,0.281-0.059,0.281-0.246l0.422-3.516h-1.055v-1.019H175.686z M185.144,73.006h-2.496v-1.125h7.98v1.125h-4.148
	l-0.141,1.371h4.008v4.148h0.352v1.125h-8.121v-1.125h2.004l0.316-3.023h-2.145v-1.125h2.25L185.144,73.006z M185.917,78.525h3.059
	v-3.023h-2.742L185.917,78.525z M191.823,71.846h7.523v6.961c0.07,0.633-0.211,0.914-0.844,0.844h-3.305v-1.055h2.566
	c0.211,0.047,0.305-0.047,0.281-0.281v-0.879h-4.852v1.441c0.07,0.609-0.223,0.879-0.879,0.809h-1.02v-1.09h0.281
	c0.188,0.047,0.27-0.047,0.246-0.281v-6.469H191.823z M198.046,72.971h-4.852v1.16h4.852V72.971z M198.046,75.185h-4.852v1.16h4.852
	V75.185z M200.894,74.447h0.984v4.359c-0.023,0.539-0.258,0.82-0.703,0.844h-0.598v-0.809h0.105
	c0.141,0.023,0.211-0.035,0.211-0.176v-4.218H200.894z M200.612,74.025v-0.984h3.973v0.984h-1.301v0.703h0.141
	c0.094,0.023,0.152-0.023,0.176-0.141v-0.141h0.809v0.598c0,0.445-0.234,0.656-0.703,0.633h-0.422v3.973h-1.125v-5.625
	C202.16,74.025,200.612,74.025,200.612,74.025z M200.823,72.654v-0.949h3.621v0.949H200.823z M203.53,78.877v-2.848h0.879v2.602
	c-0.023,0.164,0.035,0.234,0.176,0.211h0.105v0.809h-0.422C203.8,79.603,203.554,79.346,203.53,78.877z M204.761,72.724v-1.02h3.832
	v7.172c-0.047,0.492-0.352,0.762-0.914,0.809h-1.055v-0.914h0.633c0.141,0,0.223-0.094,0.246-0.281v-5.766h-0.984l-0.211,5.906
	c0,0.727-0.328,1.066-0.984,1.02h-0.527v-0.773h0.105c0.141,0,0.223-0.188,0.246-0.562l0.246-5.59L204.761,72.724L204.761,72.724z
	 M212.144,73.006h-2.496v-1.125h7.98v1.125h-4.148l-0.141,1.371h4.008v4.148h0.352v1.125h-8.121v-1.125h2.004l0.316-3.023h-2.145
	v-1.125h2.25L212.144,73.006z M212.917,78.525h3.059v-3.023h-2.742L212.917,78.525z"/>
</svg>
