<?xml version="1.0" encoding="utf-8"?>
<!-- Generator: Adobe Illustrator 16.0.0, SVG Export Plug-In . SVG Version: 6.00 Build 0)  -->
<!DOCTYPE svg PUBLIC "-//W3C//DTD SVG 1.1//EN" "http://www.w3.org/Graphics/SVG/1.1/DTD/svg11.dtd">
<svg version="1.1" id="图层_1" xmlns="http://www.w3.org/2000/svg" xmlns:xlink="http://www.w3.org/1999/xlink" x="0px" y="0px"
	 width="116.213px" height="159.807px" viewBox="0 0 116.213 159.807" enable-background="new 0 0 116.213 159.807"
	 xml:space="preserve">
<path fill="#2A7259" d="M6.956,83.57c11.773,19.88,35.899,23.16,54.621,22.195l0,0h0.192l-38.408,54.041h42.461l0.192-0.192
	c0.192-0.193,7.334-9.458,16.212-22.774l0,0l0,0c3.475-5.211,7.334-11.194,11.195-17.371l0,0l0,0
	c10.229-16.791,19.879-35.898,22.195-50.374c0-0.579,8.299-51.725-37.057-66.393C72.963,0.772,66.788,0,60.612,0
	c-1.738,0-3.475,0-5.019,0.193h-0.386c-13.51,1.158-27.021,6.369-37.443,14.668l0,0c-2.316,1.93-4.632,4.053-6.755,6.369
	C3.096,30.108-0.185,40.145,0.008,55.006C0.008,66.2,2.324,75.851,6.956,83.57z M1.166,60.796L18.15,72.376c0,0,0,0,0,0.193
	c0,0.386,0,0.579,0,0.965L7.535,82.799C4.061,76.43,1.938,69.095,1.166,60.796z M43.048,18.915c0,0.386,0.193,0.772,0.579,1.158
	L37.451,41.11L19.308,16.598L43.048,18.915z M44.592,20.458C44.785,20.458,44.785,20.458,44.592,20.458l5.211,11.387l-11.387,9.071
	L44.592,20.458L44.592,20.458z M46.329,18.915l20.651-2.702v0.193L50.575,31.267l-5.018-11.001
	C46.136,19.879,46.329,19.493,46.329,18.915z M106.932,26.441l-7.721,18.915c-0.192,0-0.192,0-0.386,0l0,0l-8.492-15.44
	c0.193-0.193,0.386-0.579,0.386-0.772L106.932,26.441z M100.949,72.184c-0.192-0.193-0.386-0.193-0.579-0.386l-0.771-23.161l0,0
	l14.668,20.073L100.949,72.184z M88.983,100.941L83.772,85.5c0.192-0.192,0.578-0.578,0.578-0.965c0-0.192,0-0.578,0-0.771
	L98.633,74.5c-0.193,0.193,0,0.386,0.192,0.386L88.983,100.941L88.983,100.941z M72.192,121.979
	c-0.193-0.193-0.387-0.193-0.772-0.193c-0.193,0-0.386,0-0.579,0.193l-7.527-16.213l23.933-2.509c0,0.193,0.192,0.193,0.192,0.386
	L72.192,121.979z M55.014,118.504l14.668,5.211c0,0.387,0.193,0.772,0.387,0.965l-11.774,18.529L55.014,118.504z M36.872,88.975
	l-15.44-15.247c0-0.193,0.193-0.193,0.193-0.386l17.37,1.351l-1.737,14.089C37.064,88.781,36.872,88.781,36.872,88.975z
	 M19.308,48.83c0-0.193,0-0.386,0-0.579l17.756-5.404l-2.123,16.792L19.308,48.83L19.308,48.83z M35.135,61.375l3.86,12.353
	l-17.37-1.351c0-0.193,0-0.193-0.193-0.386L35.135,61.375z M39.959,73.92l-3.088-10.422l5.597,8.299l6.176,5.79L39.959,73.92
	L39.959,73.92L39.959,73.92z M38.416,88.975C38.416,88.975,38.223,88.975,38.416,88.975l1.544-14.089l10.229,4.246L38.416,88.975z
	 M43.048,71.025L35.907,60.41l2.123-17.756l0.193-0.193l11.966-9.65l0,0l0.386-0.386H66.98l0,0h0.386l11.388,11.194l0.192,0.386
	l2.123,16.405l-0.192,0.386l-11.001,16.02l-0.193,0.193l-18.335,1.737l-0.193-0.193L43.048,71.025z M97.088,47.865L82.035,59.638
	l-2.123-15.633l16.984,3.088l0,0C97.088,47.286,97.088,47.672,97.088,47.865z M98.053,73.728l-14.281,9.265
	c-0.193-0.193-0.387-0.387-0.58-0.387l-0.965-21.037L98.44,72.569C98.247,72.762,98.053,73.148,98.053,73.728
	C98.053,73.534,98.053,73.728,98.053,73.728z M81.262,82.992l-10.615-5.791l10.422-15.055l0.966,20.458
	C81.841,82.605,81.649,82.605,81.262,82.992z M70.454,77.974l10.423,5.79l0,0c-0.192,0.579,0,0.965,0.386,1.352L63.7,103.45
	L70.454,77.974z M63.892,104.607l17.949-18.914c0,0,0.193,0,0.193,0.193c0.192,0,0.386,0,0.579,0l5.211,15.247
	c-0.387,0.193-0.771,0.579-0.771,1.158L63.892,104.607z M99.211,71.99L82.42,60.603l15.248-11.966
	c0.192,0.193,0.578,0.193,0.771,0.386l0.965,22.774C99.405,71.797,99.211,71.797,99.211,71.99z M97.861,45.742
	c-0.192,0.193-0.386,0.193-0.579,0.386L80.104,43.04l8.3-12.545c0.192,0,0.192,0,0.386,0s0.387,0,0.579-0.193L97.861,45.742z
	 M87.631,30.108l-8.299,12.545L68.524,32.231l18.722-2.509C87.438,29.916,87.438,30.108,87.631,30.108z M87.053,28.757
	l-19.107,2.702l1.157-14.089c0.386,0,0.579-0.193,0.966-0.386L87.053,28.757C87.053,28.372,87.053,28.564,87.053,28.757z
	 M68.138,17.177L66.98,31.459H51.54l16.212-14.475C67.946,16.984,67.946,17.177,68.138,17.177z M36.872,41.882l-17.756,5.404
	c-0.193-0.193-0.579-0.386-0.772-0.579l0.386-29.337L36.872,41.882z M18.922,49.602L34.556,60.41L20.659,71.025
	c-0.193,0-0.193-0.193-0.386-0.193h-0.193l-1.737-21.038C18.536,49.988,18.729,49.795,18.922,49.602z M17.185,50.181
	C17.185,50.181,17.378,50.181,17.185,50.181l1.737,21.23c-0.193,0-0.193,0.193-0.386,0.193L1.166,60.217l15.247-10.422
	C16.606,49.795,16.992,49.988,17.185,50.181z M8.114,83.377l10.615-9.264c0.193,0.193,0.386,0.386,0.579,0.386l3.088,22.774
	C16.799,93.992,11.781,89.554,8.114,83.377z M20.273,74.5c0.193,0,0.193,0,0.386-0.193L36.1,89.554c0,0.192-0.193,0.386-0.193,0.579
	s0,0.386,0,0.579l-12.931,6.562L20.273,74.5z M23.361,97.854L36.1,91.677c0.193,0.386,0.579,0.579,0.965,0.579h0.193l2.123,11.194
	C33.977,102.292,28.379,100.555,23.361,97.854z M40.732,103.643l-2.316-11.58c0.193,0,0.386-0.193,0.386-0.386l22.195,13.124
	C54.628,105.188,47.68,104.994,40.732,103.643z M39.381,90.904c0-0.386,0-0.771-0.193-1.158l11.773-9.843l10.616,24.126
	L39.381,90.904z M51.733,79.518l17.563-1.737l-6.755,26.056L51.733,79.518z M62.542,106.152l7.527,16.212
	c0,0.192-0.193,0.192-0.193,0.386l-15.248-5.404L62.542,106.152z M54.049,118.311l3.281,24.898c-0.193,0-0.193,0.193-0.386,0.193
	l-14.282-9.265L54.049,118.311z M42.276,134.91l14.089,9.264c0,0.193,0,0.386,0,0.579c0,0,0,0,0,0.192L25.871,158.07L42.276,134.91z
	 M26.643,158.842l30.108-12.932c0.386,0.387,0.772,0.772,1.351,0.772c0.193,0,0.193,0,0.386,0l6.369,12.353L26.643,158.842
	L26.643,158.842z M65.629,158.456l-6.369-12.353c0.386-0.386,0.578-0.771,0.578-1.158v-0.192l20.846-7.335
	C73.349,148.227,67.366,156.333,65.629,158.456z M59.454,143.787l-0.193-0.192l11.773-18.335c0.192,0,0.386,0.192,0.578,0.192
	c0.193,0,0.193,0,0.387,0l8.878,11.194L59.454,143.787z M81.649,136.067l-8.879-11.194c0.193-0.193,0.387-0.578,0.387-0.965
	l18.914-4.053C88.596,125.646,84.93,131.049,81.649,136.067z M73.157,122.943c0-0.193-0.193-0.193-0.193-0.387l15.44-18.527
	c0.192,0,0.386,0.193,0.579,0.193l0,0l3.474,14.475L73.157,122.943z M93.036,118.118l-3.281-14.089
	c0.387-0.193,0.772-0.772,0.772-1.352l12.545-2.509C99.984,106.346,96.51,112.328,93.036,118.118z M90.527,101.906
	c-0.193-0.193-0.193-0.387-0.386-0.579l9.65-26.056c0,0,0,0,0.192,0l0,0l3.281,24.125L90.527,101.906z M104.038,98.432
	l-3.281-23.353c0.386-0.386,0.771-0.772,0.771-1.351c0-0.193,0-0.386,0-0.386l13.125-3.86
	C113.108,77.974,109.249,88.01,104.038,98.432z M114.845,67.938L100.37,47.865c0.193-0.193,0.193-0.579,0.193-0.772V46.9
	l12.932-4.439C116.002,54.427,115.231,64.849,114.845,67.938z M113.108,41.689l-13.124,4.439l-0.192-0.193l7.526-19.301
	C110.213,31.652,111.95,36.671,113.108,41.689z M106.932,25.862l-16.599,2.316c0-0.193-0.192-0.386-0.386-0.579l5.598-15.054
	C100.563,16.598,104.23,21.038,106.932,25.862z M89.176,27.213c-0.193,0-0.193,0-0.387,0c-0.386,0-0.771,0.193-1.158,0.386
	l-17.37-11.58v-0.193l24.704-3.088L89.176,27.213z M78.561,3.474c6.562,2.123,11.772,5.018,16.212,8.492l-24.704,2.702l-0.193-0.193
	L78.561,3.474z M77.595,3.281l-8.299,10.615c-0.193,0-0.386-0.193-0.579-0.193s-0.387,0-0.579,0.193L56.365,0.772
	C63.7,0.386,70.84,1.158,77.595,3.281z M55.4,1.351l11.966,13.124c-0.192,0.193-0.192,0.386-0.386,0.579l-20.844,2.895
	c-0.193-0.193-0.193-0.386-0.386-0.579L55.4,1.351z M54.628,1.158l-9.65,16.019c-0.193,0-0.193,0-0.193,0c-0.193,0-0.386,0-0.386,0
	L38.03,4.825C43.241,2.895,48.838,1.544,54.628,1.158z M36.872,5.018l6.562,12.545c-0.193,0.193-0.193,0.386-0.386,0.386
	L18.343,15.44l-0.193-0.193C23.748,11.001,30.117,7.527,36.872,5.018z M11.781,21.81c1.737-2.123,3.86-3.86,5.983-5.79L17.185,46.9
	c-0.193,0-0.193,0-0.386,0.193L3.675,35.32C5.605,30.108,8.114,25.862,11.781,21.81z M16.22,47.672c0,0.193-0.193,0.386-0.193,0.386
	c0,0.193,0,0.579,0,0.772L1.166,59.445c-0.193-1.544-0.193-3.088-0.193-4.632c0-7.334,0.772-13.317,2.509-18.721L16.22,47.672z"/>
</svg>
