<?xml version="1.0" encoding="utf-8"?>
<!-- Generator: Adobe Illustrator 16.0.0, SVG Export Plug-In . SVG Version: 6.00 Build 0)  -->
<!DOCTYPE svg PUBLIC "-//W3C//DTD SVG 1.1//EN" "http://www.w3.org/Graphics/SVG/1.1/DTD/svg11.dtd">
<svg version="1.1" id="eqxiu.com" xmlns="http://www.w3.org/2000/svg" xmlns:xlink="http://www.w3.org/1999/xlink" x="0px" y="0px"
	 width="44.488px" height="122.646px" viewBox="0 0 44.488 122.646" enable-background="new 0 0 44.488 122.646"
	 xml:space="preserve">
<path id="eqxiu.com_1_" fill="#10AD44" d="M12.166,24.406H0v-1.898h6.837c-1.517-2.919-2.661-6.213-3.423-9.887l0.195-0.188
	c1.897,1.77,3.74,3.609,5.516,5.508c-0.26,1.646-0.893,3.171-1.907,4.566h4.948V24.406z M16.911,24.219h10.27v2.279h3.423V13.951
	H27.18v8.361h-3.424v-9.545C23.809,8.641,24.129,3.837,27.055,0c-4.032,3.259-6.362,6.944-6.668,11.671h-0.054v10.642h-3.422v-8.361
	h-3.415v12.547h3.415L16.911,24.219L16.911,24.219z M0.754,53.305c5.069-1.525,9.003-4.25,11.784-8.176v13.497h3.424V39.045h2.093
	v16.157h3.042V39.045h2.092v16.157h3.042V39.045h1.897v15.775c0,0.894,0.104,3.009-2.419,6.084c4.691-1.471,5.842-4.546,5.842-6.084
	V35.623h-3.423v1.517h-7.98c2.158-1.768,3.293-3.795,3.423-6.083h9.125v-1.897H11.404v1.897h8.363c0,3.423-0.252,5.45-0.764,6.083
	h-3.041v-1.517h-3.424v8.744c-1.516,1.524-5.589,3.152-7.244,3.533c4.123-2.854,5.303-10.579,5.348-21.589L7.117,26.23
	c-0.509,10.472-0.225,17.091-2.66,22.013C2.429,48.778,2.149,48.577,0,48.552C0.632,50.198,0.884,51.78,0.754,53.305z M0.436,44.963
	l3.154,0.014c-0.044-12.122-0.536-16.88,2.077-20.506C-0.48,27.417,0.481,41.477,0.436,44.963z M32.695,85.585v-0.007h-9.588V70.751
	h10.648v-2.279H11.022c0.119-2.423,0.191-4.865,0.089-6.464H6.837v2.279C6.716,72.147,4.81,78.481,1.135,83.299
	c3.901-1.808,8.487-8.522,9.125-12.548h8.289v14.827H0.373v2.287h18.176v20.947h-0.003c-0.024,4.345-0.082,9.661-3.263,13.833
	c4.498-3.636,7.963-7.758,7.82-13.304h0.004V87.866h7.715l0.001,0.015c5.706,0.144,9.961-0.952,13.665-5.534
	C40.854,85.116,37.167,85.55,32.695,85.585z"/>
</svg>
