<?xml version="1.0" encoding="utf-8"?>
<!-- Generator: Adobe Illustrator 17.0.0, SVG Export Plug-In . SVG Version: 6.00 Build 0)  -->
<!DOCTYPE svg PUBLIC "-//W3C//DTD SVG 1.1//EN" "http://www.w3.org/Graphics/SVG/1.1/DTD/svg11.dtd">
<svg version="1.1" id="图层_1" xmlns="http://www.w3.org/2000/svg" xmlns:xlink="http://www.w3.org/1999/xlink" x="0px" y="0px"
	 width="211px" height="168.1px" viewBox="0 0 211 168.1" enable-background="new 0 0 211 168.1" xml:space="preserve">
<path fill="#9599C7" d="M143.107,26.809L97.264,38.33l-0.251,66.887l78.912-37.264L143.107,26.809z M175.925,67.953l15.532,101.145
	l-37.576-66.762L175.925,67.953z"/>
<path fill="#4E55A2" d="M84.989,8.518l4.549,11.025l-11.314,2.503L84.989,8.518z M143.107,26.809L107.784,0l-10.52,38.33
	L143.107,26.809z M97.264,38.329L1.066,93.693l34.948,1.879L97.264,38.329z M175.925,67.953l-22.044,34.383L128.41,90.354
	L175.925,67.953z M179.767,148.307l-25.886-45.971l-3.008,62.754L179.767,148.307z"/>
<path fill="#7177B5" d="M84.989,8.518L97.264,38.33L107.784,0L84.989,8.518z M97.264,38.329l-0.251,66.888l-85.175,12.776
	L97.264,38.329z M210.161,129.432l-27.222-15.53l8.182,55.112L210.161,129.432z"/>
</svg>
