<?xml version="1.0" encoding="utf-8"?>
<!-- Generator: Adobe Illustrator 16.0.0, SVG Export Plug-In . SVG Version: 6.00 Build 0)  -->
<!DOCTYPE svg PUBLIC "-//W3C//DTD SVG 1.1//EN" "http://www.w3.org/Graphics/SVG/1.1/DTD/svg11.dtd">
<svg version="1.1" id="eqxiu_1_" xmlns="http://www.w3.org/2000/svg" xmlns:xlink="http://www.w3.org/1999/xlink" x="0px" y="0px"
	 width="612.002px" height="612.004px" viewBox="0 0 612.002 612.004" enable-background="new 0 0 612.002 612.004"
	 xml:space="preserve">
<path id="eqxiu" fill="#08A1EF" d="M156.5,550.192h48.358l34.19,34.195c36.828,36.822,97.078,36.822,133.9,0l34.195-34.195h48.361
	c52.076,0,94.686-42.609,94.686-94.689v-48.354l34.192-34.189c36.826-36.83,36.826-97.088,0-133.91l-34.194-34.192v-48.359
	c0-52.079-42.609-94.684-94.685-94.684h-48.361l-34.195-34.196c-36.82-36.824-97.077-36.824-133.9,0l-34.19,34.196h-48.359
	c-52.079,0-94.684,42.606-94.684,94.684v48.359l-34.196,34.194c-36.824,36.822-36.824,97.082,0,133.906l34.196,34.191v48.354
	C61.81,507.584,104.418,550.192,156.5,550.192"/>
</svg>
