<?xml version="1.0" encoding="utf-8"?>
<!-- Generator: Adobe Illustrator 17.0.0, SVG Export Plug-In . SVG Version: 6.00 Build 0)  -->
<!DOCTYPE svg PUBLIC "-//W3C//DTD SVG 1.1//EN" "http://www.w3.org/Graphics/SVG/1.1/DTD/svg11.dtd">
<svg version="1.1" id="_x37C_" xmlns="http://www.w3.org/2000/svg" xmlns:xlink="http://www.w3.org/1999/xlink" x="0px" y="0px"
	 width="221.102px" height="270.218px" viewBox="0 0 221.102 270.218" enable-background="new 0 0 221.102 270.218"
	 xml:space="preserve">
<path fill="#FF3333" d="M169.389,61.127c1.114-0.324,2.232-0.575,3.414-0.434c1.961,0.233,3.396,1.355,4.683,2.727
	c1.743,1.858,3.127,3.991,4.546,6.095c1.036,1.534,2.146,3.012,3.49,4.295c0.391,0.374,0.758,0.81,1.477,0.925
	c-0.267-0.563-0.489-1.021-0.702-1.482c-1.186-2.567-1.501-5.336-1.865-8.091c-0.265-2.012-0.558-4.012-1.48-5.857
	c-1.392-2.787-4.066-4.142-7.166-3.709c-3.079,0.432-5.259,2.238-7.163,4.504c-0.219,0.261-0.395,0.582-0.151,0.911
	C168.717,61.342,169.063,61.222,169.389,61.127z M186.176,73.74c0.128,0.172,0.258,0.344,0.388,0.517
	c-0.271-0.019-0.419-0.176-0.529-0.378C186.081,73.832,186.129,73.786,186.176,73.74z M183.496,114.118
	c1.864,0.89,3.289,0.565,4.557-1.005c0.095-0.566-0.253-0.925-0.433-1.489c-0.333-0.929-1.036-2.7-1.169-3.231
	c-1.389-3.589-3.271-6.896-5.691-9.889c-0.682-0.844-1.367-1.689-2.221-2.375c-1.079,0.452-1.732,1.287-2.075,2.376
	c-0.21,0.66-0.329,1.338-0.333,2.036c-0.034,3.951,1.396,7.384,3.742,10.479C180.851,112.31,182.016,113.412,183.496,114.118z
	 M178.444,103.541c-1.651-1.783-2.126-3.347-1.229-5.315c0.292-0.636,0.566-0.723,1.189-0.309c1.179,0.783,1.741,1.984,2.138,3.281
	c0.117,0.384,0.18,0.78,0.17,1.108c0.016,0.142,0.035,0.211,0.029,0.274c-0.069,0.594-0.05,1.264-0.714,1.543
	C179.363,104.406,178.844,103.976,178.444,103.541z M221.101,155.117c-0.176-0.057-0.121-0.211-0.138-0.333
	c-0.223-1.685-0.587-3.331-1.321-4.875c-0.75-1.579-1.763-2.934-3.287-3.857c-0.401-0.242-0.757-0.296-1.236-0.097
	c-5.14,2.117-10.291,4.205-15.439,6.298c-6.014,2.445-12.029,4.887-18.044,7.33c-0.447-0.636-0.896-1.273-1.344-1.908
	c4.284-0.222,8.34-1.314,12.101-3.374c5.082-2.78,9.171-6.601,11.71-11.877c1.659-3.447,2.328-7.089,1.02-10.808
	c-1.474-4.194-4.138-7.546-7.797-10.07c-0.557-0.384-0.534-0.604-0.212-1.107c0.587-0.916,1.096-1.884,1.617-2.84
	c0.09-0.161,0.378-0.439-0.104-0.522c-0.508-0.151-1.018-0.3-1.526-0.454c-3.486-1.064-4.963-3.461-4.441-7.078
	c0.373-2.59,1.359-4.968,2.406-7.325c1.48-3.333,3.139-6.596,4.2-10.094c1.616-5.328,2.318-10.789,2.036-16.356
	c-0.256-5.063-1.547-9.869-3.712-14.449c-0.669-1.416-1.691-2.621-2.402-4.001c-2.728-5.294-6.264-9.985-10.374-14.271
	c-1.889-1.968-3.961-3.717-6.183-5.291c-0.05-0.1-0.09-0.205-0.151-0.296c-1.929-2.947-4.559-5.103-7.648-6.724
	c-0.383-0.201-0.535-0.385-0.492-0.856c0.325-3.517,0.257-7.035-0.14-10.545c-0.552-4.876-1.858-9.564-3.613-14.134
	C165.904,3.425,165.28,1.61,164.221,0c-0.269,0-0.536,0-0.804,0c-0.348,0.26-0.542,0.61-0.694,1.019
	c-0.317,0.854-0.634,1.715-1.044,2.525c-0.969,1.918-2.476,3.195-4.643,3.532c-2.107,0.328-4.113-0.08-6.037-0.963
	c-0.229-0.104-0.443-0.315-0.839-0.149c4.61,4.522,8.337,9.594,10.674,15.824c-1.458-0.661-2.789-1.062-4.212-1.061
	c-0.078-0.035-0.153-0.086-0.237-0.104c-2.68-0.556-5.368-1.07-8.077-1.456c-2.268-0.322-4.538-0.669-6.843-0.561
	c-0.847-0.768-1.537-1.673-2.219-2.58c-2.027-2.692-3.775-5.521-4.104-8.993c-0.045-0.486-0.269-0.529-0.656-0.298
	c-1.459,0.864-2.981,1.597-4.577,2.181c-2.93,1.076-5.928,1.576-9.049,1.127c-0.975-0.141-1.91-0.422-2.838-0.736
	c-0.369-0.126-0.754-0.161-1.061,0.16c-0.322,0.34-0.268,0.73-0.101,1.12c0.061,0.143,0.13,0.285,0.203,0.422
	c0.724,1.358,1.535,2.661,2.427,3.917c1.774,2.504,3.907,4.681,6.162,6.745c-0.897,0.164-1.796,0.322-2.692,0.493
	c-7.413,1.412-14.357,4.122-20.999,7.643c-12.287,6.51-23.198,14.866-33.007,24.691c-6.696,6.708-11.961,14.422-16.01,22.972
	c-5.694,12.025-8.618,24.667-8.376,38.004c0.005,0.24,0.04,0.461-0.173,0.672c-2.001,1.971-3.381,4.361-4.521,6.89
	c-3.578,7.922-4.28,16.154-2.489,24.616c0.956,4.514,3.257,8.225,7.24,10.629c4.093,2.47,8.581,2.957,13.218,1.858
	c3.342-0.792,6.259-2.313,8.284-5.218c0.19-0.274,0.37-0.207,0.623-0.11c6.111,2.327,12.409,3.112,18.902,2.26
	c-0.062,0.135-0.12,0.269-0.186,0.401c-0.003,0.007-0.006,0.014-0.01,0.021c-2.596,5.215-2.493,10.224,1.137,14.969
	c0.3,0.392,0.604,0.775,1.009,1.058c0.367,0.256,0.783,0.568,1.222,0.32c0.102-0.058,0.165-0.129,0.203-0.209
	c0.126-0.254-0.004-0.6-0.028-0.892c-0.008-0.089-0.017-0.179-0.03-0.267c-0.367-2.335,0.421-4.387,1.878-6.036
	c0.874-0.989,1.988-1.834,3.239-2.51h0.001c-0.408,1.029-0.872,2.034-1.421,2.994c-1.491,2.616-2.747,5.329-3.579,8.233
	c-0.787,2.742-2.179,5.15-4.146,7.223c-3.513-0.628-6.906-1.635-10.135-3.173c-0.52-0.486-0.967-0.284-1.377,0.156
	c-2.04,2.184-3.137,4.807-3.578,7.732c-1.729,0.73-3.385,1.581-4.74,2.915c-2.522,2.482-3.674,5.614-4.213,9.02
	c-0.468,2.952-0.282,5.903,0.109,8.847c0.05,0.377,0.002,0.586-0.412,0.746c-2.878,1.113-5.746,2.253-8.613,3.398
	c-2.388,0.954-4.769,1.926-7.153,2.891c-0.19,0.06-0.385,0.104-0.569,0.178c-13.891,5.516-27.777,11.041-41.676,16.533
	c-1.146,0.453-2.229,0.864-2.585,2.195c0,0.982,0,1.964,0,2.945c0.243,0.161,0.183,0.441,0.226,0.661
	c0.437,2.23,1.235,4.323,2.348,6.295c0.761,1.344,1.631,2.611,2.899,3.544c0.858,0.632,1.73,0.755,2.754,0.313
	c4.7-2.03,9.419-4.011,14.129-6.014c9.808-4.169,19.614-8.34,29.42-12.509c0.125-0.049,0.25-0.094,0.374-0.146
	c4.721-2.005,9.443-4.008,14.159-6.023c0.354-0.151,0.55-0.179,0.806,0.196c3.183,4.694,7.353,8.265,12.471,10.688
	c4.118,1.949,8.424,3.024,13.01,2.18c3.298-0.606,6.033-2.102,7.597-5.258c0.455-0.919,0.856-1.854,1.127-2.845
	c0.738-2.694,0.816-5.444,0.677-8.213c0.151-0.023,0.251,0.076,0.359,0.15c2.005,1.355,3.769,2.984,5.374,4.787
	c2.295,2.576,4.111,5.475,5.736,8.507c0.62,1.158,0.632,1.163,1.815,0.671c4.042-1.681,8.222-2.592,12.621-2.201
	c2.651,0.236,5.216,0.848,7.677,1.872c0.098,0.146,0.186,0.301,0.295,0.438c6.487,8.285,12.454,16.941,18.276,25.699
	c3.358,5.052,7.866,8.469,13.732,10.075c0.869,0.239,1.784,0.255,2.628,0.591c1.472,0,2.945,0,4.418,0
	c0.056-0.182,0.212-0.111,0.332-0.13c3.742-0.571,6.834-2.236,8.921-5.476c1.996-3.101,2.421-6.577,2.073-10.146
	c-0.654-6.753-2.32-13.262-5.047-19.482c-2.049-4.68-4.448-9.16-7.758-13.097c-0.182-0.226-0.082-0.452-0.02-0.69
	c1.665-6.361,5.297-11.207,11.078-14.398c0.819-0.452,1.645-0.893,2.465-1.341c0.135-0.074,0.305-0.164,0.253-0.345
	c-0.045-0.164-0.203-0.224-0.378-0.193c-3.014-0.565-6.006-1.221-8.968-2.018c-4.24-1.14-8.191-2.814-11.408-5.916
	c2.375-5.205,4.583-10.478,6.522-15.862c0.405-1.129,0.708-2.295,1.231-3.382c3.065-1.297,6.131-2.593,9.195-3.89
	c0.001-0.001,0.002-0.001,0.002-0.001c0.554-0.121,1.056-0.366,1.54-0.65c0.188-0.063,0.384-0.11,0.566-0.188
	c8.682-3.655,17.362-7.316,26.046-10.97c3.172-1.335,6.35-2.654,9.526-3.982c0-0.579,0-1.16,0-1.739
	c-0.17-0.357-0.243-0.714,0-1.071C221.101,155.207,221.101,155.162,221.101,155.117z M51.961,228.016l-0.347,0.134
	c-0.141-0.199-0.149-0.432-0.139-0.66c0.06-1.526-0.159-3.022-0.441-4.515c-0.667-2.989-2.318-5.299-4.833-7.015
	c-0.183-0.123-0.383-0.235-0.437-0.48c-0.101-0.093-0.215-0.166-0.327-0.24l0.005-0.005l0.688,0.064
	c0.35,0.21,0.595,0.353,0.835,0.503c1.011,0.628,1.883,1.404,2.639,2.329c1.104,1.354,1.729,2.926,2.184,4.584
	C52.131,224.454,52.15,226.21,51.961,228.016z M195.263,123.889c1.45,0.051,2.879,0.308,4.238,0.854
	c0.237,0.097,0.434,0.222,0.578,0.432c0.38,0.206,0.618,0.552,0.873,0.881c1.528,1.959,2.656,4.125,3.351,6.512
	c0.043,0.146,0.045,0.304,0.065,0.456c-1.061-0.18-2.121-0.201-3.189-0.04c-1.778,0.267-3.322,1.079-4.817,2.019
	c-0.856-1.642-2.237-2.687-3.901-3.39c-1.725-0.73-3.523-1.175-5.491-1.352c0.289,0.287,0.574,0.281,0.823,0.345
	c1.531,0.398,3.052,0.829,4.485,1.509c1.519,0.722,2.837,1.677,3.572,3.263c-2.5,1.925-4.865,3.987-6.712,6.582
	c0.256-0.125,0.465-0.303,0.665-0.49c1.988-1.877,3.996-3.732,6.278-5.259c0,0,0.009,0.001,0.014,0.002
	c0.328,1.218,0.294,2.456,0.184,3.693c-0.183,2.037-0.814,3.953-1.612,5.821c-0.139,0.327-0.368,0.645-0.286,1.161
	c0.545-0.842,0.883-1.657,1.2-2.479c1.075-2.784,1.972-5.594,1.118-8.63c2.383-1.558,4.902-2.529,7.816-1.832
	c0.313,1.635,0.068,3.233-0.363,4.808c-1.089,3.992-3.41,7.22-6.394,9.99c-3.975,3.689-8.632,6.083-13.977,7.099
	c-1.294,0.246-2.6,0.374-3.914,0.415c-0.22,0.007-0.439,0.046-0.659,0.069c-1.673-1.825-3.469-3.511-5.517-4.917
	c-4.612-3.169-9.707-4.962-15.287-5.361c-0.554-0.039-1.113-0.003-1.67-0.002c-0.663-1.89-1.299-3.789-1.636-5.773
	c0.023-0.344,0.267-0.552,0.484-0.771c0.626-0.632,1.263-1.252,1.883-1.889c0.744-0.763,0.685-1.135-0.243-1.605
	c-1.013-0.513-2.039-0.993-2.986-1.623c-0.182-0.12-0.412-0.188-0.47-0.439c-0.447-0.969-0.459-2.029-0.622-3.053
	c-0.659-4.118-0.948-8.27-0.938-12.439c0.003-0.855-0.022-1.727,0.212-2.568c0.27,0.062,0.39,0.287,0.521,0.491
	c2.158,3.339,5.245,5.472,8.909,6.847c2.892,1.085,5.895,1.559,8.976,1.59c3.724,0.036,7.433-0.243,11.145-0.5
	C186.393,124.01,190.824,123.732,195.263,123.889z M172.287,75.392c-0.06,0.108-0.123,0.213-0.185,0.321
	c-0.088,1.542-0.63,2.975-1.174,4.391c-1.963,5.102-4.967,9.616-8.065,14.069c-1.482,2.13-3.02,4.221-4.523,6.335
	c-0.111,0.156-0.285,0.294-0.271,0.521c-1.859-0.538-3.712-1.095-5.495-1.856c-4.655-1.959-8.398-4.999-10.796-9.484
	c-1.259-2.354-1.959-4.938-2.465-7.571c-0.533-2.789-0.47-5.6-0.358-8.404c0.059-1.467,0.402-2.922,0.617-4.383
	c3.64-2.078,7.536-3.403,11.673-4.079c2.436-0.397,4.884-0.488,7.33-0.369c2.939,0.142,5.874,0.46,8.63,1.619
	c2.001,0.841,3.733,2.017,4.617,4.115C172.471,72.155,172.618,73.753,172.287,75.392z M175.265,92.991
	c2.568,0.979,4.454,2.82,6.114,4.932c4.605,5.853,7.205,12.542,8.291,19.865c0.238,1.615,0.288,3.239,0.225,4.867
	c-0.012,0.287-0.085,0.569-0.129,0.855c-0.038,0.001-0.075-0.009-0.107-0.029c-2.42,0.106-4.841,0.201-7.263,0.321
	c-1.933,0.096-3.863,0.221-5.795,0.332v0.001c-0.382,0.017-0.764,0.034-1.145,0.052c-4.545-2.499-7.372-6.434-9.211-11.147
	c-1.48-3.791-2.085-7.729-1.618-11.797c0.2-1.765,0.646-3.478,1.548-5.011C168.268,92.674,171.273,91.471,175.265,92.991z
	 M182.835,49.924c2.181,1.016,4.28,2.186,6.164,3.704c3.097,2.081,5.474,4.803,7.189,8.105c1.873,3.605,2.832,7.469,3.255,11.485
	c0.579,5.494,0.305,10.938-0.964,16.318c-0.298,1.269-0.58,2.55-1.185,3.724c-0.626-1.02-1.251-2.04-1.876-3.061
	c-0.109-0.139-0.225-0.271-0.326-0.416c-2.2-3.175-4.588-6.194-7.421-8.834c-2.361-2.198-4.944-4.069-7.912-5.377
	c-1.95-0.858-3.998-1.137-6.104-1.127c-0.004,0.003-0.004,0.007-0.008,0.011c-0.02-0.032-0.042-0.057-0.057-0.1
	c-0.098-0.795-0.135-1.597-0.273-2.389c-0.489-2.833-2.23-4.688-4.681-5.978c-1.94-1.021-4.046-1.501-6.198-1.789
	c-2.433-0.322-4.875-0.565-7.327-0.433c-4.306,0.231-8.477,1.103-12.448,2.823c-0.696,0.302-1.385,0.617-2.063,0.956
	c-0.234,0.117-0.46,0.288-0.752,0.2c-6.226,3.361-11.301,7.953-14.979,14.026c-4.471,7.382-7.896,15.234-10.482,23.46
	c-0.083,0.266-0.085,0.579-0.337,0.778c-5.105-6.239-7.73-13.437-8.292-21.434c-0.021-0.279,0.045-0.528,0.152-0.774
	c4.815-11.205,11.011-21.529,19.141-30.685c2.324-2.617,5.25-3.965,8.332-5.177c4.105-1.614,8.405-2.452,12.773-2.98
	c3.969-0.479,7.95-0.67,11.94-0.497C166.659,44.837,174.997,46.276,182.835,49.924z M112.612,151.347
	c-0.219-0.161-0.464-0.143-0.705-0.082c-1.775,0.45-3.383,1.229-4.724,2.496c-1.514,1.432-2.305,3.241-2.686,5.255
	c-0.218,1.354-0.206,2.699,0.163,4.027c0.118,0.427-0.085,0.453-0.413,0.39c-0.959-0.189-1.932-0.365-2.843-0.707
	c-2.349-0.881-3.902-2.485-4.303-5.051c-0.035-0.336-0.163-0.939-0.147-0.913c3.914-0.359,7.295-1.878,10.081-4.673
	c0.915-0.918,1.733-1.919,2.182-3.163c0.106-0.292,0.231-0.346,0.536-0.259c0.745,0.216,1.509,0.378,2.265,0.563
	c0.164,0.689,0.328,1.375,0.493,2.064C112.545,151.31,112.579,151.322,112.612,151.347c0.271,0.403,0.418,0.834,0.291,1.324
	c-0.015,0.02-0.033,0.032-0.048,0.049c0.806,2.621,1.595,5.244,2.638,7.787c1.291,3.151,2.79,6.193,4.641,9.058
	c0.084,0.131,0.147,0.272,0.22,0.409c0,0,0,0.001,0,0.002c0,0,0.006,0.002,0.009,0.003c-0.021-0.005-0.037-0.014-0.06-0.018
	c-0.493,0.73-0.505,1.601-0.676,2.417c-0.567,2.71-1.299,5.359-2.62,7.823c-0.01-0.747,0.045-1.502-0.064-2.259
	c-0.406-2.82-1.767-5.148-3.694-7.184c-1.547-1.635-3.383-2.964-4.896-4.633c-1.75-1.931-2.684-4.124-2.171-6.783
	c0.342-1.768,1.204-3.239,2.487-4.48c1.042-0.928,2.209-1.611,3.596-1.882c0.235-0.045,0.482-0.091,0.638-0.309
	C113.03,152.181,112.883,151.75,112.612,151.347z M116.185,208.613c1.674-1.339,3.627-1.948,5.737-2.113
	c1.838-0.062,3.587,0.475,5.367,0.795c0.177-0.181,0.353-0.149,0.529-0.001c-0.045,0.049-0.088,0.098-0.133,0.146
	c0.736,0.374,1.446,0.784,2.075,1.33c2.685,2.328,2.641,5.783-0.149,7.996c-2.303,1.827-4.989,2.373-7.859,2.132
	c-2.061-0.173-3.967-0.798-5.6-2.12C113.288,214.455,113.298,210.92,116.185,208.613z M169.956,32.482
	c0.074-0.405,0.182-0.496,0.552-0.303c1.575,0.821,3.041,1.809,4.399,2.949c0.383,0.32,0.882,0.534,1.087,1.043
	c-1.942-1.005-3.948-1.866-6.014-2.59C169.91,33.218,169.888,32.863,169.956,32.482z M155.857,10.679
	c-0.745-0.86-1.561-1.648-2.354-2.46c-0.162-0.166-0.402-0.276-0.45-0.548c6.233,0.864,8.219-0.144,10.729-5.558
	c2.032,4.756,3.651,9.519,4.605,14.505c0.956,4.994,1.372,10.022,1.011,15.104c-0.924-1.92-2.004-3.704-3.305-5.352
	c-0.801-1.015-1.653-1.983-2.681-2.781c-0.395-0.308-0.648-0.688-0.815-1.178C161.111,18.067,158.867,14.155,155.857,10.679z
	 M149.039,23.843c2.405-1.46,5.03-2.145,7.829-2.008c1.982,0.099,3.645,1.069,5.165,2.284c1.102,0.878,2.076,1.879,2.882,3.041
	c0,0.001,0,0.001,0,0.001c1.364,1.607,2.285,3.476,3.16,5.369c0.066,0.146,0.259,0.351,0.021,0.536
	c-3.078-0.72-6.195-0.956-9.347-0.794c-0.609-0.274-0.77-0.947-1.215-1.366c-2.5-3.123-3.894-4.195-8.783-6.754
	C148.725,23.936,148.919,23.915,149.039,23.843z M120.102,13.352c-0.534-0.762-1.01-1.563-1.592-2.467
	c6.123,1.398,11.387-0.3,16.279-3.881c-0.06,1.19,0.011,2.31,0.303,3.408c0.738,2.765,2.223,5.143,3.936,7.375
	c1.916,2.498,4.054,4.794,6.73,6.518c0.71,0.458,1.449,0.871,2.256,1.142c0.341,0.114,0.704,0.244,1.041,0.139
	c0.571-0.178,0.969,0.069,1.388,0.383c2.384,1.784,4.53,3.809,6.277,6.232c0.063,0.086,0.091,0.198,0.135,0.298
	c-1.619,0.236-3.209,0.615-4.8,0.987c-3.577-1.012-7.11-2.15-10.522-3.641c-4.84-2.114-9.344-4.777-13.467-8.091
	C125.026,19.312,122.343,16.544,120.102,13.352z M88.878,122.237c0.204-2.392,0.449-4.776,0.756-7.156
	c0.47-3.659,1.11-7.287,1.892-10.892c0.906-4.176,2.006-8.297,3.287-12.372c1.955-6.22,4.482-12.203,7.479-17.986
	c3.843-7.413,8.336-14.41,13.598-20.906c2.102-2.598,4.301-5.106,6.591-7.541c4.081-4.345,8.502-8.304,13.232-11.923
	c1.186-0.97,2.447-1.839,3.691-2.731c0.307-0.219,0.581-0.258,0.929-0.115c2.824,1.153,5.72,2.08,8.696,2.759
	c0.643,0.147,1.315,0.18,1.928,0.459c-1.915,0.608-3.781,1.343-5.622,2.146c-4.614,2.182-8.873,4.922-12.839,8.129
	c-6.188,4.999-11.357,10.933-15.909,17.419c-6.366,9.065-11.073,18.97-14.742,29.393c-2.351,6.683-4.325,13.472-5.667,20.435
	c-0.759,3.938-1.391,7.895-1.521,11.911c-0.015,0.466-0.229,0.438-0.542,0.381c-1.206-0.224-2.427-0.333-3.65-0.403
	c-0.242-0.17-0.521-0.086-0.781-0.101C88.84,123.096,88.805,123.102,88.878,122.237z M84.75,136.538
	c-0.059,0.007-0.11,0.069-0.166,0.105c-0.915,0.145-1.814,0.367-2.72,0.605c0.48-0.64,1.216-0.837,1.912-1.049
	c2.387-0.727,4.809-0.896,7.296-0.525c2.805,0.418,5.524,1.105,8.149,2.174c0.637,0.26,1.271,0.527,1.829,0.94
	c-0.476,0.171-0.903-0.076-1.32-0.207c-2.82-0.881-5.683-1.586-8.6-2.028C89.016,136.233,86.878,136.303,84.75,136.538z
	 M95.389,156.852l-0.139,0.709c0.057,0.726,0.235,1.425,0.531,2.092c0.342,0.828,0.843,1.555,1.464,2.251
	c-5.061,1.208-8.992,3.54-9.727,9.222c-1.356-1.712-2.391-4.216-2.218-6.942c-0.04-0.585,0.05-1.158,0.161-1.727
	c0.424-2.165,1.125-4.211,2.628-5.896c2.425,0.179,4.851,0.34,7.284,0.313 M91.545,176.138c0.021-0.259,0.123-0.467,0.234-0.683
	c0.198-0.821,0.829-1.362,1.338-1.962c2.14-2.527,4.582-4.737,7.224-6.729c1.05-0.791,2.135-1.535,3.264-2.212
	c0.073-0.045,0.148-0.083,0.224-0.121c0.121,0.003,0.242,0.006,0.363,0.006c0.429,0.069,0.946-0.238,1.246,0.352
	c0.948,1.872,2.448,3.259,4.045,4.563c0.876,0.717,1.801,1.381,2.592,2.198c-3.246,1.296-6.459,2.666-9.536,4.336
	c-2.504,1.359-4.94,2.824-7.126,4.667c-0.236,0.198-0.443,0.43-0.665,0.645c-0.642,0.931-1.448,1.709-2.303,2.442
	c-0.332-0.229-0.26-0.649-0.448-0.946C91.475,180.535,91.372,178.348,91.545,176.138z M88.894,184.298
	c0.668,0.01,1.334,0.018,2.001,0.034c0.25,0.006,0.473,0.058,0.624,0.305c1.606,2.649,3.75,4.851,5.89,7.057
	c0.462,0.478,1.012,0.874,1.379,1.441c-0.14,0.653-0.272,1.309-0.605,1.898c-0.611,1.081-1.618,1.395-2.724,0.831
	c-0.93-0.477-1.626-1.23-2.281-2.022c-1.068-1.29-1.878-2.746-2.697-4.197c-0.451-0.399-0.619-0.964-0.846-1.488
	c-0.405-0.939-0.719-1.909-0.882-2.923C88.7,184.91,88.601,184.572,88.894,184.298z M71.506,185.902
	c0.523-2.193,1.388-4.252,2.465-6.227c0.175-0.317,0.297-0.33,0.505-0.045c1.505,2.058,3.105,4.045,4.508,6.177
	c0.095,0.146,0.479,0.373-0.03,0.512c-2.461-0.281-4.912-0.251-7.346,0.261C71.365,186.387,71.453,186.124,71.506,185.902z
	 M100.4,227.911c-0.791,2.202-1.952,4.15-3.884,5.547c-1.203,0.869-2.604,1.27-4.052,1.414c-5.34,0.531-10.211-0.896-14.735-3.668
	c-4.33-2.654-7.757-6.216-10.459-10.496c-0.058-0.093-0.104-0.193-0.206-0.381c0.727,0.194,1.375,0.354,2.016,0.539
	c3.373,0.977,6.831,1.241,10.305,1.006c4.67-0.316,8.667-2.186,11.873-5.646c0.21-0.227,0.374-0.496,0.558-0.746
	c2.519,0.411,4.893,1.265,7.187,2.36c0.941,0.449,1.866,0.935,2.716,1.548C101.508,222.264,101.391,225.155,100.4,227.911z
	 M178.032,240.822c0.913-1.507,1.577-3.139,2.117-4.818c0.04-0.123,0.106-0.237,0.19-0.421c1.287,3.115,2.255,6.253,3.017,9.455
	c0.704,2.962,1.207,5.955,1.499,8.99c0.264,2.741,0.131,5.412-0.93,7.994c-1.466,3.565-4.185,5.651-7.867,6.438
	c-4.885,1.044-9.392-0.174-13.594-2.679c-2.993-1.782-5.388-4.199-7.305-7.112c-2.031-3.086-4.176-6.095-6.373-9.066
	c-0.129-0.174-0.232-0.368-0.403-0.644c0.998,0.248,1.89,0.48,2.786,0.693c3.519,0.845,7.083,0.95,10.671,0.64
	c2.537-0.219,5.018-0.689,7.371-1.698C173.001,246.971,175.908,244.328,178.032,240.822z M167.155,199.841
	c0.178-0.007,0.355-0.026,0.532-0.039c0.752,0.174,1.521,0.25,2.228,0.622c0.802,0.421,1.369,1.035,1.791,1.809
	c0.069-0.119,0.16-0.122,0.277-0.069c1.905,0.835,3.892,1.417,5.903,1.923c0.126,0.032,0.24,0.104,0.36,0.155
	c0.018,0.077,0.012,0.131-0.007,0.174c0.056-0.017,0.112-0.03,0.172-0.032c0.372-0.114,0.733-0.036,1.102,0.041
	c1.931,0.404,3.875,0.717,5.852,0.776c0.094,0.052,0.187,0.104,0.194,0.108c-10.052,4.103-14.168,11.838-13.722,22.45
	c-1.425-0.438-2.967-0.75-4.53-0.953c-3.041-0.395-6.079-0.398-9.125-0.025c-2.785,0.341-5.467,1.021-7.954,2.354
	c-2.753,1.475-5.053,3.419-6.434,6.296c-0.218,0.453-0.375,0.937-0.588,1.48c-0.966-0.955-1.984-1.803-3.099-2.531
	c-4.648-3.035-9.715-4.648-15.294-4.278c-3.696,0.243-7.19,1.238-10.225,3.49c-0.376,0.28-0.357,0.041-0.44-0.216
	c-2.068-6.382-5.884-11.466-11.511-15.11c-3.661-2.371-7.715-3.633-12.11-3.668c-0.366-0.002-0.847,0.263-1.059-0.053
	c-0.149-0.22,0.05-0.678,0.103-1.028c0.367-2.446,0.195-4.884-0.096-7.323c-0.738-6.159-3.316-11.601-6.522-16.801
	c-1.844-2.799-3.757-5.546-6.097-7.968c-0.119-0.124-0.342-0.254-0.164-0.493c1.954,0.988,3.982,1.771,6.105,2.314
	c0.215,0.056,0.415,0.129,0.582,0.301c1.851,1.901,3.608,3.882,5.07,6.106c2.922,4.169,4.912,8.736,5.904,13.736
	c0.431,2.164,0.605,4.357,0.775,6.553c0.016,0.208-0.059,0.455,0.171,0.609c0.097-0.025,0.194-0.029,0.292-0.013
	c4.779,1.434,9.22,3.547,13.139,6.659c2.779,2.206,4.825,5.022,6.469,8.143c0.2,0.322,0.388,0.044,0.581-0.016
	c2.638-1.01,5.351-1.602,8.186-1.757c4.855-0.265,9.396,0.898,13.806,2.775c1.188,0.507,2.337,1.098,3.489,1.68
	c0.139,0.063,0.273,0.16,0.415,0.207h0.004c0.141,0.046,0.289,0.04,0.452-0.101c3.564-2.991,7.55-5.199,12.051-6.405
	c3.62-0.969,7.268-0.869,10.906-0.05c0.26,0.059,0.515,0.144,0.781,0.162c0.332-0.109,0.173-0.372,0.15-0.563
	c-0.51-4.309,0.676-8.053,3.689-11.2c2.209-2.307,4.833-3.988,7.707-5.303c-2.321,0.918-4.486,2.107-6.413,3.717
	c-0.288,0.24-0.359,0.277-0.51,0.217c-0.446,0.439-0.808,0.966-1.337,1.321c-0.044,0.034-0.085,0.072-0.125,0.111
	c-0.04,0.196-0.257,0.268-0.382,0.403c-0.007-0.063-0.015-0.125-0.023-0.188c-1.4,0.983-2.894,1.748-4.615,1.981
	c-0.871,0.119-1.737,0.105-2.587-0.121c-2.515-0.669-3.731-2.939-3.01-5.594C159.395,203.018,163.322,199.972,167.155,199.841z
	 M175.217,164.069c0,0,0,0,0,0.001c-1.97-0.866-3.98-1.654-5.901-2.618c-2.359-1.186-4.615-2.564-6.792-4.071
	c-0.417-0.288-0.874-0.519-1.312-0.776c-1.261-2.174-2.285-4.458-3.14-6.819c-0.487-1.085-0.895-2.197-1.204-3.346
	c2.648,0.366,5.25,0.938,7.771,1.839c7.736,2.766,13.608,7.704,17.457,14.997c0.927,1.756,1.724,3.566,2.338,5.454
	c0.052,0.158,0.183,0.313,0.059,0.54c-2.686-2.48-6.023-3.763-9.275-5.199C175.217,164.069,175.217,164.069,175.217,164.069z
	 M184.987,171.188c-0.35,1.184-1.546,1.761-2.927,1.56c-2.1-0.307-3.98-1.16-5.829-2.124c0.42-1.389,0.71-2.804,0.824-4.252
	c1.929,0.847,3.898,1.609,5.712,2.7c0.742,0.447,1.392,1.019,2.082,1.535C185.064,170.768,185.058,170.942,184.987,171.188z"/>
</svg>
