<?xml version="1.0" encoding="utf-8"?>
<!-- Generator: Adobe Illustrator 16.0.0, SVG Export Plug-In . SVG Version: 6.00 Build 0)  -->
<!DOCTYPE svg PUBLIC "-//W3C//DTD SVG 1.1//EN" "http://www.w3.org/Graphics/SVG/1.1/DTD/svg11.dtd">
<svg version="1.1" id="图层_1" xmlns="http://www.w3.org/2000/svg" xmlns:xlink="http://www.w3.org/1999/xlink" x="0px" y="0px"
	 width="102.258px" height="35.49px" viewBox="0 0 102.258 35.49" enable-background="new 0 0 102.258 35.49" xml:space="preserve">
<path fill-rule="evenodd" clip-rule="evenodd" fill="#DA312E" d="M54.337,29.486c-0.264,0.368,0.519,0.376,0.371,0.674
	c-0.041,0.081-0.146,0.15-0.246,0.173c-0.04,0.001-0.078,0.004-0.119,0.006c-0.124,0.045-0.293,0.146-0.451,0.048
	c-0.206-0.124-0.219-0.477-0.091-0.711c0.176-0.317,0.311-0.515,0.596-0.721c0.054-0.038,0.1-0.098,0.162-0.125
	c0.103-0.046,0.201-0.041,0.315-0.084c0.306-0.001,0.546,0.049,0.673,0.239c0.032,0.044,0.02,0.117,0.025,0.185
	c0.015,0.195-0.023,0.396-0.144,0.489c-0.346,0.267-0.322-0.213-0.472-0.315C54.751,29.199,54.436,29.351,54.337,29.486z
	 M52.949,30.982c0.063,0.007,0.123,0.012,0.185,0.017c0.151,0.056,0.327,0.124,0.52,0.127c0.406,0.003,0.662,0.152,0.81-0.196
	c0.061-0.142-0.086-0.192-0.185-0.226c-0.123-0.047-0.496,0.111-0.668,0c-0.277-0.186-0.122-0.768-0.214-1.135
	c-0.026-0.109-0.111-0.313-0.029-0.399c0.103-0.107,0.354-0.056,0.471-0.147c0.168-0.134,0.273-0.342,0.44-0.473
	c0.166-0.128,0.617-0.277,0.867-0.322c0.128-0.023,0.481,0.092,0.582,0.132c0.204,0.081,0.987-0.055,1.115-0.138
	c0.114-0.075,0.146-0.231,0.034-0.333c-0.138-0.129-0.418-0.217-0.69-0.215c-0.122,0.049-0.33,0.032-0.459,0.065
	c-0.14,0.035-0.456,0.235-0.688,0.16c-0.066-0.021-0.179-0.007-0.256-0.034c-0.399-0.15-0.851-0.131-1.22,0.04
	c-0.078,0.037-0.159,0.042-0.228,0.085c-0.203,0.129-0.339,0.377-0.399,0.649c-0.045,0.203,0.068,0.429-0.083,0.554
	c-0.102,0.084-0.328,0.173-0.406,0.269c-0.197,0.24-0.315,0.922-0.059,1.206C52.54,30.832,52.721,30.887,52.949,30.982z
	 M67.059,31.623c-0.092,0.067-0.237,0.067-0.351,0.111c-0.07,0.044-0.142,0.087-0.213,0.129c-0.113,0.034-0.229,0.069-0.343,0.103
	c-0.117,0.068-0.238,0.137-0.358,0.206c-0.147,0.03-0.297,0.062-0.444,0.093c-0.141,0.044-0.286,0.143-0.445,0.188
	c-0.166,0.021-0.335,0.04-0.504,0.06c-0.148,0.031-0.268,0.099-0.385,0.138c-0.151,0.049-0.329,0.045-0.505,0.077
	c-0.255,0.021-0.325-0.086-0.581-0.064c-0.014,0.002-0.024,0.002-0.038,0.002c0.036-0.009,0.07-0.02,0.088-0.032
	c0.276-0.163,0.34-0.193,0.479-0.494c0.078-0.166,0.011-0.51,0.108-0.649c0.094-0.137,0.192-0.069,0.381-0.107
	c0.077-0.016,0.367-0.115,0.423-0.154c0.173-0.125,0.327-0.345,0.417-0.55c0.025-0.101,0.049-0.201,0.072-0.303
	c0.014-0.051-0.033-0.281-0.047-0.328c-0.042-0.135,0.004-0.273-0.061-0.376c-0.071-0.114-0.125-0.247-0.203-0.357
	c-0.129-0.183-0.358-0.293-0.56-0.406c-0.116-0.064-0.327,0.003-0.447-0.06c-0.133-0.067-0.235-0.239-0.305-0.369
	c-0.021-0.06-0.039-0.119-0.059-0.179c-0.134-0.168-0.329-0.252-0.541-0.341c-0.269-0.107-0.655,0.092-0.818,0.162
	c-0.098,0.042-0.17,0.096-0.251,0.137c-0.043,0.017-0.089,0.036-0.132,0.054c-0.173,0.144-0.315,0.328-0.499,0.465
	c-0.062,0.026-0.124,0.052-0.185,0.078c-0.098,0.068-0.197,0.139-0.293,0.208c-0.057,0.017-0.111,0.035-0.168,0.053
	c-0.113,0.077-0.186,0.257-0.357,0.269c-0.185,0.014-0.28-0.132-0.419-0.171c-0.137-0.027-0.278-0.053-0.416-0.079
	c-0.12-0.02-0.278,0.042-0.393-0.006c-0.225-0.091-0.172-0.36-0.347-0.477c-0.225-0.149-0.608-0.348-1.036-0.244
	c-0.213,0.052-0.37,0.151-0.544,0.232c-0.101,0.047-0.183,0.043-0.263,0.101c-0.144,0.107-0.229,0.287-0.267,0.502
	c-0.028,0.155,0.01,0.348-0.066,0.453c-0.056,0.075-0.269,0.254-0.358,0.291c-0.123,0.053-0.259,0.089-0.356,0.167
	c-0.029,0.047-0.057,0.092-0.084,0.139c-0.026,0.041-0.073,0.065-0.107,0.1c-0.053,0.088-0.107,0.176-0.161,0.263
	c-0.055,0.179-0.114,0.358-0.172,0.537c-0.042,0.101-0.042,0.331,0,0.435c0.083,0.213,0.193,0.411,0.35,0.555l0.491,0.225
	c0.003,0,0.006-0.002,0.01-0.005c0.053,0.013,0.104,0.025,0.149,0.043c0.106,0.036,0.489,0.064,0.604,0.029
	c0.06,0.001,0.119,0,0.177,0c0.075-0.019,0.149-0.035,0.222-0.054c0.087-0.04,0.188-0.057,0.288-0.102
	c0.341-0.153,0.584-0.436,0.727-0.793c0.031-0.079,0.011-0.232-0.011-0.297c-0.008-0.043-0.016-0.085-0.019-0.127
	c-0.107-0.278-0.314-0.438-0.584-0.554c-0.156-0.065-0.312-0.148-0.496-0.03c-0.007,0.051-0.021,0.11,0.013,0.151
	c0.121,0.139,0.452,0.172,0.38,0.475c-0.023,0.11-0.059,0.146-0.137,0.196c-0.059,0.041-0.115,0.066-0.189,0.097
	c-0.105,0-0.21,0-0.317,0c-0.202-0.084-0.706-0.319-0.577-0.68c0.138-0.386,0.314-0.624,0.625-0.835
	c0.103-0.069,0.305-0.145,0.424-0.185c0.09-0.014,0.181-0.027,0.269-0.041c0.753-0.176,1.13,0.373,1.358,0.912
	c0.007,0.07,0.009,0.141,0.012,0.215c0.057,0.248,0.071,0.567-0.005,0.811c-0.123,0.392-0.384,0.726-0.688,0.966
	c-0.702,0.35-1.88,0.604-2.215,0.381c-0.256-0.088-0.548-0.097-0.78-0.19c-0.065-0.009-0.13-0.016-0.191-0.023
	c-0.086-0.033-0.169-0.083-0.249-0.128L54.1,32.475l-0.164-0.109c-0.031-0.004-0.065-0.008-0.099-0.013
	c-0.252-0.073-0.595-0.082-0.878-0.131c-0.094-0.017-0.188,0.011-0.262,0.024c-0.08-0.007-0.161-0.014-0.243-0.018
	c-0.187,0.058-0.408,0.049-0.578,0.118c-0.095,0.039-0.186,0.021-0.291,0.048c-0.107,0.024-0.241,0.081-0.335,0.125
	c-0.043,0.006-0.083,0.012-0.126,0.018c-0.179,0.064-0.378,0.138-0.536,0.228c-0.125,0.029,0.41,0.059,0.285,0.088
	c-0.11,0.035-0.891,0.132-0.981,0.191c-0.06,0.02-0.12,0.04-0.181,0.06c-0.032,0.046-0.068,0.092-0.1,0.138
	c-0.045,0.045-0.129,0.076-0.168,0.106c0,0.011,0,0.021,0,0.03c0.197,0.002,0.389-0.067,0.549-0.108
	c0.116-0.019,0.229-0.039,0.345-0.059c0.148-0.014,0.294-0.027,0.442-0.042c0.563-0.092,1.331-0.056,1.854,0.065
	c0.253,0.06,0.559,0.166,0.781,0.269c0.037,0.005,0.07,0.008,0.106,0.013c0.097,0.034,0.189,0.071,0.286,0.107
	c0.299,0.181,0.53,0.418,0.912,0.513c0.135,0.032,0.27,0.039,0.405,0.077c1.385-0.163,1.385,0.918,2.494,0.138
	c0.089-0.113,0.227-0.237,0.283-0.376c0.068-0.163,0.092-0.347,0.141-0.513c0.089,0.026,0.182,0.047,0.29,0.028
	c0.148-0.006,0.299-0.015,0.448-0.023c0.097-0.031,0.216-0.029,0.32-0.065c0.272-0.092,0.542-0.26,0.74-0.436
	c0.057-0.05,0.144-0.07,0.191-0.13c0.149-0.187,0.276-0.532,0.219-0.876c-0.005-0.048-0.007-0.092-0.012-0.138
	c-0.05-0.138-0.174-0.292-0.136-0.501c0.025-0.142,0.115-0.206,0.178-0.304c0.086-0.136,0.148-0.418,0.113-0.65
	c-0.027-0.188-0.031-0.335-0.119-0.458c-0.04-0.056-0.159-0.153-0.119-0.258c0.083-0.153,0.635-0.082,0.807-0.18
	c0.069-0.038,0.177-0.09,0.255-0.118c0.067-0.023,0.141-0.014,0.188-0.054c0.081-0.075,0.162-0.15,0.243-0.227
	c0.106-0.078,0.323-0.157,0.463-0.203c0.173-0.055,0.402,0.099,0.476,0.155c0.168,0.132,0.32,0.236,0.446,0.406
	c0.033,0.074,0.064,0.15,0.095,0.227c0.045,0.072,0.102,0.179,0.127,0.262c0.005,0.062,0.01,0.123,0.014,0.185
	c0.031,0.103,0.064,0.322,0.011,0.435c-0.176,0.372-0.487,0.657-0.86,0.829c-0.086,0.041-0.191,0.031-0.308,0.03
	c-0.483-0.002-0.675-0.266-0.801-0.614c-0.087-0.246,0.186-0.487,0.301-0.573c0.041-0.029,0.159-0.101,0.243-0.046
	c0.2,0.129-0.039,0.488,0.147,0.613c0.053,0.033,0.124,0.041,0.205,0.043c0.288,0,0.346-0.208,0.392-0.447
	c0.009-0.04,0.04-0.115,0.018-0.173c-0.072-0.223-0.11-0.406-0.279-0.526c-0.203-0.144-0.463-0.099-0.666,0.013
	c-0.07,0.03-0.14,0.06-0.211,0.091c-0.323,0.232-0.531,0.413-0.614,0.893c-0.019,0.127-0.011,0.3,0.02,0.4
	c0.041,0.139,0.012,0.271,0.048,0.398c0.126,0.459,0.313,0.82,0.632,1.084c0.081,0.068,0.177,0.077,0.274,0.134
	c0.035,0.02,0.073,0.058,0.112,0.077c0.237,0.117,0.671,0.269,1.34,0.269c0.477,0,0.797-0.07,1.161-0.136
	c0.245-0.031,0.484-0.063,0.728-0.095c0.165-0.038,0.3-0.124,0.435-0.181c0.293-0.119,0.432-0.153,0.661-0.333
	c0.084-0.036,0.169-0.073,0.255-0.109c0.071-0.043,0.096-0.122,0.154-0.171c0.148-0.127,0.374-0.176,0.438-0.387
	C67.087,31.623,67.074,31.623,67.059,31.623z M50.684,32.193c0.106-0.038,0.21-0.075,0.315-0.115
	c0.038-0.014,0.063-0.046,0.098-0.064c0.077-0.045,0.195-0.068,0.271-0.101c0.11-0.046,0.277-0.014,0.383-0.054
	c0.082-0.032,0.174-0.057,0.275-0.071c0.102,0,0.202,0,0.306,0c0.247-0.081,0.915-0.004,1.125,0.071
	c0.172,0.027,0.345,0.054,0.518,0.083c0.1,0.026,0.183,0.08,0.293,0.101c0.126,0.025,0.259,0.001,0.311-0.071
	c0.032-0.045,0.051-0.133,0.034-0.202c-0.047-0.219-0.23-0.149-0.419-0.227c-0.109-0.048-0.231-0.087-0.355-0.126
	c-0.056-0.006-0.113-0.012-0.167-0.018c-0.092-0.032-0.213-0.049-0.311-0.088c-0.075-0.032-0.163-0.084-0.249-0.103
	c-0.072,0.003-0.144,0.003-0.215,0.007c-0.105-0.018-0.223-0.019-0.347-0.019c-0.113,0.002-0.228,0.006-0.344,0.006
	c-0.138,0.024-0.276,0.048-0.412,0.071c-0.101,0.032-0.204,0.068-0.306,0.102c-0.138,0.034-0.241,0.027-0.356,0.077
	c-0.19,0.081-0.368,0.219-0.543,0.316c-0.153,0.085-0.466,0.266-0.44,0.488C50.367,32.459,50.502,32.296,50.684,32.193z"/>
<path fill-rule="evenodd" clip-rule="evenodd" fill="#539935" d="M81.725,11.062c0.894-2.225,3.616-2.624,5.47-3.89
	c0.027,0.095,0.003,0.24,0.121,0.243c0.657-0.883,2.09-1.002,2.431-1.946c0.813-2.243-2.643-3.316-4.74-2.188
	c1.132,0.003,1.94,0.33,2.553,0.852c-1.35,1.567-3.439,3.044-5.104,3.889c0.668-2.411,1.742-4.417,3.159-6.078
	C85.429,0.916,84.832,0.297,83.913,0c-0.14,0.357,0.584,0.451,0.243,0.608c-0.111-0.212-0.381-0.268-0.729-0.243
	c-0.411,1.489-1.11,2.832-1.76,4.249c-0.4,0.874-0.781,1.746-0.994,2.686c-0.195,0.864-0.224,1.873-0.727,2.633
	c-0.516,0.779-1.43,1.232-1.994,1.952c-0.484-0.24-1.383,1.009-1.817,1.291c-0.627,0.406-1.565,0.776-1.582,1.654
	c-0.011,0.561,0.684,1.275,1.214,1.337c0.568,0.065,2.498-1.555,2.877-0.839c0.233,0.441-1.205,1.963-1.426,2.269
	c-0.729,1.003-1.797,2.24-2.18,3.433c-0.911,2.837,1.746,3.056,3.757,2.337c0.141,0.326,0.377,0.469,0.717,0.376
	c0.207,0.879,0.733,1.786,0.517,2.714c-0.051-0.156-0.103-0.218-0.156-0.334c-0.059,0.426,0.161,1.048,0.133,1.562
	c-0.082-0.033-0.253-0.039-0.323-0.063c0.018,0.711,0.244,1.498,0.574,2.13c0.229-0.283,0.604-0.32,0.85-0.075
	c-0.104,0.467-0.551,0.486-0.92,0.425c0.162,0.639,0.967,0.07,1.312-0.196c0.961-0.743,1.07-2.567,1.289-3.673
	c0.347-1.748,0.57-3.539,0.397-5.322c-0.163,0.489-0.143,1.875-0.486,2.553c-0.161-0.002-0.112-0.214-0.243-0.243
	c-0.223,1.135-0.165,3.075-0.787,4.347c-0.117,0.24-0.258,0.455-0.429,0.637c-0.273-1.445-0.527-3.363-0.486-4.74
	c0.14-0.103,0.326-0.16,0.606-0.122c-0.063-0.749,0.074-1.365,0.309-1.921c0.696-1.655,2.239-2.766,1.76-5.251
	c-0.545-0.063-0.517-0.7-0.729-1.094c0.518-0.991,2.283-1.432,2.309-2.552C85.039,11.109,82.898,11.006,81.725,11.062z
	 M79.293,20.787c-0.392,0.15-0.733,0.268-1.075,0.407c-0.354,0.145-0.706,0.312-1.112,0.564c0.295-0.857,0.644-1.661,1.112-2.343
	c0.108-0.157,0.224-0.309,0.347-0.453c0.193,0.423,0.264,0.214,0.606,0.486C78.871,19.838,79.486,20.125,79.293,20.787z
	 M79.612,20.749c-0.023,0.015-0.047,0.027-0.076,0.038c-0.242-0.135,0.149-0.653,0-1.094c0.025,0.033,0.052,0.075,0.076,0.121
	C79.76,20.096,79.875,20.574,79.612,20.749z M80.508,24.433c0.038,0.126,0.064,0.248,0.081,0.37
	c0.091,0.628-0.046,1.208,0.163,1.938c-0.064-0.107-0.119-0.228-0.163-0.356C80.393,25.81,80.386,25.057,80.508,24.433z
	 M80.589,29.249c-0.059,0.024-0.126,0.041-0.201,0.047c-0.03-0.614-0.022-1.087,0.201-1.618c0.046-0.106,0.099-0.215,0.163-0.328
	C81.024,27.83,81.182,28.999,80.589,29.249z M81.667,18.265c-0.162,0.328-0.348,0.642-0.55,0.94
	c-0.283-1.239-0.048-2.568,0.55-3.396c0.188-0.261,0.411-0.472,0.665-0.614C82.376,16.354,82.111,17.367,81.667,18.265z
	 M94.245,4.499c0.186-0.591-0.353-0.458-0.365-0.852c0.208-0.044,0.229,0.095,0.244,0.244c0.261-0.589-0.867-0.616-1.338-1.093
	c0.253-0.472,1.091,0.155,1.338-0.488c0.214,0.258,0.421,0.212,0.242,0.609c1.093,0.1,2.35,0.931,2.675,2.187
	c-1.247,0.277-3.613,1.448-4.863,1.338c-0.273,0.068,0.148,0.189-0.121,0.364c-0.18-0.063-0.306-0.179-0.486-0.243
	C92.381,5.856,93.426,5.447,94.245,4.499z M73.459,6.807c1.764-0.526,1.602,1.872,2.796,2.067c1.556,0.254,3.046-2.754,4.133-3.282
	c0.002-0.119,0.148-0.096,0.243-0.123c-0.35,0.543-0.81,0.975-1.217,1.459c-0.033,0.412-0.192,0.699-0.121,1.216
	c-1.037,0.852-1.209,3.037-2.553,3.282C74.667,11.805,73.551,8.746,73.459,6.807z M95.826,23.946
	c-0.154-0.454-0.258-1.146-0.075-1.567c0.055,0.063,0.118,0.133,0.172,0.187c0.234-1.228,0.776-2.795,0.191-3.994
	c-0.435-0.892-1.266-1.184-2.023-1.736c-0.722-0.526-0.977-1.076-1.269-1.894c-0.115-0.323,2.315-1.839,2.591-2.128
	c0.836-0.876,0.801-1.601,0.438-2.696c-0.077,0.74-0.727,0.178-1.115,0.125c-0.651-0.089-1.289,0.194-1.94,0.098
	c-0.751-0.111-2.139-0.46-2.196-1.383c-0.045-0.717,0.69-0.892,0.838-1.526c-0.544,0.149-0.683,0.833-1.192,0.95
	c0.229-0.208,0.443-0.454,0.362-0.69c-0.19,0.33-0.585,0.354-0.89,0.279c0.083,0.096,0.162,0.269,0.259,0.364
	c-0.475-0.464-0.966,0.778-0.988,1.01c-0.06,0.609,0.214,1.148,0.629,1.565c0.906,0.91,2.415,1.267,3.656,1.248
	c-0.54,1.188-3.366,2.867-3.16,4.254c0.285,1.912,3.629,1.018,3.568,3.477c-0.021,0.884,0.183,1.562,0.01,2.493
	c-0.118,0.64-0.219,1.293-0.078,1.938c0.178,0.813,1.152,1.529,0.966,2.418c-0.059-0.025-0.127-0.036-0.19-0.035
	c0.241,0.953,0.935,2.065,0.111,2.937c-0.747,0.79-1.755,1.485-2.785,1.84c0.771-0.071,1.432-0.439,2.071-0.847
	c0.175-0.111,0.347-0.224,0.525-0.33l0.056-0.033c-0.018,0.026-0.037,0.053-0.056,0.078c-0.144,0.191-0.32,0.381-0.525,0.562
	c-1.073,0.95-2.855,1.57-4.038,0.213c-0.033,0.109-0.452,0.407-0.486,0.121c0.248,0.016-0.394-1.019-0.607-0.729
	c-0.038-0.407-0.125-0.766-0.364-0.974c-0.188,0.482,0.459,0.743,0.121,0.974c-0.374-0.391-0.405-1.23-0.729-1.338
	c0.396,2.538,3.313,3.887,6.077,2.917c0.197-0.369-1.051,0.348-1.216,0c0.151-0.266,0.816-0.468,1.216-0.486
	c0.009-0.005,0.019-0.01,0.026-0.015c0.175-0.104,0.351-0.234,0.525-0.39c0.291-0.259,0.517-0.633,0.835-0.939
	c0.939-0.906,1.008-2.971,0.945-2.966c-0.195-0.819-0.926-1.487-0.864-2.365c0.146,0.518,0.437,0.613,0.696,0.955
	c-0.47-0.618-0.571-1.719-0.515-1.497c0.027,0.106,0.053,0.215,0.094,0.317c0.025,0.064,0.16,0.226,0.156,0.275
	c-0.017,0.237,0.095,0.477,0.288,0.653c-0.045-0.125-0.066-0.353-0.092-0.447c1.466,0.849,1.077,3.926,0.518,5.142
	c-0.09,0.195-0.191,0.38-0.304,0.548c0.109-0.079,0.211-0.162,0.304-0.247c1.518-1.39,0.741-3.468,0-5.285
	C96.171,24.853,95.975,24.383,95.826,23.946z M94.31,25.832c-0.181-0.336-0.366-0.718-0.431-0.912
	c0.192,0.144,0.321,0.352,0.431,0.579c0.14,0.293,0.248,0.619,0.421,0.88C94.789,26.65,94.552,26.282,94.31,25.832z M93.785,31.208
	c-0.28,0.2-0.562,0.347-0.513,0.152c0.252-0.036,0.356-0.219,0.513-0.35c0.087-0.071,0.188-0.129,0.339-0.137
	c-0.022-0.104,0.047-0.115,0.121-0.121C94.445,30.669,94.115,30.975,93.785,31.208z M95.145,28.133
	c0.031-0.091,0.06-0.187,0.072-0.298c0.102,0.243,0.222,0.842-0.072,1.113c-0.047,0.043-0.103,0.078-0.172,0.103
	C94.915,28.627,95.05,28.402,95.145,28.133z M96.796,26.622c-0.167-0.232-0.303-0.496-0.425-0.773
	c-0.151-0.342-0.281-0.703-0.425-1.051c-0.005-0.023,0.21,0.29,0.425,0.69C96.568,25.854,96.764,26.294,96.796,26.622z
	 M101.903,23.582c0.122,0.002,0.153,0.213,0,0.243c-0.267-0.99-1.154-1.357-1.582-2.188c-0.237-0.036-0.238,0.165-0.363,0.243
	c-0.006-0.167,0.058-0.267,0.122-0.364c-0.239-0.036-0.242,0.164-0.365,0.243c-0.134-0.317-0.56-0.973-0.973-0.607
	c0.461,0.449,1.391,0.952,1.216,1.336c0.432,0.19,0.074-0.412,0.363-0.363c-0.099,0.344,0.172,0.315,0.123,0.607
	c-0.621-0.155-0.129,0.354-0.364,0.364c-0.264-0.177-1.192-0.164-0.608-0.485c-0.538-0.012-1.052-0.269-1.52-0.45
	c-0.329-0.127-0.635-0.217-0.911-0.158c0.217,0.203,0.617,0.224,0.911,0.351c0.131,0.057,0.24,0.134,0.304,0.258
	c-0.096,0.002-0.198-0.015-0.304-0.042c-0.403-0.106-0.836-0.36-1.033-0.201c0.176,0.08,0.771,0.348,0.487,0.486
	c-0.138-0.08-0.472-0.564-0.609-0.243c0.192,0.516,0.613,0.96,1.155,1.304c1.183,0.752,2.947,1.024,4.193,0.52
	C102.406,24.125,102.171,23.286,101.903,23.582z M97.952,23.494c-0.268-0.188-0.534-0.429-0.79-0.52
	c0.218-0.067,0.497,0.093,0.79,0.283c0.264,0.173,0.54,0.368,0.79,0.446C98.485,23.817,98.218,23.68,97.952,23.494z M86.83,24.433
	c0.435-0.842-0.08-1.27,0.121-2.188c0.316,0.454,0.301,1.241,0.73,1.58c0.138-0.022,0.066-0.121,0-0.121
	c0.103-0.356,0.306,0.157,0.607,0c-0.104-0.099-0.073-0.334-0.242-0.365c0.001,0.05,0.551-0.406,0.971-0.607
	c-0.042,0.159-0.213,0.191-0.242,0.364c0.208,0.006,0.314-0.091,0.364-0.242C89.487,23.977,87.866,25.783,86.83,24.433z"/>
<path d="M35.375,17.146c-0.363-0.17-1.446-0.278-1.023-0.81c0.026-0.033,1.494-0.199,1.26-0.519
	c-0.204-0.279-0.274-0.657-0.083-0.984c0.415,0.229,0.832,0.599,1.28,0.78c0.734,0.297,0.482,0.196,0.944-0.32
	c-0.398,0.832,1.027,1.802-0.312,2.288c-0.013,0.004-0.024,0.009-0.036,0.013C36.785,17.792,35.917,17.4,35.375,17.146z
	 M27.442,17.481c-1.449-0.098-1.867,2.305-1.583,3.259c0.293,0.983,1.326,2.747,2.463,1.59c0.539-0.548,0.213-1.728,0.47-2.415
	c0.228-0.607,0.736-1.077,1.071-1.627c-0.18,0.046-0.353,0.099-0.519,0.151C28.309,18.768,27.586,19.071,27.442,17.481z
	 M32.82,10.765c0.211-0.745,1.541-1.656,1.299-2.15c-0.024-0.048-0.147-0.128-0.179-0.179c-0.813-1.292-1.576,1.185-1.843,1.864
	c-0.364,0.924-0.531,1.902-0.621,2.887c-0.207,2.279-0.08,4.577-0.263,6.858c-0.195,2.431-0.622,4.837-0.56,7.284
	c0.021,0.797,0.143,5.197,1.792,4.271c1.613-0.905,1.564-5.099,1.678-6.641c-0.147,0.173-0.264,0.439-0.369,0.744
	c-0.3,0.871-0.508,2.059-1.089,2.291c-1.021,0.409-0.579-2.561-0.562-3.112c0.047-1.495,0.192-3.007,0.186-4.5
	c-0.006-1.449-0.173-2.398,0.91-3.49c-0.129-0.095-0.531-0.1-0.622-0.194c-0.235-0.248-0.215-0.339-0.272-0.708
	c-0.111-0.722,0.089-1.711,0.179-2.438C32.597,12.63,32.565,11.667,32.82,10.765z M44.345,31.99
	c-0.322,0.015-0.664,0.058-0.896,0.041c-0.729-0.055-1.519-0.629-2.273-0.224c-0.751,0.403-0.554,1.181,0.046,1.667
	c0.988,0.802,3.296,0.532,3.889-0.674C45.485,32.039,44.949,31.963,44.345,31.99z M48.999,20.507
	c-0.101-0.379-1.096-0.754-1.447-0.848c-0.99-0.265-1.96,0.322-2.988,0.191c0.397-0.883,0.988-1.696,1.303-2.61
	c0.168-0.488,0.344-1.164,0.111-1.645c-0.25-0.518-0.938-0.604-1.231-1.077c-1.472-2.374,3.313-2.425,3.411-3.785
	c0.034-0.048,0.082,0.08,0.12-0.026c-0.133-0.662-0.91-1.233-1.568-1.343c-1.043-0.175-1.723,0.557-1.57-1.009
	c0.073-0.754,0.562-1.895-0.035-2.481c-0.428-0.42-2.387-1.062-2.85-0.464c-0.461,0.594,0.634,1.345,0.729,1.943
	c0.104,0.66,0.082,2.268-0.238,2.849c-0.592,1.075-2.8,1.316-3.896,1.767c0.128,0.891,1.372,1.174,2.15,1.427
	c0.334,0.108,1.073,0.097,1.333,0.238c1.444,0.782-2.36,2.255-2.676,3.104c-0.119,0.322-0.151,1.246,0.308,1.312
	c0.324,0.046,0.585-0.525,0.795-0.701c2.036-1.709,2.444,2.723-0.239,1.804c0.144,0.415,0.786,0.743,0.742,1.217
	c-0.045,0.451-0.724,0.686-1.062,0.855c-1.06,0.535-2.032,0.458-3.107,0.793c-1.318,0.411-0.429,1.001,0.458,1.324
	c1.137,0.414,1.945,0.258,3.025-0.204c0.873-0.372,5.098-3.031,4.851-1.052c-0.118,0.945-1.803,1.811-1.33,2.88
	c0.479,1.088,2.212,0.214,2.928,0.957c1.37,1.426-2.156,4.203-3.046,5.019c2.04,0.085,5.781-2.65,4.698-5.033
	c-0.592-1.302-2.845-0.924-3.152-1.999c-0.023-0.083-0.039-0.163-0.046-0.241C45.313,21.895,49.259,21.492,48.999,20.507z
	 M27.957,26.035c-0.673-0.542-2.228-1.259-4.66-2.149c-0.347-0.087-2.254-0.842-5.718-2.265c-2.017-0.828-3.732-1.444-5.148-1.85
	c-1.019-0.291-1.882-0.473-2.591-0.545c-0.239-0.024,1.416-1.519,1.678-1.638c1.054-0.477,2.204-0.715,3.346-0.863
	c0.702-0.091,2.408,0.124,2.406-0.922c0-0.174-0.066-0.412-0.196-0.716c0.089,0.207,2.959-1.195,3.271-1.42
	c0.984-0.711,1.761-1.826,1.312-3.078c-0.507-1.415-2.042-2.438-3.503-2.571c-1.938-0.176-3.883,0.633-5.597,1.446
	c-0.9,0.428-1.775,0.903-2.652,1.376c-0.279,0.15-1.926,1.257-2.148,1.151c1.23,0.589,2.689,0.384,3.995,0.252
	c0.304-0.03,4.396-0.187,4.244,0.251c-0.599,1.729-3.195,3.803-5.086,3.604c-0.071-0.706-0.204-1.355-0.676-1.909
	c-0.435-0.51-1.097-0.765-1.988-0.766c-0.282,0-0.609,0.033-0.978,0.098c0.607,0.739,0.913,1.684,0.913,2.835
	c0,1.629-0.658,3.492-1.971,5.588C4.893,24.043,2.824,26.242,0,28.543c0.108,0.022,0.272,0.034,0.488,0.034
	c1.607,0,3.264-0.886,4.97-2.656c1.704-1.771,2.991-3.653,3.86-5.653c0.83,0,1.866,0.301,3.112,0.899
	c0.875,0.421,1.852,0.989,2.932,1.707c2.617,1.737,3.397,2.51,5.588,3.438c1.141,0.484,2.254,1.054,3.438,1.5
	c1.184,0.445,2.166,0.667,2.948,0.667c0.934,0,1.478-0.325,1.63-0.978C28.967,27.067,28.63,26.579,27.957,26.035z M12.431,27.777
	c0.472-0.128,0.939-0.273,1.4-0.438c0.793-0.282,1.189-0.75,1.189-1.402c0-0.521-0.332-1.026-0.993-1.515
	c-0.517-0.381-1.048-0.612-1.597-0.697c-0.157-0.023-0.314-0.035-0.473-0.035c-0.391,0-0.777,0.103-1.157,0.309
	c-0.38,0.207-0.7,0.505-0.962,0.896c0.564,0.195,1,0.5,1.304,0.913c0.304,0.412,0.456,0.868,0.456,1.368
	c0,0.304-0.065,0.586-0.195,0.847C11.749,27.951,12.092,27.869,12.431,27.777z M13.636,30.667c-0.411-0.274-0.812-0.489-1.205-0.645
	c-0.51-0.2-1.004-0.301-1.483-0.301c-0.218,0-0.413,0.031-0.586,0.098c0.542,1.369,1.043,2.422,1.499,3.16
	c0.159,0.259,0.349,0.529,0.57,0.812c0.41,0.524,0.926,1.091,1.548,1.698c0.195-0.327,0.418-0.712,0.668-1.157
	c0.25-0.445,0.374-0.918,0.374-1.417c0.021-0.065,0.033-0.164,0.033-0.294C15.054,31.949,14.582,31.297,13.636,30.667z
	 M56.792,9.557c0.279-2.489-1.593-2.99-3.376-3.636C53.435,7.788,54.2,10.812,56.792,9.557z M59.011,17.594
	c-0.025-0.109-0.059-0.215-0.1-0.317c-0.146-0.361-2.363-1.854-2.467-1.661c0.414-0.771,1.076-1.291,1.039-2.512
	c0.868-0.431,1.976-0.621,2.771-1.125c-0.057-0.719-1.142-1.941-1.992-1.471c-2.294,1.271-5.584,3.596-8.83,3.722
	c0.09,0.236,0.301,0.52,0.434,0.606c1.991,1.313,4.197-0.388,5.713-0.693c-1.258,2.877-2.765,5.874-4.5,8.138
	c-0.114,0.148-0.478,0.336-0.348,0.605c1.413-0.234,1.995-2.042,2.944-3.029c0.735-0.648,1.007-3.013,2.163-3.116
	c0.933-0.084,1.192,0.869,1.126,1.904c-0.088,1.349-0.702,4.291-1.472,4.501c-0.812,0.221-1.188-0.446-1.904-0.52
	c0.443,0.896,1.315,2.733,2.769,2.424c1.378-0.293,1.838-3.09,2.172-4.15C58.827,19.957,59.256,18.637,59.011,17.594z
	 M70.468,10.768c-0.045-0.165-0.426-0.462-0.692-0.519c-1.497-0.323-2.176,0.894-3.203,1.471c-1.3,0.732-2.619,1.402-3.549,1.645
	c0.548-1.271,1.533-2.104,1.991-3.462c1.089-0.96,1.948-2.149,2.338-3.809c-0.436-0.941-1.92-2.638-2.598-0.866
	c0.298-0.009,0.622-0.044,0.693,0.173c-0.81,2.801-2.101,4.76-3.723,6.665c-0.502,0.589-1.3,1.295-1.559,1.905
	c-0.283,0.668-0.264,1.452-0.433,2.165c0.159,0.101,0.293,0.226,0.433,0.346c2.269-0.734,3.756-2.708,6.233-2.942
	c-0.346,2.251-0.884,4.31-2.337,5.452c-0.942-0.431-2.752-0.857-3.896-0.519c0.458,0.409,1.102,0.596,1.645,1.038
	c0.408,0.331,1.283,1.21,1.299,1.646c0.018,0.49-0.896,1.474-1.385,1.99c-0.903,0.956-1.839,1.614-3.203,1.731
	c0.694,1.338,1.541,1.069,2.77,0.347c0.513-0.302,1.202-0.502,1.646-0.779c0.795-0.498,1.148-1.501,1.817-1.646
	c0.736,0.6,1.228,1.259,1.991,2.078c0.429,0.46,1.843,1.772,2.51,1.212c0.378-0.316,0.227-1.461,0.087-2.077
	c-0.205-0.907-1.076-2.093-1.559-2.51c-0.53-0.463-1.459-0.675-1.471-1.473c-0.008-0.58,0.979-1.697,1.212-2.251
	c0.688-1.628,0.528-3.207,0.086-4.847C68.384,12.385,70.853,12.149,70.468,10.768z"/>
</svg>
