<?xml version="1.0" encoding="utf-8"?>
<!-- Generator: Adobe Illustrator 16.0.0, SVG Export Plug-In . SVG Version: 6.00 Build 0)  -->
<!DOCTYPE svg PUBLIC "-//W3C//DTD SVG 1.1//EN" "http://www.w3.org/Graphics/SVG/1.1/DTD/svg11.dtd">
<svg version="1.1" id="eqxiu" xmlns="http://www.w3.org/2000/svg" xmlns:xlink="http://www.w3.org/1999/xlink" x="0px" y="0px"
	 width="84.42px" height="39.723px" viewBox="0 0 84.42 39.723" enable-background="new 0 0 84.42 39.723" xml:space="preserve">
<path fill="#FFFFFF" d="M23.239,5.134c-2.094-2.096-7.023-4.039-12.881,1.819C3.211,14.1,0.146,14.581,0.725,16.735
	c0.386,1.437,3.549,1.927,6.174-0.252c0,0,1.803,1.625,4.48-0.404c0,0,1.326,1.317,4.257-0.999c0,0,4.099,2.396,7.469-0.974
	C26.292,10.918,24.964,6.857,23.239,5.134"/>
<path fill="#E8C79D" d="M23.835,4.893C16.814-1.45,9.63,7.438,4.593,11.659c-1.075,0.9-4.91,2.96-4.572,4.883
	c0.478,2.717,4.335,1.626,5.974,0.948c1.282-0.531-0.04-0.412,1.742-0.124c0.859,0.14,2.008,0.053,2.769-0.393
	c0.861-0.501,0.742-0.258,1.968-0.193c0.455,0.021,3.132-1.149,2.794-1.331C21.886,18.985,28.758,10.723,23.835,4.893
	c-0.263-0.312-1.486,0.135-1.192,0.482c3.647,4.318,0.024,12.894-6.494,9.411c-0.24-0.129-0.693-0.012-0.902,0.131
	c-1.202,1.317-2.293,1.625-3.272,0.92c-0.256-0.207-0.736-0.065-0.986,0.079c-1.317,0.984-2.482,1.094-3.494,0.326
	c-0.253-0.192-0.744-0.084-0.986,0.078C0.564,20.335,0.5,16.18,2.4,14.425c1.007-0.929,2.145-1.736,3.206-2.602
	c4.623-3.768,10.908-11.984,17.037-6.448C22.955,5.657,24.146,5.173,23.835,4.893"/>
<path fill="#E8C79D" d="M7.617,14.307c-0.025,0.799-0.699,1.562-1.229,2.081c-0.185,0.181-0.16,0.382,0.116,0.435
	c0.285,0.054,0.692-0.034,0.905-0.242c0.617-0.604,1.455-1.503,1.485-2.44C8.91,13.626,7.63,13.898,7.617,14.307"/>
<path fill="#E8C79D" d="M11.392,14.159c0.352,0.687-0.125,1.486-0.59,1.973c-0.195,0.204,0.172,0.205,0.297,0.193
	c0.262-0.024,0.665-0.101,0.857-0.302c0.513-0.534,1.111-1.435,0.715-2.207C12.515,13.513,11.297,13.974,11.392,14.159"/>
<path fill="#E8C79D" d="M15.33,13.639c0.238,0.511,0.079,1.04-0.286,1.441c-0.21,0.23,0.179,0.337,0.337,0.337
	c0.305,0,0.638-0.109,0.847-0.339c0.429-0.473,0.666-1.168,0.381-1.781C16.416,12.882,15.168,13.293,15.33,13.639"/>
<path fill="#FFFFFF" d="M61.284,5.177c2.095-2.095,7.023-4.038,12.881,1.821c7.148,7.146,10.211,7.626,9.633,9.78
	c-0.385,1.436-3.549,1.926-6.174-0.251c0,0-1.803,1.623-4.479-0.406c0,0-1.328,1.318-4.258-0.999c0,0-4.1,2.396-7.47-0.974
	C58.229,10.962,59.56,6.9,61.284,5.177"/>
<path fill="#E8C79D" d="M61.866,5.143c6.189-5.587,12.721,3.318,16.955,6.868c1.195,1,2.462,1.914,3.607,2.971
	c0.383,0.354,0.646,0.766,0.781,1.266c0.839,3.078-4.662,0.273-4.986,0.057c-0.273-0.185-0.861,0.01-1.095,0.188l-3.384-0.596
	c-0.286-0.166-0.855-0.007-1.096,0.188c-1.207,0.171-2.262-0.226-3.162-1.188c-0.25-0.169-0.741-0.008-0.975,0.117
	C61.626,18.692,58.321,9.342,61.866,5.143c0.287-0.34-0.955-0.181-1.165,0.068c-3.146,3.724-1.931,8.539,2.418,10.646
	c1.12,0.542,2.469,0.374,3.651,0.232c0.392-0.048,0.785-0.163,1.158-0.3c1.424-0.52,0.482-0.357,1.516,0.344
	c0.797,0.539,1.887,0.746,2.836,0.588c0.258-0.043,0.516-0.128,0.761-0.221c1.14-0.427-0.437-0.119,0.763,0.58
	c0.643,0.375,1.934,0.457,2.645,0.23c0.23-0.073,0.716-0.18,0.984-0.329c1.194-0.667-0.248,0.143,0.817,0.582
	c1.34,0.555,4.783,1.479,5.854-0.339c1.312-2.227-1.812-3.839-3.278-5.011C75.26,7.763,68.129-1.494,60.701,5.211
	C60.397,5.484,61.625,5.36,61.866,5.143"/>
<path fill="#E8C79D" d="M75.618,14.309c0.031,1.026,0.828,1.928,1.517,2.603c0.431,0.42,1.522-0.231,0.979-0.765
	c-0.411-0.401-0.799-0.871-1.032-1.4c-0.06-0.138-0.104-0.28-0.142-0.427c-0.021-0.091-0.027-0.23-0.023-0.095
	C76.896,13.526,75.599,13.702,75.618,14.309"/>
<path fill="#E8C79D" d="M71.882,13.964c-0.431,0.846,0.092,1.824,0.676,2.436c0.393,0.41,1.605-0.104,1.174-0.557
	c-0.433-0.451-0.894-1.226-0.629-1.744C73.429,13.459,72.132,13.474,71.882,13.964"/>
<path fill="#E8C79D" d="M67.919,13.61c-0.283,0.609-0.061,1.271,0.369,1.742c0.247,0.271,1.453-0.181,1.197-0.461
	c-0.366-0.401-0.537-0.967-0.297-1.481C69.317,13.131,68.085,13.253,67.919,13.61"/>
<path fill="#E60012" d="M42.234,9.704c6.542-9.049,15.738-8.097,20.031-2.19c3.935,5.411,2.887,11.814-0.084,15.755
	C59.384,26.983,42.234,38.62,42.234,38.62S25.086,26.983,22.287,23.269c-2.969-3.939-4.018-10.344-0.083-15.755
	C26.498,1.608,35.69,0.656,42.234,9.704"/>
<path fill="#E8C79D" d="M42.765,9.878c4.945-6.342,13.28-9.114,18.914-2.088c4.689,5.849,2.348,13.566-2.797,18.001
	c-5.318,4.583-11.221,8.573-17.018,12.521c0.86-0.586,0.564-0.254-0.736-1.148c-1.33-0.917-2.653-1.848-3.972-2.779
	c-3.676-2.599-7.316-5.258-10.807-8.104c-4.994-4.071-7.372-9.475-5.103-15.933c1.376-3.918,4.973-6.448,8.98-6.891
	c4.762-0.525,8.74,3.084,11.421,6.522c0.342,0.438,1.564-0.054,1.174-0.554c-3.916-5.02-9.344-8.235-15.746-6.173
	c-5.902,1.902-8.505,8.521-7.917,14.228c0.606,5.882,5.895,9.378,10.174,12.636c4.042,3.075,8.205,6.006,12.406,8.86
	c0.269,0.184,0.668,0.083,0.915-0.085c3.907-2.653,7.755-5.395,11.543-8.213c3.808-2.832,8.947-6.016,10.449-10.829
	c2.078-6.655-0.444-13.74-6.992-16.596c-6.119-2.669-12.348,1.652-15.95,6.273C41.206,10.166,42.424,10.316,42.765,9.878"/>
<path fill="#E8C79D" d="M61.81,33.151c-0.141,0-0.283-0.035-0.414-0.11l-5.403-3.12c-0.396-0.229-0.532-0.734-0.304-1.131
	s0.733-0.532,1.131-0.304l5.404,3.12c0.396,0.229,0.531,0.734,0.303,1.131C62.373,33.003,62.095,33.151,61.81,33.151"/>
<path fill="#FFFFFF" d="M59.552,31.019c-0.689-1.567,0.147-2.729,1.262-2.854c1.019-0.114,1.785,0.516,2.076,1.214
	c0.274,0.658,1.19,4.255,1.19,4.255s-3.572,1.005-4.28,1.097c-0.752,0.099-1.68-0.25-2.089-1.188
	C57.263,32.513,57.849,31.205,59.552,31.019"/>
<path fill="#E8C79D" d="M59.551,35.297c-0.811,0-1.854-0.403-2.347-1.538c-0.289-0.661-0.25-1.395,0.105-2.012
	c0.317-0.547,0.846-0.94,1.521-1.146c-0.162-0.686-0.086-1.339,0.229-1.886c0.354-0.618,0.971-1.021,1.69-1.102
	c1.194-0.138,2.214,0.508,2.649,1.55c0.281,0.677,1.119,3.96,1.215,4.332l0.133,0.521l-0.518,0.146
	c-0.371,0.104-3.633,1.019-4.359,1.111C59.767,35.29,59.659,35.297,59.551,35.297 M61.049,28.701c-0.057,0-0.116,0.004-0.176,0.01
	c-0.366,0.042-0.679,0.244-0.856,0.556c-0.231,0.402-0.218,0.945,0.039,1.529l0.305,0.688l-0.748,0.083
	c-0.635,0.069-1.114,0.33-1.348,0.732c-0.179,0.31-0.197,0.681-0.049,1.019c0.317,0.729,1.012,0.924,1.512,0.864
	c0.435-0.057,2.279-0.547,3.683-0.936c-0.364-1.41-0.862-3.254-1.03-3.657C62.194,29.148,61.712,28.701,61.049,28.701"/>
<path fill="#FFFFFF" d="M35.507,14.124v-0.045c0-0.119-0.016-0.193-0.048-0.226c-0.032-0.031-0.09-0.048-0.174-0.048
	c-0.05,0-0.133,0.011-0.249,0.033c-0.116,0.021-0.205,0.033-0.266,0.033c-0.156,0-0.283-0.05-0.379-0.148
	c-0.096-0.1-0.145-0.231-0.145-0.398c0-0.193,0.054-0.344,0.161-0.449c0.108-0.104,0.26-0.157,0.455-0.157
	c0.02,0,0.162,0.011,0.427,0.032s0.523,0.034,0.774,0.034c0.467,0,0.954-0.019,1.463-0.057c0.117-0.009,0.189-0.011,0.217-0.011
	c0.201,0,0.353,0.05,0.456,0.147c0.104,0.1,0.155,0.245,0.155,0.442c0,0.171-0.047,0.311-0.142,0.411
	c-0.095,0.104-0.222,0.152-0.382,0.152c-0.058,0-0.144-0.013-0.257-0.033c-0.113-0.022-0.196-0.033-0.249-0.033
	c-0.092,0-0.153,0.015-0.184,0.046c-0.031,0.029-0.047,0.114-0.047,0.255v3.062c0,0.094,0.018,0.157,0.049,0.189
	c0.032,0.032,0.093,0.048,0.182,0.048c0.05,0,0.133-0.013,0.249-0.033c0.116-0.021,0.205-0.033,0.266-0.033
	c0.154,0,0.278,0.049,0.373,0.148c0.095,0.102,0.142,0.234,0.142,0.404c0,0.195-0.053,0.349-0.159,0.458
	c-0.106,0.106-0.257,0.16-0.452,0.16c-0.016,0-0.159-0.012-0.425-0.033c-0.267-0.021-0.524-0.034-0.772-0.034
	c-0.467,0-0.957,0.02-1.471,0.056c-0.12,0.008-0.193,0.013-0.221,0.013c-0.199,0-0.349-0.049-0.452-0.149
	c-0.104-0.1-0.156-0.247-0.156-0.444c0-0.173,0.049-0.314,0.147-0.419s0.227-0.158,0.386-0.158c0.055,0,0.138,0.013,0.248,0.033
	c0.111,0.021,0.193,0.033,0.249,0.033c0.09,0,0.151-0.016,0.183-0.047c0.032-0.029,0.048-0.114,0.048-0.255V14.124z"/>
<path fill="#FFFFFF" d="M39.033,13.43c0-0.237,0.083-0.438,0.252-0.604c0.17-0.164,0.376-0.246,0.622-0.246
	c0.271,0,0.485,0.093,0.641,0.277c0.156,0.187,0.235,0.441,0.235,0.769c0,0.266-0.049,0.527-0.147,0.788
	c-0.098,0.26-0.24,0.505-0.427,0.735c-0.151,0.19-0.282,0.33-0.396,0.419c-0.113,0.09-0.216,0.136-0.307,0.136
	c-0.098,0-0.177-0.033-0.237-0.098c-0.06-0.063-0.09-0.146-0.09-0.247c0-0.117,0.091-0.294,0.274-0.527
	c0.183-0.234,0.274-0.389,0.274-0.46c0-0.036-0.016-0.072-0.048-0.107c-0.032-0.035-0.105-0.086-0.219-0.156
	c-0.154-0.098-0.263-0.199-0.329-0.306C39.065,13.696,39.033,13.573,39.033,13.43"/>
<path fill="#FFFFFF" d="M46.674,17.792c-0.075,0.29-0.159,0.475-0.251,0.554c-0.092,0.078-0.277,0.117-0.557,0.117
	s-0.463-0.037-0.553-0.111c-0.088-0.073-0.172-0.26-0.25-0.56l-1.072-4.166h-0.067c0.019,0.184,0.033,0.367,0.043,0.548
	c0.011,0.183,0.015,0.362,0.015,0.544V17.1c0,0.101,0.015,0.169,0.043,0.208c0.026,0.038,0.082,0.071,0.162,0.101
	c0.168,0,0.283,0.036,0.349,0.108c0.063,0.072,0.096,0.188,0.096,0.349c0,0.215-0.054,0.377-0.163,0.485
	c-0.107,0.107-0.271,0.162-0.486,0.162c-0.032,0-0.162-0.012-0.387-0.034c-0.225-0.021-0.433-0.033-0.625-0.033
	c-0.258,0-0.518,0.02-0.78,0.057c-0.056,0.007-0.091,0.012-0.105,0.012c-0.154,0-0.275-0.054-0.364-0.161
	c-0.089-0.108-0.134-0.259-0.134-0.449c0-0.17,0.042-0.306,0.128-0.406c0.085-0.104,0.194-0.154,0.328-0.154
	c0.05,0,0.122,0.012,0.214,0.033c0.092,0.021,0.16,0.033,0.204,0.033c0.076,0,0.129-0.017,0.156-0.049
	c0.028-0.033,0.042-0.119,0.042-0.26v-2.969c0-0.143-0.014-0.231-0.042-0.264c-0.027-0.035-0.08-0.053-0.156-0.053
	c-0.035,0-0.101,0.012-0.196,0.033c-0.094,0.022-0.172,0.033-0.231,0.033c-0.13,0-0.238-0.05-0.321-0.15
	c-0.084-0.101-0.126-0.232-0.126-0.397c0-0.194,0.045-0.343,0.136-0.445c0.09-0.103,0.222-0.153,0.395-0.153
	c0.017,0,0.061,0.005,0.13,0.012c0.436,0.038,0.892,0.057,1.366,0.057c0.128,0,0.31-0.013,0.544-0.033
	c0.233-0.021,0.405-0.034,0.511-0.034c0.186,0,0.318,0.034,0.402,0.103s0.146,0.197,0.188,0.39l0.49,2.354
	c0.018,0.082,0.035,0.214,0.057,0.393c0.021,0.179,0.041,0.394,0.061,0.643c0.02-0.207,0.041-0.399,0.062-0.579
	c0.023-0.179,0.045-0.331,0.067-0.455l0.481-2.354c0.039-0.189,0.102-0.318,0.188-0.388c0.086-0.069,0.224-0.104,0.41-0.104
	c0.104,0,0.272,0.014,0.508,0.034c0.233,0.021,0.416,0.033,0.548,0.033c0.477,0,0.936-0.019,1.373-0.057
	c0.07-0.007,0.112-0.012,0.126-0.012c0.173,0,0.304,0.052,0.392,0.153c0.088,0.104,0.131,0.251,0.131,0.445
	c0,0.165-0.041,0.298-0.123,0.397c-0.082,0.101-0.189,0.15-0.32,0.15c-0.059,0-0.135-0.011-0.23-0.033
	c-0.094-0.021-0.162-0.033-0.201-0.033c-0.071,0-0.122,0.018-0.152,0.053c-0.029,0.031-0.044,0.121-0.044,0.264v2.998
	c0,0.128,0.015,0.207,0.042,0.236c0.027,0.027,0.079,0.042,0.154,0.042c0.048,0,0.117-0.013,0.209-0.033
	c0.093-0.021,0.164-0.033,0.215-0.033c0.134,0,0.242,0.051,0.326,0.154c0.084,0.102,0.125,0.236,0.125,0.406
	c0,0.19-0.043,0.341-0.129,0.449c-0.086,0.107-0.205,0.161-0.355,0.161c-0.016,0-0.051-0.005-0.109-0.012
	c-0.268-0.037-0.529-0.057-0.783-0.057c-0.192,0-0.401,0.014-0.627,0.033c-0.225,0.022-0.354,0.034-0.387,0.034
	c-0.218,0-0.381-0.055-0.488-0.162c-0.109-0.108-0.164-0.271-0.164-0.485c0-0.159,0.033-0.275,0.098-0.349
	c0.066-0.072,0.184-0.108,0.35-0.108c0.082-0.028,0.137-0.062,0.164-0.101c0.027-0.039,0.041-0.107,0.041-0.208v-2.382
	c0-0.15,0.006-0.312,0.016-0.493c0.013-0.179,0.029-0.378,0.052-0.599h-0.084L46.674,17.792z"/>
<path fill="#FFFFFF" d="M31.428,24.449c0,0.101,0.015,0.17,0.044,0.21c0.029,0.04,0.085,0.073,0.169,0.099
	c0.18,0,0.305,0.037,0.375,0.109c0.071,0.071,0.107,0.188,0.107,0.347c0,0.216-0.058,0.378-0.174,0.486
	c-0.115,0.108-0.289,0.162-0.521,0.162c-0.062,0-0.224-0.011-0.49-0.032c-0.265-0.022-0.503-0.034-0.712-0.034
	c-0.19,0-0.399,0.012-0.626,0.034c-0.227,0.021-0.357,0.032-0.391,0.032c-0.187,0-0.333-0.053-0.438-0.16
	c-0.104-0.108-0.157-0.261-0.157-0.45c0-0.171,0.049-0.309,0.147-0.408c0.098-0.103,0.226-0.152,0.385-0.152
	c0.058,0,0.143,0.013,0.253,0.034s0.192,0.032,0.245,0.032c0.089,0,0.15-0.015,0.182-0.047c0.033-0.03,0.049-0.119,0.049-0.262
	v-3.021c0-0.117-0.016-0.19-0.046-0.219c-0.031-0.028-0.089-0.044-0.176-0.044c-0.048,0-0.129,0.013-0.246,0.034
	c-0.116,0.021-0.206,0.032-0.269,0.032c-0.154,0-0.279-0.051-0.377-0.153c-0.098-0.104-0.147-0.238-0.147-0.407
	c0-0.196,0.053-0.346,0.16-0.449c0.106-0.102,0.259-0.153,0.46-0.153c0.031,0,0.171,0.013,0.423,0.034
	c0.251,0.021,0.487,0.032,0.708,0.032c0.147,0,0.339-0.011,0.575-0.032s0.398-0.034,0.488-0.034c0.229,0,0.402,0.055,0.52,0.159
	c0.117,0.106,0.175,0.262,0.175,0.465c0,0.154-0.032,0.271-0.096,0.349s-0.161,0.12-0.289,0.125
	c-0.144,0.032-0.233,0.063-0.265,0.099c-0.03,0.034-0.045,0.097-0.045,0.185v0.706c0.173,0.012,0.337,0.021,0.492,0.025
	c0.155,0.005,0.294,0.008,0.416,0.008c0.14,0,0.382-0.009,0.725-0.028c0.055-0.003,0.098-0.005,0.126-0.005V21.36
	c0-0.04-0.019-0.071-0.055-0.099c-0.037-0.027-0.119-0.059-0.246-0.097c-0.135-0.005-0.233-0.045-0.293-0.116
	c-0.062-0.073-0.093-0.188-0.093-0.339c0-0.216,0.056-0.376,0.171-0.482c0.115-0.104,0.287-0.159,0.516-0.159
	c0.092,0,0.257,0.013,0.496,0.034c0.239,0.021,0.431,0.032,0.576,0.032c0.22,0,0.455-0.011,0.704-0.032
	c0.248-0.021,0.387-0.034,0.418-0.034c0.201,0,0.355,0.054,0.464,0.158c0.11,0.106,0.164,0.254,0.164,0.444
	c0,0.173-0.05,0.309-0.149,0.409c-0.099,0.103-0.229,0.151-0.391,0.151c-0.068,0-0.157-0.012-0.27-0.032
	c-0.113-0.021-0.192-0.034-0.236-0.034c-0.087,0-0.146,0.018-0.176,0.052c-0.031,0.034-0.047,0.12-0.047,0.257v3.047
	c0,0.099,0.017,0.163,0.048,0.192c0.033,0.03,0.093,0.045,0.182,0.045c0.054,0,0.138-0.011,0.254-0.032
	c0.115-0.021,0.206-0.034,0.27-0.034c0.15,0,0.274,0.053,0.371,0.157c0.096,0.104,0.144,0.236,0.144,0.403
	c0,0.189-0.054,0.342-0.164,0.45c-0.109,0.107-0.258,0.16-0.447,0.16c-0.048,0-0.189-0.011-0.425-0.032
	c-0.236-0.022-0.449-0.034-0.638-0.034c-0.182,0-0.401,0.012-0.658,0.034c-0.258,0.021-0.42,0.032-0.49,0.032
	c-0.235,0-0.408-0.052-0.52-0.153c-0.111-0.104-0.167-0.264-0.167-0.479c0-0.155,0.033-0.273,0.099-0.354
	c0.065-0.079,0.161-0.119,0.287-0.119c0.12-0.028,0.199-0.059,0.24-0.087c0.041-0.029,0.061-0.067,0.061-0.117v-0.104v-1.1
	c-0.028,0-0.071-0.001-0.126-0.004c-0.343-0.02-0.585-0.029-0.725-0.029c-0.122,0-0.261,0.004-0.416,0.01
	c-0.155,0.006-0.319,0.014-0.492,0.023V24.449z"/>
<path fill="#FFFFFF" d="M37.412,24.449v-2.98c0-0.161-0.017-0.261-0.052-0.3c-0.035-0.042-0.094-0.062-0.177-0.062
	c-0.051,0-0.132,0.012-0.244,0.033c-0.111,0.021-0.199,0.034-0.264,0.034c-0.157,0-0.282-0.049-0.378-0.143
	c-0.096-0.097-0.145-0.224-0.145-0.384c0-0.185,0.052-0.325,0.156-0.424c0.105-0.099,0.257-0.147,0.454-0.147
	c0.012,0,0.048,0.002,0.109,0.008c0.575,0.039,1.221,0.06,1.938,0.06c0.597,0,1.497-0.021,2.699-0.066
	c0.193,0,0.337,0.042,0.433,0.127c0.096,0.085,0.144,0.214,0.144,0.386c0,0.056-0.007,0.149-0.02,0.281
	c-0.014,0.133-0.022,0.237-0.022,0.315c0,0.099,0.008,0.236,0.022,0.417c0.013,0.182,0.02,0.312,0.02,0.396
	c0,0.208-0.058,0.372-0.175,0.487c-0.117,0.117-0.281,0.177-0.493,0.177c-0.172,0-0.313-0.047-0.423-0.141
	c-0.11-0.091-0.165-0.204-0.165-0.338c0-0.048,0.007-0.121,0.021-0.221c0.014-0.099,0.021-0.175,0.021-0.229
	c0-0.247-0.056-0.414-0.166-0.502c-0.109-0.087-0.409-0.13-0.898-0.13h-0.129c-0.316,0-0.526,0.029-0.63,0.086
	c-0.105,0.058-0.157,0.177-0.157,0.359v0.799c0.047,0.01,0.091,0.02,0.136,0.024c0.043,0.005,0.083,0.009,0.119,0.009
	c0.123,0,0.219-0.023,0.288-0.068c0.07-0.045,0.105-0.104,0.105-0.184c0-0.037-0.006-0.092-0.021-0.166
	c-0.014-0.073-0.021-0.128-0.021-0.163c0-0.114,0.04-0.201,0.117-0.266c0.078-0.063,0.186-0.098,0.322-0.098
	c0.176,0,0.307,0.04,0.396,0.117c0.088,0.079,0.133,0.195,0.133,0.353c0,0.045-0.007,0.177-0.022,0.395
	c-0.013,0.218-0.02,0.416-0.02,0.595c0,0.162,0.007,0.338,0.02,0.529c0.015,0.191,0.022,0.3,0.022,0.324
	c0,0.146-0.046,0.257-0.137,0.332c-0.092,0.078-0.223,0.116-0.392,0.116c-0.136,0-0.244-0.032-0.322-0.095
	c-0.077-0.063-0.117-0.148-0.117-0.258c0-0.036,0.007-0.092,0.021-0.168c0.015-0.074,0.021-0.129,0.021-0.168
	c0-0.077-0.036-0.141-0.106-0.186c-0.071-0.048-0.167-0.068-0.287-0.068c-0.017,0-0.04,0.003-0.069,0.005
	c-0.029,0.005-0.092,0.016-0.186,0.036v0.966c0,0.179,0.061,0.305,0.184,0.376c0.123,0.071,0.345,0.107,0.67,0.107
	c0.546,0,0.879-0.047,0.998-0.141c0.12-0.095,0.178-0.275,0.178-0.547c0-0.057-0.007-0.138-0.02-0.247
	c-0.014-0.108-0.022-0.189-0.022-0.243c0-0.137,0.059-0.253,0.178-0.351c0.118-0.095,0.265-0.144,0.442-0.144
	c0.225,0,0.399,0.062,0.522,0.187c0.123,0.126,0.186,0.303,0.186,0.529c0,0.069-0.007,0.21-0.021,0.418
	c-0.014,0.207-0.021,0.378-0.021,0.514c0,0.05,0.007,0.14,0.021,0.265c0.014,0.129,0.021,0.229,0.021,0.305
	c0,0.192-0.05,0.337-0.148,0.43c-0.1,0.093-0.253,0.139-0.459,0.139c-0.031,0-0.117-0.003-0.259-0.011
	c-0.805-0.037-1.616-0.057-2.429-0.057c-0.736,0-1.408,0.021-2.016,0.062c-0.072,0.004-0.114,0.006-0.125,0.006
	c-0.204,0-0.358-0.05-0.463-0.149c-0.104-0.102-0.156-0.25-0.156-0.448c0-0.174,0.049-0.317,0.146-0.421
	c0.098-0.108,0.227-0.16,0.385-0.16c0.059,0,0.144,0.01,0.254,0.032s0.192,0.034,0.246,0.034c0.091,0,0.153-0.017,0.184-0.046
	C37.396,24.675,37.412,24.589,37.412,24.449"/>
<path fill="#FFFFFF" d="M44.022,21.468v-0.056c0-0.104-0.012-0.167-0.037-0.192c-0.024-0.024-0.075-0.037-0.15-0.037
	c-0.036,0-0.102,0.006-0.195,0.018c-0.096,0.012-0.174,0.018-0.231,0.018c-0.151,0-0.269-0.046-0.354-0.137
	c-0.084-0.09-0.127-0.215-0.127-0.376c0-0.189,0.047-0.337,0.141-0.442c0.093-0.105,0.221-0.159,0.382-0.159
	c0.014,0,0.053,0.002,0.114,0.008c0.445,0.038,0.932,0.059,1.457,0.059c0.187,0,0.472-0.011,0.854-0.033
	c0.383-0.021,0.676-0.032,0.88-0.032c0.583,0,1.035,0.13,1.354,0.393c0.32,0.261,0.479,0.63,0.479,1.107
	c0,0.353-0.095,0.622-0.284,0.809c-0.191,0.188-0.498,0.314-0.927,0.383c0.338,0.062,0.59,0.157,0.754,0.285
	c0.165,0.126,0.274,0.31,0.327,0.55c0.012,0.062,0.02,0.124,0.025,0.188s0.008,0.134,0.008,0.204c0,0.052-0.001,0.119-0.004,0.205
	c-0.002,0.087-0.004,0.147-0.004,0.182c0,0.129,0.017,0.221,0.05,0.276c0.032,0.057,0.086,0.084,0.159,0.084
	c0.014,0,0.068-0.013,0.166-0.034c0.096-0.021,0.184-0.033,0.261-0.033c0.151,0,0.271,0.046,0.354,0.137s0.129,0.219,0.129,0.387
	c0,0.214-0.066,0.375-0.193,0.481c-0.129,0.105-0.323,0.159-0.583,0.159c-0.052,0-0.144-0.012-0.276-0.033
	c-0.134-0.022-0.242-0.034-0.322-0.034c-0.045,0-0.113,0.012-0.207,0.034c-0.094,0.021-0.164,0.033-0.211,0.033
	c-0.293,0-0.514-0.088-0.662-0.263c-0.147-0.177-0.223-0.436-0.223-0.779c0-0.078,0.002-0.175,0.006-0.287
	c0.002-0.114,0.002-0.188,0.002-0.218c0-0.318-0.068-0.536-0.209-0.652c-0.139-0.117-0.404-0.175-0.795-0.175
	c-0.195,0-0.316,0.026-0.363,0.082c-0.049,0.053-0.072,0.167-0.072,0.343v0.599c0,0.106,0.017,0.175,0.048,0.207
	c0.032,0.03,0.093,0.048,0.183,0.048c0.051,0,0.121-0.013,0.211-0.034s0.155-0.033,0.191-0.033c0.122,0,0.221,0.05,0.292,0.148
	c0.073,0.1,0.11,0.232,0.11,0.398c0,0.201-0.045,0.354-0.131,0.459c-0.086,0.104-0.213,0.157-0.381,0.157
	c-0.011,0-0.039-0.002-0.084-0.006c-0.346-0.041-0.729-0.062-1.15-0.062c-0.408,0-0.803,0.021-1.186,0.058
	c-0.062,0.008-0.1,0.011-0.113,0.011c-0.185,0-0.323-0.051-0.416-0.15c-0.094-0.101-0.141-0.254-0.141-0.457
	c0-0.178,0.043-0.315,0.129-0.411c0.088-0.097,0.209-0.146,0.369-0.146c0.055,0,0.131,0.012,0.223,0.033
	c0.093,0.021,0.154,0.034,0.188,0.034c0.073,0,0.122-0.018,0.148-0.048c0.027-0.032,0.039-0.106,0.039-0.224V24.45V21.468z
	 M45.493,21.396v0.852c0,0.104,0.02,0.164,0.061,0.185s0.135,0.027,0.282,0.027c0.392,0,0.677-0.048,0.854-0.148
	c0.179-0.103,0.268-0.259,0.268-0.476c0-0.226-0.077-0.391-0.234-0.495c-0.156-0.104-0.404-0.156-0.744-0.156
	c-0.201,0-0.334,0.015-0.395,0.041C45.524,21.252,45.493,21.31,45.493,21.396"/>
<path fill="#FFFFFF" d="M50.731,24.449v-2.98c0-0.161-0.018-0.261-0.053-0.3c-0.035-0.042-0.094-0.062-0.178-0.062
	c-0.05,0-0.131,0.012-0.243,0.033c-0.11,0.021-0.198,0.034-0.264,0.034c-0.157,0-0.282-0.049-0.378-0.143
	c-0.098-0.097-0.146-0.224-0.146-0.384c0-0.185,0.053-0.325,0.158-0.424s0.255-0.147,0.454-0.147c0.01,0,0.047,0.002,0.108,0.008
	c0.574,0.039,1.221,0.06,1.938,0.06c0.598,0,1.497-0.021,2.699-0.066c0.193,0,0.337,0.042,0.433,0.127
	c0.097,0.085,0.144,0.214,0.144,0.386c0,0.056-0.006,0.149-0.021,0.281c-0.013,0.133-0.021,0.237-0.021,0.315
	c0,0.099,0.008,0.236,0.021,0.417c0.015,0.182,0.021,0.312,0.021,0.396c0,0.208-0.057,0.372-0.174,0.487
	c-0.119,0.117-0.281,0.177-0.494,0.177c-0.172,0-0.312-0.047-0.422-0.141c-0.11-0.091-0.164-0.204-0.164-0.338
	c0-0.048,0.006-0.121,0.02-0.221c0.014-0.099,0.021-0.175,0.021-0.229c0-0.247-0.056-0.414-0.166-0.502
	c-0.11-0.087-0.409-0.13-0.897-0.13h-0.131c-0.315,0-0.524,0.029-0.63,0.086c-0.104,0.058-0.157,0.177-0.157,0.359v0.799
	c0.047,0.01,0.093,0.02,0.138,0.024c0.041,0.005,0.082,0.009,0.118,0.009c0.123,0,0.22-0.023,0.289-0.068s0.104-0.104,0.104-0.184
	c0-0.037-0.006-0.092-0.021-0.166c-0.014-0.073-0.021-0.128-0.021-0.163c0-0.114,0.041-0.201,0.117-0.266
	c0.078-0.063,0.187-0.098,0.321-0.098c0.177,0,0.308,0.04,0.397,0.117c0.088,0.079,0.132,0.195,0.132,0.353
	c0,0.045-0.007,0.177-0.021,0.395s-0.021,0.416-0.021,0.595c0,0.162,0.008,0.338,0.021,0.529s0.021,0.3,0.021,0.324
	c0,0.146-0.046,0.257-0.138,0.332c-0.09,0.078-0.222,0.116-0.392,0.116c-0.135,0-0.243-0.032-0.321-0.095
	c-0.076-0.063-0.117-0.148-0.117-0.258c0-0.036,0.008-0.092,0.021-0.168c0.016-0.074,0.021-0.129,0.021-0.168
	c0-0.077-0.037-0.141-0.106-0.186c-0.071-0.048-0.167-0.068-0.287-0.068c-0.017,0-0.04,0.003-0.069,0.005
	c-0.029,0.005-0.09,0.016-0.187,0.036v0.966c0,0.179,0.062,0.305,0.185,0.376s0.347,0.107,0.67,0.107
	c0.547,0,0.881-0.047,0.998-0.141c0.119-0.095,0.179-0.275,0.179-0.547c0-0.057-0.007-0.138-0.021-0.247
	c-0.015-0.108-0.021-0.189-0.021-0.243c0-0.137,0.058-0.253,0.177-0.351c0.117-0.095,0.264-0.144,0.441-0.144
	c0.225,0,0.399,0.062,0.522,0.187c0.123,0.126,0.185,0.303,0.185,0.529c0,0.069-0.006,0.21-0.02,0.418
	c-0.014,0.207-0.021,0.378-0.021,0.514c0,0.05,0.008,0.14,0.021,0.265c0.014,0.129,0.02,0.229,0.02,0.305
	c0,0.192-0.049,0.337-0.147,0.43s-0.251,0.139-0.458,0.139c-0.029,0-0.117-0.003-0.258-0.011c-0.807-0.037-1.616-0.057-2.43-0.057
	c-0.736,0-1.408,0.021-2.017,0.062c-0.071,0.004-0.114,0.006-0.126,0.006c-0.203,0-0.355-0.05-0.461-0.149
	c-0.105-0.101-0.158-0.25-0.158-0.448c0-0.174,0.051-0.317,0.148-0.421c0.097-0.108,0.227-0.16,0.385-0.16
	c0.059,0,0.143,0.01,0.253,0.032c0.111,0.022,0.192,0.034,0.245,0.034c0.092,0,0.152-0.017,0.184-0.046
	C50.716,24.675,50.731,24.589,50.731,24.449"/>
<path fill="#E8C79D" d="M32.673,16.329c-0.14,0-0.282-0.036-0.413-0.111L17.419,7.649c-0.396-0.229-0.532-0.733-0.304-1.131
	c0.228-0.396,0.734-0.531,1.131-0.303l14.842,8.568c0.396,0.229,0.531,0.733,0.303,1.131C33.237,16.181,32.959,16.329,32.673,16.329
	"/>
<path fill="#FFFFFF" d="M19.019,7.618c0,0-1.667-0.963-2.54-1.468s-1.653-0.603-2.57-0.358c-0.952,0.251-3.56,0.938-3.56,0.938
	s1.713,0.989,2.322,1.34c0.608,0.352,1.474,0.827,3.21,0.371C17.847,7.925,19.019,7.618,19.019,7.618"/>
<path fill="#E8C79D" d="M14.562,9.181L14.562,9.181c-1.071,0-1.731-0.381-2.167-0.633l-2.322-1.34
	C9.879,7.097,9.772,6.879,9.802,6.657c0.029-0.223,0.19-0.403,0.406-0.46l3.559-0.938c1.08-0.285,1.997-0.157,2.988,0.415
	l2.539,1.467c0.194,0.111,0.301,0.329,0.271,0.553c-0.03,0.222-0.191,0.402-0.407,0.459l-3.137,0.822
	C15.502,9.111,15.012,9.181,14.562,9.181 M11.785,6.922l1.161,0.67c0.375,0.217,0.84,0.485,1.616,0.485
	c0.355,0,0.751-0.058,1.179-0.169l1.84-0.483l-1.378-0.796c-0.743-0.43-1.353-0.518-2.153-0.304L11.785,6.922z"/>
<path fill="#FFFFFF" d="M22.794,9.797c0,0-1.668-0.962-2.542-1.467c-0.873-0.505-1.652-0.604-2.569-0.359
	c-0.951,0.25-3.56,0.939-3.56,0.939s1.713,0.987,2.322,1.34c0.608,0.351,1.475,0.828,3.21,0.372
	C21.621,10.104,22.794,9.797,22.794,9.797"/>
<path fill="#E8C79D" d="M18.338,11.361L18.338,11.361c-1.071,0-1.731-0.381-2.169-0.634l-2.322-1.34
	c-0.193-0.111-0.3-0.329-0.271-0.551c0.03-0.222,0.19-0.403,0.406-0.46l3.56-0.939c1.08-0.285,1.995-0.156,2.987,0.415l2.54,1.467
	c0.195,0.111,0.302,0.329,0.272,0.552c-0.03,0.223-0.191,0.403-0.407,0.46l-3.139,0.825C19.277,11.292,18.788,11.361,18.338,11.361
	 M15.56,9.102l1.162,0.671c0.375,0.217,0.842,0.485,1.617,0.485c0.354,0,0.75-0.058,1.177-0.169l1.841-0.484l-1.38-0.797
	c-0.743-0.43-1.351-0.515-2.152-0.304L15.56,9.102z"/>
<path fill="#FFFFFF" d="M19.019,7.618c0,0-1.667-0.963-2.54-1.468s-1.348-1.132-1.596-2.047c-0.26-0.947-0.966-3.553-0.966-3.553
	s1.712,0.989,2.321,1.342c0.608,0.352,1.455,0.862,1.926,2.594C18.699,6.448,19.019,7.618,19.019,7.618"/>
<path fill="#E8C79D" d="M19.019,8.17c-0.095,0-0.191-0.024-0.276-0.074l-2.54-1.467c-0.99-0.572-1.562-1.307-1.853-2.38
	l-0.966-3.554c-0.058-0.216,0.019-0.444,0.196-0.581c0.178-0.137,0.421-0.152,0.613-0.04l2.321,1.342
	c0.614,0.354,1.643,0.946,2.182,2.927l0.855,3.13c0.059,0.216-0.018,0.446-0.195,0.581C19.257,8.131,19.138,8.17,19.019,8.17
	 M14.801,1.7l0.614,2.259c0.215,0.792,0.603,1.288,1.341,1.715l1.377,0.796l-0.501-1.837c-0.42-1.541-1.143-1.957-1.67-2.262
	L14.801,1.7z"/>
<path fill="#FFFFFF" d="M22.794,9.797c0,0-1.668-0.962-2.542-1.467c-0.873-0.505-1.346-1.131-1.595-2.047
	c-0.259-0.948-0.967-3.553-0.967-3.553s1.714,0.989,2.322,1.342c0.608,0.352,1.454,0.861,1.926,2.595
	C22.474,8.627,22.794,9.797,22.794,9.797"/>
<path fill="#E8C79D" d="M22.795,10.349c-0.095,0-0.19-0.023-0.276-0.074l-2.542-1.467c-0.989-0.571-1.56-1.306-1.852-2.38
	l-0.967-3.552C17.1,2.66,17.177,2.431,17.354,2.294c0.177-0.135,0.419-0.153,0.613-0.04l2.322,1.341
	c0.615,0.355,1.643,0.951,2.182,2.927l0.856,3.129c0.059,0.217-0.018,0.446-0.195,0.582C23.033,10.31,22.914,10.349,22.795,10.349
	 M18.575,3.879l0.615,2.26c0.215,0.791,0.603,1.288,1.34,1.714l1.378,0.796l-0.501-1.836c-0.42-1.539-1.143-1.957-1.67-2.263
	L18.575,3.879z"/>
</svg>
