<?xml version="1.0" encoding="utf-8"?>
<!-- Generator: Adobe Illustrator 17.0.0, SVG Export Plug-In . SVG Version: 6.00 Build 0)  -->
<!DOCTYPE svg PUBLIC "-//W3C//DTD SVG 1.1//EN" "http://www.w3.org/Graphics/SVG/1.1/DTD/svg11.dtd">
<svg version="1.1" xmlns="http://www.w3.org/2000/svg" xmlns:xlink="http://www.w3.org/1999/xlink" x="0px" y="0px"
	 width="141.589px" height="179.015px" viewBox="0 0 141.589 179.015" enable-background="new 0 0 141.589 179.015"
	 xml:space="preserve">
<g id="Background">
</g>
<g id="Objects">
	<g>
		<g>
			<g>
				<g>
					<g>
						<g>
							<polygon fill="#70869B" points="29.857,136.74 0,119.505 0,21.708 30.613,39.176 							"/>
							<polygon fill="#3B3A3A" points="29.857,38.945 67.82,17.232 67.82,91.415 29.857,113.131 							"/>
							<path fill="#CFD9E9" d="M37.961,0L0,21.703L32.749,40.61l1.472-3.484L7.504,21.703l30.457-17.37V0z"/>
						</g>
						<polygon fill="#245981" points="3.752,93.727 3.752,28.205 26.105,41.112 26.105,106.633 						"/>
						<g>
							<g>
								
									<rect x="-0.551" y="44.112" transform="matrix(0.8697 0.4935 -0.4935 0.8697 24.3104 -1.3781)" fill="#70869B" width="30.633" height="2.498"/>
							</g>
							<g>
								
									<rect x="-0.551" y="55.228" transform="matrix(0.8697 0.4935 -0.4935 0.8697 29.7963 0.07)" fill="#70869B" width="30.633" height="2.499"/>
							</g>
							<g>
								
									<rect x="-0.551" y="66.344" transform="matrix(0.8697 0.4935 -0.4935 0.8697 35.2822 1.518)" fill="#70869B" width="30.633" height="2.498"/>
							</g>
							<g>
								
									<rect x="-0.551" y="77.461" transform="matrix(0.8697 0.4935 -0.4935 0.8697 40.7707 2.9669)" fill="#70869B" width="30.634" height="2.498"/>
							</g>
							<g>
								
									<rect x="-0.551" y="88.577" transform="matrix(0.8697 0.4935 -0.4935 0.8697 46.2566 4.415)" fill="#70869B" width="30.634" height="2.497"/>
							</g>
						</g>
						<g>
							<g>
								<polygon fill="#CFD9E9" points="67.817,17.231 29.857,38.942 29.857,34.608 60.314,17.231 37.961,4.333 37.961,0 								
									"/>
							</g>
						</g>
					</g>
					<g>
						<g>
							<g>
								<polygon fill="#70869B" points="62.25,70.86 62.25,168.662 51.522,162.54 50.165,161.766 32.881,151.911 30.383,150.486 
									29.018,149.704 18.289,143.582 18.289,45.789 								"/>
								<polygon fill="#8CA5C4" points="62.252,70.866 111.779,42.273 114.549,135.887 62.252,168.661 								"/>
								<polygon fill="#245981" points="62.252,75.118 62.252,140.638 18.289,115.658 18.289,50.139 								"/>
								<polygon fill="#2459AE" points="62.252,75.127 108.027,48.771 108.027,114.292 62.252,140.646 								"/>
								<path fill="#CFD9E9" d="M67.812,17.201L18.282,45.789l43.97,25.074v-4.335L25.787,45.789l42.024-24.256V17.201z"/>
							</g>
						</g>
						<g>
							<g>
								<polygon fill="#CFD9E9" points="111.781,42.27 62.252,70.868 62.252,66.528 104.278,42.27 67.812,21.533 67.812,17.201 
																	"/>
							</g>
						</g>
					</g>
					<g>
						<g>
							<polygon fill="#70869B" points="103.626,179.015 73.77,161.776 73.77,63.982 103.626,81.221 							"/>
							<polygon fill="#8CA5C4" points="103.626,81.221 141.589,59.507 141.589,157.301 103.626,179.015 							"/>
							<path fill="#CFD9E9" d="M111.729,42.273L73.769,63.978l29.857,17.239v-4.334L81.272,63.978l30.457-17.371V42.273z"/>
						</g>
						<polygon fill="#245981" points="73.769,134.203 73.769,68.684 99.875,83.385 99.875,148.906 						"/>
						<g>
							<g>
								<polygon fill="#CFD9E9" points="141.588,59.507 103.626,81.217 103.626,76.883 134.084,59.507 111.729,46.606 
									111.729,42.273 								"/>
							</g>
						</g>
					</g>
				</g>
				<g>
					<g>
						<polygon fill="#687587" points="134.084,59.509 103.623,76.883 73.946,59.783 62.252,66.531 25.786,45.791 37.539,39.011 
							7.504,21.703 37.964,4.336 67.816,21.535 68.332,21.827 104.282,42.269 104.223,42.302 						"/>
					</g>
				</g>
				<g>
					<g>
						<g>
							<g>
								<polygon fill="#70869B" points="99.877,92.496 99.877,95.37 73.773,80.511 73.766,80.52 62.254,87.124 18.293,62.161 
									18.293,59.287 62.246,84.25 62.254,84.242 73.766,77.628 								"/>
							</g>
						</g>
						<g>
							<g>
								<polygon fill="#70869B" points="99.877,103.607 99.877,106.481 73.773,91.621 73.766,91.63 62.254,98.243 18.293,73.28 
									18.293,70.407 62.246,95.37 62.254,95.361 73.766,88.739 								"/>
							</g>
						</g>
						<g>
							<g>
								<polygon fill="#70869B" points="99.877,114.727 99.877,117.602 73.773,102.742 73.766,102.75 62.254,109.363 18.293,84.393 
									18.293,81.518 62.246,106.481 62.254,106.473 73.766,99.859 								"/>
							</g>
						</g>
						<g>
							<g>
								<polygon fill="#70869B" points="99.877,125.839 99.877,128.712 73.773,113.853 73.766,113.861 62.254,120.475 
									18.293,95.511 18.293,92.639 62.246,117.602 62.254,117.593 73.766,110.979 								"/>
							</g>
						</g>
						<g>
							<g>
								<polygon fill="#70869B" points="99.877,136.958 99.877,139.832 73.773,124.973 73.766,124.98 62.254,131.595 
									18.293,106.631 18.293,103.758 62.246,128.712 62.254,128.704 73.766,122.09 								"/>
							</g>
						</g>
					</g>
				</g>
			</g>
			<g>
				<g>
					<polygon fill="#70869B" points="50.165,142.583 50.165,161.766 32.881,151.911 30.383,150.486 30.383,131.164 					"/>
					<polygon fill="#245981" points="50.165,145.491 50.165,161.766 32.881,151.911 32.881,135.496 					"/>
				</g>
			</g>
			<rect x="0" y="29.714" fill="#70869B" width="3.752" height="67.67"/>
			<g>
				<g>
					<g>
						<polygon fill="#A4B1D1" points="36.992,28.282 36.992,33.228 33.825,31.399 33.313,31.105 26.028,26.898 25.52,26.603 
							22.348,24.772 22.348,19.827 						"/>
						<polygon fill="#CFD9E9" points="36.994,28.281 51.639,19.827 51.639,24.772 36.994,33.228 						"/>
					</g>
					<g>
						<g>
							<g>
								<polygon fill="#8CA5C4" points="51.643,19.826 36.992,28.285 22.352,19.826 36.992,11.367 								"/>
							</g>
						</g>
					</g>
				</g>
			</g>
			<g>
				<g>
					<g>
						<polygon fill="#A4B1D1" points="103.52,63.738 103.52,68.684 100.352,66.856 99.839,66.562 92.555,62.353 92.046,62.06 
							88.875,60.228 88.875,55.283 						"/>
						<polygon fill="#CFD9E9" points="103.52,63.738 118.165,55.283 118.165,60.228 103.52,68.684 						"/>
					</g>
					<g>
						<g>
							<g>
								<polygon fill="#8CA5C4" points="118.168,55.282 103.518,63.741 88.877,55.282 103.518,46.824 								"/>
							</g>
						</g>
					</g>
				</g>
			</g>
		</g>
	</g>
</g>
</svg>
