<?xml version="1.0" encoding="utf-8"?>
<!-- Generator: Adobe Illustrator 16.0.0, SVG Export Plug-In . SVG Version: 6.00 Build 0)  -->
<!DOCTYPE svg PUBLIC "-//W3C//DTD SVG 1.1//EN" "http://www.w3.org/Graphics/SVG/1.1/DTD/svg11.dtd">
<svg version="1.1" id="eqxiu_1_" xmlns="http://www.w3.org/2000/svg" xmlns:xlink="http://www.w3.org/1999/xlink" x="0px" y="0px"
	 width="612px" height="611.986px" viewBox="0 0 612 611.986" enable-background="new 0 0 612 611.986" xml:space="preserve">
<path id="eqxiu" fill="#08A1EF" d="M590.551,483.786c13.768,23.419,14.891,53.367,0.338,78.567
	c-21.532,37.286-69.22,50.065-106.506,28.536c-56.957-33.509-130.673-24.219-178.372,21.097h-0.033
	c-46.803-44.468-118.926-55.063-177.771-21.441c-23.413,13.767-53.369,14.886-78.568,0.336
	c-37.286-21.532-50.062-69.222-28.538-106.507C54.612,427.433,45.316,353.714,0,306.018v-0.035
	c44.473-46.805,55.064-118.916,21.444-177.769c-13.77-23.412-14.89-53.366-0.334-78.562C42.639,12.356,90.326-0.425,127.611,21.104
	C184.568,54.607,258.281,45.316,305.983,0h0.034c48.227,45.819,120.759,54.274,178.372,21.103
	c37.284-21.528,84.972-8.751,106.504,28.538c14.553,25.202,13.43,55.159-0.343,78.577c-33.616,58.852-23.018,130.954,21.45,177.76
	v0.033C567.524,352.823,556.934,424.937,590.551,483.786"/>
</svg>
