<?xml version="1.0" encoding="utf-8"?>
<!-- Generator: Adobe Illustrator 16.0.0, SVG Export Plug-In . SVG Version: 6.00 Build 0)  -->
<!DOCTYPE svg PUBLIC "-//W3C//DTD SVG 1.1//EN" "http://www.w3.org/Graphics/SVG/1.1/DTD/svg11.dtd">
<svg version="1.1" id="eqxiu.com" xmlns="http://www.w3.org/2000/svg" xmlns:xlink="http://www.w3.org/1999/xlink" x="0px" y="0px"
	 width="123.913px" height="63.599px" viewBox="0 0 123.913 63.599" enable-background="new 0 0 123.913 63.599"
	 xml:space="preserve">
<path fill="#97C636" d="M121.669,21.633l-9.665,19.701H2.092V2h109.205L121.669,21.633z"/>
<path fill="#BC82B6" d="M21.311,41.885v17.334l-20-17.334H21.311z"/>
<path fill="#030000" d="M122.962,19.799l-9.333-17.667L112.503,0h-2.411h-106h-4v4v35.334v3.957L0,43.396l23.311,20.202V43.334
	h87.447h2.493l1.098-2.238l8.667-17.667l0.897-1.829L122.962,19.799z M113.108,34.543l-5.247,4.791h-3.208l11.058-10.097
	L113.108,34.543z M110.726,5.199l1.118,2.116L76.777,39.334h-3.435L110.726,5.199z M112.205,8.001l1.228,2.324l-31.77,29.009h-3.772
	L112.205,8.001z M113.795,11.01l0.912,1.727L85.578,39.334h-2.802L113.795,11.01z M115.069,13.422l0.871,1.649L89.368,39.334h-2.677
	L115.069,13.422z M116.303,15.757l1.12,2.121L93.926,39.334h-3.444L116.303,15.757z M117.785,18.563l1.199,2.27L98.723,39.334
	h-3.684L117.785,18.563z M119.346,21.518l0.079,0.149l-2.811,5.729L103.54,39.334h-3.704L119.346,21.518z M110.363,4.514
	l-38.134,34.82h-3.436L107.489,4h2.603L110.363,4.514z M4.092,9.217L9.168,4h3.412l-8.488,8.076V9.217z M4.092,20.646v-3.391
	L18.646,4h3.405L4.092,20.646z M4.092,16.24v-3.13L13.668,4h3.863L4.092,16.24z M4.092,21.667L23.154,4h3.828L4.092,25.491V21.667z
	 M4.092,29.688v-3.167L28.078,4h3.644L4.092,29.688z M4.092,30.712L32.823,4h3.897L4.092,34.309V30.712z M37.823,4h4.011
	L4.092,38.701v-3.37L37.823,4z M42.942,4h3.759L8.004,39.334H4.513L42.942,4z M47.813,4h3.657L12.773,39.334H9.117L47.813,4z
	 M52.583,4h3.596L17.481,39.334h-3.595L52.583,4z M57.291,4h3.764L22.357,39.334h-3.763L57.291,4z M62.167,4h3.193L26.663,39.334
	h-3.192L62.167,4z M66.473,4h3.717L31.492,39.334h-3.716L66.473,4z M71.302,4h3.635L36.239,39.334h-3.634L71.302,4z M76.049,4h3.345
	L40.696,39.334h-3.344L76.049,4z M80.506,4h3.753L45.562,39.334H41.81L80.506,4z M85.371,4h3.036L49.71,39.334h-3.035L85.371,4z
	 M89.52,4h3.657L54.479,39.334h-3.656L89.52,4z M94.289,4h3.105L58.697,39.334h-3.104L94.289,4z M98.507,4h3.566L63.377,39.334
	h-3.566L98.507,4z M103.186,4h3.191L67.681,39.334h-3.19L103.186,4z M8.121,4L4.092,8.142V4H8.121z M9.092,45.981l-3.056-2.647
	h3.056V45.981z M14.217,50.424l-3.125-2.709v-4.381h3.125V50.424z M19.311,54.839l-3.094-2.682v-8.823h3.094V54.839z
	 M108.974,39.334l3.231-2.951l-1.447,2.951H108.974z"/>
</svg>
