<?xml version="1.0" encoding="utf-8"?>
<!-- Generator: Adobe Illustrator 16.0.0, SVG Export Plug-In . SVG Version: 6.00 Build 0)  -->
<!DOCTYPE svg PUBLIC "-//W3C//DTD SVG 1.1//EN" "http://www.w3.org/Graphics/SVG/1.1/DTD/svg11.dtd">
<svg version="1.1" id="eqxiu.com" xmlns="http://www.w3.org/2000/svg" xmlns:xlink="http://www.w3.org/1999/xlink" x="0px" y="0px"
	 width="108.972px" height="117.064px" viewBox="0 0 108.972 117.064" enable-background="new 0 0 108.972 117.064"
	 xml:space="preserve">
<path fill="#FFFFFF" d="M107.476,90.31l-1.328,12.333l-34.833,6l-5.834-6l-4.5,6.833l-45.5,6.5L6.953,64.143l4.361-3l0.333-3.333
	l-6.333,0.722L1.481,30.143l8.972-8.697c-0.103-0.681,35.946-7.167,35.946-7.167c0.068-0.011,0.136-0.017,0.203-0.017
	c0.605-0.001,0.969-4.226,1.162-4.502c0.194-0.276,0.49-0.463,0.822-0.519l47.484-7.966c0.07-0.011,0.139-0.018,0.207-0.018
	c0.598-0.001,1.129,0.425,1.239,1.032l4.774,26.1c0.125,0.683-0.327,1.338-1.01,1.464l-5.727,1.054l8.047,55.481
	c0,0,3.751,3.789,3.673,3.913L107.476,90.31z"/>
<path fill="#040000" d="M108.448,88.482c-0.192-0.372-0.474-0.701-0.839-0.944l-2.842-1.886l-7.793-53.726l4.535-0.834
	c1.366-0.252,2.271-1.562,2.021-2.928l-4.774-26.1C98.533,0.85,97.473-0.002,96.277,0C96.14,0,48.378,8.001,48.378,8.001
	c-0.665,0.112-1.257,0.485-1.644,1.037c-0.388,0.551-0.537,1.235-0.416,1.898l0.378,2.07c-0.032-0.001-0.064-0.002-0.097-0.001
	c-0.134,0-35.312,5.771-35.312,5.771c-0.895,0.147-1.594,0.753-1.914,1.537l-9.01,9.071c-0.275,0.277-0.406,0.667-0.354,1.054
	l3.836,28.619c0.046,0.342,0.231,0.651,0.511,0.853s0.631,0.281,0.972,0.215l5.19-0.988l0.003,1.466l-4.512,2.184
	c-0.503,0.244-0.785,0.79-0.692,1.342l8.723,51.887c0.104,0.614,0.636,1.051,1.242,1.05c0.057,0,0.115-0.004,0.172-0.013
	l13.373-1.86c0.022,0.001,0.045,0.007,0.068,0.007c0.114,0,0.228-0.021,0.335-0.063l32.139-4.473c0.349-0.049,0.661-0.24,0.861-0.53
	l3.715-5.368l3.368,4.448c0.281,0.373,0.745,0.559,1.208,0.482l35.927-5.92c0.556-0.092,0.982-0.542,1.046-1.101l1.468-13.035
	C109.016,89.171,108.803,88.74,108.448,88.482z M96.28,2.517l4.774,26.1l-6.918,1.273l8.302,57.236l3.78,2.508l-36.164,6.055
	l4.387-7.874L65.519,34.67l-11.95,1.913l-4.774-26.1L96.28,2.517z M95.846,102.97l1.133-9.237l3.34-0.56l-1.134,9.247L95.846,102.97
	z M90.578,103.838l1.133-9.224l3.327-0.557l-1.132,9.232L90.578,103.838z M84.992,104.759l1.129-9.209l3.648-0.61l-1.132,9.219
	L84.992,104.759z M79.17,105.718l1.128-9.193l3.882-0.649l-1.129,9.203L79.17,105.718z M74.042,106.564l1.126-9.18l3.189-0.534
	l-1.127,9.188L74.042,106.564z M67.856,94.464c-0.173,0.308-0.272,0.643-0.306,0.982c-0.038,0.053-0.077,0.107-0.108,0.168
	l-1.543,3.018l-1.105-6.78l5.912-11.092l1.108,6.602L67.856,94.464z M48.685,109.886c0,0,10.467-9.469,10.519-9.584
	c0,0,2.737-0.676,3.136-1.223c0.399-0.546,0.561-1.229,0.449-1.896l0.766,2.714l-10.399,9.367L48.685,109.886z M40.543,111.019
	l10.475-9.435c0.031-0.027,0.044-0.064,0.071-0.095l4.894-0.716l-10.632,9.577L40.543,111.019z M32.681,112.114l10.052-9.054
	c0.12-0.108,0.192-0.242,0.244-0.383l4.788-0.701l-10.555,9.508L32.681,112.114z M24.14,113.302l10.308-9.285
	c0.034-0.029,0.049-0.07,0.078-0.104l5.301-0.775l-10.48,9.441L24.14,113.302z M57.767,48.727l5.781-10.6l0.485,2.893
	c-0.01,0.016-0.021,0.029-0.03,0.046L58.271,51.82L57.767,48.727z M69.024,70.743L63.15,81.761l-0.716-4.393l5.857-10.989
	L69.024,70.743z M67.779,63.328l-5.846,10.968l-0.819-5.024l5.828-10.931L67.779,63.328z M66.429,55.289l-5.815,10.91l-0.643-3.944
	l5.801-10.883L66.429,55.289z M65.259,48.32L59.47,59.181l-0.698-4.287l5.773-10.831L65.259,48.32z M63.651,84.834l5.885-11.041
	l0.657,3.915l-5.899,11.07L63.651,84.834z M57.272,45.691l-0.002-0.012c-0.1-0.61-2.051-1.054-2.051-1.054l3.214-6.272l3.113-0.498
	L57.272,45.691z M46.604,15.521l13.703,82.076l-34.907,5.108l-6.063-39.938l7.539-5.207l-0.957-6.132l-9.434,1.593
	c0,0-4.665-31.704-4.634-31.788L46.604,15.521z M15.126,107.285l7.444-6.446l0.34,2.244c0.083,0.55,0.345,1.023,0.709,1.389
	l-7.827,6.778L15.126,107.285z M17.026,64.313l0.631,4.16l-7.905,6.846l-0.691-4.109L17.026,64.313z M21.335,92.702l-7.56,6.547
	l-0.619-3.684l7.613-6.593L21.335,92.702z M10.119,77.499l7.873-6.819l0.57,3.752l-7.82,6.771L10.119,77.499z M11.107,83.382
	l7.789-6.745l0.571,3.759l-7.735,6.698L11.107,83.382z M12.098,89.273l7.704-6.671l0.632,4.164l-7.645,6.619L12.098,89.273z
	 M14.142,101.428l7.528-6.521l0.565,3.724l-7.476,6.475L14.142,101.428z M13.039,59.814c0,0-0.04-2.5-0.093-2.64l2.25-2
	c0.393,0.235,3.091,0.095,3.091,0.095L13.039,59.814z M3.377,36.605l7.088-6.639l0.574,3.812L3.895,40.47L3.377,36.605z
	 M12.003,40.174l-7.239,6.781l-0.561-4.188l7.177-6.723L12.003,40.174z M5.072,49.252l7.272-6.812l0.528,3.501l-7.324,6.861
	L5.072,49.252z M9.525,23.732l0.598,3.968l-7.054,6.607l-0.481-3.591L9.525,23.732z M5.856,55.1l7.357-6.892
	c0,0,0.825,5.361,0.848,5.448l-3.21,2.856l-4.687,0.893L5.856,55.1z M12.403,62.861l9.466-8.197l1.956-0.33l0.321,2.054
	L8.695,69.031L7.957,64.64C7.957,64.64,12.225,63.014,12.403,62.861z M16.149,113.37c0.085-0.036,9.507-8.166,9.507-8.166
	c0.036-0.004,0.071-0.003,0.106-0.008l5.441-0.797l-10.399,9.367l-4.485,0.625L16.149,113.37z M60.478,108.246l-3.987,0.555
	l7.425-6.688l0.116,0.711c0.011,0.069,0.042,0.129,0.064,0.194L60.478,108.246z M67.006,101.993l2.045-4
	c0.315,0.137,4.175-0.283,4.175-0.283l-1.126,9.174l-1.237,0.204L67.006,101.993z M101.126,102.1l1.135-9.252l3.882-0.649
	l-1.041,9.247L101.126,102.1z"/>
</svg>
