<?xml version="1.0" encoding="utf-8"?>
<!-- Generator: Adobe Illustrator 16.0.0, SVG Export Plug-In . SVG Version: 6.00 Build 0)  -->
<!DOCTYPE svg PUBLIC "-//W3C//DTD SVG 1.1//EN" "http://www.w3.org/Graphics/SVG/1.1/DTD/svg11.dtd">
<svg version="1.1" id="Objects" xmlns="http://www.w3.org/2000/svg" xmlns:xlink="http://www.w3.org/1999/xlink" x="0px" y="0px"
	 width="194.429px" height="182.245px" viewBox="0 0 194.429 182.245" enable-background="new 0 0 194.429 182.245"
	 xml:space="preserve">
<path fill="#3C3C3B" d="M89.427,181.127c2.384-1.614,3.999-4.399,4.125-7.285c0.179-4.115-2.879-7.31-6.522-7.942
	c4.086-4.615,1.67-11.505-4.273-12.513c1.131-2.681,0.223-5.916-2.45-7.27c5.802-6.264,10.453-14.229,15.432-21.062
	c3.498-4.8,7.079-9.571,10.546-14.417c-0.124,3.06,0.987,6.083,3.925,7.706c2.77,1.529,5.98,1.083,8.282-0.754
	c0.933,5.403,5.918,8.888,11.568,9.12c3.19,0.131,10.812-0.816,12.091-4.712c1.302,2.067,3.241,3.694,5.829,3.878
	c2.486,0.176,4.729-1.123,5.838-3.203c4.028,2.974,9.615-0.664,9.161-4.774c13.304,5.309,27.57-10.655,18.114-22.553
	c3.537-0.149,7.154-2.037,7.831-5.775c0.456-2.52-1.182-6.71-3.946-7.362c2.342-0.064,4.432-1.435,4.968-3.948
	c0.155-0.729,0.16-1.516-0.004-2.247c-0.096-0.429-0.845-1.555-0.812-1.854c0.159-1.392,2.833-2.388,3.701-3.408
	c3.778-4.441,0.253-9.124-4.301-8.822c2.38-1.471,4.182-3.818,3.99-6.762c-0.212-3.276-3.601-6.481-6.915-6.164
	c2.969-2.9,4.001-7.852,1.701-11.478c-2.275-3.587-6.569-2.853-9.852-0.99c3.45-5.225,3.531-12.165-0.948-17.015
	c-4.126-4.466-10.555-4.916-15.276-1.681c0.205-3.379-1.03-6.905-4.539-8.125c-2.375-0.826-4.88-0.172-6.48,1.455
	c-0.785-3.035-5.331-5.057-8.016-2.403c-0.714-2.615-2.15-5.046-5.217-5.148c-2.834-0.094-4.787,1.785-6.063,4.068
	c-5.158-13.769-29.731-7.327-27.802,5.853c-2.41-2.065-5.979-2.322-8.941-0.936c-3.835,1.795-5.491,5.858-5.793,9.842
	c-5.163-2.657-10.039,4.437-5.975,8.842c-3.952-0.913-7.655,3.542-6.281,7.682c-3.167-0.584-6.684,0.377-8.41,3.302
	c-2.78,4.711,1.432,9.298,5.132,11.858C58.738,58.72,61.832,79.55,75.487,81.347c-1.919,1.766-2.108,5.71-0.502,7.642
	c1.618,1.946,4.406,2.152,6.582,1.131c-3.073,3.889-1.991,10.729,1.819,13.701c4.16,3.246,10.567,2.076,13.723-1.918
	c-5.313,7.009-10.343,14.254-15.405,21.42c-3.583,5.072-7.384,10.145-11.012,15.319c-1.004-2.325-3.543-3.51-6.067-3.374
	c-2.702,0.146-4.84,1.756-6.393,3.821c-1.104-2.308-3.471-3.816-5.84-3.367c0.022-3.706-3.557-7.741-6.862-8.445
	c-3.57-0.76-7.892,1.37-9.352,4.724c-1.352-1.923-4.057-3.208-6.132-3.212c-3.923-0.009-6.977,3.432-7.029,7.237
	c-0.008,0.59,0.534,0.895,0.972,0.812c0.034,0.276,0.189,0.534,0.541,0.658c10.753,3.82,19.53,9.737,28.866,16.093
	c0.059,0.04,0.12,0.063,0.182,0.077c-0.068,0.248-0.129,0.499-0.158,0.757c-0.032,0.283,0.103,0.509,0.297,0.663
	c-0.413,0.307-0.57,0.927-0.01,1.314c5.359,3.712,10.681,7.428,15.685,11.619c5.008,4.195,9.389,8.976,14.167,13.4
	c0.31,0.287,0.666,0.239,0.941,0.042C85.683,182.881,87.955,182.124,89.427,181.127z M80.376,153.642
	c-0.43,0.531-0.057,1.522,0.667,1.533c5.332,0.085,8.149,5.841,4.198,9.802c-0.127,0.127-0.2,0.269-0.248,0.414
	c0.167-1.813-0.411-3.893-1.263-5.001c-1.596-2.076-4.425-2.875-6.842-2.112c0.847-1.69,0.533-3.781-0.472-5.528
	c0.141-0.071,0.268-0.191,0.354-0.37c0.098-0.201,0.173-0.411,0.238-0.625c0.146-0.062,0.29-0.151,0.412-0.306
	c0.952-1.207,1.707-2.597,2.215-4.066C81.503,148.958,82.035,151.593,80.376,153.642z M97.461,99.366
	c-2.774,4.077-8.863,6.132-12.944,2.546c-3.739-3.286-2.884-8.225-0.263-11.782c0.073,0.084,0.134,0.178,0.213,0.258
	c0.792,0.802,1.959,1.639,3.047,0.977c0.269-0.164,0.357-0.631,0.221-0.9c-0.383-0.752-1.217-0.857-1.831-1.382
	c-0.667-0.572-1.077-1.377-1.212-2.237c-0.172-1.098-1.735-0.835-1.682,0.239c0.014,0.281,0.061,0.555,0.125,0.823
	c-1.745,1.667-4.736,1.95-6.502,0.121c-0.945-0.979-1.121-2.375-0.736-3.646c0.418-1.38,1.376-1.963,2.436-2.799
	c0.053-0.042,0.096-0.092,0.129-0.147c0.008,0,0.015,0,0.021,0c0.606-0.041,0.583-1-0.012-1.056
	c-5.824-0.549-11.789-4.555-12.883-10.662c-1.148-6.413,2.905-11.614,8.308-14.417c0.536-0.278,0.495-1.124,0.04-1.35
	c0.012-0.113-0.022-0.233-0.123-0.344c-2.103-2.328-5.15-5.148-4.775-8.497c0.474-4.219,5.143-5.284,8.586-3.848
	c0.808,0.337,1.563-0.699,1.005-1.369c-1.459-1.751-1.444-3.272-0.062-5.069c1.396-1.814,2.871-2.081,4.844-1.19
	c-0.206,0.749-0.269,1.529-0.134,2.327c0.139,0.82,1.313,0.631,1.264-0.18c-0.036-0.588,0.062-1.169,0.259-1.717
	c0.375-0.123,0.599-0.522,0.47-0.925c0.069-0.105,0.127-0.216,0.206-0.316c0.61-0.772,1.545-1.069,2.186-1.774
	c0.348-0.382-0.006-0.982-0.454-1.044c-1.101-0.151-2.142,0.746-2.816,1.637c-2.535-1.942-2.675-3.816-0.378-5.621
	c0.823-2.717,2.381-3.114,4.675-1.191c0.478,0.408,1.432,0.046,1.426-0.62c-0.072-7.224,6.394-14.031,13.101-8.391
	c0.333,0.28,0.703,0.18,0.937-0.07c0.307-0.053,0.597-0.308,0.542-0.671c-1.027-6.878,5.15-11.733,11.288-13.161
	c6.41-1.491,12.088,1.836,13.911,8.02c-0.075,0.208-0.146,0.416-0.213,0.621c-0.208,0.648,0.534,1.037,0.961,0.677
	c0.494,0.157,1.108-0.134,1.001-0.804c-0.043-0.268-0.109-0.514-0.164-0.771c0.917-1.78,2.175-3.672,4.159-4.001
	c3.686-0.611,4.771,2.75,5.191,5.679c0.131,0.909,1.452,1.083,1.783,0.209c0.721-1.907,3.23-3.275,5.043-1.381
	c0.712,0.744,0.828,1.775,0.695,2.758c-0.951-0.148-1.895-0.072-2.841,0.232c-0.688,0.221-0.359,1.376,0.348,1.227
	c0.719-0.151,1.446-0.163,2.154-0.02c-0.145,0.664,0.684,1.042,1.143,0.527c0.028-0.031,0.05-0.062,0.076-0.093
	c0.286,0.147,0.562,0.311,0.816,0.515c0.397,0.317,0.61,0.621,1.139,0.673c0.457,0.046,0.738-0.32,0.726-0.741
	c-0.026-0.808-0.929-1.406-1.787-1.787c1.713-2.536,4.557-2.643,6.913-0.723c2.508,2.044,3.011,3.709,2,7.102
	c-0.232,0.779,0.734,1.799,1.447,1.063c4.423-4.56,11.556-4.396,15.395,0.9c3.315,4.574,2.289,10.012-0.708,14.28
	c-1.11-0.613-2.299-1.009-3.331-1.095c-0.576-0.048-0.86,0.84-0.258,1.024c0.984,0.302,1.905,0.697,2.738,1.25
	c-0.39,0.752,0.369,1.48,1.124,1.388c0.091,0.214,0.27,0.38,0.538,0.38c0.048,0,0.098-0.01,0.146-0.011
	c0.556,0.861,0.896,1.819,1.53,2.64c0.372,0.483,1.351,0.286,1.354-0.39c0.005-0.959-0.356-1.868-0.935-2.684
	c2.798-1.002,5.75-3.095,7.693,0.433c1.902,3.454,0.334,7.565-2.143,10.21c-0.161,0.172-0.164,0.357-0.085,0.512
	c-0.398,0.439-0.115,1.175,0.579,1.142c3.351-0.162,7.232,1.591,6.428,5.643c-0.55,2.768-3.051,4.582-5.576,5.527
	c-0.108-0.555-0.222-1.057-0.707-1.465c-0.3-0.251-0.876-0.103-0.986,0.286c-0.238,0.836,0.171,1.401,0.452,2.19
	c0.31,0.872,0.62,1.742,0.938,2.61c0.224,0.611,1.276,0.33,1.117-0.315c-0.093-0.372-0.188-0.743-0.283-1.114
	c0.2,0.146,0.467,0.21,0.785,0.089c3.074-1.169,7.56-0.599,5.878,3.936c-0.92,2.478-3.414,2.422-4.685,4.293
	c-0.306,0.451-0.493,0.868-0.431,1.47c0.061,0.59,0.736,1.071,0.89,1.616c0.789,2.798-0.916,5.255-3.911,5.138
	c-0.122-0.521-0.348-0.992-0.763-1.297c-0.488-0.358-1.093-0.022-1.203,0.523c-0.167,0.828,0.351,1.735,0.393,2.59
	c0.049,0.987-0.165,1.962-0.558,2.864c-0.298,0.683,0.77,1.304,1.164,0.641c0.401-0.676,0.7-1.389,0.886-2.137
	c0.988,0.454,1.846,0.806,2.489,1.929c0.644,1.123,0.864,2.514,0.525,3.766c-0.837,3.088-4.241,4.312-7.189,4.189
	c-0.021-0.021-0.038-0.042-0.059-0.063c-0.475-0.47-1.134-0.312-1.481,0.067c-0.365,0.261-0.366,0.911,0.067,1.183
	c5.204,5.564,5.163,13.986-0.908,19.006c-4.366,3.61-10.038,3.894-15.078,1.951c-0.23-0.382-0.516-0.76-0.877-1.128
	c-0.626-0.639-1.838-0.058-1.422,0.861c0.015,0.031,0.024,0.058,0.038,0.088c-0.08,0.246-0.039,0.522,0.22,0.688
	c0.028,0.018,0.057,0.031,0.084,0.048c0.5,1.331,0.464,2.23-0.496,3.674c-0.331,1.358-1.137,1.853-2.418,1.485
	c-1.34,0.337-2.418-0.114-3.236-1.354c-0.429-0.509-1.49-0.498-1.684,0.258c-1.635,6.415-8.178,2.462-10.403-1.1
	c1.209-0.081,2.39-0.354,3.438-0.9c0.855-0.446,0.571-2.047-0.498-1.76c-2.662,0.715-4.943,1.198-7.681,0.417
	c-0.94-0.269-1.521,1.09-0.567,1.443c1.075,0.397,2.271,0.671,3.488,0.779c-0.102,0.176-0.162,0.386-0.119,0.652
	c0.896,5.476-20.4,7.413-19.928-4.704c0.035-0.909-1.14-1.521-1.73-0.682c-2.077,2.955-6.389,3.374-8.967,0.553
	c-1.794-1.963-1.957-4.864-1.375-7.359c1.721-2.456,3.405-4.933,5.021-7.451c0.046-0.073,0.062-0.144,0.087-0.215
	c8.568,1.586,18.01-1.995,23.908-8.27c0.102-0.109,0.155-0.226,0.185-0.345c1.378,1.539,5.353,1.255,6.96,0.958
	c0.432-0.08,0.874-0.192,1.318-0.321c-0.122,0.148-0.198,0.335-0.169,0.525c0.338,2.183,2.246,3.999,4.53,3.847
	c0.961-0.064,2.309-0.681,3.186-1.568c0.31,1.717,1.404,3.261,3.119,3.947c2.144,0.858,6.003-0.081,6.475-2.688
	c0.12-0.66-0.699-1.005-1.18-0.653c-0.675,0.496-1.093,1.179-1.874,1.564c-0.864,0.426-1.836,0.546-2.769,0.292
	c-1.795-0.49-2.804-2.27-2.746-4.041c0.676,0.011,1.385-0.125,1.691-0.657c0.151-0.263,0.13-0.711-0.235-0.81
	c-0.683-0.184-1.377,0.185-2.086,0.128c-0.776-0.062-1.485-0.421-2.079-0.912c-0.419-0.346-0.939,0.257-0.636,0.666
	c0.431,0.58,0.994,0.992,1.641,1.253c-0.183,0.35-0.354,0.708-0.649,1.006c-0.604,0.611-1.496,0.985-2.359,0.896
	c-0.88-0.091-1.666-0.641-2.154-1.361c-0.295-0.435-0.382-0.87-0.602-1.244c0.565,0.181,1.125,0.283,1.758,0.316
	c0.128,0.007,0.152-0.184,0.023-0.199c-0.734-0.088-1.405-0.289-2.069-0.576c2.379-0.856,4.675-2.413,5.666-4.666
	c0.271-0.615-0.351-1.231-0.931-1.147c0.152-0.572-0.378-1.264-1.117-1.004c-3.558,1.246-8.009,3.285-11.14,0.007
	c-3.321-3.478-1.94-8.367-0.477-12.341c0.184-0.498-0.319-0.781-0.689-0.605c-0.176-0.31-0.496-0.538-0.87-0.457
	c-2.038,0.441-3.685,1.7-4.857,3.351c-2.103-0.415-1.522-3.066-0.383-4.542c0.445-0.576-0.383-1.401-0.938-0.895
	c-1.487,1.357-3.398-0.452-2.738-2.097c0.254-0.632,0.751-1.089,1.333-1.398c0.08,0.017,0.161,0.025,0.241,0.035
	c0.174,0.661,0.594,1.268,1.302,1.367c0.377,0.053,0.72-0.373,0.54-0.727c-0.173-0.343-0.412-0.622-0.544-0.964
	c0.098-0.134,0.109-0.308,0.03-0.449c0.046-0.153,0.012-0.318-0.095-0.421c0.06-0.335,0.214-0.643,0.495-0.868
	c0.44-0.351-0.012-1.173-0.531-0.876c-0.61,0.35-1.029,0.891-1.202,1.538c-0.553-0.208-1.067-0.453-1.514-1.006
	c-0.709-0.878-1.06-2.125-0.588-3.195c0.986-2.24,4.059-2.003,5.657-0.674c0.34,0.283,0.868-0.148,0.675-0.541
	c-1.505-3.061-6.467-2.468-7.768,0.491c-0.645,1.469-0.264,3.193,0.66,4.453c0.335,0.457,0.851,0.949,1.436,1.323
	c-1.121,0.725-1.876,1.927-1.545,3.387c0.33,1.454,1.694,2.361,3.058,2.364c-0.531,1.18-0.697,2.484,0.073,3.657
	c0.393,0.596,0.966,1.053,1.595,1.253c-1.477,2.852-1.707,6.454-0.296,9.226c-2.956,3.133-7.699,6.628-12.242,6.559
	c-5.187-0.079-8.266-3.889-10.817-7.934c-3.978-6.301-5.695-13.652-7.275-20.848c-0.043-0.198-0.128-0.354-0.228-0.49
	c0.765-0.298,1.424-0.789,1.948-1.403c0.287,1.021,0.796,1.949,1.717,2.608c1.449,1.036,3.434,1.07,4.717-0.209
	c0.747-0.745-0.29-2.045-1.041-1.289c-1.172,1.182-2.838,0.497-3.583-0.845c-0.548-0.985-0.562-2.188-0.508-3.308
	c0.023-0.206,0.034-0.414,0.034-0.622c0.001-0.015,0.002-0.03,0.003-0.045c-0.001,0-0.002,0-0.003,0c0-0.072,0.004-0.144,0-0.215
	c-0.044-0.935-1.606-0.919-1.646,0.019c-0.007,0.156-0.009,0.318-0.014,0.478c-0.104,4.167-5.549,4.333-6.793,0.913
	c0.593,0.053,1.194-0.033,1.544-0.463c0.221-0.271,0.071-0.695-0.237-0.818c-0.347-0.137-0.62-0.049-0.977-0.017
	c-0.209,0.02-0.42,0.011-0.63-0.012c-0.134-0.322-0.575-0.395-0.854-0.22c-0.529-0.222-0.989-0.58-1.358-1.025
	c-0.433-0.521-1.131,0.097-0.796,0.643c0.36,0.586,0.888,1.055,1.494,1.378c-0.128,0.081-0.241,0.193-0.31,0.366
	c-0.638,1.625-2.269,3.333-4.21,2.505c-1.657-0.707-2.097-3.034-0.942-4.344c0.441-0.5-0.351-1.253-0.848-0.808
	c-2.024,1.812-1.45,5.385,0.954,6.614c2.255,1.152,5.313-0.199,6.292-2.478c0.727,1.596,2.194,2.776,4.063,2.885
	c-5.362,10.092-0.772,21.654,5.181,30.418c-2.166,2.617-4.265,5.293-6.323,8.003c0.397-0.545,0.742-1.134,1.008-1.773
	C98.547,99.326,97.784,98.891,97.461,99.366z M84.198,123.965c6.978-9.869,14.36-19.483,21.06-29.542
	c0.286-0.43,0.16-0.854-0.121-1.118c-0.009-0.061-0.012-0.12-0.038-0.182c-3.557-8.357-8.51-16.902-5.837-25.825
	c2.147,8.877,5.062,18.033,11.983,24.279c6.715,6.06,16.24,0.896,21.531-4.726c0.554-0.588,0.176-1.254-0.415-1.51
	c-0.005-0.062-0.003-0.121-0.023-0.187c-0.733-2.394-0.56-4.784,0.513-7.046c0.911-1.924,2.335-3.145,4.027-4.26
	c-1.859,4.083-2.538,9.167,0.855,12.664c3.325,3.424,8.449,2.305,12.374,0.544c-1.914,1.749-3.626,3.228-6.422,3.67
	c-1.384,0.219-2.771,0.153-4.13-0.167c-1.067-0.251-1.512-0.666-2.468-0.126c-0.107,0.061-0.185,0.166-0.167,0.295
	c-0.315-0.2-0.722-0.252-1.051,0.029c-6.938,5.911-13.934,8.066-22.979,7.979c-0.395-0.004-0.643,0.219-0.741,0.49
	c-0.122,0.054-0.24,0.131-0.346,0.258c-6.396,7.719-12.16,16.013-18.084,24.096c-5.453,7.441-12.327,14.917-16.491,23.148
	c-0.083,0.164-0.087,0.329-0.057,0.487c-0.928,1.156-1.789,2.645-1.875,4.039c-0.745-0.78-1.645-1.4-2.639-1.734
	c-2.065-0.693-4.277-0.466-6.224,0.418C72.703,141.587,78.191,132.46,84.198,123.965z M58.346,149.964
	c-1.853-0.031-3.506,1.094-4.354,2.667c-7.636-7.938-18.485-13.321-28.802-16.812c-0.23-0.078-0.436-0.052-0.615,0.019
	c0.411-2.729,2.701-5.205,5.618-5.085c3.063,0.126,4.06,2.312,5.524,4.473c0.001,0.01,0,0.02,0.001,0.03
	c0.024,0.168,0.143,0.274,0.28,0.317c0.357,0.246,0.905-0.033,0.977-0.468c0.05-0.305,0.049-0.603,0.027-0.896
	c1.591-3.195,4.646-6.017,8.506-4.851c1.913,0.579,3.43,2.166,4.181,3.984c0.49,1.189,0.479,2.318,0.442,3.487
	c-0.116,0.096-0.234,0.18-0.348,0.29c-0.283,0.272-0.04,0.685,0.323,0.607c-0.004,0.232-0.005,0.467,0.002,0.705
	c0.019,0.658,0.943,0.779,1.289,0.323c0.326-0.432,0.549-0.892,0.713-1.364c2.431-0.051,4.59,1.322,4.83,4.125
	c0.067,0.792,1.309,1.163,1.73,0.433c2.515-4.345,7.272-6.47,10.98-2.048c0.032,0.038,0.068,0.057,0.102,0.086
	c-2.696,3.897-5.278,7.854-7.564,11.926C61.257,150.765,59.87,149.99,58.346,149.964z M86.065,179.872
	c-0.435-0.732-1.319-0.729-1.786-0.298c-7.785-9.733-18.839-18.268-29.498-24.5c0.061-0.071,0.108-0.161,0.14-0.271
	c0.969-3.409,5.719-3.635,6.31,0.122c0.105,0.672,0.655,0.937,1.17,0.874c0.141,0.093,0.303,0.124,0.475,0.072
	c0.097-0.029,0.193-0.059,0.29-0.087c0.315-0.096,0.325-0.486,0.146-0.706c0.03-0.1,0.031-0.218,0.03-0.336
	c0.387-0.344,0.963-1.053,1.059-1.138c0.591-0.526,1.25-0.958,1.943-1.334c1.691-0.919,3.651-1.369,5.532-0.76
	c3.706,1.199,4.027,4.804,1.781,7.456c-0.589,0.696,0.319,1.851,1.133,1.415c0.146-0.079,0.266-0.173,0.399-0.259
	c0.187,0.179,0.457,0.274,0.74,0.166c2.279-0.872,5.269-0.557,6.495,1.871c0.87,1.723,0.228,3.016-0.193,4.501
	c-0.176,0.176-0.212,0.405-0.154,0.616c-0.046,0.216-0.087,0.435-0.11,0.664c-0.052,0.516,0.435,0.807,0.889,0.661
	c0.649-0.209,1.126-0.609,1.471-1.117c3.03-0.278,6.317,1.707,6.893,4.848c0.243,1.326-0.016,2.738-0.571,3.955
	C90.412,176.798,86.922,181.314,86.065,179.872z"/>
<path fill="#3C3C3B" d="M120.889,27.328c1.236-0.86,1.974-2.357,1.65-3.838c0.09-0.146,0.128-0.334,0.061-0.559
	c-1.119-3.75-6.719-3.831-7.646,0.098C114.122,26.555,117.777,29.491,120.889,27.328z"/>
<path fill="#3C3C3B" d="M122.127,46.245c0.067-0.453,0.036-0.864-0.07-1.229c0.126-0.192,0.169-0.43,0.031-0.687
	c-0.81-1.51-2.553-2.259-4.207-1.756c-1.605,0.488-2.458,2.076-2.207,3.701c0.247,1.593,1.559,2.938,3.222,2.893
	C120.471,49.123,121.895,47.795,122.127,46.245z"/>
<path fill="#3C3C3B" d="M99.244,39.82c2.059-2.498-1.023-6.454-3.892-4.689c-0.027,0.017-0.05,0.04-0.077,0.057
	c-1.047,0.463-1.88,1.435-1.936,2.67C93.205,40.83,97.496,41.942,99.244,39.82z M96.315,38.201c0.114-0.224,0.343-0.535,0.573-0.511
	c0.191,0.02,0.38,0.294,0.275,0.488C97.008,38.47,96.624,38.397,96.315,38.201z"/>
<path fill="#3C3C3B" d="M120.267,74.71c0.055-0.156,0.062-0.338-0.027-0.545c-1.191-2.782-4.953-2.404-5.926,0.349
	c-0.878,2.486,1.283,5.437,4.015,4.885C120.381,78.983,121.326,76.355,120.267,74.71z"/>
<path fill="#3C3C3B" d="M86.701,71.139c-0.36-0.896-1.137-1.475-2-1.708c-0.466-0.586-1.172-0.956-1.984-0.953
	c-1.372,0.004-2.468,1.141-2.856,2.385c-0.741,2.369,1.181,5.065,3.647,5.203C86.055,76.208,87.599,73.373,86.701,71.139z"/>
<path fill="#3C3C3B" d="M147.709,31.855c-0.641-1.665-2.894-2.602-4.424-1.932c-0.886,0.188-1.7,0.709-2.175,1.573
	c-1.173,2.134,0.456,5.04,2.848,5.273C146.464,37.015,148.611,34.204,147.709,31.855z"/>
<path fill="#3C3C3B" d="M170.187,26.169c-0.437-0.739-1.167-1.176-1.922-1.297c-1.405-0.36-3.069,0.336-3.541,1.799
	c-0.619,1.925,1.051,4.133,3.094,3.935C169.865,30.406,171.258,27.981,170.187,26.169z"/>
<path fill="#3C3C3B" d="M153.875,62.6c0.896-1.183,0.817-2.946-0.17-4.053c-0.285-0.319-0.636-0.543-1.015-0.694
	c-0.535-0.281-1.143-0.436-1.659-0.424c-1.588,0.033-2.807,1.265-2.988,2.818c-0.17,1.457,0.623,2.922,2.035,3.409
	C151.39,64.109,153.017,63.731,153.875,62.6z"/>
<path fill="#3C3C3B" d="M172.247,55.211C172.235,55.237,172.237,55.242,172.247,55.211L172.247,55.211z"/>
<path fill="#3C3C3B" d="M174.584,57.173c0.835-1.111,0.904-2.724-0.124-3.734c-0.442-0.435-1.042-0.699-1.654-0.775
	c-1.71-0.518-3.799,0.678-3.736,2.75c0.038,1.272,0.88,2.5,2.092,2.93C172.419,58.792,173.808,58.207,174.584,57.173z"/>
<path fill="#3C3C3B" d="M171.803,80.441c-0.202-0.279-0.445-0.491-0.709-0.654c-1.427-1.114-3.656-0.685-4.644,0.875
	c-1.339,2.117,0.552,4.497,2.832,4.552C171.753,85.273,173.276,82.48,171.803,80.441z"/>
<path fill="#3C3C3B" d="M172.707,102.9c-0.671-0.271-1.342-0.227-1.929,0.019c-1.126,0.22-2.176,1.038-2.545,2.183
	c-0.837,2.598,2.048,4.237,4.267,3.523C175.128,107.779,175.318,103.955,172.707,102.9z"/>
<path fill="#3C3C3B" d="M154.537,106.653c-0.352-0.347-0.787-0.583-1.246-0.695c-0.496-0.269-1.062-0.393-1.702-0.308
	c-1.143,0.152-2.157,0.897-2.524,2.008c-0.776,2.352,1.219,4.866,3.714,4.319C155.187,111.45,156.406,108.495,154.537,106.653z"/>
<path fill="#3C3C3B" d="M131.026,108.791c-0.39-1.112-1.436-2.001-2.642-1.997c-0.236,0.001-0.464,0.05-0.684,0.121
	c-0.818-0.272-1.719,0.134-2.28,0.801c-1.528,1.815-0.651,5.027,1.843,5.351C129.604,113.371,131.845,111.131,131.026,108.791z"/>
<path fill="#3C3C3B" d="M6.684,123.542c0.032,0.013,0.055,0.033,0.09,0.042c3.966,1.101,8.456-0.188,11.896-2.21
	c0.434-0.255,0.474-1.045,0.044-1.326c-3.313-2.16-7.544-2.084-10.662,0.143c0.544-1.545,1.051-3.111,1.732-4.6
	c1.278-2.794,2.756-5.474,4.41-8.061c0.105-0.04,0.215-0.071,0.314-0.124c-0.21,1.41,0.534,2.998,1.991,3.466
	c1.551,0.498,3.271-0.695,3.899-2.169c1.469,0.856,3.646,0.527,4.554-1.311c0.656-1.33,0.457-2.912-0.551-4.004
	c-0.229-0.249-0.516-0.481-0.836-0.68c0.281-0.13,0.494-0.313,0.569-0.719c0.175-0.951-0.086-2.032-0.768-2.732
	c-0.471-0.484-1.12-0.718-1.773-0.666c0.003-1.26-0.671-2.539-1.97-2.94c-1.35-0.418-2.713,0.326-3.414,1.487
	c-0.052,0.085-0.097,0.186-0.143,0.282c-0.263-0.269-0.575-0.49-0.928-0.621c-1.234-0.459-2.523,0.145-3.214,1.205
	c-0.726,1.113-0.697,2.539,0.089,3.614c0.091,0.125,0.217,0.26,0.355,0.396c-0.507,0.085-0.961,0.318-1.339,0.67
	c-0.899,0.838-1.337,2.211-0.862,3.383c0.414,1.021,1.514,1.596,2.631,1.667c-2.334,2.999-4.702,6.636-6.078,10.388
	c-0.35-1.33-0.943-2.608-1.685-3.731c-0.745-1.13-2.846-4.052-4.452-2.439c-1.306,1.309-0.105,4.283,0.51,5.612
	c0.971,2.098,2.506,3.875,4.537,4.971c-0.023,0.202-0.052,0.405-0.067,0.607C5.514,123.79,6.343,124.124,6.684,123.542z
	 M16.093,106.052c0.266-0.303-0.15-0.724-0.472-0.504c-0.007,0.005-0.011,0.012-0.018,0.017c-0.19-0.43-0.741-0.683-1.098-0.19
	c-0.435,0.602-0.897,1.012-1.695,0.989c-0.776-0.022-1.456-0.531-1.455-1.351c0.001-0.755,0.553-1.542,1.264-1.794
	c0.899-0.318,1.865,0.114,2.763-0.356c0.252-0.133,0.217-0.451,0.023-0.55c-0.009-0.063-0.031-0.125-0.08-0.181
	c-0.375-0.435-0.895-0.457-1.38-0.722c-0.685-0.374-1.2-1.077-1.096-1.885c0.214-1.638,2.121-1.826,2.873-0.739
	c-0.042,0.781,0.194,1.539,0.957,1.856c0.367,0.153,0.77-0.119,0.739-0.523c-0.057-0.746-0.303-1.314,0.097-2.029
	c0.322-0.577,0.991-1.137,1.689-0.855c0.801,0.324,1.079,1.307,0.889,2.131c-0.14,0.188-0.233,0.401-0.263,0.637
	c-0.092,0.134-0.198,0.255-0.327,0.351c-0.457,0.339-0.065,1.146,0.486,0.902c0.504-0.223,0.879-0.581,1.145-1.005
	c0.262-0.231,0.594-0.366,0.954-0.223c0.605,0.24,0.738,0.988,0.717,1.601c-0.286,0.132-0.572,0.263-0.854,0.403
	c-0.057,0.028-0.111,0.059-0.169,0.086c-0.513-0.028-1.015,0.07-1.441,0.375c-0.415,0.298-0.242,0.942,0.239,1.042
	c0.736,0.153,1.47,0.044,2.153,0.443c0.842,0.491,1.27,1.386,1.013,2.334c-0.42,1.548-2.093,1.92-3.108,1.166
	c-0.021-0.552-0.219-1.091-0.677-1.551c-0.064-0.065-0.144-0.101-0.226-0.125c-0.236-0.252-0.724-0.132-0.778,0.275
	c-0.093,0.124-0.145,0.273-0.106,0.438c0.188,0.821,0.398,1.431-0.125,2.205c-0.43,0.636-1.229,1.077-1.979,0.734
	C15.542,108.904,15.254,107.008,16.093,106.052z M16.42,120.673c-2.835,1.305-5.657,1.495-8.825,1.39
	C10.086,119.963,13.476,119.374,16.42,120.673z M3.628,118.816c-0.646-1.009-2.119-3.51-1.824-4.774
	c0.257-1.101,0.697-0.206,1.269,0.502c0.483,0.599,0.88,1.233,1.226,1.919c0.772,1.528,0.997,3.076,1.269,4.731
	C4.853,120.462,4.189,119.692,3.628,118.816z"/>
</svg>
