<?xml version="1.0" encoding="utf-8"?>
<!-- Generator: Adobe Illustrator 16.0.0, SVG Export Plug-In . SVG Version: 6.00 Build 0)  -->
<!DOCTYPE svg PUBLIC "-//W3C//DTD SVG 1.1//EN" "http://www.w3.org/Graphics/SVG/1.1/DTD/svg11.dtd">
<svg version="1.1" id="eqxiu.com" xmlns="http://www.w3.org/2000/svg" xmlns:xlink="http://www.w3.org/1999/xlink" x="0px" y="0px"
	 width="69.879px" height="96.805px" viewBox="0 0 69.879 96.805" enable-background="new 0 0 69.879 96.805" xml:space="preserve">
<path id="eqxiu.com_2_" fill="#FFFFFF" d="M59.706,37.102l-25.372,5.891l-4.688-20.25l25.067-6.014L50.887,0.776L5.878,11.198
	l-5.194,8.979l17.458,75.202l46.687-9.055l4.276-9.131L59.706,37.102z M46.03,60.106l1.76,5.178l-12.465,3.012l-1.272-5.408
	L46.03,60.106z"/>
<path id="eqxiu.com_1_" d="M69.879,77.672L60.187,36.33l-25.371,5.89l-4.399-19.001l25.073-6.015L51.361,0L5.303,10.873l0.006,0.024
	L0,20.075l17.769,76.542l-0.035,0.049l0.044-0.008l0.035,0.146l0.15-0.186l46.996-9.666l0.311-0.062l4.415-9.119l-0.073-0.037
	L69.879,77.672z M21.983,81.778l-4.58,7.572l-0.872-3.75l4.572-7.557L21.983,81.778z M16.22,84.252l-0.696-2.996l4.562-7.543
	l0.703,2.986L16.22,84.252z M15.211,79.909l-0.721-3.105l0.037,0.021l4.529-7.488l0.714,3.035L15.211,79.909z M14.191,75.514
	l-0.634-2.729l4.543-7.512l0.639,2.719L14.191,75.514z M13.245,71.438l-0.595-2.561l4.535-7.496l0.6,2.551L13.245,71.438z
	 M12.337,67.53l-0.536-2.307l0.037,0.021l4.504-7.445l0.526,2.24L12.337,67.53z M11.503,63.936l-0.627-2.703l4.517-7.467
	l0.633,2.691L11.503,63.936z M10.563,59.887L9.94,57.206l4.508-7.455l0.628,2.672L10.563,59.887z M9.628,55.858L9.062,53.42
	l4.5-7.44l0.571,2.428L9.628,55.858z M8.188,49.659l4.492-7.426l0.566,2.405l-4.497,7.435L8.188,49.659z M7.876,48.312l-0.699-3.008
	l4.482-7.41l0.705,2.996L7.876,48.312z M6.865,43.955l-0.633-2.729l4.472-7.395l0.64,2.719L6.865,43.955z M5.918,39.879
	l-0.587-2.528l0.001,0.001l4.464-7.38l0.592,2.517L5.918,39.879z M5.019,36.005l-0.629-2.71l4.456-7.365L9.48,28.63L5.019,36.005z
	 M4.077,31.947l-0.522-2.249l4.447-7.353l0.527,2.241L4.077,31.947z M2.78,26.361l4.44-7.34l0.466,1.983l-4.444,7.347L2.78,26.361z
	 M2.468,25.013l-0.46-1.981l4.432-7.328l0.465,1.975L2.468,25.013z M5.738,12.724l0.386,1.637l-4.43,7.322l-0.326-1.404
	L5.738,12.724z M17.715,90.698l4.583-7.576l1.116,4.744l-4.943,6.088L17.715,90.698z M25.126,88.165l3.062-0.717l-4.236,6.627
	L20.6,94.764L25.126,88.165z M64.153,79.016l-4.726,7.732l0.037,0.023l-3.663,0.752l4.433-7.59L64.153,79.016z M54.531,87.786
	l-3.355,0.689l4.557-7.426l-0.071-0.043l3.278-0.768L54.531,87.786z M49.881,88.743l-3.217,0.66l4.508-7.344l3.281-0.77
	L49.881,88.743z M45.37,89.67l-2.918,0.6l4.42-7.203l2.977-0.699L45.37,89.67z M41.193,90.53l-3.281,0.674l4.325-7.051l3.312-0.775
	l-4.38,7.137L41.193,90.53z M36.616,91.469l-3.08,0.635l4.399-6.883l-0.067-0.043l3.047-0.715L36.616,91.469z M32.218,92.375
	l-2.931,0.602l4.352-6.809l2.994-0.701L32.218,92.375z M27.97,93.249l-2.7,0.555l4.264-6.672l2.758-0.646L27.97,93.249z
	 M64.389,85.758L60.7,86.516l4.773-7.811l2.627-0.615L64.389,85.758z M24.529,86.983L6.851,11.835L50.41,1.552l3.527,14.701
	l-25.063,6.012l4.979,21.499l25.374-5.891l9.106,38.842L24.529,86.983z M32.173,57.706l2.675,11.367l17.081-4.129l-2.674-11.367
	L32.173,57.706z M49.78,61.428l-1.86,2.514l-0.283-1.281l1.847-2.494L49.78,61.428z M49.194,58.936l-1.832,2.475l-0.352-1.588
	l1.793-2.545L49.194,58.936z M48.509,56.022l-2.348,3.332l-0.238,0.057l1.366-4.035l1.01-0.244L48.509,56.022z M46.179,55.643
	l-1.365,4.031l-0.409,0.096l0.557-3.729l0.715-0.166l-0.024-0.105L46.179,55.643z M35.188,61.959l0.962-3.871l1.067-0.248
	l-0.815,3.83L35.188,61.959z M38.256,57.598l1.45-0.336l-0.812,3.816l-1.452,0.346L38.256,57.598z M40.743,57.02l1.188-0.275
	l-0.81,3.807l-1.188,0.281L40.743,57.02z M42.969,56.504l0.981-0.229l-0.558,3.734l-1.232,0.293L42.969,56.504z M35.096,58.333
	l-0.716,2.881l-0.468-2.605L35.096,58.333z M35.803,67.518l-0.972-4.133l0.003,0.002l0.005-0.021l10.982-2.551l0.984,4.045
	L35.803,67.518z M48.798,64.377l1.272-1.719l0.313,1.336L48.798,64.377z"/>
</svg>
