<?xml version="1.0" encoding="utf-8"?>
<!-- Generator: Adobe Illustrator 16.0.0, SVG Export Plug-In . SVG Version: 6.00 Build 0)  -->
<!DOCTYPE svg PUBLIC "-//W3C//DTD SVG 1.1//EN" "http://www.w3.org/Graphics/SVG/1.1/DTD/svg11.dtd">
<svg version="1.1" xmlns="http://www.w3.org/2000/svg" xmlns:xlink="http://www.w3.org/1999/xlink" x="0px" y="0px"
	 width="595px" height="333px" viewBox="0 0 595.279 333.309" enable-background="new 0 0 595.279 333.309"
	 xml:space="preserve">
	 <title>shape07</title>
<path id="XMLID_1_" fill="#FF394C" d="M76.255,164.81c6.149,1.229,11.069,3.689,13.529,7.38v1.229c0,1.229-1.229,0-1.229,0
	c-4.921-3.69-9.84-6.149-13.529-7.38c-4.919-1.229-9.839-1.229-15.988-1.229h-3.689c-6.149,0-12.3,2.459-18.448,4.919
	c-7.38,3.69-12.3,6.15-14.759,9.841c-1.23,0-2.46,0-2.46-1.23c3.688-4.919,8.608-8.608,15.987-11.069
	c6.15-2.459,12.3-3.688,18.449-4.919c1.229,0,1.229,0,2.46,0C63.955,161.12,70.106,162.35,76.255,164.81z M136.521,249.675
	c0,6.149-3.689,8.609-9.839,8.609c-2.46,0-4.92-1.23-7.38-3.69v-1.229c-2.461-3.689-3.689-6.149-3.689-9.84
	c1.229-2.46,2.46-2.46,2.46,0s0,3.689,1.229,6.149c0,0,0,1.229,1.229,1.229c1.23,2.46,3.69,3.688,6.15,3.688
	c1.229,0,2.46,0,3.688-1.229c1.229,0,2.46-1.229,2.46-3.689c0-3.689-1.229-6.149-4.92-8.609c-2.46-1.229-4.92-2.46-7.38-4.92
	c-1.229-1.229-2.459-1.229-3.689-2.46c-1.229,1.229-3.688,1.229-4.92,2.46c-1.229,0-2.459,0-4.919,0
	c-7.38,0-13.528-1.229-17.219-4.92c-3.69-3.688-7.38-7.379-9.84-12.299c0-2.46,0-3.688,1.229-3.688s2.459,1.229,2.459,2.459
	c2.46,6.149,4.921,11.068,9.841,12.3c4.92,2.46,8.608,3.688,13.528,3.688c1.229,0,2.46,0,3.689,0c1.229,0,2.46,0,3.688-1.229
	c-1.229-1.23-2.46-2.46-3.688-3.69c-3.689-2.46-6.149-6.148-8.609-11.068c-3.688-6.149-6.148-13.528-6.148-23.368
	c0-7.38,1.229-12.299,2.46-17.219c1.229-4.921,3.688-8.609,7.379-12.3c-4.919-3.689-12.299-6.149-19.68-7.38
	c-7.379-2.46-14.759-2.46-20.907-2.46c-3.689,0-7.38,0-9.84,0c-4.92,0-9.84,1.23-13.528,2.46c-7.38,2.46-13.529,4.92-19.679,9.84
	c-6.15,3.689-11.069,8.609-13.529,13.528c-3.69,4.92-4.92,11.069-4.92,18.449c0,6.148,2.46,11.068,6.148,15.988
	c3.69,3.689,8.609,6.149,13.529,6.149s8.609-1.229,12.299-3.689c3.69-2.46,7.38-6.149,9.84-9.84c3.689-3.688,7.379-7.38,11.069-9.84
	c3.689-2.459,8.609-3.688,14.759-3.688c9.84,0,18.449,3.688,23.368,9.84c0,1.229,0,1.229,0,1.229h-1.229
	c-4.92-4.92-11.069-8.608-18.449-8.608c-4.919,0-8.609,1.229-12.299,4.92c-2.46,2.46-3.689,3.688-6.149,6.148
	c-1.229,1.229-2.46,2.46-3.689,3.689c-3.689,3.689-7.38,7.38-11.068,9.84c-4.92,2.46-9.84,4.919-17.22,4.919
	c-4.919,0-11.068-2.459-14.76-7.379C2.46,212.777,0,206.627,0,199.248c0-13.529,6.149-24.599,18.448-33.208
	c9.84-7.38,22.139-11.069,36.897-12.299c3.689,0,6.149,0,9.84,0c7.379,0,14.759,1.229,22.139,2.46
	c7.379,1.229,14.759,4.919,22.139,7.379c0,0,1.229,0,1.229,1.229c2.46,1.229,4.92,2.459,6.148,3.689c1.23-1.23,2.46-2.46,2.46-3.689
	c6.149-7.38,14.76-12.3,25.828-17.22c7.38-2.459,14.76-4.919,22.14-6.148c4.92-1.23,9.84-1.23,14.759-1.23h1.229
	c-4.92,0-9.84,1.23-14.76,2.46c-6.148,1.229-12.299,3.689-18.448,6.149c-11.068,4.92-19.679,12.299-25.827,22.139
	c3.688,4.92,7.379,9.839,9.839,14.759s3.689,11.069,3.689,18.449c0,6.148-2.46,12.299-6.149,18.448
	c6.149,6.148,14.76,12.299,24.599,14.759c4.92,1.229,8.609,2.46,13.529,3.689s9.839,1.229,14.759,1.229
	c12.3,0,25.828-2.46,39.357-7.38c1.229-1.229,3.688-1.229,6.148-2.459c11.069-4.92,19.679-12.3,27.06-22.14
	c2.46-2.46,2.46-2.46,2.46,1.229c-7.381,11.069-17.22,19.679-28.288,24.599c-1.23,0-2.46,1.229-3.69,1.229
	c-13.528,4.92-27.058,7.38-40.587,7.38c-4.92,0-9.839,0-14.759-1.23c-4.92-1.229-11.069-2.459-15.989-3.688
	c-9.839-3.689-18.448-8.609-25.828-14.759c-1.229,1.229-2.46,1.229-2.46,2.46c-6.148,3.688-6.148,3.688-7.379,4.92
	c0,1.229,0,1.229,0,1.229c3.689,2.46,7.379,4.92,11.068,7.38C135.291,243.524,136.521,245.984,136.521,249.675z M116.842,194.328
	c0,6.148,1.23,11.069,3.689,17.219c1.23,3.689,3.69,7.38,7.38,11.069c3.689-4.92,6.149-9.839,6.149-15.989
	c0-12.299-3.689-23.368-12.299-30.747c0,0,0,0,0,1.229C118.073,182.029,116.842,188.178,116.842,194.328z M120.531,229.996
	c1.23-1.23,2.46-2.46,3.69-2.46c-1.23-1.23-2.46-2.46-3.69-3.689c-3.689-3.689-7.379-8.609-8.609-13.528
	c-2.459-4.92-2.459-9.841-2.459-14.761c0-6.148,1.229-11.067,2.459-15.987c1.23-2.46,2.46-4.92,3.69-7.38
	c-1.23-1.229-2.46-2.461-3.69-3.689c-1.229-1.23-2.459-1.23-2.459-1.23c-2.46,2.461-4.92,7.381-7.38,11.069
	c-1.229,4.92-2.46,9.84-2.46,17.219c0,9.841,2.46,17.221,6.149,23.369c2.46,3.689,4.92,6.149,7.38,8.609s3.688,3.688,6.148,4.92
	C118.073,231.225,119.302,229.996,120.531,229.996z M252.133,168.5c1.23,1.229,2.46,3.688,3.689,4.92c2.46,2.46,3.69,2.46,2.46,0
	c-1.229-1.229-2.46-3.69-3.689-4.92c-1.229-1.23-2.46-2.46-3.688-3.689c7.379-1.229,15.988-3.689,23.368-8.608
	c7.38-4.92,11.068-12.3,11.068-20.909c0-3.688-1.229-6.148-2.46-8.608c-2.46-2.46-4.92-3.689-8.608-3.689
	c-2.46,0-4.92,1.229-7.38,2.459c-2.46,1.23-4.919,3.69-4.919,7.379c0,1.23,0,1.23,1.229,1.23c1.229,0,2.46,0,2.46-1.23
	c1.229-2.459,2.46-3.688,3.689-4.919c1.229-1.229,3.688-2.46,4.92-2.46c2.46,0,3.688,0,6.148,2.46c1.23,2.46,2.46,4.919,2.46,7.379
	c0,7.38-3.688,13.529-11.068,18.449c-7.38,4.919-15.989,8.608-24.6,9.839h1.23C249.673,166.04,250.904,167.27,252.133,168.5z
	 M119.302,154.97c2.46-1.229,4.92-2.46,7.38-3.688c6.148-2.46,8.608-6.149,8.608-11.069c0-6.149-3.689-9.839-9.84-9.839
	c-3.688,0-4.92,1.23-7.379,3.689v1.229c-2.46,2.46-3.69,6.15-3.69,9.84c0,2.459,1.23,2.459,2.46,0c0-2.46,0-3.689,1.23-6.149
	c1.229,0,1.229-1.23,1.229-1.23c2.461-2.46,3.689-3.689,6.149-3.689c1.23,0,2.46,1.229,3.69,1.229c1.229,1.23,2.459,2.46,2.459,3.69
	c0,3.689-2.459,8.608-7.379,11.068c-1.23,1.23-2.461,1.23-3.69,2.46c-2.459,2.46-6.149,4.92-8.609,7.38
	c-1.229,1.229-2.459,2.46-2.459,3.689l1.229-1.229C113.153,159.89,116.842,157.43,119.302,154.97z M217.696,158.66
	c3.688,1.229,7.38,2.46,11.069,3.689c3.688,1.229,8.608,1.229,13.528,1.229h4.919c-6.148-6.149-13.527-11.069-20.907-14.759
	c-6.149-2.46-12.3-4.92-18.449-6.149v-2.46c0-4.92,1.229-8.608,4.92-11.068c2.46-2.46,6.148-3.69,9.84-3.69c1.229,0,2.46,0,3.689,0
	c1.229,1.23,2.46,1.23,3.688,2.46c2.46,2.46,3.69,3.69,4.92,6.149c0,1.229,1.229,1.229,1.229,1.229c1.229,0,1.229-1.229,1.229-1.229
	c-1.229-2.459-3.688-4.919-6.148-7.379c-1.23-1.23-2.46-1.23-4.92-2.46c-1.23,0-2.461,0-3.689,0c-3.69,0-8.609,1.229-12.3,3.689
	c-3.689,2.46-6.149,7.379-6.149,13.529c-3.688-1.23-7.38-1.23-11.068-1.23c-3.689,0-6.149,0-9.84,0c7.38,0,14.76,1.23,22.14,2.46
	C206.626,150.051,210.316,154.97,217.696,158.66z M403.412,226.305c0,2.46,1.23,4.92,3.69,7.38s6.148,2.46,9.839,2.46
	s7.38,0,11.069-1.229c1.229-1.229,3.689-1.229,4.92-2.459c4.92-2.46,9.839-4.92,12.299-8.609c1.23-1.229,1.23-1.229,1.23-2.46
	c0,0-1.23,0-2.461,1.229c-3.688,2.46-7.38,4.92-12.299,7.38c-1.229,1.229-2.46,1.229-3.689,1.229
	c-3.689,1.23-7.379,2.46-11.069,2.46c-7.379,0-11.069-2.46-11.069-7.38c0-2.459,2.46-3.688,4.921-3.688c1.229,0,1.229,0,2.46,1.229
	c0,1.229,1.229,1.229,1.229,1.229c1.23,1.229,1.23,1.229,2.46,1.229v-1.229c-1.229-3.689-2.46-4.92-6.148-4.92
	c-2.46,0-3.689,0-6.149,1.229C404.643,222.616,403.412,225.076,403.412,226.305z M489.508,163.58c-2.46-2.46-6.149-4.92-8.609-7.379
	c-1.229-1.23-2.46-1.23-3.688-2.46c-4.921-2.46-7.381-6.15-7.381-11.069c0-2.46,1.229-3.689,2.46-3.689
	c1.229-1.23,2.46-1.23,3.689-1.23c2.46,0,4.92,1.23,6.149,3.69c1.229,0,1.229,1.229,1.229,1.229c0,2.46,1.229,3.689,1.229,6.149
	c1.229,2.46,1.229,2.46,2.46,0c0-3.689-1.229-6.149-3.689-9.839c-1.229-1.23-1.229-1.23-1.229-1.23
	c-2.46-2.46-4.92-3.689-7.38-3.689c-6.148,0-9.84,3.689-9.84,9.839c0,4.92,2.46,8.608,8.609,11.068c2.46,0,4.92,2.46,7.38,3.689
	c2.46,2.46,6.149,4.92,8.609,7.38l1.229,1.229c0,1.229-1.229,1.229-1.229,1.229h-1.229c0,0,4.919,7.38,6.149,7.38
	c2.46,6.149,3.688,13.528,2.46,20.908c0,6.148-2.46,13.529-6.15,18.449c-3.688,4.919-8.608,9.839-13.528,13.527c0,0,0,0-1.229,0
	h-1.229c-2.46-1.229-3.688-2.46-4.92-3.688c2.46-2.46,4.92-4.92,7.38-7.38c1.229-1.229,2.46-2.459,2.46-4.919
	c1.229-1.23,2.459-3.69,2.459-4.921c1.23-4.92,2.461-9.84,2.461-14.759c0-8.608-2.461-17.219-4.92-25.828
	c0-1.229-2.46-2.46-2.46-2.46c-1.229-1.229-2.46-2.46-2.46-2.46c-2.46-1.229-3.688-3.688-6.148-4.92
	c-4.92-2.46-9.84-6.148-14.76-7.38c-7.379-3.688-14.76-4.919-22.139-6.148c-4.92-1.229-9.84-1.229-14.76-1.229h-1.229
	c4.92,1.229,9.839,1.229,14.759,2.46c6.148,1.229,12.3,3.689,18.449,6.149c2.46,1.229,4.919,2.46,7.379,4.92
	c2.46,1.229,4.92,3.688,7.38,4.919c2.46,1.229,3.688,3.689,6.148,6.149c1.23,1.229,2.46,2.459,2.46,3.689
	c1.229,1.229,1.229,2.46,2.46,3.688c0,0,0,0,1.229,0c1.229,2.46,1.229,6.149,1.229,9.841c0,3.688,0,7.379,0,11.068
	c0,6.149-1.229,12.299-3.689,17.219c-1.229,3.689-3.689,7.38-6.149,9.84c-3.688-4.921-6.148-8.609-6.148-14.76v1.229
	c0,6.149,1.229,12.3,6.148,18.449c-7.379,6.148-14.759,11.068-24.599,14.759c-4.919,1.229-8.609,2.46-13.528,3.688
	c-3.689,0-8.608,0-13.528,0c-13.529,0-25.828-2.46-39.357-7.379c-2.46-1.229-3.689-1.229-6.149-2.46
	c-11.068-4.92-19.679-12.299-27.059-22.139c-1.229-1.229-2.46-1.229-2.46-1.229s0,0,0,1.229
	c7.38,11.069,17.219,19.679,28.288,24.599c1.229,0,2.46,1.229,3.689,1.229c13.528,4.92,28.288,7.38,41.816,7.38
	c4.92,0,9.84,0,14.76-1.23c4.919-1.229,11.069-2.46,15.988-3.688c9.84-3.689,18.449-8.609,25.828-14.759
	c0,1.229,1.229,2.46,2.46,2.46c1.229,0,1.229,0,2.46,1.229l1.229,1.23l-1.229,1.229c-3.689,2.46-7.379,4.92-11.069,7.38
	c-2.46,2.459-4.92,4.919-4.92,8.609c0,6.149,3.69,8.609,9.84,8.609c3.689,0,4.92-1.23,7.381-3.69c1.229,0,1.229-1.229,1.229-1.229
	c2.46-2.46,3.689-6.148,3.689-9.839c-1.229-2.46-1.229-2.46-2.461,0c0,2.459,0,3.689-1.229,6.149l-1.229,1.229
	c-2.461,2.46-3.69,3.689-6.15,3.689c-1.229,0-2.459-1.229-3.689-1.229c-1.229,0-2.46-1.229-2.46-3.688c0-3.69,2.46-6.149,4.92-8.609
	c2.46-1.229,4.921-2.46,7.381-4.92c1.229,0,2.459-1.229,3.688-2.46c1.229,0,2.46,1.229,4.92,1.229c1.229,0,3.689,0,4.919,0
	c7.38,0,13.529-1.229,17.221-4.919c4.919-3.69,7.379-7.38,9.839-12.301c0-2.459,0-3.688-1.229-3.688s-2.46,1.229-2.46,2.46
	c-2.46,6.149-4.92,9.839-9.84,12.299c-4.919,2.46-8.609,3.69-13.529,3.69c-1.229,0-2.459,0-3.688,0s-2.46-1.23-3.689-1.23
	c1.229-1.229,2.46-2.46,3.689-3.688c2.46-3.689,6.148-7.38,8.608-11.069c3.69-4.92,6.149-13.529,6.149-23.368
	c0-6.149,0-12.3-2.459-17.219c-2.46-3.69-3.69-7.38-6.15-9.84h-1.229C490.737,166.04,490.737,164.81,489.508,163.58z
	 M318.549,138.982c0-3.69,0-4.92,2.46-7.379c2.46-1.23,3.689-2.46,6.148-2.46c1.23,0,3.69,1.229,4.92,2.46
	c2.46,1.229,3.69,2.459,3.69,4.919c1.229,1.229,1.229,1.229,2.459,1.229c1.229,0,1.229,0,1.229-1.229
	c-1.229-3.69-2.46-6.149-4.92-7.379c-2.46-1.23-4.92-2.46-7.38-2.46c-3.688,0-6.148,1.229-8.608,3.689
	c-1.229,2.459-2.459,4.919-2.459,8.609c0,8.608,3.688,15.988,11.067,20.908c7.38,4.92,14.76,7.379,23.369,8.609
	c-1.229,1.229-2.46,2.46-3.69,3.689c-1.229,1.229-2.459,2.46-3.688,4.92v1.229c1.229,0,1.229,0,2.46-1.229
	c1.229-2.46,2.46-3.689,3.689-4.92c1.229-1.229,2.46-2.46,3.689-4.921h1.229c-9.84-1.229-17.22-4.919-24.6-9.839
	C322.239,152.51,318.549,146.361,318.549,138.982z M589.131,214.007c-3.689,3.689-8.609,6.149-13.528,6.149
	c-4.92,0-8.609-1.229-12.3-3.689c-3.689-2.46-6.149-6.148-9.839-9.84c-3.69-3.689-7.381-7.379-11.069-9.839
	c-3.69-2.46-8.609-3.689-14.759-3.689c-9.84,0-18.449,3.689-23.369,9.839c-1.229,0-1.229,1.23,0,1.23h1.23
	c4.919-6.15,11.068-8.609,18.447-8.609c3.69,0,7.38,2.459,11.069,4.919c2.46,2.46,3.688,3.69,6.148,6.149
	c1.23,1.23,2.46,2.46,3.69,3.69c2.459,3.688,6.149,6.148,11.069,9.839c4.919,3.689,9.839,4.92,17.219,4.92
	c4.919,0,9.839-2.46,14.759-7.38c4.92-3.689,7.379-9.839,7.379-18.448l0,0C595.28,204.168,592.821,210.317,589.131,214.007z
	 M396.033,145.132c0-6.149-2.46-11.069-6.148-13.528c-3.69-2.46-7.38-3.69-12.3-3.69c-1.229,0-2.461,0-3.689,0
	s-3.689,1.23-4.92,2.46c-2.46,2.459-3.689,4.919-6.149,7.379c0,1.23,1.23,1.23,1.23,1.23s1.229,0,1.229-1.23
	c1.229-2.46,2.46-4.92,4.92-6.148c1.229-1.23,2.46-2.46,3.689-2.46c1.23,0,2.46,0,3.689,0c3.689,0,6.149,1.229,9.84,3.688
	c3.688,2.46,4.92,6.15,4.92,11.069v2.46c-6.15,1.229-12.3,3.688-18.449,6.148c-7.38,3.69-13.529,8.609-19.679,14.759h4.92
	c4.92,0,9.839,0,13.528-1.229c3.689-1.229,7.38-2.46,11.069-3.689c6.149-3.689,11.068-9.84,11.068-15.988
	c6.149-1.229,14.76-2.46,22.139-2.46c-3.688,0-6.148,0-9.839,0C403.412,143.901,399.723,145.132,396.033,145.132z M543.623,153.741
	c-3.688,0-6.148,0-9.839,0c-6.148,0-13.528,1.229-20.908,2.46c-7.38,1.229-14.76,4.919-20.908,7.379c0,1.229,1.229,1.229,1.229,2.46
	c7.38-3.689,13.529-6.149,20.909-7.38c7.379-2.459,14.759-2.459,22.139-2.459c3.689,0,7.38,0,9.839,0
	c8.609,1.229,15.989,2.459,23.368,6.148c-3.688-2.46-7.379-3.689-12.299-6.148C552.233,154.97,548.544,153.741,543.623,153.741z
	 M591.591,183.259c2.46,4.92,3.688,9.84,3.688,15.989c0,0,0,0,0-1.23C595.28,193.098,594.051,188.178,591.591,183.259z
	 M590.361,179.569c0,1.229,1.229,2.46,1.229,3.688C591.591,182.029,591.591,180.799,590.361,179.569L590.361,179.569z
	 M569.451,162.35c2.46,1.229,4.92,2.46,7.38,3.689c4.92,3.688,9.84,8.609,13.529,13.529c-2.46-4.92-4.92-8.609-7.38-11.069
	C579.292,166.04,574.371,163.58,569.451,162.35z M412.023,158.66c2.459-4.919,4.919-7.379,8.609-7.379
	c3.688,0,6.148,1.229,7.379,2.46c1.229,1.229,1.229,1.229,2.46,2.46c2.46,3.688,6.148,6.148,11.068,6.148
	c2.461,0,4.921-1.229,6.149-3.689c-3.688,1.229-6.149,2.46-7.379,1.229c-2.46-1.229-3.69-2.46-6.15-3.688
	c-1.229-1.23-3.688-3.69-6.148-4.92l-1.229-1.23c-1.229-1.229-2.46-1.229-6.148-1.229c-6.15,0-11.069,3.688-13.529,9.839
	c0,1.229,0,1.229,1.229,1.229S410.792,158.66,412.023,158.66z M148.82,222.616L148.82,222.616
	C150.05,222.616,148.82,222.616,148.82,222.616z M167.269,236.145c3.688,1.229,7.38,1.229,11.068,1.229
	c3.689,0,6.149-1.229,8.609-2.46c2.46-2.459,3.689-3.689,3.689-7.379c0-2.46-1.229-3.689-2.461-4.92
	c-1.229-1.229-3.688-1.229-6.148-1.229c-3.689,0-6.149,1.229-6.149,4.919c0,1.23,0,1.23,1.23,1.23c0,0,1.229,0,2.459-1.23
	c0,0,1.229,0,1.229-1.229c0-1.229,1.229-1.229,2.46-1.229c3.689,0,4.919,1.229,4.919,3.689c0,4.92-3.688,7.379-11.067,7.379
	c-3.69,0-7.38-1.229-11.069-2.459c-1.229,0-2.46-1.23-4.92-1.23c-4.92-2.46-8.609-4.92-12.299-7.379v1.229
	c3.688,3.688,8.609,6.148,13.528,8.608C163.579,234.915,166.039,234.915,167.269,236.145z M506.726,173.42
	c4.92-3.69,9.84-6.149,14.759-7.38c4.92-1.229,9.84-1.229,15.989-1.229h2.46c6.148,0,12.299,2.459,17.219,4.919
	c7.38,3.69,12.299,6.15,14.759,9.841c1.23,0,2.46,0,2.46-1.23c-3.688-4.919-8.608-8.609-15.987-11.069
	c-6.15-2.459-12.3-3.688-18.449-4.919c-1.229,0-1.229,0-2.46,0c-6.149,0-12.299,1.229-18.448,2.46
	c-6.149,1.229-11.068,3.689-13.528,7.379C505.496,172.188,504.266,173.42,506.726,173.42
	C505.496,174.649,506.726,173.42,506.726,173.42z M440.311,244.755v2.46c-3.69,1.229-7.38,2.46-12.3,3.689
	c-1.229,0-3.689,1.229-4.92,1.229c-6.149,1.229-12.3,1.229-18.448,1.229c-9.84,0-18.449-1.229-25.828-3.689
	c-3.689-1.229-6.148-2.46-9.84-3.689c-3.689-1.229-6.149-3.689-9.839-4.919c-6.149-3.69-11.069-6.15-17.219-9.841
	c-4.921-2.46-9.841-3.688-15.989-3.688c-4.92,0-8.609,1.229-12.299,3.688c-3.69,2.46-4.92,7.38-4.92,12.301
	c0,4.919,1.229,8.608,3.688,12.299c2.46,3.689,7.38,6.148,13.529,6.148c2.46,0,6.148,0,8.608-1.229c3.689-1.23,6.149-2.46,7.38-4.92
	v-1.23h-1.229c-3.689,1.23-7.379,2.46-11.069,2.46c-11.068,0-17.219-4.919-17.219-13.527c0-3.69,1.23-6.15,3.69-9.841
	c2.459-2.46,6.148-3.688,9.839-3.688c4.92,0,9.84,1.229,14.759,3.688c4.92,2.46,9.84,6.149,15.989,8.609
	c3.688,1.23,7.38,3.689,11.068,4.92c2.46,1.229,6.149,2.46,9.839,3.689c7.381,2.46,15.989,3.688,27.06,3.688
	c6.148,0,12.299,0,19.679-1.229c1.229,0,2.46,0,3.689-1.229c4.92-1.229,9.84-2.46,13.528-4.92c1.229-1.229,1.229-1.229,0-2.46
	H440.311L440.311,244.755z M281.652,232.456c-3.69-3.69-7.38-6.15-12.3-6.15s-11.069,1.23-15.988,3.69
	c-4.92,2.46-11.069,6.148-17.22,9.839c-3.689,1.23-6.149,3.689-9.839,4.92c-3.689,1.229-6.149,2.46-9.841,3.689
	c-7.379,2.46-15.987,3.688-25.827,3.688c-6.149,0-12.3,0-18.448-1.229c-2.46,0-3.69-1.229-4.92-1.229
	c-3.689-1.229-8.609-2.46-12.299-3.689h-2.46c0,0,0,1.229,1.229,2.46c3.69,2.46,8.609,3.688,13.529,4.92c1.229,0,2.46,0,3.688,1.229
	c6.15,1.23,13.529,1.23,19.68,1.23c11.068,0,19.679-1.23,27.059-3.689c3.688-1.229,6.149-2.46,9.839-3.689
	c3.69-1.229,7.38-3.689,11.069-4.92c6.149-3.689,11.068-6.149,15.988-8.609c4.921-2.459,9.84-3.689,14.76-3.689
	s7.38,1.23,9.84,3.689c2.46,2.46,3.688,6.15,3.688,9.84c0,9.839-6.148,13.529-17.219,13.529c-3.688,0-7.38-1.23-11.069-2.46h-1.229
	c0,0,0,0,0,1.229c1.229,2.46,3.689,3.69,7.379,4.92c3.69,1.23,6.149,1.229,8.609,1.229c6.148,0,11.068-1.229,13.528-6.149
	c2.46-3.688,3.689-7.379,3.689-12.299S285.341,234.915,281.652,232.456z M164.809,156.201c1.229-1.23,1.229-2.46,2.46-2.46
	c2.46-2.46,4.92-2.46,7.38-2.46c3.688,0,6.148,2.46,8.608,7.379c1.229,1.229,1.229,1.229,2.461,1.229
	c1.229,0,1.229-1.229,1.229-1.229c-2.46-6.149-6.149-9.839-13.529-9.839c-2.46,0-4.92,1.229-6.148,2.46c0,0-1.229,0-1.229,1.229
	c-2.46,1.23-3.689,3.69-6.149,4.92c-1.229,1.229-3.689,2.46-6.149,3.689c-1.229,1.229-3.688,0-4.92,0
	c1.229,1.229,3.69,1.229,4.92,1.229C158.659,162.35,162.349,159.89,164.809,156.201z M148.82,161.12
	c-1.229,0-1.229-1.229-2.459-1.229C147.59,159.89,147.59,161.12,148.82,161.12z M312.399,62.727c8.609-8.609,8.609-20.909,0-29.519
	c-3.688-3.689-8.609-6.148-14.759-6.148V0.001l-1.229,27.06c-4.92,0-9.84,2.459-13.529,6.148c-8.608,8.609-8.608,20.909,0,29.519
	c3.689,3.689,7.381,4.919,12.3,6.148l-2.46,98.394l3.689,166.038l3.689-166.038l-2.46-98.394
	C303.789,68.877,308.71,66.417,312.399,62.727z M314.859,94.705c7.38,7.379,18.449,7.379,24.599,0c7.38-7.38,7.38-18.449,0-24.599
	c-7.38-7.379-18.448-7.379-24.599,0C308.71,76.256,308.71,87.325,314.859,94.705z M276.732,95.935
	c7.379-7.379,7.379-18.449,0-24.599c-7.38-7.379-18.449-7.379-24.6,0c-7.38,7.379-7.38,18.449,0,24.599
	C259.513,103.314,270.582,103.314,276.732,95.935z"/>
</svg>
