<?xml version="1.0" encoding="utf-8"?>
<!-- Generator: Adobe Illustrator 16.0.0, SVG Export Plug-In . SVG Version: 6.00 Build 0)  -->
<!DOCTYPE svg PUBLIC "-//W3C//DTD SVG 1.1//EN" "http://www.w3.org/Graphics/SVG/1.1/DTD/svg11.dtd">
<svg version="1.1" id="eqxiu.com" xmlns="http://www.w3.org/2000/svg" xmlns:xlink="http://www.w3.org/1999/xlink" x="0px" y="0px"
	 width="75.444px" height="95.264px" viewBox="0 0 75.444 95.264" enable-background="new 0 0 75.444 95.264" xml:space="preserve">
<path fill="#FFFFFF" d="M74.604,68.82l-0.3,10.332l-45.417,15l-6.917-19l3.059-5.495l7.268-2.362l-1.826-5.809l-16.416,4.333
	L0.97,25.486l7.259-10.68L52.64,0.837l5.021,15.062l-2.024,7.003L42.75,26.806l1.942,5.827l16.734-4.812L74.604,68.82z"/>
<path fill="#070001" d="M75.401,68.564L62.222,27.565c-0.139-0.432-0.594-0.673-1.027-0.549l-15.963,4.59l-1.278-3.838l12.309-3.928
	c0.281-0.089,0.494-0.319,0.562-0.607c0,0,1.637-7.584,1.635-7.592c-0.002-0.003-0.002-0.007-0.002-0.009L53.434,0.572
	C53.29,0.14,52.825-0.099,52.39,0.039L7.978,14.007c-0.107,0.034-0.722,0.313-0.856,0.509l-6.973,10.04
	c-0.147,0.214-0.188,0.482-0.109,0.73l13.108,41.139c0.139,0.434,0.597,0.676,1.031,0.551l15.561-4.521l1.533,4.295l-6.502,2.113
	c-0.027,0.009-3.845,6.235-3.845,6.235c-0.125,0.217-0.146,0.479-0.058,0.713l7.163,18.953c0.001,0.003,0.987,0.516,1.037,0.5
	c0.002-0.001,0.006-0.001,0.009-0.003l45.791-15.188c0.342-0.113,0.572-0.433,0.572-0.794
	C75.441,79.279,75.459,68.747,75.401,68.564z M43.829,26.051l-0.351,0.112l-1.057-4.062l1.979-0.69L43.829,26.051z M47.104,25.006
	l-1.96,0.626l0.578-4.684l1.967-0.688L47.104,25.006z M50.032,24.073l-1.611,0.514l0.592-4.786l1.616-0.562L50.032,24.073z
	 M53.083,22.968c-0.006,0.046-0.006,0.09-0.002,0.133l-1.735,0.554l0.604-4.877l1.727-0.604L53.083,22.968z M55.298,22.394
	l-0.916,0.292l0.614-4.973l1.507-0.524L55.298,22.394z M1.758,25.171l5.784-8.328l0.712,2.143l-6.02,7.683L1.758,25.171z
	 M2.613,27.854c0.18-0.006,6.115-7.44,6.115-7.44l0.63,1.896l-6.051,7.724L2.613,27.854z M3.69,31.234
	c0.173-0.011,0.342-0.089,0.456-0.236l5.688-7.26l0.587,1.77l-6.081,7.764L3.69,31.234z M4.783,34.659
	c0.069-0.039,0.135-0.09,0.187-0.156l5.927-7.565l0.659,1.981l-6.246,7.394L4.783,34.659z M5.759,37.726l6.244-7.393l0.533,1.779
	l-6.089,7.771L5.759,37.726z M6.766,40.886c0.054,0.016,0.108,0.027,0.164,0.027c0.188,0,0.371-0.083,0.494-0.241l5.552-7.087
	l0.581,1.941l-6.041,7.712L6.766,40.886z M7.934,44.551c0.119-0.035,0.23-0.104,0.312-0.21l5.751-7.343l0.462,1.545
	c-0.021,0.021-0.042,0.034-0.061,0.058l-5.943,7.588L7.934,44.551z M8.917,47.634l5.979-7.633l0.521,1.741
	c-0.078,0.04-0.151,0.092-0.209,0.166l-5.771,7.365L8.917,47.634z M9.899,50.721l5.938-7.578l0.522,1.748
	c-0.031,0.026-0.063,0.056-0.091,0.091l-5.827,7.438L9.899,50.721z M10.902,53.865l5.893-7.521l0.689,2.307l-5.859,7.48
	L10.902,53.865z M12.083,57.571c0.009-0.01,0.02-0.017,0.026-0.027l5.814-7.422l0.398,1.329L12.5,58.883L12.083,57.571z
	 M13.566,62.227l-0.604-1.896l5.801-7.405l0.578,1.932L13.566,62.227z M16.181,64.649l-1.687,0.49l-0.468-1.469l5.755-7.346
	l0.45,1.507l-4.009,6.728C16.206,64.589,16.193,64.619,16.181,64.649z M17.934,64.141l2.99-5.018
	c0.192,0.085,1.232-0.057,1.351-0.071l-2.759,4.629L17.934,64.141z M21.284,63.166l2.791-4.682l1.817-0.59l-2.835,4.757
	L21.284,63.166z M24.824,62.138l2.88-4.831l2.927-0.95c0.001,0-3.15,4.876-3.143,5.007L24.824,62.138z M30.978,61.018
	c-0.15-0.261-0.421-0.425-0.717-0.425c-0.077,0-1.103,0.285-1.103,0.285l3.104-4.72c0.074-0.112,0.106-0.239,0.103-0.364l2.14-0.693
	L30.978,61.018z M35.02,65.53l-2.155,0.701c0,0,0.054-0.865,0.149-1.02l5.268-8.491l0.66,2.229L35.02,65.53z M39.427,60.587
	l0.949,3.202l-3.544,1.152L39.427,60.587z M37.571,55.482l-5.423,8.744l-0.614-1.723c0.024-0.028,0.052-0.057,0.072-0.092
	l4.239-7.112c0.121-0.201,1.557-1.142,1.557-1.142S37.627,55.394,37.571,55.482z M22.574,75.589l2.261-3.92l0.437,1.275
	c-0.171,0.027-2.414,3.396-2.414,3.396L22.574,75.589z M23.413,77.81l2.291-3.604l0.053,0.152l0.339,0.989
	c-0.021,0.023-0.042,0.048-0.059,0.075l-2.211,3.478L23.413,77.81z M24.378,80.366l2.232-3.511l0.458,1.336l-2.203,3.466
	L24.378,80.366z M25.354,82.948c0.137-0.043,0.261-0.129,0.342-0.259l1.896-2.979l0.535,1.562l-2.136,3.357L25.354,82.948z
	 M28.544,89.75l-0.151,1.238l-0.892-2.36l1.458-2.291L28.544,89.75z M28.981,83.962l-2.033,3.2l-0.41-1.084
	c0.029-0.031,0.06-0.062,0.083-0.1l2.026-3.188l0.381,1.111C29.012,83.922,28.995,83.94,28.981,83.962z M28.121,76.096l-2.024-5.905
	l15.925-5.175c0.215-0.069,0.605-0.857,0.533-1.069l-3.682-11.121c-0.055-0.18-0.938-1.045-1.354-0.902l-14.869,5.081L9.268,15.355
	L52.107,1.882l4.494,13.48l-15.934,5.179c-0.212,0.068-0.389,0.22-0.488,0.419s-0.117,0.431-0.047,0.643l3.766,11.295
	c0.143,0.427,0.596,0.663,1.025,0.54l15.954-4.587l12.681,39.447l-42.99,14.937L28.121,76.096z M31.207,92.792l-1.403,0.465
	l1.013-8.332l1.601-0.534L31.207,92.792z M34.027,91.856l-1.489,0.494l1.211-8.407l1.489-0.499L34.027,91.856z M37.593,90.674
	l-2.234,0.741l1.212-8.417l2.235-0.749L37.593,90.674z M40.874,89.586l-1.948,0.646l1.213-8.429l1.949-0.652L40.874,89.586z
	 M44.266,88.46l-2.062,0.686l1.216-8.44l2.062-0.689L44.266,88.46z M47.901,87.255l-2.304,0.765l1.217-8.451l2.307-0.772
	L47.901,87.255z M51.698,85.996l-2.466,0.817l1.22-8.464l2.467-0.826L51.698,85.996z M55.434,84.756l-2.405,0.799l1.222-8.477
	l2.406-0.807L55.434,84.756z M58.638,83.694l-1.873,0.62l1.223-8.489l1.873-0.627L58.638,83.694z M62.313,82.476l-2.345,0.776
	l1.225-8.5l2.346-0.785L62.313,82.476z M66.015,81.247l-2.371,0.786l1.228-8.513l2.371-0.794L66.015,81.247z M69.769,80.002
	l-2.423,0.805l1.229-8.525l2.424-0.812L69.769,80.002z M73.768,78.676L73.768,78.676l-2.667,0.886l1.229-8.538l1.438-0.481V78.676z"
	/>
</svg>
