<?xml version="1.0" encoding="utf-8"?>
<!-- Generator: Adobe Illustrator 17.0.0, SVG Export Plug-In . SVG Version: 6.00 Build 0)  -->
<!DOCTYPE svg PUBLIC "-//W3C//DTD SVG 1.1//EN" "http://www.w3.org/Graphics/SVG/1.1/DTD/svg11.dtd">
<svg version="1.1" id="图层_1" xmlns:ev="http://www.w3.org/2001/xml-events"
	 xmlns="http://www.w3.org/2000/svg" xmlns:xlink="http://www.w3.org/1999/xlink" x="0px" y="0px" width="160px" height="11px"
	 viewBox="0 0 160 11" enable-background="new 0 0 160 11" xml:space="preserve">
<path fill="#F9AB10" d="M6,0l1.978,3.457L12,4.202L9.2,7.083L9.708,11L6,9.324L2.292,11L2.8,7.083L0,4.202l4.022-0.745L6,0"/>
<path fill="#F9B721" d="M22,0l1.978,3.457L28,4.202l-2.8,2.881L25.708,11L22,9.324L18.292,11L18.8,7.083L16,4.202l4.022-0.745L22,0"
	/>
<path fill="#FBC02D" d="M39,0l1.978,3.457L45,4.202l-2.8,2.881L42.708,11L39,9.324L35.292,11L35.8,7.083L33,4.202l4.022-0.745L39,0"
	/>
<path fill="#F9CD48" d="M55,0l1.978,3.457L61,4.202l-2.8,2.881L58.708,11L55,9.324L51.292,11L51.8,7.083L49,4.202l4.022-0.745L55,0"
	/>
<path fill="#F7DA64" d="M72,0l1.978,3.457L78,4.202l-2.8,2.881L75.708,11L72,9.324L68.292,11L68.8,7.083L66,4.202l4.022-0.745L72,0"
	/>
<path fill="#F7E083" d="M88,0l1.978,3.457L94,4.202l-2.8,2.881L91.708,11L88,9.324L84.292,11L84.8,7.083L82,4.202l4.022-0.745L88,0"
	/>
<path fill="#F8E59B" d="M105,0l1.978,3.457L111,4.202l-2.8,2.881L108.708,11L105,9.324L101.292,11l0.508-3.917L99,4.202l4.022-0.745
	L105,0"/>
<path fill="#F6E7A9" d="M121,0l1.978,3.457L127,4.202l-2.8,2.881L124.708,11L121,9.324L117.292,11l0.508-3.917L115,4.202
	l4.022-0.745L121,0"/>
<path fill="#F9EEC1" d="M138,0l1.978,3.457L144,4.202l-2.8,2.881L141.708,11L138,9.324L134.292,11l0.508-3.917L132,4.202
	l4.022-0.745L138,0"/>
<path fill="#FFFAE7" d="M154,0l1.978,3.457L160,4.202l-2.8,2.881L157.708,11L154,9.324L150.292,11l0.508-3.917L148,4.202
	l4.022-0.745L154,0"/>
</svg>
