<?xml version="1.0" encoding="utf-8"?>
<!-- Generator: Adobe Illustrator 16.0.0, SVG Export Plug-In . SVG Version: 6.00 Build 0)  -->
<!DOCTYPE svg PUBLIC "-//W3C//DTD SVG 1.1//EN" "http://www.w3.org/Graphics/SVG/1.1/DTD/svg11.dtd">
<svg version="1.1" id="eqxiu.com" xmlns="http://www.w3.org/2000/svg" xmlns:xlink="http://www.w3.org/1999/xlink" x="0px" y="0px"
	 width="139.154px" height="53.667px" viewBox="0 0 139.154 53.667" enable-background="new 0 0 139.154 53.667"
	 xml:space="preserve">
<path id="eqxiu.com_2_" fill="#EA756A" d="M0.119,48.799c0,0,0,0-0.119-3.681C10.567,43.219,10.924,0,10.924,0h2.849
	c0.119,9.38-1.662,25.053-1.662,25.053C8.311,48.442,0.119,48.799,0.119,48.799z M109.234,47.374H26.477V0h3.681l0.119,43.575H67.44
	v-3.919H48.324v-3.443H67.44v-3.442H48.324V17.335h41.082v15.554H70.765v3.324l18.641-0.118v3.562H70.883v3.919h34.67l0.118-29.802
	l3.206,0.119c27.427,2.019,24.577,21.609,24.577,21.609s0,0-2.612,0c-0.712-18.047-21.608-18.166-21.608-18.166V47.374z
	 M62.216,26.952v-3.918h4.987v-1.188h3.562v1.247l4.88-0.015l-0.013,3.874h-4.63l-0.06,2.79h14.782v-8.727H52.064v8.727h15.198
	l-0.059-2.73L62.216,26.952z M91.899,15.792H46.662v-3.918l7.124,0.119l-0.119-5.343L48.443,6.53V2.968h15.792L61.266,0h7.124
	l4.156,3.265h16.623V6.53h-5.581v5.462h8.312V15.792z M80.008,6.768H57.763v5.343h22.245V6.768z M133.099,3.028V0h-3.562v3.028
	h-22.44V0h-3.562v3.028h-5.343V6.59h5.343v5.343h3.562V6.59h22.44v5.343h3.562V6.59h6.055V3.028H133.099z M0,53.667h137.492v-2.968
	H0V53.667z"/>
<path id="eqxiu.com_1_" fill="#EEF2C7" d="M26.868,7.417c-0.112-0.096-0.126-0.265-0.03-0.377l2.583-3.028
	c0.096-0.112,0.265-0.125,0.376-0.03c0.113,0.096,0.126,0.265,0.03,0.377l-2.583,3.027c-0.053,0.062-0.128,0.094-0.203,0.094
	C26.98,7.48,26.918,7.459,26.868,7.417z M29.412,5.803l-1.781,2.315c-0.089,0.117-0.068,0.285,0.049,0.375
	c0.048,0.038,0.105,0.056,0.163,0.056c0.08,0,0.159-0.036,0.212-0.104l1.781-2.315c0.089-0.117,0.067-0.285-0.049-0.375
	C29.67,5.665,29.502,5.687,29.412,5.803z M51.045,20.772l-1.959,2.76c-0.085,0.121-0.057,0.287,0.063,0.373
	c0.046,0.033,0.101,0.049,0.154,0.049c0.084,0,0.167-0.039,0.218-0.112l1.959-2.761c0.085-0.12,0.057-0.287-0.063-0.373
	C51.297,20.623,51.129,20.652,51.045,20.772z M51.039,23.542l-0.979,1.514c-0.08,0.124-0.045,0.29,0.079,0.37
	c0.045,0.029,0.095,0.042,0.145,0.042c0.088,0,0.174-0.042,0.225-0.122l0.979-1.514c0.08-0.124,0.044-0.289-0.08-0.369
	S51.119,23.418,51.039,23.542z M31.317,44.183l-4.364,1.514c-0.139,0.049-0.213,0.201-0.165,0.341c0.039,0.11,0.142,0.18,0.252,0.18
	c0.029,0,0.059-0.005,0.087-0.015l4.364-1.514c0.139-0.049,0.213-0.201,0.165-0.341C31.609,44.209,31.459,44.135,31.317,44.183z
	 M70.349,36.733l-2.404,1.603c-0.123,0.082-0.156,0.248-0.074,0.37c0.052,0.077,0.137,0.119,0.223,0.119
	c0.051,0,0.103-0.015,0.148-0.045l2.404-1.603c0.123-0.082,0.156-0.248,0.074-0.37C70.638,36.685,70.472,36.65,70.349,36.733z
	 M87.498,28.037l-3.295,3.206c-0.105,0.103-0.107,0.271-0.005,0.378c0.052,0.053,0.122,0.08,0.191,0.08
	c0.067,0,0.134-0.024,0.187-0.075l3.295-3.206c0.105-0.103,0.107-0.272,0.005-0.378C87.773,27.937,87.604,27.934,87.498,28.037z
	 M82.573,11.327l-1.604,2.137c-0.088,0.118-0.064,0.285,0.054,0.374c0.048,0.036,0.104,0.053,0.16,0.053
	c0.081,0,0.161-0.037,0.214-0.107L83,11.647c0.089-0.118,0.064-0.285-0.053-0.374C82.828,11.185,82.661,11.209,82.573,11.327z
	 M82.14,10.647c-0.12-0.086-0.288-0.058-0.372,0.062l-1.977,2.761c-0.086,0.12-0.059,0.287,0.062,0.373
	c0.047,0.034,0.102,0.05,0.155,0.05c0.083,0,0.165-0.039,0.217-0.112l1.977-2.76C82.288,10.899,82.26,10.733,82.14,10.647z
	 M108.349,15.154c0.106-0.102,0.111-0.271,0.01-0.377c-0.102-0.107-0.271-0.111-0.378-0.01l-1.781,1.692
	c-0.106,0.102-0.111,0.271-0.01,0.377c0.053,0.056,0.124,0.083,0.194,0.083c0.066,0,0.132-0.024,0.184-0.074L108.349,15.154z
	 M109.129,15.623l-2.494,2.627c-0.102,0.107-0.097,0.276,0.01,0.377c0.052,0.049,0.118,0.073,0.185,0.073
	c0.07,0,0.141-0.028,0.193-0.083l2.493-2.627c0.102-0.107,0.098-0.276-0.01-0.378S109.231,15.515,109.129,15.623z M134.138,3.975
	c-0.066-0.131-0.228-0.184-0.359-0.116l-3.651,1.87c-0.132,0.067-0.184,0.228-0.116,0.359c0.048,0.092,0.142,0.146,0.238,0.146
	c0.041,0,0.083-0.009,0.121-0.029l3.651-1.87C134.154,4.267,134.206,4.106,134.138,3.975z"/>
</svg>
