<?xml version="1.0" encoding="utf-8"?>
<!-- Generator: Adobe Illustrator 16.0.0, SVG Export Plug-In . SVG Version: 6.00 Build 0)  -->
<!DOCTYPE svg PUBLIC "-//W3C//DTD SVG 1.1//EN" "http://www.w3.org/Graphics/SVG/1.1/DTD/svg11.dtd">
<svg version="1.1" id="eqxiu.com" xmlns="http://www.w3.org/2000/svg" xmlns:xlink="http://www.w3.org/1999/xlink" x="0px" y="0px"
	 width="78.893px" height="81.359px" viewBox="0 0 78.893 81.359" enable-background="new 0 0 78.893 81.359" xml:space="preserve">
<path id="eqxiu.com_1_" fill="#FF5050" d="M64.583,48.947c4.982,2.884,20.59,1.966,11.541-10.229
	c-9.051-12.195-39.346-3.934-39.346-3.934c2.756-6.295,20.066-7.213,21.901-12.591c1.837-5.376-9.178-8.394-9.178-8.394
	c5.769-3.408,3.933-5.639,3.933-5.639c-2.884-3.017-5.378,0.262-9.182-0.919c-3.802-1.18,1.706-7.738-3.146-7.213
	s-4.329,6.82-5.508,8.918c-1.182,2.098-7.606,0.131-9.18,1.967c-1.574,1.837,4.722,8.525,4.722,8.525S18.682,26.914,21.042,30.98
	c2.36,4.063,6.688,2.097,8.524,1.44c1.836-0.655,0.392,2.887-0.133,4.458c-0.522,1.575-10.229,6.82-18.357,10.36
	c-8.133,3.541-10.36,0.262-11.019,2.492c-0.655,2.229,4.066,6.688,11.147,6.557c0.837-0.016,1.797-0.201,2.834-0.514
	c0.125,0.402,0.151,1.124-0.475,2.22c-1.049,1.835-5.113,8.916-0.263,14.949c4.853,6.032,14.164,8.263,15.737,2.623
	c1.573-5.642-2.359-9.966,7.082-11.018c0,0,7.604,8.132,11.277,4.328c3.672-3.803-0.13-8.524-0.13-8.524l3.208-0.949
	c0.555,3.381,1.129,9.541-1.373,12.229C45.563,75.435,34.94,69.14,34.94,69.14c0.788,3.935,5.901,12.721,14.688,12.194
	c8.077-0.481,9.062-4.948,9.576-6.789c0.047-0.135,0.091-0.272,0.13-0.422c0.026-0.076,0.048-0.184,0.066-0.309
	c0.515-2.732-0.164-9.29-0.505-12.174c-0.101-1.357,0.389-1.916,0.9-2.14c0.663-0.145,1.372-0.066,1.372-0.066
	c6.426,1.049,11.275,1.441,9.181-3.673c-2.1-5.113-6.951-3.017-8.263-4.327C60.774,50.124,64.583,48.947,64.583,48.947z
	 M24.848,58.65c-1.18,1.312-1.968,8.394-1.837,10.229c0.13,1.836-1.967,3.935-4.458,3.017c-2.492-0.917-5.114-4.458-3.279-9.703
	c1.838-5.247,8.655-6.033,8.655-6.033C26.289,55.764,24.848,58.65,24.848,58.65z M58.157,46.979
	c-2.757-1.836-10.755-4.459-10.755-4.459l1.673,3.561c0.677,2.017,1.219,4.799,0.738,7.984c-0.003,0.017-0.003,0.031-0.006,0.047
	l-8.045,1.652l0.212-0.283c0.938-0.871,3.712-3.739,3.068-6.609c-0.115-0.504-0.503-0.92-1.081-1.261
	c-0.434-0.352-1.251-0.621-2.274-0.831c-2.578-0.605-6.064-0.712-8.393-0.703c-0.907-0.018-1.615-0.02-1.99-0.018
	c0.608-0.55,2.503-2.07,6.254-3.613c13.398-5.18,24.426-3.042,26.235-2.68c1.968,0.393,2.755,3.016,0.656,4.459
	C62.354,45.667,58.157,46.979,58.157,46.979z"/>
</svg>
