<?xml version="1.0" encoding="utf-8"?>
<!-- Generator: Adobe Illustrator 17.0.0, SVG Export Plug-In . SVG Version: 6.00 Build 0)  -->
<!DOCTYPE svg PUBLIC "-//W3C//DTD SVG 1.1//EN" "http://www.w3.org/Graphics/SVG/1.1/DTD/svg11.dtd">
<svg version="1.1" id="图层_1" xmlns="http://www.w3.org/2000/svg" xmlns:xlink="http://www.w3.org/1999/xlink" x="0px" y="0px"
	 width="609.125px" height="510.962px" viewBox="0 0 609.125 510.962" enable-background="new 0 0 609.125 510.962"
	 xml:space="preserve">
<path transform="translate(0.000000,1024.000000) scale(0.100000,-0.100000)" fill="#FF2E2E" d="M4840.41,10228.185
	c-16.064-7.739-39.277-16.069-50.586-18.447c-11.309-2.383-38.672-14.878-60.703-27.378c-21.416-13.091-46.406-23.208-54.15-23.208
	c-11.309,0-22.021-9.521-44.639-39.873c-16.064-22.617-30.938-45.229-32.725-50.586c-4.17-11.904,8.926-17.856,28.564-13.091
	c26.191,6.548,36.895-5.952,43.438-49.399c4.17-29.756,4.17-42.251-0.586-46.416c-28.574-24.995-45.82-52.368-45.82-74.39
	c0-12.5-2.383-24.995-5.957-26.782c-2.979-1.782-5.957-12.495-5.957-23.804s-2.383-22.021-5.947-23.804
	c-2.979-1.787-5.947-10.713-5.947-19.639s-6.543-29.165-14.287-45.825c-14.287-29.16-14.287-29.756-2.979-31.543
	c30.947-5.356,17.852-42.847-17.852-53.56c-13.691-4.165-24.395-10.117-24.395-12.5c0-2.974-12.5-20.229-27.969-38.682
	c-19.648-23.804-30.352-32.729-36.904-29.756c-5.361,1.787-25.596,5.952-45.225,8.33c-19.648,2.979-41.074,7.144-48.203,8.931
	c-11.309,3.569-13.691-2.383-32.734-63.682c-11.309-36.895-19.648-72.007-18.457-78.555c0.605-5.952-4.16-20.234-11.299-30.947
	c-7.744-13.091-10.713-24.399-8.33-32.729c2.969-8.33,0-16.66-8.926-26.182c-18.457-19.639-11.914-45.234,14.873-60.107
	c20.234-10.713,20.83-10.713,33.916,1.787c7.744,6.543,25.596,14.873,39.883,18.438c22.012,5.361,28.564,4.766,44.629-5.352
	c10.117-5.947,25.586-11.309,34.512-11.309c13.105,0,17.266,4.17,23.809,25.596c7.734,23.203,10.713,25.586,36.309,30.352
	c24.395,4.756,31.533,3.564,59.512-10.117c17.256-8.926,35.703-16.074,41.66-16.074c5.352,0,10.117-4.16,10.117-8.926
	c0-4.756,12.49-15.469,27.363-24.395c47.617-27.969,76.777-83.916,53.564-102.959c-4.16-3.574-38.076-7.734-75.576-9.521
	c-61.299-2.979-68.438-4.17-82.725-17.852c-10.117-9.521-22.607-14.883-35.107-14.883c-16.074,0-20.234-2.979-25-17.852
	c-5.947-15.479-9.521-17.852-27.969-17.852c-12.5,0-27.969-4.766-34.512-10.713c-17.852-13.691-38.086-56.533-38.086-78.556
	c0-11.903-3.574-19.639-10.127-22.021c-5.947-1.787-18.447-10.713-28.564-19.64c-20.234-18.446-66.65-35.713-96.406-35.713
	c-16.66,0-19.639-2.373-19.639-14.276c0-14.287-48.799-65.47-76.768-80.342c-19.648-10.713-91.055-2.979-110.098,11.903
	c-9.531,7.14-23.809,11.31-42.256,11.31h-27.373l-24.404-50.586l-23.799-50.586l23.799-27.979
	c13.096-16.063,29.16-33.319,35.713-39.268c6.543-5.957,10.703-15.479,8.926-20.83c-2.988-10.713-40.469-41.064-70.82-56.543
	c-10.117-5.353-25.596-20.83-35.117-35.107c-36.299-55.351-57.129-76.181-75.586-76.181c-9.512,0-27.363-6.543-39.268-14.873
	c-14.873-10.117-29.756-14.883-47.021-14.883c-13.691,0-26.777-2.97-28.564-6.543c-2.383-3.574-19.639-5.353-40.459-4.756
	c-20.244,1.182-47.021-1.787-58.926-5.957c-14.883-4.767-25.586-5.353-32.734-1.787c-7.734,4.766-14.277,2.979-25-5.353
	c-7.734-5.957-22.012-11.309-31.533-11.309c-27.373,0-102.959-35.703-164.854-77.363l-55.938-36.903l-19.629,9.53
	c-14.883,7.14-20.234,13.086-20.234,24.396c0,14.883,0,14.883-21.426,5.946c-32.148-13.086-55.352-11.299-113.672,11.31
	c-28.574,10.713-63.086,22.021-76.177,23.809c-27.974,4.767-36.899,11.31-55.942,38.086c-11.304,16.064-16.665,19.043-38.687,19.043
	c-13.687,0-54.15,5.361-89.858,11.904c-43.442,7.733-66.655,10.117-70.82,5.946c-9.521-9.521-66.65-7.139-158.896,6.554
	c-64.277,9.521-88.081,10.713-98.794,5.946c-10.708-4.766-18.442-4.766-31.538,2.383c-9.521,4.756-30.947,8.926-47.607,8.926
	c-27.373,0-29.756,1.191-29.756,13.691c0,7.733-8.931,22.011-20.239,33.319c-16.064,15.479-23.208,31.543-36.299,76.769
	c-10.117,33.926-21.421,61.299-27.974,66.063c-5.952,4.17-10.708,15.47-10.708,25c0,15.47-1.787,17.256-19.048,17.256
	c-14.878,0-29.155,7.734-55.342,29.756c-19.639,16.66-41.069,31.533-47.612,33.32c-6.543,1.786-23.804,14.883-38.682,29.16
	c-25.591,24.403-28.564,25.596-74.39,29.16c-29.756,2.383-75.581,12.5-123.193,27.383l-75.581,23.799l-6.543,22.617
	c-8.335,30.946-8.335,32.139,11.904,54.756c14.878,17.852,17.261,26.182,17.852,54.149c0,23.214,2.974,36.31,9.521,41.66
	c13.091,10.713,6.548,55.342-11.904,79.746c-7.734,10.117-16.064,31.543-18.447,48.203c-5.952,36.895-35.708,81.533-51.777,76.182
	c-7.734-2.383-12.495,1.191-17.852,12.49c-5.352,11.904-9.521,14.883-19.043,11.904c-7.144-2.383-22.617-5.352-34.517-7.139
	c-18.447-2.383-22.617-1.191-22.617,7.139c0,5.957-4.756,23.213-10.117,38.682c-8.33,23.809-14.282,30.947-35.112,40.469
	c-20.234,10.117-24.399,14.878-22.017,24.399c1.782,7.144-1.191,19.644-7.144,27.974c-8.33,13.091-8.926,17.852-2.974,29.16
	c10.708,20.234,4.165,24.995-30.947,23.208c-17.261-0.596-40.469-1.782-50.586-1.782c-17.852-0.596-19.639-2.378-19.639-20.234
	c0-30.947-23.804-49.395-70.225-54.751c-35.703-4.17-37.49-4.761-51.772-29.165c-13.096-22.021-14.878-32.725-14.878-79.15
	c0-60.107-2.383-64.268-46.421-80.928c-33.325-13.096-39.873-12.5-57.134,4.756c-11.304,11.309-21.421,14.873-41.06,14.873
	c-17.856,0-33.33,4.766-52.969,17.266c-54.751,34.512-46.421,38.086-90.459-38.086c-21.421-37.5-39.277-72.607-39.277-77.969
	c0-5.352-9.521-22.607-20.83-37.49l-20.229-27.969l12.495-13.096c11.309-10.713,11.904-14.277,4.761-30.353
	c-7.144-17.256-17.852-24.99-17.852-12.49c0,2.97-10.713,8.33-23.809,11.896c-12.495,3.574-25.586,10.117-28.564,15.479
	c-4.165,7.734-16.069,8.33-91.65,3.574c-47.607-3.574-92.241-8.936-98.789-12.5c-17.261-8.926-10.117-24.404,10.713-24.404
	c8.926,0,19.639-4.17,24.399-9.521c5.952-7.734,5.356-12.5-3.569-27.97c-9.521-15.479-11.309-29.756-10.117-78.555
	c0.596-32.734,2.383-74.99,4.761-93.438l3.569-34.512h-18.447c-15.474,0-18.447-2.383-18.447-14.883
	c0-10.713-2.979-14.873-10.713-14.873c-16.665,0-30.947-19.054-34.517-45.234c-5.952-41.66-14.282-55.938-31.543-55.938
	c-8.926,0-18.447-2.383-22.021-5.957c-2.974-2.97-38.682-12.5-79.746-20.83c-69.033-14.277-75.581-16.66-92.241-36.299
	l-17.856-20.234l-46.416,5.947c-25.591,3.574-57.134,10.127-69.629,14.883l-23.804,8.33l-30.952-35.107l-30.942-35.712h-40.469
	h-39.873l-4.165,20.83c-4.165,24.404-11.309,30.353-23.208,20.83c-5.356-4.17-17.261-5.352-30.952-2.979
	c-17.256,2.383-30.942,0-57.129-11.896c-19.043-8.34-40.469-14.882-47.607-14.882c-20.83-0.596-42.256-20.233-42.852-39.873
	c0-13.096-4.165-18.446-19.639-25.586c-22.017-10.127-28.564-26.19-19.043-49.99c4.761-13.69,4.17-18.457-3.569-23.809
	c-5.952-4.767-8.335-13.691-7.144-27.373c1.787-19.64,3.569-20.83,27.373-24.404c19.048-2.383,31.548-8.926,47.612-24.99
	c21.426-21.426,21.426-22.021,14.287-48.799c-4.17-14.883-7.144-48.203-7.144-74.395v-47.607l-16.069-1.191
	c-9.521,0-23.804,0-33.325,0.596c-10.713,1.182-17.261-2.383-20.234-8.926c-5.356-14.287,34.517-49.99,56.533-49.99
	c20.239,0,30.947-9.521,30.947-27.979c0-9.512,2.383-12.49,9.521-9.512c4.761,1.777,14.878-2.383,23.809-10.117
	c17.256-16.67,19.634-55.352,4.16-72.607c-7.734-8.926-8.33-13.691-2.974-26.182c4.165-7.744,7.144-20.244,7.144-26.787
	c0-10.117,2.974-10.713,22.612-7.734c21.426,3.574,22.617,2.383,29.756-17.256c10.117-27.979,83.911-75.586,116.645-75.586
	c19.043,0,21.426-1.787,20.234-13.096c-0.596-7.734,0.596-35.703,3.569-63.076c4.761-48.213,5.356-49.99,26.782-63.086
	c11.899-7.734,26.182-22.617,32.134-32.734c10.713-17.852,10.713-18.447,0-18.447c-20.83,0-36.299-30.947-18.447-36.895
	c4.761-1.787,4.165-6.543-2.974-16.66c-19.639-27.979-5.952-79.756,22.612-86.885c8.926-2.383,13.096-6.553,10.713-11.904
	c-1.787-4.766,0-20.83,3.569-35.117c8.33-33.926,0.596-48.203-28.564-52.373c-11.904-1.777-27.373-5.352-33.921-7.139
	c-10.713-3.564-13.091-1.191-16.665,17.266c-3.569,19.629-5.952,21.416-24.399,21.416c-20.83,0-20.83,0-20.83-27.373
	c0-17.852,4.761-35.117,12.5-48.203c11.899-18.447,11.899-21.426,3.569-29.756c-7.144-7.148-7.739-13.096-2.974-25.596
	c4.165-13.096,2.974-21.416-4.17-35.703c-9.521-19.043-9.521-19.043,4.17-14.883c7.734,2.383,16.064,6.543,19.043,9.521
	c7.734,7.148,20.825-12.49,21.421-30.938c0-20.244,21.426-47.021,36.304-47.021c18.452,0,60.107-36.299,57.134-48.799
	c-2.383-7.139,2.974-14.883,15.469-23.809c36.304-24.395,69.634-60.703,69.634-74.385c0-19.639,16.66-24.395,27.373-8.33
	c7.739,10.713,37.495,30.352,47.017,30.352c1.782,0,2.974-3.574,2.974-8.34c0-9.521,36.304-41.055,76.772-66.055
	c14.282-8.926,32.729-23.799,40.469-33.32c8.33-9.531,17.852-17.266,21.421-17.266c10.713,0,39.873-51.777,39.873-70.225
	c0-10.117,4.761-19.043,12.5-24.395c11.904-7.139,14.282-5.957,26.187,8.33c10.708,14.287,14.282,15.469,25.586,9.521
	c14.878-7.734,15.474-13.086,7.739-41.064c-5.952-19.043-4.761-20.234,33.921-50.586c21.426-17.256,41.064-30.352,42.852-30.352
	c1.782,0.596,8.926,2.979,16.66,5.361c11.904,3.564,13.096,1.777,13.096-19.639c0-25.596,5.947-30.947,35.107-30.947
	c13.096,0,20.83-5.957,33.926-25c8.926-14.277,17.852-26.777,19.043-28.564c0.596-1.191,7.139,0.596,13.687,4.756
	c10.713,6.553,12.5,6.553,15.474-4.16c3.569-14.883,26.782-21.426,33.325-9.521c8.335,15.469,25.591,9.521,61.895-19.043
	l34.517-28.564l50.586,0.586c32.134,0,61.89,4.17,82.124,10.723c17.261,5.947,35.117,8.926,39.873,7.139
	c10.122-3.574,12.5-48.203,3.574-62.49c-6.548-10.713,4.165-36.299,15.474-36.299c8.33,0,55.347,44.629,55.347,52.969
	c0,6.543,51.177,39.277,70.22,45.225c23.213,6.543,54.756-1.787,54.756-14.883c0-5.947,4.756-12.49,10.708-14.277
	c26.782-7.139,77.368-15.479,91.055-14.287c26.187,2.383,52.964-13.086,57.134-31.533c3.569-19.043,7.734-20.234,70.225-17.852
	c37.49,1.777,53.56,10.703,63.076,35.107c2.979,7.139,9.526,13.086,14.878,13.086c14.883,0,49.995,28.564,56.538,45.83
	c4.766,11.904,8.335,14.277,20.239,11.299c20.825-5.352,49.99,8.34,98.784,47.021c46.426,35.703,58.921,39.277,67.847,19.639
	c4.761-10.713,13.687-14.883,46.421-20.234c38.682-5.947,40.464-5.947,50.581,6.543c5.361,7.744,22.617,17.266,38.091,22.617
	c26.182,8.33,27.974,8.33,38.086-2.373c9.526-10.723,9.526-12.5-0.591-32.139c-13.687-25-8.931-31.543,16.66-22.021
	c17.261,6.543,20.234,5.947,29.756-5.352c10.117-13.096,10.117-13.701-7.734-32.139c-9.521-10.127-17.856-23.213-17.856-28.564
	c0-11.318,2.979-11.904,20.83-4.766c8.335,3.574,16.665,1.191,28.564-8.926c9.526-7.744,24.404-14.287,33.33-14.287
	s19.043-2.979,23.208-7.139c5.356-5.352,9.526-2.979,19.043,8.33c13.687,17.852,28.564,16.66,57.729-5.361
	c13.687-9.512,20.229-20.82,22.612-36.299c2.383-11.895,8.335-35.107,13.096-51.182c7.734-24.99,10.117-27.373,17.852-20.225
	c4.761,4.756,14.282,7.734,21.421,6.543c11.313-2.383,13.096-7.148,14.287-33.33c4.17-89.268,1.191-126.162-11.309-150.566
	c-12.495-23.799-12.495-25.586-2.979-40.469c13.691-20.234,13.096-21.426-7.139-21.426c-14.878,0-18.447-2.969-21.426-17.852
	c-2.974-13.682-7.139-17.852-17.261-17.852c-10.112,0-14.878-4.756-19.038-19.043c-3.574-11.904-10.117-20.234-17.261-21.426
	c-20.83-4.17-33.921-20.234-30.347-37.49c2.378-12.5,0-17.256-11.904-22.617c-14.282-6.543-15.474-8.926-11.899-38.086
	c5.947-45.83,5.947-64.873,0.591-79.746c-5.356-17.256,4.165-17.852,25.591-2.383c20.234,14.287,58.32,20.234,92.241,15.479
	c22.612-3.574,26.187-5.957,23.804-15.479c-1.782-6.543,0.601-19.639,4.761-30.352c4.17-10.117,7.144-26.182,6.553-35.107
	c-0.601-8.926,1.191-17.852,4.756-20.234c2.979-1.787,5.952-9.521,5.952-17.266c0-20.225,11.309-27.373,42.852-27.373
	c25.586,0,28.564-1.191,28.564-13.096c0-7.734-5.361-20.225-11.904-28.564c-6.543-8.33-11.899-22.607-11.899-31.533
	c0-9.531-6.548-25.596-15.474-36.904c-8.335-10.713-12.5-20.83-10.117-22.607c11.304-6.553,70.815-22.021,85.693-22.021
	c15.479,0,16.069-1.191,13.096-20.83c-2.979-17.852-1.191-21.426,12.5-27.373c10.112-4.766,15.469-11.904,15.469-20.83
	c0-12.5,1.191-13.096,14.287-7.744c9.521,4.766,19.639,4.766,31.538,1.191c14.282-5.352,19.639-3.564,36.304,10.713
	c24.399,21.426,42.847,22.617,42.847,2.979c0-7.734,4.17-17.256,8.926-21.426c4.761-4.17,8.931-13.682,8.931-21.426
	c0-13.086,2.383-14.277,25.586-13.086c13.687,0.586,31.543-0.605,39.282-3.574l13.687-4.766l-1.782,50.586
	c-1.792,37.49-4.766,53.564-13.096,61.895c-11.899,13.691-13.091,48.203-1.782,63.086c6.543,8.33,8.926,8.926,14.878,2.383
	c11.304-14.287,45.82-8.34,66.055,10.703c9.521,9.521,17.852,20.83,17.852,25c0,14.883,24.399,5.947,55.952-20.234l17.246-14.277
	l22.617,22.012c22.021,21.426,23.809,22.021,30.947,11.904c7.734-10.713,8.926-10.713,17.852,2.383l9.521,13.682l20.84-15.469
	c24.98-19.043,33.32-20.234,33.32-4.17c0,16.074,14.883,21.426,32.139,11.904c11.299-5.947,17.256-5.361,30.947,2.383
	c28.564,15.469,38.086,24.99,38.086,38.086c0,8.33,10.117,17.852,30.938,30.947l30.957,19.043l14.883-18.447
	c8.926-10.713,20.82-18.447,28.555-18.447s14.277-4.766,16.66-11.904c4.17-13.096,12.5-14.883,35.117-5.947
	c10.117,3.564,16.064,3.564,19.043-0.596c1.787-3.574,11.895-5.361,22.617-4.766c39.863,2.383,45.234,0.596,45.234-17.256
	c0-9.521-5.371-22.021-11.914-27.969c-14.873-13.691-14.873-22.021-0.586-35.117c6.543-5.957,12.5-17.852,13.691-26.182
	c1.191-10.713,5.938-16.66,13.682-17.852c6.543-1.191,17.256-8.34,23.799-15.479c19.648-23.203,61.299-38.086,88.086-31.543
	c17.256,4.17,24.99,3.574,32.725-3.564c10.713-8.926,54.756-7.734,54.756,1.777c0,2.979,5.947,5.957,13.086,7.148
	c8.34,1.191,14.287,7.139,16.67,15.469l2.979,14.287l14.277-15.479c10.117-10.713,20.83-15.469,33.926-15.469
	c10.713,0,20.234-2.979,21.426-6.543c4.16-11.904,58.32-1.191,58.32,11.299c0,7.734,1.777,7.148,9.512-3.564
	c4.766-7.148,15.488-13.096,23.809-13.096c16.67,0,17.266-4.17,5.361-20.234c-9.521-12.5-12.49-69.033-3.564-69.033
	c2.969,0,7.129-9.521,8.926-21.426c2.373-11.309,8.32-22.617,13.086-24.404c4.16-1.777,8.33-8.32,8.33-14.277
	c0-9.521,4.756-11.309,32.734-11.309c29.756,0,33.33,1.191,41.65,17.852c8.936,16.67,8.34,17.861-5.938,27.373
	c-8.936,5.957-14.883,15.479-14.883,23.213c0,8.926-4.766,15.469-11.904,17.852c-6.543,1.787-11.904,7.744-11.904,11.904
	c0,5.361,3.574,7.148,8.926,5.361c19.639-7.744,38.086,2.979,45.234,26.777c7.139,24.99,26.182,36.299,92.832,57.129
	c17.266,5.361,41.064,16.67,53.564,25c14.287,10.117,31.543,16.074,46.416,16.66c22.031,0.596,38.691,5.361,71.416,20.83
	c6.553,2.979,17.256,5.947,23.213,7.139c6.543,1.191,14.277,9.521,17.852,20.234c4.16,10.723,9.521,17.266,14.277,15.479
	c4.18-1.191,12.5,1.191,17.852,5.947c5.371,4.766,14.883,10.713,20.84,12.5c8.33,2.979,9.521,8.33,6.543,29.16
	c-1.787,14.277-7.734,35.713-12.5,48.203c-7.139,16.074-7.734,24.404-3.564,28.564c4.756,4.766,8.926,2.383,14.277-7.139
	c15.479-29.756,38.096-52.969,51.777-52.969c7.139,0,23.213,4.17,35.107,8.926c11.914,5.361,26.191,7.744,32.139,5.957
	c8.33-2.979,10.713,0.596,12.51,13.096c1.777,17.852,22.607,27.969,22.607,10.713c0-19.639,17.256-15.479,39.268,8.926
	c22.627,24.99,23.223,24.99,30.957,12.49c10.703-16.064,28.555-16.064,32.734,0c2.383,8.33,7.139,11.309,14.277,10.117
	c5.957-1.787,24.395,4.17,40.469,12.5c16.66,8.33,38.086,16.67,47.617,18.447c14.277,2.383,18.438,6.543,19.629,19.639
	c1.191,8.926,7.148,19.043,13.691,22.021c6.543,3.564,14.277,17.852,17.852,32.734c4.16,17.256,10.117,26.777,16.074,26.777
	c4.756,0,19.043,10.713,31.533,23.809c12.51,13.086,24.99,23.799,28.564,23.799c7.148,0,36.309,33.33,53.574,61.299
	c8.32,13.691,11.895,26.191,9.512,33.926c-2.383,8.33-1.191,11.904,4.766,11.904c4.756,0,13.086,5.352,19.043,11.895
	c5.947,6.553,17.266,11.904,25,11.904c13.086,0,13.682,1.787,10.117,20.83c-3.574,20.234-2.979,20.83,14.873,20.83
	c16.67,0,18.447,1.787,18.447,17.852c0,11.904,2.969,17.852,8.926,17.852c10.117,0,20.234,17.266,19.043,32.734
	c-1.191,10.117,1.777,11.904,21.426,10.117c18.457-1.191,22.012,0,22.012,9.521c0,6.553-4.16,13.096-8.926,15.479
	c-4.746,1.787-8.926,7.139-8.926,11.299c0,4.766,4.18,11.904,8.926,16.074c10.723,8.926,11.914,31.543,1.797,47.012
	c-5.352,8.936-4.18,14.287,7.129,30.947c8.926,12.5,11.914,20.234,7.148,22.021c-3.574,1.191-13.691,7.139-22.012,13.682
	c-25.605,20.234-8.926,27.979,29.16,13.691c7.129-2.969,9.512,0,9.512,10.713c0,8.33,5.371,19.639,11.914,25.596
	c6.543,5.947,11.895,16.66,11.895,23.799s4.766,17.852,11.309,23.213c5.957,5.352,13.086,21.426,14.883,35.107
	c3.574,21.426,37.48,127.363,43.438,134.502c1.191,1.787,5.352-0.596,8.926-4.17c10.117-10.117,15.469-8.926,19.648,4.766
	c1.777,6.543,10.117,13.682,17.852,15.469l13.672,3.574l-11.895,20.234c-8.926,15.469-10.703,24.395-7.148,33.916
	c8.34,19.639,3.574,44.639-10.098,48.809c-22.637,7.139-13.105,20.82,14.863,20.82h26.191l-7.734,28.564
	c-4.18,15.479-9.531,32.139-11.309,37.5c-2.383,5.352,0,12.5,5.352,17.256c11.895,9.521,2.383,17.852-21.426,17.852
	c-8.926,0-22.617,7.734-35.117,20.83c-11.309,11.309-24.395,20.83-29.746,20.83s-23.809-10.713-41.66-23.809
	c-28.574-21.416-32.734-22.607-41.66-14.873c-8.926,8.33-11.895,8.33-27.363,0c-19.063-9.521-24.414-4.17-14.297,14.287
	c4.766,9.521,12.5,12.49,30.352,12.49c29.16,0,47.012,8.926,47.012,23.213c0,5.957,9.531,16.064,23.223,23.203
	c12.5,7.148,24.98,17.266,26.777,22.617c1.777,4.766,13.086,13.096,24.395,17.852c30.957,12.5,28.574,31.553-8.34,58.33
	c-16.055,11.904-33.32,21.426-38.672,21.426s-14.883,5.352-21.426,11.895c-8.34,8.34-19.629,11.904-36.895,11.904
	c-21.426,0-26.777,2.383-32.734,15.469c-6.543,14.287-6.543,15.479,5.957,11.309c7.129-1.777,21.426-5.947,31.523-8.33
	c10.723-2.979,27.988-11.904,38.691-20.225c11.309-8.34,30.352-16.67,42.852-19.053c19.629-3.564,22.012-2.969,22.012,8.34
	c0,8.926-5.938,13.682-23.789,18.447c-32.148,8.926-35.723,17.852-6.543,17.852c27.949,0,29.141,4.16,11.895,26.182
	c-8.34,10.117-17.852,15.479-29.766,15.479c-13.086,0-17.246,2.969-17.246,11.309c0,14.873-13.691,25.586-47.031,36.895
	c-25.586,8.926-27.363,10.713-29.141,32.139c-1.797,16.66-8.926,31.533-26.191,51.768c-13.105,16.074-37.5,54.756-54.756,86.895
	l-30.947,57.725l-39.277,8.926c-22.021,4.756-44.629,13.682-50.586,19.639c-6.543,5.361-17.246,10.117-23.809,10.117
	c-13.682,0-21.416,23.213-13.086,36.895c2.969,4.17,5.352,13.691,5.352,20.234c0,7.139,3.574,16.074,8.34,19.648
	c4.766,4.16,10.703,15.469,12.5,24.99c2.969,13.086,7.129,17.256,17.852,17.256c10.703,0,14.873,4.17,17.852,17.852
	c1.777,9.521,8.926,24.404,15.469,32.734c10.117,12.5,10.723,14.883,2.969,14.883c-5.352,0-9.512,4.756-9.512,11.309
	c0,16.064,10.117,20.83,16.66,8.926c4.766-8.926,6.553-8.926,24.404,0.586c15.469,7.744,19.033,13.096,17.852,25.596
	c-1.787,12.5,4.756,22.607,29.16,47.607c17.256,16.66,33.916,30.947,36.904,30.947c3.555,0,16.66,10.117,30.352,22.021
	l23.789,22.021l17.852-10.723c10.117-5.947,19.063-9.512,20.254-8.32s7.734,21.416,14.277,45.225l11.895,42.852h-20.82
	c-11.914,0-26.191,2.969-32.734,6.543c-9.531,4.766-14.883,4.16-22.012-2.383c-16.074-13.682-29.18-16.064-66.66-11.895
	c-27.969,2.969-35.703,5.352-35.703,13.682c0,5.361-7.148,13.096-15.479,17.266c-13.691,5.947-19.043,4.756-44.639-11.904
	c-17.852-11.309-29.16-22.617-29.16-29.17c0-6.543-7.734-16.064-17.852-22.012c-9.512-5.361-17.852-13.096-17.852-17.256
	c0-3.574-5.361-13.691-12.5-22.627c-10.117-12.49-17.256-15.469-40.469-15.469c-15.469,0-30.938,2.979-35.107,7.148
	c-4.17,4.16-7.139,22.021-7.139,41.055c0,25-3.574,38.682-13.691,53.564c-13.691,20.83-36.309,29.16-47.617,17.852
	c-9.512-9.521-54.16-7.734-76.768,2.979c-10.713,4.766-25.586,17.852-32.139,27.969l-12.5,19.043l11.914,39.873
	c12.5,42.256,27.373,54.16,45.82,37.49c12.5-11.309,20.234-11.309,29.756,0c3.564,4.17,18.447,10.127,32.139,11.904
	c23.203,3.574,25.586,5.957,35.107,32.734c5.361,15.47,10.117,35.117,10.117,43.447c0,7.733,4.17,17.852,8.936,22.012
	c4.746,4.17,8.926,11.318,8.926,15.479c0,4.766,3.564,8.33,7.734,8.33c3.574,0.596,24.99,13.69,47.598,30.352
	c26.787,19.64,39.883,33.33,39.883,41.66c0,6.543,7.148,20.83,15.469,32.14c8.34,10.703,17.852,29.16,20.83,40.459
	c4.17,16.67,9.521,22.021,23.799,25c10.723,2.383,21.436,1.19,26.191-2.979c7.148-5.946,10.713-5.946,17.852,0
	c7.148,5.957,11.309,5.957,16.074,1.191c4.16-4.16,14.277-7.14,23.203-7.14c11.904,0,17.852-4.17,23.213-17.852
	c6.553-16.074,5.361-22.021-8.926-55.353c-8.926-20.233-22.607-42.842-30.342-49.99c-7.754-7.139-14.297-19.639-14.297-27.969
	s-2.383-16.66-5.947-18.447c-2.979-1.787-5.947-5.36-5.947-7.733c0-5.361,29.746-19.043,42.246-19.043
	c8.926,0,8.926-2.383,1.191-26.787c-7.139-21.417-13.086-27.97-29.16-33.917c-13.086-4.766-20.234-11.309-20.234-17.861
	c0-12.49-0.586-12.49,33.32-4.16c17.266,4.766,26.191,10.117,26.191,16.66c0,5.361,7.734,14.287,17.266,19.639
	c10.117,5.361,23.203,20.234,29.746,33.331c13.105,25.586,70.82,78.555,85.117,78.555c5.352,0,10.703,5.361,12.48,11.904
	c1.797,7.139,8.34,11.903,14.883,11.903c7.148,0,14.297,2.97,16.074,5.947c1.777,3.563,10.117,5.946,18.438,5.946
	c30.957,0,67.852,32.734,67.852,59.521c0,10.117,66.66,89.268,75.586,89.268c4.16,0,13.691,10.703,20.82,23.799
	c7.734,12.5,19.648,25,26.777,26.787c17.871,4.16,35.117,35.703,42.852,76.768c9.531,52.373,29.16,69.629,51.191,45.225
	c12.48-14.276,42.852-15.469,92.246-3.563c41.055,9.521,46.406,24.395,17.852,51.182c-10.723,9.521-17.852,20.82-16.66,24.99
	c3.555,11.31,40.449,27.97,62.48,28.564c21.426,0,37.48,17.852,37.48,41.66c0,20.233,5.957,27.969,23.809,30.352
	c19.043,2.979,29.766,30.353,19.043,47.607c-9.512,14.883-2.969,41.063,10.117,41.063c5.352-0.596,14.883-8.926,21.426-19.639
	c9.531-14.287,16.66-19.043,29.766-19.043c16.055,0,18.438,2.383,20.82,20.83c2.383,14.873,7.148,22.606,19.648,28.563
	c15.469,7.14,16.055,10.117,16.055,49.396c0,25.586-2.969,46.416-8.32,54.746c-4.766,7.147-10.117,25.596-12.5,40.479
	c-2.383,16.064-15.469,47.607-30.352,73.789c-14.277,25.586-26.191,48.799-26.191,52.969c0,3.564,8.926,10.713,19.043,16.064
	c22.031,10.713,26.797,17.852,31.543,49.395c2.988,18.447,4.766,20.83,10.723,14.287c5.352-6.543,18.438-7.734,58.906-5.361
	c60.117,4.17,67.246,8.33,57.734,35.117c-5.352,16.064-4.766,22.021,5.957,40.469c8.32,13.682,11.289,26.182,8.926,35.703
	c-1.797,7.734-0.605,17.852,2.969,22.617c7.734,8.926,9.512,55.938,5.352,155.327c-2.969,69.629-2.969,72.007,11.309,87.48
	c17.266,17.856,15.469,44.038-4.766,61.895c-7.129,6.548-11.309,17.852-11.309,32.729c0,20.83-1.191,22.612-19.043,24.399
	c-15.469,1.191-26.777-3.569-50.586-22.017c-17.246-13.096-31.523-28.564-31.523-33.926c0-7.734-4.766-10.708-16.68-10.708
	c-22.012,0-61.895-39.282-57.129-56.538c2.383-10.117-3.574-14.282-40.469-27.378c-75.586-27.373-95.801-32.729-98.789-24.399
	c-1.191,3.569-11.895,12.5-23.809,19.043c-20.234,11.309-22.012,14.287-20.234,35.112c1.797,19.644,0,24.404-16.055,35.708
	c-13.691,10.117-18.457,17.856-18.457,31.543c0,17.261-0.586,17.856-20.82,14.282c-17.852-3.569-25-1.191-44.043,13.687
	c-30.352,24.399-50.586,30.947-77.969,26.782c-17.852-2.979-28.555-0.596-44.629,8.926c-19.629,11.309-22.617,11.904-38.691,3.569
	c-9.512-4.756-29.16-8.926-43.438-8.926c-36.895,0-52.363,13.687-55.938,49.99c-2.383,21.426-6.543,29.756-14.277,31.543
	c-6.563,1.787-11.309,8.33-11.309,14.878c0,18.447-14.883,41.66-44.043,68.438c-14.883,13.687-27.383,30.352-27.383,36.899
	c0,6.543-6.543,19.639-14.863,29.16c-8.34,10.117-14.883,20.234-14.883,23.213c0,2.974-7.734,13.091-17.852,22.612
	c-9.531,9.521-17.852,23.208-17.852,30.352c0,7.734-3.574,16.064-8.34,18.447c-4.16,2.383-12.5,14.878-18.457,26.782
	c-5.352,12.495-14.863,23.804-21.406,25.586c-5.957,2.383-11.318,5.952-11.318,8.931c0,10.117-38.682,41.655-51.777,41.655
	c-7.139,0-19.639,2.383-27.969,5.356c-9.521,4.17-20.83,3.574-32.734-1.187c-16.064-5.952-22.607-4.766-51.768,10.112
	C4911.834,10243.658,4877.91,10246.041,4840.41,10228.185z M4137.578,5407.11c-2.383-5.947-12.5-8.926-31.543-8.926
	c-14.883,0-32.734-4.17-39.277-8.926c-8.34-6.543-19.043-7.734-39.277-5.361c-22.012,2.979-27.969,1.797-30.947-5.947
	c-2.383-5.947-10.713-9.521-23.799-9.521c-17.852,0-20.84-2.383-23.809-17.256c-2.383-10.713-14.883-26.787-33.926-42.852
	l-29.756-24.99v-37.49c0-20.83,2.979-39.287,5.947-41.064c3.574-1.787,5.957-12.5,5.957-23.809c0-19.043,1.191-20.234,32.139-29.16
	c17.861-5.352,40.469-9.521,49.99-9.521c10.117,0,20.234-2.383,22.012-5.957c1.797-2.969,11.309-5.947,21.426-5.947
	c14.287,0,17.266,2.383,17.266,14.287s3.564,14.873,23.203,18.447c13.096,1.777,29.16,10.117,36.895,18.447
	c7.148,7.734,16.68,14.277,20.84,14.277c10.713,0,20.234,19.639,20.234,41.66c0,35.713,12.49,69.629,33.32,89.863
	c16.67,16.064,20.234,23.809,20.234,45.234c0,20.83-1.777,25.586-10.703,25.586c-5.957,0-16.074,4.17-22.617,8.926
	C4147.099,5417.823,4141.737,5418.419,4137.578,5407.11z M5507.139,6272.775c-3.33-0.46-4.508-1.126-9.221-5.379
	c-2.612-2.356-4.354-4.405-5.328-6.402c-0.819-1.588-2.1-3.432-2.817-4.098c-1.229-1.128-1.229-1.281-0.409-1.844
	c0.46-0.359,1.742-0.921,2.817-1.229c1.229-0.41,2.202-1.178,2.664-2.101c1.332-2.562,0.667-2.766-1.793-0.717
	c-1.177,1.024-2.151,1.332-3.996,1.383c-2.1,0.052-3.074-0.359-6.301-2.305c-3.585-2.254-4.098-2.407-9.17-2.971
	c-8.605-0.871-10.604-1.434-18.185-5.123c-3.945-1.947-8.092-3.792-9.22-4.098c-4.508-1.383-6.813-2.971-8.914-6.096
	c-1.126-1.639-2.664-4.507-3.38-6.301c-0.922-2.254-2.101-4.099-3.843-5.789c-1.793-1.792-2.562-2.919-2.562-3.892
	c0-0.768-0.717-2.204-1.587-3.33c-3.125-3.842-7.633-15.266-7.633-19.262c0-0.513-1.024-2.049-2.254-3.381
	c-2.663-2.816-5.941-9.323-5.941-11.679c0-1.588-0.051-1.64-2.715-1.844c-4.252-0.358-7.479-2.202-9.324-5.328
	c-0.87-1.484-2.562-3.432-3.791-4.353c-1.689-1.383-2.612-2.664-4.099-6.096c-2.203-5.02-4.66-9.015-10.86-17.417
	c-5.942-8.145-7.121-9.988-7.121-11.577c0-0.768-0.921-3.022-1.998-5.02c-1.126-1.998-2.869-5.583-3.893-7.991
	c-1.024-2.409-2.509-5.379-3.329-6.66c-0.82-1.281-1.896-4.046-2.408-6.095c-0.82-3.484-1.127-3.946-3.534-6.046
	c-1.896-1.64-2.817-2.869-3.227-4.406c-0.359-1.178-1.69-4.252-2.971-6.813c-1.998-3.997-2.612-4.816-4.559-5.788
	c-1.844-0.974-2.51-1.793-3.842-4.611c-0.871-1.844-2.253-5.226-3.022-7.479c-0.768-2.255-2.562-6.403-3.945-9.221
	c-1.434-2.817-3.125-6.608-3.791-8.401c-0.974-2.664-1.691-3.585-3.432-4.867c-1.485-1.075-3.074-2.971-4.662-5.686
	c-5.225-8.811-5.174-8.658-5.174-12.244c0-3.329,0-3.38-1.382-3.38c-2.919-0.052-7.325-9.58-7.325-15.881
	c0-1.537,0.615-5.686,1.332-9.22c0.922-4.354,1.383-7.788,1.332-10.707c-0.051-2.817,0.256-5.687,0.922-8.298
	c1.281-4.918,1.281-5.328,0-7.121c-0.562-0.819-1.383-2.409-1.792-3.534l-0.717-2.049l1.537-0.513
	c0.82-0.255,1.486-0.768,1.486-1.024c0-0.308-1.024-1.947-2.254-3.637c-1.282-1.689-2.767-4.405-3.381-6.044
	c-0.616-1.589-1.589-3.33-2.203-3.792c-0.975-0.768-1.128-1.332-1.128-5.225c0-3.688-0.153-4.508-1.075-5.534
	c-0.615-0.666-1.23-1.843-1.435-2.664c-0.307-1.332-0.102-1.741,1.845-3.432l2.203-1.947l-1.639-0.051
	c-1.075,0-1.897-0.358-2.459-1.127c-0.768-1.18-0.768-1.18,1.486-1.69c1.229-0.257,2.458-0.666,2.664-0.871
	c0.768-0.768-1.537-2.408-4.2-3.022l-2.715-0.615l0.717-1.332c1.64-3.124,1.844-3.228,4.559-2.562
	c2.254,0.563,2.562,0.512,3.176-0.307c0.41-0.563,0.717-1.998,0.717-3.228c0-2.1,0.102-2.253,1.177-1.946
	c0.615,0.153,1.435,0.307,1.794,0.307c0.358,0,1.024,0.82,1.485,1.793l0.871,1.793l1.434-1.383c1.332-1.281,1.383-1.484,1.075-5.07
	c-0.46-5.584,0.667-13.011,2.715-17.725c1.435-3.33,1.742-4.764,2.049-9.63l0.36-5.737l3.586-6.198l3.585-6.25l-0.562-3.841
	l-0.512-3.792l1.844-3.227c1.382-2.305,2.304-3.331,3.432-3.739c2.458-0.819,5.327-4.611,5.993-7.94
	c0.461-2.458,1.025-3.33,4.354-6.916c3.533-3.792,3.994-4.099,5.839-4.099c2.87,0,7.428-2.458,10.45-5.737
	c1.434-1.484,5.226-4.457,8.502-6.556c5.891-3.792,5.943-3.893,6.865-6.66c0.615-1.998,1.641-3.637,3.585-5.635
	c3.227-3.379,9.939-15.521,12.088-21.976c1.947-5.685,2.049-11.321,0.36-14.548c-0.972-1.844-1.127-2.919-1.075-7.018
	c0.051-4.456,0.204-5.174,1.896-8.708c1.024-2.099,1.844-4.558,1.844-5.481c0-1.639,0.051-1.689,2.255-1.689
	c1.896,0,2.459,0.255,3.33,1.382l1.024,1.435l2.049-1.178c1.127-0.614,2.51-1.126,3.125-1.126c1.537,0,2.869-0.768,6.096-3.484
	l2.715-2.356l-0.307,2.305c-1.024,7.274-0.974,8.503,0.307,10.296c0.717,0.921,2.253,3.534,3.483,5.737
	c2.049,3.894,2.152,4.201,1.844,7.172c-0.716,6.198-0.87,33.245-0.307,39.494c0.563,5.941,0.667,6.301,3.842,13.063
	c2.665,5.584,3.432,7.837,4.098,11.782c0.974,5.891,1.434,7.428,3.483,11.936c1.435,3.227,1.69,3.484,3.74,3.996l2.203,0.564
	l0.768,3.535c0.46,1.895,0.82,3.841,0.82,4.251c0,0.461,1.484,1.947,3.227,3.381c1.793,1.435,3.637,3.381,4.098,4.304
	c0.615,1.281,1.844,2.305,4.816,3.944c5.378,2.972,8.503,5.993,10.706,10.296c1.332,2.664,1.742,4.201,1.742,6.198
	c0,2.612,0.052,2.715,2.714,4.815c3.637,2.816,7.121,8.145,12.243,18.594c2.305,4.661,4.611,9.118,5.174,9.886
	c0.563,0.821,1.178,2.357,1.435,3.484c0.307,1.23,1.23,2.817,2.459,4.047c3.124,3.226,6.095,8.145,6.454,10.808
	c0.205,1.382,0.103,3.585-0.256,5.225c-0.974,4.201,0.717,10.655,4.611,17.776c2.869,5.275,2.92,5.532,3.791,12.294
	c0.615,4.661,1.537,9.015,2.919,13.267c1.127,3.586,1.998,7.376,1.998,8.709c0,1.28,0.513,3.637,1.126,5.173
	c0.718,1.947,1.23,4.661,1.486,8.708c0.768,11.372,1.024,12.909,2.664,16.137c1.28,2.611,1.588,3.892,1.895,8.451
	c0.256,4.251,0.667,6.198,1.896,9.221c2.305,5.635,4.251,12.088,4.251,14.035c0,1.947,2.612,9.99,3.791,11.68
	c1.281,1.793,1.076,4.918-0.41,6.096c-1.64,1.281-2.562,4.149-2.1,6.505c0.205,0.974,1.229,3.739,2.356,5.994
	c1.281,2.664,1.998,4.968,1.998,6.198c0,1.588,0.461,2.612,2.356,4.968c1.332,1.639,2.767,2.919,3.279,2.919
	c1.639,0,2.562,0.615,2.562,1.64c0,1.332,5.327,9.989,7.17,11.68c0.768,0.717,1.69,1.844,2.049,2.51
	c0.513,1.025,0.513,1.333-0.153,1.793c-0.667,0.513-0.615,1.383,0.512,7.479c0.716,3.792,1.382,7.428,1.484,8.093
	c0.153,0.615,1.793,2.767,3.638,4.765l3.432,3.637l-0.103,3.688l-0.154,3.637l1.947,1.024c1.383,0.768,1.896,1.333,1.793,2.049
	c-0.052,0.563-0.255,2.665-0.461,4.713l-0.307,3.636l1.486,0.205c1.28,0.154,0.974,0.359-1.896,1.332l-3.382,1.178l-0.921,3.074
	c-0.82,2.664-0.871,3.534-0.36,7.018c0.462,2.766,0.462,4.457,0.103,5.736c-0.666,2.356-2.049,12.755-2.049,15.676
	c0,3.021,1.793,6.455,5.072,9.681c2.1,2.049,2.612,2.869,2.612,4.251c0,3.842,4.764,8.095,11.372,10.143
	c3.585,1.127,4.507,1.689,5.942,3.381c0.87,1.127,1.639,2.458,1.639,2.971c0,0.922-1.075,1.178-8.196,1.691
	c-1.639,0.102-1.946,0.358-3.226,2.971c-0.768,1.588-1.64,4.251-1.896,5.942c-0.563,4.047-1.641,6.147-3.433,6.506
	c-0.819,0.204-3.995,0.513-7.12,0.768c-4.354,0.358-6.198,0.717-8.196,1.742c-1.382,0.666-3.997,1.794-5.84,2.408
	c-3.331,1.178-7.684,4.56-7.684,5.993c0,0.615-0.819,0.922-3.279,1.281c-0.716,0.103-1.793,1.742-3.534,5.225
	c-2.408,4.867-2.613,5.072-5.327,6.301C5513.132,6272.979,5510.877,6273.287,5507.139,6272.775z M5229.955,6021.973
	c-1.383-0.974-1.076-3.023,0.614-3.74c0.666-0.307,1.741-1.382,2.356-2.407c0.666-0.975,1.332-1.793,1.486-1.793
	c0.46,0,1.485,4.199,1.485,5.891c0,1.024-0.409,1.486-1.793,2.1C5231.902,6022.948,5231.287,6022.948,5229.955,6021.973z
	 M5220.068,6015.161c-0.768-1.178-1.332-2.92-1.486-4.559c-0.205-2.612-0.307-2.715-1.69-2.715c-1.589,0-1.793-0.513-0.975-1.998
	c0.41-0.82,0.768-0.87,2.87-0.409c2.919,0.666,3.637,1.689,4.866,6.916c1.178,5.021,1.23,4.713-0.666,4.713
	C5221.605,6017.107,5221.042,6016.748,5220.068,6015.161z M5234.975,6011.319c-2.151-0.667-4.866-4.407-4.611-6.403
	c0.103-1.127,0.461-1.434,1.691-1.537c1.383-0.154,2.254-0.82,2.305-1.64c0-0.154-1.537-0.205-3.38-0.103l-3.381,0.205l0.358-1.689
	c0.666-3.074,1.128-3.535,3.483-3.535c2.562,0,4.714,1.23,7.376,4.099c2.203,2.458,3.843,3.432,6.762,3.894
	c1.844,0.307,2.101,0.512,2.101,1.69c0,1.074-0.461,1.638-1.998,2.509c-1.075,0.615-2.715,1.127-3.638,1.127
	c-0.871,0-2.203,0.461-2.92,1.024C5237.69,6012.086,5237.435,6012.139,5234.975,6011.319z M5501.094,5869.27
	c-0.207-0.205-0.36-1.127-0.36-1.998c0-1.332,0.409-1.895,2.305-3.278c2.664-1.896,2.869-1.741,3.023,2.664l0.051,2.664
	l-2.305,0.154C5502.527,5869.577,5501.299,5869.475,5501.094,5869.27z M5512.773,5776.806c-3.176-0.513-4.764-1.333-5.173-2.664
	c-0.256-0.82,0.46-1.844,3.483-4.764c3.841-3.792,5.532-4.662,7.837-4.099c1.64,0.41,1.691,2.306,0.154,4.867
	c-0.667,0.974-1.435,2.97-1.69,4.406C5516.768,5777.37,5516.614,5777.472,5512.773,5776.806z"/>
</svg>
