<?xml version="1.0" encoding="utf-8"?>
<!-- Generator: Adobe Illustrator 16.0.0, SVG Export Plug-In . SVG Version: 6.00 Build 0)  -->
<!DOCTYPE svg PUBLIC "-//W3C//DTD SVG 1.1//EN" "http://www.w3.org/Graphics/SVG/1.1/DTD/svg11.dtd">
<svg version="1.1" id="eqxiu.com" xmlns="http://www.w3.org/2000/svg" xmlns:xlink="http://www.w3.org/1999/xlink" x="0px" y="0px"
	 width="65.625px" height="92.561px" viewBox="0 0 65.625 92.561" enable-background="new 0 0 65.625 92.561" xml:space="preserve">
<path fill="#FFFFFF" d="M42.896,65.364h21.084V84.78l-7.212,6.832H1.012L0.948,64.128l22.967-28.114V26.22H4.013V9.477l5.633-8.364
	h54.333l-0.251,38.248l-6.959,7.076L42.593,58.813L42.896,65.364z"/>
<path id="eqxiu.com_1_" fill="#040000" d="M57.393,47.151L57.393,47.151l7.895-6.622c0.215-0.18,0.339-0.446,0.339-0.726V0.948
	C65.625,0.424,65.2,0,64.677,0H9.078C8.744,0,8.434,0.176,8.263,0.464L3.198,8.993C3.188,9.01,3.182,9.029,3.172,9.047
	c-0.015,0.03-0.03,0.061-0.042,0.093c-0.011,0.029-0.02,0.06-0.028,0.09C3.094,9.257,3.086,9.286,3.081,9.315
	C3.075,9.351,3.073,9.385,3.07,9.421C3.069,9.44,3.065,9.458,3.065,9.477V26.22c0,0.522,0.424,0.947,0.948,0.947h18.954v8.507
	L0.214,63.528C0.075,63.698,0,63.911,0,64.13l0.064,27.483c0.001,0.521,0.425,0.946,0.948,0.946H56.77l0,0l0,0
	c0.06,0,0.117-0.009,0.176-0.02c0.021-0.004,0.041-0.01,0.061-0.016c0.037-0.01,0.073-0.021,0.107-0.033
	c0.023-0.009,0.045-0.021,0.066-0.03c0.03-0.015,0.062-0.029,0.09-0.049c0.022-0.014,0.043-0.029,0.064-0.046
	c0.016-0.011,0.029-0.019,0.043-0.029l7.909-6.635c0.215-0.18,0.339-0.445,0.339-0.726V64.76c0-0.522-0.425-0.946-0.948-0.946
	H44.438c-0.008-0.012-0.012-0.024-0.021-0.034c-0.05-0.054-0.171-5.151-0.171-5.151L57.393,47.151z M63.729,39.361l-6.014,5.044
	v-1.711c0.196-0.025,6.014-8.455,6.014-8.455V39.361z M63.729,31.702l-6.014,8.894v-3.114c0.196-0.025,6.014-8.454,6.014-8.454
	V31.702z M63.729,26.49l-6.014,8.893v-3.113c0.196-0.025,6.014-8.454,6.014-8.454V26.49z M63.729,21.277l-6.014,8.893v-3.722
	c0.196-0.025,6.014-8.455,6.014-8.455V21.277z M63.729,15.457l-6.014,8.894v-3.114c0.196-0.024,6.014-8.454,6.014-8.454V15.457z
	 M63.729,10.245l-6.014,8.894v-3.749c0.196-0.024,6.014-8.454,6.014-8.454V10.245z M63.729,1.896v2.502l-6.014,8.893V9.477
	c0-0.042-0.007-0.082-0.013-0.122l4.974-7.46L63.729,1.896L63.729,1.896z M60.969,1.896L56.546,8.53h-2.614l4.422-6.634H60.969z
	 M56.646,1.896L52.223,8.53h-3.027l4.424-6.634H56.646z M51.91,1.896L47.486,8.53h-2.702l4.423-6.634H51.91z M47.499,1.896
	L43.076,8.53h-2.686l4.422-6.634H47.499z M43.104,1.896L38.682,8.53H35.83l4.423-6.634H43.104z M38.546,1.896L34.122,8.53h-2.88
	l4.422-6.634H38.546z M33.956,1.896L29.533,8.53H26.79l4.422-6.634H33.956z M29.504,1.896L25.082,8.53h-2.903l4.422-6.634H29.504z
	 M24.893,1.896L20.471,8.53h-2.565l4.422-6.634H24.893z M20.62,1.896L16.198,8.53h-2.466l4.422-6.634H20.62z M16.445,1.896
	L12.023,8.53H9.326l4.422-6.634H16.445z M9.618,1.896h2.422L7.617,8.529H5.678L9.618,1.896z M55.82,90.664H1.958L1.896,64.465
	l22.752-27.853c0.138-0.169,0.214-10.394,0.214-10.394c0-0.522-0.425-0.947-0.948-0.947H4.96V10.425h50.86v35.582L36.243,63.098
	c-0.216,0.188-0.334,0.462-0.324,0.747l0.315,9.16c0.019,0.511,0.437,0.915,0.947,0.915H55.82V90.664z M37.957,67.932l4.395-4.099
	v0.899l-4.363,4.068L37.957,67.932z M63.729,84.535l-6.014,5.044v-2.286l6.014-5.526V84.535z M63.729,79.835l-6.014,5.527v-1.623
	l6.014-5.526V79.835z M63.729,76.282l-6.014,5.526v-2.265l6.014-5.526V76.282z M63.729,72.087l-6.014,5.527v-1.623l6.014-5.526
	V72.087z M63.729,68.534l-6.014,5.526c0,0-0.15-1.671-0.382-1.845l6.396-5.877V68.534z M62.316,65.708c0,0-6.645,6.183-6.676,6.317
	h-1.966l6.875-6.317H62.316z M58.45,65.708c0,0-6.644,6.183-6.675,6.317H48.93l6.875-6.317H58.45z M53.704,65.708
	c0,0-6.644,6.183-6.675,6.317h-1.965l6.873-6.317H53.704z M49.838,65.708c0,0-6.645,6.183-6.674,6.317h-1.967l6.875-6.317H49.838z
	 M45.973,65.708c0,0-6.645,6.183-6.675,6.317h-1.2l-0.046-1.34l5.339-4.979L45.973,65.708L45.973,65.708z M42.352,61.891
	l-4.459,4.156L37.83,64.23l4.521-3.947V61.891z"/>
</svg>
