<?xml version="1.0" encoding="utf-8"?>
<!-- Generator: Adobe Illustrator 16.0.0, SVG Export Plug-In . SVG Version: 6.00 Build 0)  -->
<!DOCTYPE svg PUBLIC "-//W3C//DTD SVG 1.1//EN" "http://www.w3.org/Graphics/SVG/1.1/DTD/svg11.dtd">
<svg version="1.1" xmlns="http://www.w3.org/2000/svg" xmlns:xlink="http://www.w3.org/1999/xlink" x="0px" y="0px"
	 width="138.132px" height="166.844px" viewBox="0 0 138.132 166.844" enable-background="new 0 0 138.132 166.844"
	 xml:space="preserve">
<g id="BACKGROUND">
</g>
<g id="OBJECTS">
	<path fill="#7FA238" d="M34.166,129.992c0,0-16.164-20.573-28.656-11.021c-12.49,9.552,13.96,30.125,13.96,30.125
		s-11.755,4.408-9.551,8.816c2.204,4.408,25.911-1.378,25.911-1.378L34.166,129.992z"/>
	<path fill="#7FA238" d="M104.702,129.992c0,0,16.165-20.573,28.655-11.021s-13.96,30.125-13.96,30.125s11.756,4.408,9.551,8.816
		c-2.203,4.408-25.91-1.378-25.91-1.378L104.702,129.992z"/>
	<path fill="#CEDD9D" d="M43.901,151.331c0,0,29.299,18.386,50.606-0.718l-11.113-33.048H51.433L43.901,151.331z"/>
	<path fill="#AEC65B" d="M102.28,156.534c13.726-28.075,2.507-47.078-1.178-52.173c-0.655-0.905-1.164-1.372-1.164-1.372
		l-31.044,3.857l-30.859-3.857c0,0-0.418,0.467-1.072,1.372c-3.684,5.095-14.857,24.098-1.133,52.173c0,0-11.02,0.689-9.551,5.098
		s17.634,4.386,21.308,2.182c3.675-2.204-6.245-42.639,21.308-42.639c27.555,0,17.807,40.435,21.48,42.639
		c3.675,2.204,20.011,2.227,21.48-2.182C113.324,157.223,102.28,156.534,102.28,156.534z"/>
	<ellipse fill="#AEC65B" cx="69.066" cy="66.435" rx="69.066" ry="46.617"/>
	<path fill="none" stroke="#7FA238" stroke-width="2" stroke-linecap="round" stroke-miterlimit="10" d="M118.266,61.659
		c0,15.601-22.027,28.249-49.2,28.249c-27.172,0-49.197-12.648-49.197-28.249"/>
	<path fill="#454C53" d="M78.846,102.855c-8.888,0.427-17.882-1.117-26.552-2.932c-3.188-0.667-6.322-1.381-9.346-2.612
		c-4.438-1.807-10.607-3.802-15.076-6.794c-10.592-7.093-12.148-9.465-19.701-19.589C5.242,67,3.048,61.892,1.577,56.531
		C0.555,59.724,0,63.035,0,66.435c0,25.745,30.923,46.617,69.065,46.617c28.329,0,52.662-11.518,63.314-27.988
		C116.325,95.367,97.935,101.939,78.846,102.855z"/>
	<circle fill="#AEC65B" cx="34.167" cy="23.82" r="23.145"/>
	<circle fill="#FFFFFF" cx="34.166" cy="23.82" r="15.797"/>
	<path fill="#454C53" d="M35.269,22.001c3.713,0,6.296,1.744,7.766,4.172c0.2-0.752,0.317-1.538,0.317-2.354
		c0-5.072-4.113-9.185-9.186-9.185c-5.073,0-9.184,4.112-9.184,9.185c0,1.81,0.53,3.492,1.433,4.914
		C27.395,25.065,30.343,22.001,35.269,22.001z"/>
	<path fill="#AEC65B" d="M80.823,23.82c0,12.782,10.361,23.145,23.144,23.145c12.785,0,23.145-10.362,23.145-23.145
		c0-12.783-10.359-23.145-23.145-23.145C91.184,0.675,80.823,11.037,80.823,23.82z"/>
	<path fill="#FFFFFF" d="M88.171,23.82c0,8.725,7.07,15.797,15.795,15.797c8.728,0,15.798-7.072,15.798-15.797
		c0-8.726-7.07-15.797-15.798-15.797C95.242,8.023,88.171,15.094,88.171,23.82z"/>
	<path fill="#454C53" d="M102.867,22.001c-3.713,0-6.299,1.744-7.769,4.172c-0.197-0.752-0.315-1.538-0.315-2.354
		c0-5.072,4.112-9.185,9.184-9.185c5.074,0,9.185,4.112,9.185,9.185c0,1.81-0.528,3.492-1.433,4.914
		C110.738,25.065,107.792,22.001,102.867,22.001z"/>
</g>
</svg>
