<?xml version="1.0" encoding="utf-8"?>
<!-- Generator: Adobe Illustrator 16.0.0, SVG Export Plug-In . SVG Version: 6.00 Build 0)  -->
<!DOCTYPE svg PUBLIC "-//W3C//DTD SVG 1.1//EN" "http://www.w3.org/Graphics/SVG/1.1/DTD/svg11.dtd">
<svg version="1.1" id="eqxiu" xmlns="http://www.w3.org/2000/svg" xmlns:xlink="http://www.w3.org/1999/xlink" x="0px" y="0px"
	 width="14.566px" height="14.566px" viewBox="0 0 14.566 14.566" enable-background="new 0 0 14.566 14.566" xml:space="preserve">
<path fill="#08A1EF" d="M13.89,13.889c1.052-1.053,0.855-2.969-0.436-4.26c-1.29-1.291-1.29-3.402,0-4.693
	c1.291-1.29,1.486-3.207,0.436-4.26c-1.051-1.052-2.969-0.855-4.26,0.436c-1.29,1.291-3.403,1.291-4.693,0
	c-1.291-1.291-3.208-1.486-4.26-0.436c-1.052,1.052-0.856,2.97,0.435,4.26c1.291,1.291,1.291,3.402,0,4.693s-1.485,3.207-0.435,4.26
	c1.051,1.052,2.969,0.855,4.26-0.436c1.29-1.291,3.403-1.291,4.693,0C10.921,14.746,12.838,14.941,13.89,13.889z"/>
</svg>
