<?xml version="1.0" encoding="utf-8"?>
<!-- Generator: Adobe Illustrator 16.0.0, SVG Export Plug-In . SVG Version: 6.00 Build 0)  -->
<!DOCTYPE svg PUBLIC "-//W3C//DTD SVG 1.1//EN" "http://www.w3.org/Graphics/SVG/1.1/DTD/svg11.dtd">
<svg version="1.1" id="图层_1" xmlns="http://www.w3.org/2000/svg" xmlns:xlink="http://www.w3.org/1999/xlink" x="0px" y="0px"
	 width="112.263px" height="104.541px" viewBox="0 0 112.263 104.541" enable-background="new 0 0 112.263 104.541"
	 xml:space="preserve">
<path fill-rule="evenodd" clip-rule="evenodd" fill="#5FB63B" d="M79.549,38.151c1.607-1.097,2.538-3.149,3.105-4.922
	c1.507-4.706,0.428-9.681-5.297-9.705c-2.671-0.011-5.267,0.873-7.762,1.73c1.159-1.281,2.191-2.69,3.516-3.81
	c1.136-0.959,3.323-2.064,2.839-3.894c-0.937-3.536-7.175,0.892-8.615,2.14c-1.511,1.309-1.914,3.235,0.63,2.888
	c0.041,0.019,0.066,0.048,0.076,0.088c0.753,3.226-14.027,11.487-6.859,14.454c1.464,0.606,1.788-0.418,1.52-1.667
	c-0.291-1.349-1.008-2.206-0.066-3.478c0.889-1.198,2.611-1.928,3.928-2.53c-0.212,1.493-1.241,4.627,0.633,5.52
	c2.049,0.975,2.104-2.722,2.718-3.839c0.539-0.978,1.42-1.783,2.154-2.612c-0.339,0.382-0.301,2.458-0.429,3.116
	c-0.217,1.118-0.5,2.221-0.819,3.314c-0.607,2.073-1.569,4.099-2.053,6.194c3.21-1.401,4.08-6.28,4.94-9.262
	c0.559-1.934,0.027-5.789,2.891-5.527c1.946,0.178,2.549,1.669,2.511,3.479c-0.051,2.43-0.942,5.171-3.009,6.625
	c-0.946,0.665-2.453,1.263-3.617,1.141c1.147,1.727,4.588,1.72,6.29,0.987C79.047,38.461,79.306,38.317,79.549,38.151z
	 M70.462,28.331c-0.132,0.248-0.255,0.476-0.28,0.508c-0.345,0.428-0.795,0.752-1.283,0.999c0.038-0.019,0.026-1.365,0.249-1.625
	c0.417-0.487,1.091-0.549,1.68-0.549C70.817,27.663,70.632,28.012,70.462,28.331z M62.408,13.899
	c-0.136-0.778-0.146-1.589-0.075-2.265c0.154-1.489,0.422-2.922,0.439-4.428c1.457-0.4,1.775-1.785,2.012-3.101
	c1.755,1.601,1.823,3.911,2.018,6.118c3.122-1.485,4.104-2.716,4.817-6.063c0.523-2.459,1.261-6.124,3.516-2.886
	c2.453,3.523,3.473,1.939,7.232,2.264c3.984,0.345-0.042,3.722-1.57,4.87c-3.004,2.256-6.289,4.182-8.807,6.93l-0.853,0.931
	l-0.466,0.388l-0.541,0.388l0.154-0.465c0,0,0.301-0.453,0.31-0.465c0.636-0.958,1.613-1.636,2.228-2.633
	c-1.109-0.542-1.851-1.542-1.992-2.779c-1.338,1.745-2.646,5.46-4.974,6.027C63.68,17.259,62.717,15.664,62.408,13.899z
	 M51.577,5.959c0.028-1.342,0.65-1.465,2.253-0.909c4.292,1.49,2.022,6.921-0.645,5.037c-0.593-0.419-1.585-3.128-1.607-3.864
	C51.576,6.13,51.575,6.042,51.577,5.959z M46.392,23.853c-0.023-0.133-0.037-0.255-0.039-0.364c-0.013-0.575,1.91-3.348,1.919-3.341
	c-3.708-2.876-0.068-3.521,2.562-4.642c1.227-0.523,2.286-1.424,3.696-0.998c1.355,0.409,2.258,1.696,1.452,2.972
	c-0.854,1.353-2.563,1.979-3.441,3.436c0.859,1.017,2.694,0.803,3.416,1.975c1.157,1.884-1.551,4.354-2.662,5.577
	c-1.735,1.911-3.71,3.685-6.258,4.387c1.434-2.783,3.618-4.943,4.563-7.979c-1.167,0.334-2.408,2.542-3.779,1.672
	C47.161,26.127,46.55,24.759,46.392,23.853z M44.561,36.807c-0.174-0.895,0.522-1.976,2.011-2.454
	c3.059-0.981,4.667-3.07,7.074-5.085c2.235-1.869,4.173-3.768,5.953-6.08c0.923-1.198,1.433-2.888,2.626-3.808
	c-0.916,4.119-2.243,8.465-4.572,12.019c-1.24,1.893-2.699,3.201-4.707,4.235c-1.77,0.912-3.85,2.536-5.901,2.566
	C45.523,38.223,44.712,37.585,44.561,36.807z M73.82,56.217c0.511,0.586,1.251,2.53,0.138,2.973
	c-1.432,0.567-2.293-0.708-2.751-1.852c-0.287-0.718-0.254-1.811,0.716-1.929C72.664,55.32,73.346,55.672,73.82,56.217z
	 M63.979,50.859c-0.151-0.072-0.285-0.164-0.397-0.277c-1.348-1.372,1.631-2.328,2.564-2.274c1.532,0.088,3.158-0.124,4.669,0.083
	c0.953,0.131,2.738,1.152,1.474,2.175c-1.115,0.901-3.299,0.411-4.614,0.428C66.715,51.005,64.976,51.336,63.979,50.859z
	 M64.192,57.189c0,0.064-0.003,0.129-0.008,0.193c-0.084,1.045-1.541,2.577-2.55,1.44c-0.798-0.898,0.293-2.292,1.064-2.798
	C63.737,55.344,64.198,56.284,64.192,57.189z M59.435,52.849c-1.124,1.124-2.162,1.684-3.798,1.473
	c-0.358,1.675,0.242,4.656-1.456,5.662c-0.815,0.483-2.304,0.545-3.048-0.135c-0.764-0.697-0.009-1.383,0.532-1.934
	c0.625-0.637,1.442-1.439,1.047-2.418c-0.4-0.991-1.625-1.17-2.556-1.18c-0.901-0.01-2.106,0.246-2.818-0.476
	c-0.657-0.665-0.436-1.69,0.314-2.172c1.9-1.222,4.536,0.82,5.016-2.286c0.294-1.9,0.34-3.608,1.032-5.448
	c0.166-0.441,1.345,0.771,1.424,0.952c0.224,0.51,0.207,1.147,0.204,1.694c-0.005,1.157-0.693,3.447,0.231,4.358
	c0.545,0.537,1.918,0.483,2.629,0.688c0.485,0.139,0.912,0.319,1.237,0.718c0.297-2.41-0.188-6.549,2.573-7.78
	c0.549-0.245,1.091-0.121,0.845,0.608c1.28-0.53,2.584-0.809,3.954-1.007c0-0.749,0.108-1.502,0.077-2.246
	c0.776-0.106,1.578-0.186,2.229,0.329c0.57,0.45,0.815,1.202,1.396,1.645c1.22,0.93,2.919,0.095,4.172,1.124
	c1.17,0.961,1.979,2.629,2.145,4.115c0.156,1.403,0.339,3.333-0.2,4.663c-0.274,0.676-0.951,1.602-1.768,1.628
	c-0.851,0.028-1.07-0.899-1.232-1.567c-0.811,0.801-1.625,0.792-2.7,0.855c-1.247,0.074-1.449,0.669-1.374,1.846
	c0.072,1.127,0.197,2.135-0.449,3.126c-0.473,0.727-1.253,1.682-2.163,1.815c-1.067,0.157-2.401-0.879-2.613-1.926
	c-0.226-1.123,0.856-1.062,1.577-1.436c0.798-0.413,1.121-1.486,0.883-2.341c-0.333-1.191-1.877-0.928-2.843-1.073
	c-0.441-0.066-1.419-0.174-1.551-0.729c-0.165-0.696,1.021-1.165,1.484-1.354c2.571-1.046,5.694-1.028,8.328-0.239
	c0.555,0.166,1.098,0.368,1.639,0.572c0.53-2.926-0.008-5.927-3.471-6.325c-2.425-0.279-6.74-0.218-7.966,2.348
	c-0.354,0.738-0.456,1.579-0.499,2.387c-0.06,1.108,0.385,2.259-0.217,3.304c-0.612,1.063-1.455,0.547-1.89-0.383
	C59.701,54.11,59.214,53.07,59.435,52.849z M58.608,56.075c0.565,1.015,0.354,3.051-1.068,2.222
	c-0.666-0.388-0.993-1.911-0.369-2.445C57.817,55.298,58.316,55.55,58.608,56.075z M58.893,47.121
	c-0.02,0.529,0.002,1.061,0.089,1.6c0.17,1.057-0.642,1.993-1.73,1.324c-2.003-1.229-1.581-5.83,1.109-5.957
	C59.693,44.025,58.92,46.387,58.893,47.121z M50.054,55.719c0.812,0.836,0.385,2.513-0.857,2.666
	c-1.519,0.187-1.376-2.797-0.028-2.937C49.574,55.407,49.859,55.519,50.054,55.719z M48.169,47.467c0.07-1.165-0.856-3.39,1-3.617
	c3.427-0.418,2.703,4.95,0.386,5.949C47.267,50.786,48.106,48.514,48.169,47.467z M74.591,71.065
	c0.053,0.633,0.258,1.258,0.721,1.683c0.435,0.399,1.157,0.414,1.708,0.328c0.532-0.084,0.719-0.555,0.949-0.983
	c0.222-0.414,0.288-0.869,0.045-1.295c-0.294-0.515-0.716-0.452-0.947,0.041c-0.223,0.472-0.654,0.654-0.9,0.068
	c-0.325-0.775-0.287-1.61-0.233-2.431c0.059-0.882,0.079-1.764,0.086-2.646c0.006-0.739,0.137-1.91-0.696-2.269
	c-0.403-0.174-0.885-0.146-1.313-0.148c-0.442-0.002-0.884-0.018-1.326-0.029c-0.848-0.022-1.689,0.118-2.535,0.021
	c-0.396-0.045-0.817-0.161-1.216-0.087c-1.695,0.315-1.362,2.97-1.4,4.215c-0.013,0.4-0.009,0.805-0.037,1.204
	c-0.048,0.676-0.141,1.286-0.298,1.946c-0.062,0.257-0.213,0.519-0.391,0.712c-0.092,0.099-0.197,0.197-0.331,0.234
	c-0.105,0.029-0.35,0.031-0.249-0.158c0.073-0.141,0.378-0.197,0.491-0.327c0.166-0.189,0.151-0.412,0.081-0.625
	c-0.028-0.087-1.109-0.049-1.234-0.052c-0.401-0.011-0.801-0.039-1.201-0.068c-0.853-0.062-1.711-0.11-2.564-0.032
	c-0.589,0.055-1.206,0.096-1.684,0.5c-0.271,0.229-0.209,0.438,0.113,0.536c0.386,0.118,0.527,0.128,0.523,0.574
	c-0.002,0.289,0.001,0.578,0.001,0.866c0.402,0,1.258,0.069,1.214-0.565c-0.016-0.214-0.19-0.552,0.022-0.703
	c0.341-0.242,1.055,0.086,1.022,0.518c-0.025,0.326-0.357,0.272-0.565,0.423c-0.426,0.309,0.273,1.039,0.652,1.036
	c0.567-0.005,0.9-0.462,1.22-0.862c0.106-0.373,0.154-0.695,0.154-1.085c0.129-0.042,0.379-0.144,0.516-0.077
	c0.154,0.075,0.104,0.27,0.104,0.422c0.001,0.272-0.076,0.793,0.218,0.962c0.12,0.068,1.06-0.109,1.023-0.222
	c0.089,0.278,0.143,0.68,0.506,0.678c0.917-0.005,1.554-1.198,1.796-1.931c0.135-0.407,0.112-0.868,0.159-1.292
	c0.023-0.209,0.076-0.437,0.131-0.637c-0.038,0.14,0.314,0.575,0.405,0.669c0.196,0.202,0.591,0.396,0.688,0.686
	c0.066,0.197-0.133,0.562-0.143,0.783c-0.016,0.346,0.025,0.741,0.192,1.051c0.188,0.348,0.626,0.391,0.979,0.395
	c0.51,0.006,1.021-0.01,1.532-0.011c0.414-0.001,0.724,0.08,0.903-0.358c0.167-0.408,0.216-0.86,0.264-1.295
	c0.037-0.344,0.018-0.738,0.171-1.057c0.136-0.281,0.41-0.309,0.708-0.314C74.579,70.374,74.562,70.72,74.591,71.065z
	 M69.648,65.066c0.063-0.077,0.123-0.155,0.157-0.184c0.135-0.113,0.285-0.172,0.456-0.207c0.382-0.079,0.775-0.035,1.162-0.074
	c0.713-0.072,1.424-0.044,2.14-0.048c0.214-0.001,0.384,0.02,0.59,0.078c0.183,0.052,0.339,0.171,0.463,0.312
	c-0.596,0.383-1.365,0.229-2.031,0.229c-0.664,0-1.327-0.019-1.988,0.042c-0.384,0.035-0.77,0.036-1.154,0.035
	C69.49,65.25,69.572,65.159,69.648,65.066z M70.099,66.983c-0.278,0.066-0.54,0.162-0.733,0.426
	c-0.125,0.173-0.084,0.33-0.089,0.554c-0.13-0.262-0.296-0.485-0.208-0.787c0.07-0.237,0.256-0.473,0.452-0.619
	c0.319-0.241,0.647-0.254,1.038-0.227c0.2,0.014,0.388,0.097,0.578,0.16c0.034,0.012-0.435,0.345-0.505,0.366
	C70.457,66.911,70.275,66.941,70.099,66.983z M71.059,69.512c0,0.029-0.384-0.16-0.417-0.201c-0.11-0.136-0.13-0.327-0.122-0.495
	c0.016-0.343,0.158-0.458,0.385-0.699C71.357,68.245,71.058,69.167,71.059,69.512z M72.456,71.682
	c0.002-0.044-1.81,0.342-1.231-0.499c0.104-0.151,0.29-0.202,0.461-0.237c0.288-0.058,0.566,0.044,0.748,0.279
	C72.581,71.417,72.467,71.464,72.456,71.682z M73.38,68.735c-0.052,0.173-0.15,0.334-0.272,0.414
	c-0.145,0.095-0.335,0.091-0.498,0.131c0-0.103-0.015-1.251,0.077-1.24c0.259,0.029,0.599-0.027,0.705,0.288
	C73.431,68.444,73.422,68.593,73.38,68.735z M74.18,67.228c-0.238-0.141-0.497-0.274-0.56-0.306c-0.323-0.16-0.68-0.213-1.001-0.362
	c-0.106-0.05,0.374-0.237,0.418-0.243c0.246-0.034,0.496,0.039,0.74,0.051c0.284,0.014,0.687-0.166,0.803,0.195
	c0.095,0.291,0.043,0.704,0.043,1.011C74.624,67.508,74.411,67.365,74.18,67.228z M65.952,69.063
	c0.234,0.026,0.457,0.079,0.584,0.212c0.293,0.306-0.068,0.497-0.329,0.592c-0.407,0.148-0.803,0.087-1.225,0.052
	c-0.562-0.048-1.162,0.099-1.723,0.151c-0.634,0.061-1.272,0.1-1.908,0.059c-0.425-0.027-0.933-0.13-1.164-0.537
	c-0.244-0.43,0.815-0.419,1.022-0.448c0.613-0.087,1.227-0.168,1.844-0.223c0.738-0.065,1.499-0.045,2.229,0.085
	C65.458,69.037,65.711,69.036,65.952,69.063z M60.285,68.122c0.308,0.309,0.758,0.494,1.271,0.524
	c0.559,0.033,1.12-0.044,1.679-0.062c0.542-0.016,1.077,0.035,1.618,0.067c1.091,0.063,2.052-0.308,2.313-1.475
	c0.261-1.163-0.396-1.98-1.535-2.123c-0.127-0.017-0.256-0.027-0.384-0.038c0.017-0.383,0.12-0.464,0.501-0.463
	c0.354,0,0.562,0.104,0.894-0.079c-0.256-0.648-0.69-0.868-1.362-0.966c-0.613-0.089-1.241-0.163-1.861-0.142
	c-0.61,0.021-1.249,0.03-1.854,0.108c-0.354,0.046-1.513,0.355-1.259,0.926c0.224,0.501,1.285,0.418,1.725,0.511
	c0.063,0.014,0.13,0.019,0.194,0.027c0.038,0.006-0.27,0.186-0.312,0.193c-0.166,0.031-0.339,0.007-0.504,0.049
	c-0.241,0.062-0.477,0.149-0.687,0.284c-0.432,0.276-0.727,0.726-0.825,1.227C59.779,67.289,59.945,67.78,60.285,68.122z
	 M65.326,66.567c0.288,0,0.435,0.026,0.696,0.154c0,0.13,0,0.259,0,0.389c-0.259,0.131-0.403,0.153-0.696,0.153
	C65.326,67.205,65.326,66.568,65.326,66.567z M64.017,66.876c0.015,0.221-0.01,0.46-0.01,0.621
	c-0.207,0.004-0.469,0.049-0.549-0.194c-0.028-0.083-0.016-0.966,0.005-0.97C63.884,66.244,63.995,66.539,64.017,66.876z
	 M63.525,64.59c0.241-0.146,0.613,0.187,0.456,0.445c-0.081,0.132-0.289,0.162-0.41,0.076C63.416,65.001,63.333,64.733,63.525,64.59
	z M61.335,66.971c0.041-0.105,0.09-0.199,0.115-0.228c0.153-0.167,0.4-0.185,0.612-0.172c0.033,0.283,0.1,0.674-0.07,0.926
	c-0.207,0-0.522-0.035-0.699-0.155C61.233,67.301,61.277,67.124,61.335,66.971z M87.583,78.107c0.403-0.896,0.97-2.242,0.975-2.242
	c-2.614-0.139-3.618,3.406-3.915,5.486c-0.258,1.814-0.333,3.752,0.296,5.496c0.229,0.631,0.538,1.335,1.202,1.606
	c0.858,0.35,1.655-0.174,2.496-0.259c0.467-0.048,0.812,0.158,1.226,0.354c0.858,0.404,1.77,0.686,2.729,0.438
	c1.914-0.494,2.646-3.116,2.919-4.806c0.364-2.255,0.3-7.115-2.72-7.691c-1.342-0.256-2.675,0.378-3.733,1.143
	c-0.603,0.435-1.202,0.875-1.85,1.242C87.261,78.806,87.407,78.5,87.583,78.107z M91.365,84.444
	c-0.189,0.591-0.502,1.366-1.008,1.421c-0.419,0.045,0.036-1.502,0.151-1.646c0.309-0.388,0.63-0.446,1.088-0.446
	C91.555,83.772,91.484,84.072,91.365,84.444z M87.316,82.708c0.457-1.319,1.479-2.535,2.437-3.354
	c0.596-0.509,0.93-0.587,1.686-0.619c0.242,0.611,0.824,1.771,0.337,2.399c-0.246,0.317-1.022,0.598-1.389,0.803
	c-0.934,0.522-1.749,1.195-2.215,2.18c-0.254,0.536-0.38,1.099-0.527,1.669c0.009-0.033-0.506-0.978-0.54-1.193
	C87.005,83.961,87.108,83.305,87.316,82.708z M84.855,70.209c-1.147,1.579-2.348,3.215-3.796,4.532
	c-1.119,1.018-2.363,1.969-3.194,3.253c-0.455,0.704-0.728,1.459-0.838,2.29c1.686-0.431,2.753-1.877,3.926-3.074
	c1.161-1.187,2.251-2.491,3.755-3.269c0.253-0.131,3.619-1.103,3.636-0.633c0.028,0.78,0.114,2.019,0.786,2.545
	c0.725,0.566,1.334-0.1,1.654-0.742c0.146-0.291,0.738-2.424,0.891-2.423c1.801,0.01,3.579-0.367,5.37-0.35
	c1.962,0.02,3.322,1.247,5.083,1.886c1.233,0.447,3.409,0.133,2.219-1.604c-0.996-1.452-3.19-2.079-4.832-2.362
	c-2.055-0.354-4.188-0.079-6.243,0.116c-0.056,0.005-1.593,0.137-1.591,0.12c0.05-0.5,0.127-0.998,0.149-1.501
	c0.062-1.469-0.702-3.52,0.946-4.383c0.919-0.48,2.369-0.653,2.338-1.982c-0.02-0.847-0.795-1.549-1.606-1.647
	c-0.973-0.118-1.534,0.646-2.354,0.977c-1.007,0.407-1.672-0.311-2.269-1.05c1.195-1.466,5.117-4.465,1.893-6.23
	c-1.015-0.555-2.038-0.384-2.43,0.644c-0.255,0.667-0.454,1.434-0.812,2.053c-0.571,0.989-1.231,1.93-1.668,2.991
	c-0.218,0.532-0.38,1.079-0.549,1.628c0.781,0.225,2.858-0.402,2.79,0.931c-2.672,1.489-5.587,2.811-7.673,5.115
	c2.03,0.696,3.513,0.122,5.392-0.714c0.493-0.22,1.006-0.404,1.507-0.604c-0.413,0.594-0.827,1.188-1.24,1.782
	C86.095,68.503,84.901,70.147,84.855,70.209z M87.523,70.085c0.496-0.55,1.029-1.071,1.595-1.581
	c0.525,0.46,0.159,1.902,0.231,2.558c0.019,0.166-2.884,0.877-3.254,0.853C86.53,71.262,87.006,70.659,87.523,70.085z
	 M108.411,97.184c0.161,0.132,0.319,0.255,0.445,0.414c-1.8,0-3.71-0.521-5.521-0.678c-1.887-0.164-3.781-0.24-5.675-0.206
	c-4.302,0.079-8.451,0.86-12.602,1.959c-4.854,1.285-9.646,2.806-14.546,3.916c-3.085,0.699-6.225,1.243-9.365,1.631
	c-2.93,0.361-6.111,0.43-9.049,0.142c-3.123-0.307-6.18-0.97-9.209-1.776c-2.743-0.73-5.696-1.408-8.215-2.755
	c-0.727-0.389-1.6-0.643-2.25-1.16c1.132-0.438,2.461-0.487,3.632-0.873c1.213-0.398,2.372-0.954,3.41-1.699
	c0.429-0.309,0.797-0.771,1.267-1.016c0.751-0.392,1.782,1.09,2.355,1.53c1.105,0.848,2.315,1.553,3.593,2.106
	c1.661,0.72,3.564,1.133,5.362,1.329s3.675,0.223,5.481,0.149c1.891-0.076,3.826-0.29,5.702-0.54
	c4.974-0.663,9.808-1.942,14.701-3.007c2.65-0.577,5.31-1.157,7.981-1.625c2.448-0.429,4.901-0.69,7.379-0.867
	c2.527-0.18,5.079-0.091,7.591,0.229c2.386,0.303,5.039,0.97,7.017,2.401C108.072,96.916,108.243,97.047,108.411,97.184z
	 M111.182,97.468c0.082,0.093,0.157,0.189,0.225,0.29c-1.493-0.322-2.789-1.693-4.148-2.368c-1.555-0.771-3.188-1.406-4.891-1.762
	c-2.172-0.453-4.288-0.535-6.502-0.547c-2.188-0.012-4.358,0.163-6.533,0.4c-2.088,0.229-4.164,0.562-6.22,1.001
	c-2.096,0.448-4.194,0.948-6.278,1.447c-3.829,0.919-7.682,1.772-11.544,2.542c-1.889,0.377-3.803,0.596-5.717,0.799
	c-1.938,0.205-4.032,0.324-5.973,0.094c-1.967-0.234-3.868-0.562-5.724-1.281c-1.812-0.701-3.734-1.65-5.061-3.105
	c-0.357-0.393-0.878-0.684-0.745-1.285c0.209-0.943,1.152-1.867,1.709-2.637c-0.161,0.222,6.492,3.337,7.139,3.558
	c2.125,0.726,4.419,1.215,6.666,1.325c2.342,0.116,4.583-0.185,6.883-0.572c2.35-0.396,4.642-0.868,6.957-1.44
	c2.197-0.543,4.375-1.162,6.569-1.718c2.185-0.554,4.394-1.022,6.617-1.391c2.25-0.372,4.51-0.553,6.789-0.532
	c2.322,0.021,4.608,0.239,6.868,0.8c2.218,0.55,4.423,1.271,6.499,2.228c1.291,0.596,2.472,1.396,3.628,2.217
	C109.242,96.129,110.467,96.659,111.182,97.468z M33.095,97.886c-2.879,0.326-6.002-0.209-8.494-1.607
	c-2.755-1.546-4.938-4.505-5.199-7.706c-0.311-3.802,2.821-6.426,6.295-7.144c1.283-0.266,3.218-0.45,4.229,0.607
	c0.926,0.969,0.399,2.462-0.021,3.54c-0.271,0.696-0.345,1.15-1.177,1.062c-0.542-0.058-1.29-0.344-1.542-0.867
	c-0.383-0.798,0.507-1.197,0.627-1.922c0.044-0.337-1.544,0.204-1.635,0.265c-0.549,0.363-1.111,1.022-1.247,1.681
	c-0.22,1.069,0.364,2.222,1.188,2.881c1.666,1.333,4.609,0.79,6.177-0.472c1.753-1.41,2.351-4.098,1.741-6.163
	c-0.578-1.957-2.185-3.129-4.103-3.686c-2.647-0.768-5.264,0.492-7.423,1.963c-1.806,1.23-3.401,2.916-4.926,4.384
	c-2.292,2.207-4.436,4.876-7.299,6.467c-2.321,1.291-4.816,1.192-6.978-0.401c-0.772-0.57-1.42-1.29-1.998-2.053
	C1.12,88.462,0.229,86.693,0,86.638c1.669,0.396,3.132,1.151,4.904,1.243c1.637,0.084,3.651-0.044,4.916-1.225
	c1.299-1.214,1.427-3.367,0.534-4.854c-0.931-1.549-3.035-2.014-4.443-0.788c-1.544,1.343-0.301,2.817,1.001,3.691
	c0.196,0.132,0.374,0.237,0.521,0.421c-1.219,0.622-3.195,0.095-3.948-1.051c-0.771-1.174-0.56-2.888-0.196-4.162
	c0.772-2.698,3.163-4.492,6.013-4.252c1.128,0.095,2.19,0.579,3.104,1.229c2.115,1.504,1.424,3.12,0.607,5.177
	c0.033-0.083,1.409-0.373,1.583-0.45c0.535-0.236,1.074-0.545,1.486-0.965c1.343-1.367,0.97-3.726,0.001-5.125
	c-1.019-1.473-2.674-2.225-4.423-2.449c-0.73-0.094-2.211,0.384-2.194-0.596c0.013-0.74,0.735-1.621,1.271-2.066
	c0.711-0.592,1.612-0.829,2.507-0.929c1.413-0.157,1.737,0.27,2.2,1.539c0.377,1.035,0.686,2.072,1.691,2.677
	c1.091,0.654,2.523,0.556,3.733,0.382c2.517-0.361,4.817-2.215,4.434-5.037c-0.208-1.526-1.5-1.972-2.834-2.248
	c0.377,1.568,0.546,3.389-1.401,3.861c-1.761,0.428-3.905-0.562-4.361-2.392c-0.458-1.835,0.748-3.797,2.199-4.833
	c1.512-1.079,3.377-1.169,5.127-0.699c2.045,0.549,3.806,1.767,5.466,3.038c-0.905-2.649-1.794-5.676,1.102-7.373
	c2.208-1.295,5.284-1.744,7.759-1.09c1.425,0.377,2.699,1.137,3.949,1.893c-1.647,1.353-3.903,3.578-3.228,5.968
	c0.191,0.678,0.638,1.151,1.134,1.627c0.727-2.586,1.742-5.089,4.352-6.265c2.306-1.038,5.287-0.748,6.728,1.524
	c0.804,1.269,1.02,2.819,1.244,4.274c-2.286,0.171-6.951,1.043-6.6,4.252c0.087,0.796,0.594,1.438,1.098,2.026
	c1.875-2.179,4.423-4.116,7.474-3.573c2.354,0.42,4.896,2.029,5.293,4.557c0.215,1.372-0.21,2.753-0.6,4.054
	c2.14-0.942,4.407-2.234,6.807-2.212c1.771,0.017,3.523,0.78,4.663,2.151c1.179,1.416,1.503,3.347,0.739,5.039
	c-0.708,1.568-2.327,2.93-4.106,2.955c-1.779,0.024-2.856-1.396-3.672-2.79c-0.11-0.188-0.218-0.38-0.324-0.571
	c-0.126-0.228-1.666,1.524-1.749,1.812c-0.238,0.828,0.128,1.707,0.571,2.396c1.221,1.899,3.558,2.766,5.751,2.147
	c-1.186,1.258-2.466,2.005-4.244,1.713c-1.532-0.25-3.188-1.052-4.197-2.251c-0.589-0.7-0.9-1.545-1.169-2.407
	c-1.343,1.537-2.781,3.556-4.859,4.099c-1.545,0.403-3.373-0.107-4.755-0.819c-2.311-1.19-5.279-6.468-1.305-7.597
	c2.587-0.735,2.122,2.495,1.421,3.912c1.47-0.532,3.196-1.462,3.327-3.204c0.143-1.911-1.414-3.684-3.111-4.336
	c-1.804-0.693-3.868-0.173-5.052,1.373c-1.127,1.471-1.137,3.36-1.036,5.124c0.111,1.931,0.155,3.818-0.008,5.75
	c-0.322,3.816-5.085,7.017-8.482,7.74C33.98,97.764,33.541,97.835,33.095,97.886z M112.183,37.499
	c0.791,1.95-4.498,3.068-5.611,3.268c-3.585,0.642-4.262,3.046-4.143,6.418c0.108,3.057,0.398,6.032,0.102,9.094
	c-0.349,3.584-1.622,6.092-4.034,8.733c-0.835-2.273,0.143-5.537,0.076-7.979c-0.076-2.815-0.312-5.588-0.312-8.403
	c0-1.483,0.068-2.902,0.233-4.382c-0.079,0.707-6.53,2.219-7.348,2.46c-2.81,0.829-5.644,1.572-8.469,2.347
	c-1.299,0.356-2.502,0.681-3.867,0.46c0.317-1.627,3.344-2.098,4.639-2.747c1.971-0.989,3.873-2.107,5.854-3.079
	c3.184-1.562,9.926-2.87,9.38-7.564c-0.152-1.31-0.529-3.192,0.692-4.15c1.103-0.864,2.337-0.203,2.939,0.887
	c0.771,1.391,0.548,3.279,0.444,4.797c2.164-0.55,6.719-2.665,8.735-1.004C111.854,36.952,112.076,37.233,112.183,37.499z
	 M83.567,44.198c2.29-2.329,4.755-4.473,7.132-6.723c1.516-1.434,2.974-2.927,4.464-4.387l1.086-1.164l1.085-1.161
	c0.741-0.795,1.385-1.589,2.013-2.48c-1.717,0.525-3.192,1.26-4.622,2.349c-1.211,0.922-2.644,2.469-4.306,2.393
	c-4.057-0.187-2.824-5.947-1.549-8.094c0.875-1.472,2.888-7.141,5.273-6.726c1.719,0.299,1.498,3.721,2.026,4.962
	c2.841-1.443,6.4-3.21,9.693-2.598c3.896,0.725,1.681,4.314-0.188,6.046c-2.514,2.331-5.725,3.678-8.413,5.771
	c-2.711,2.11-5.001,4.729-7.473,7.104c-2.654,2.55-5.504,4.844-8.422,7.083C82.076,45.754,82.812,44.966,83.567,44.198z"/>
</svg>
