<?xml version="1.0" encoding="utf-8"?>
<!-- Generator: Adobe Illustrator 16.0.0, SVG Export Plug-In . SVG Version: 6.00 Build 0)  -->
<!DOCTYPE svg PUBLIC "-//W3C//DTD SVG 1.1//EN" "http://www.w3.org/Graphics/SVG/1.1/DTD/svg11.dtd">
<svg version="1.1" id="图层_1" xmlns="http://www.w3.org/2000/svg" xmlns:xlink="http://www.w3.org/1999/xlink" x="0px" y="0px"
	 width="108.341px" height="69.935px" viewBox="0 0 108.341 69.935" enable-background="new 0 0 108.341 69.935"
	 xml:space="preserve">
<path fill-rule="evenodd" clip-rule="evenodd" fill="#772222" d="M53.285,25.824c-0.266,1.099-0.815,1.916-1.807,2.431
	c-4.245,2.207-8.493,4.405-12.737,6.612c-4.678,2.432-9.155,5.24-12.974,8.846c-4.063,3.836-6.369,8.878-8.143,14.117
	c-0.87,2.57-1.557,5.202-2.426,8.144c-1.056-2.69-2.012-5.105-2.952-7.528c-2.801-7.216-5.59-14.437-8.396-21.652
	c-1.212-3.117-2.428-6.233-3.693-9.329c-0.309-0.756-0.174-1.176,0.492-1.631c6.174-4.224,12.743-7.67,19.978-9.639
	c4.572-1.244,9.235-2.16,13.877-3.128c1.212-0.253,1.824-0.812,1.795-1.999c-0.049-2.097-0.162-4.192-0.24-6.289
	c-0.04-1.088-0.066-2.177-0.084-3.265c-0.011-0.638,0.304-0.939,0.95-0.815c5.166,0.991,10.147,2.47,14.262,5.935
	c0.756,0.637,1.396,1.634,1.672,2.586C54.449,14.701,54.635,20.246,53.285,25.824z"/>
<path fill-rule="evenodd" clip-rule="evenodd" fill="#BC2D2C" d="M108.341,23.069c-0.876,1.501-1.655,2.833-2.433,4.167
	c-3.757,6.438-6.759,13.217-9.117,20.283c-2.297,6.882-3.862,13.937-4.802,21.125c-0.156,1.193-0.788,1.261-1.737,1.261
	c-21.732-0.016-43.464-0.012-65.196-0.01c-1.479,0.001-2.962-0.036-4.439,0.036c-1.123,0.054-1.662-0.448-1.538-1.498
	c0.264-2.235,0.445-4.503,0.985-6.676c0.87-3.501,1.689-7.07,3.1-10.367c2.032-4.746,5.692-8.298,9.815-11.346
	c6.109-4.515,12.917-7.541,20.167-9.741c2.142-0.649,4.104-1.981,6.043-3.171c1.171-0.718,1.079-1.356-0.129-2.039
	c-2.644-1.495-3.855-3.763-3.742-6.751c0.085-2.253,0.044-4.537,0.415-6.748c0.64-3.818,2.791-6.734,6.243-8.504
	c2.137-1.095,4.42-1.91,6.657-2.802C69.127,0.092,69.7,0.08,70.24,0.017c0.833-0.097,1.323,0.228,1.426,1.121
	c0.393,3.4,0.901,6.789,1.178,10.197c0.12,1.492,0.597,2.384,2.061,2.803c4.744,1.357,9.446,2.872,14.219,4.124
	c5.941,1.559,11.938,2.916,17.908,4.367C107.402,22.718,107.758,22.871,108.341,23.069z"/>
<path fill="#FFFFFF" d="M59.395,14.201c0,0.786-1.059,1.905-2.135,1.423c-2.335-1.044-2.501-1.43,0-2.847
	C58.287,12.196,59.395,13.415,59.395,14.201z M52.123,12.778c-1.026-0.582-2.135,0.637-2.135,1.423c0,0.786,1.059,1.905,2.135,1.423
	C54.458,14.58,54.624,14.195,52.123,12.778z M37.429,39.24c-2.52-1.383-2.761-1.039-2.422,1.496c0.156,1.169,1.665,1.48,2.333,1.068
	C38.01,41.39,38.463,39.806,37.429,39.24z M32.438,33.863c-0.669,0.413-1.064,1.902-0.089,2.564
	c2.116,1.437,2.531,1.375,2.422-1.497C34.726,33.752,33.106,33.45,32.438,33.863z"/>
</svg>
