<?xml version="1.0" encoding="utf-8"?>
<!-- Generator: Adobe Illustrator 17.0.0, SVG Export Plug-In . SVG Version: 6.00 Build 0)  -->
<!DOCTYPE svg PUBLIC "-//W3C//DTD SVG 1.1//EN" "http://www.w3.org/Graphics/SVG/1.1/DTD/svg11.dtd">
<svg version="1.1" id="图层_1" xmlns:ev="http://www.w3.org/2001/xml-events"
	 xmlns="http://www.w3.org/2000/svg" xmlns:xlink="http://www.w3.org/1999/xlink" x="0px" y="0px" width="258px" height="258px"
	 viewBox="0 0 258 258" enable-background="new 0 0 258 258" xml:space="preserve">
<path fill="#08A1EF" d="M129,258C57.755,258,0,200.245,0,129S57.755,0,129,0s129,57.755,129,129S200.245,258,129,258z M252.925,132
	h-6.001c-0.123,4.922-0.519,9.776-1.228,14.53l5.848,1.031C252.309,142.465,252.799,137.279,252.925,132z M250.509,153.472
	l-5.846-1.031c-0.969,4.811-2.256,9.504-3.792,14.084l5.602,2.039C248.122,163.662,249.477,158.626,250.509,153.472z
	 M244.418,174.201l-5.6-2.038c-1.79,4.55-3.826,8.976-6.144,13.229l5.122,2.957C240.282,183.795,242.509,179.079,244.418,174.201z
	 M234.8,193.548l-5.136-2.966c-2.549,4.158-5.363,8.131-8.392,11.927l4.565,3.83C229.081,202.275,232.079,198.006,234.8,193.548z
	 M210.942,221.988c3.905-3.451,7.59-7.144,11.034-11.056l-4.561-3.826c-3.222,3.645-6.664,7.087-10.309,10.309L210.942,221.988z
	 M193.562,234.824c4.453-2.73,8.729-5.721,12.788-8.975l-3.841-4.577c-3.796,3.029-7.769,5.843-11.927,8.392L193.562,234.824z
	 M174.211,244.445c4.875-1.918,9.604-4.125,14.156-6.619l-2.975-5.152c-4.253,2.318-8.679,4.354-13.229,6.144L174.211,244.445z
	 M153.479,250.549c5.155-1.038,10.2-2.376,15.101-4.033l-2.055-5.645c-4.58,1.536-9.273,2.823-14.084,3.792L153.479,250.549z
	 M132,252.962c5.282-0.125,10.474-0.601,15.57-1.371l-1.04-5.895c-4.754,0.709-9.608,1.105-14.53,1.228V252.962z M126,252.962
	v-6.038c-4.922-0.123-9.776-0.519-14.53-1.228l-1.038,5.882C115.531,252.344,120.718,252.837,126,252.962z M104.522,250.544
	l1.037-5.881c-4.811-0.969-9.504-2.256-14.084-3.792l-2.049,5.628C94.33,248.15,99.366,249.511,104.522,250.544z M83.786,244.453
	l2.051-5.635c-4.55-1.79-8.976-3.826-13.229-6.144l-2.974,5.151C74.189,240.314,78.907,242.542,83.786,244.453z M64.438,234.824
	l2.98-5.16c-4.158-2.549-8.131-5.363-11.927-8.392l-3.847,4.585C55.708,229.104,59.98,232.1,64.438,234.824z M47.057,221.989
	l3.837-4.574c-3.645-3.222-7.087-6.664-10.309-10.309l-4.578,3.841C39.457,214.853,43.146,218.544,47.057,221.989z M32.147,206.353
	l4.581-3.844c-3.029-3.796-5.843-7.769-8.392-11.927l-5.168,2.984C25.897,198.021,28.894,202.293,32.147,206.353z M20.169,188.369
	l5.157-2.977c-2.318-4.253-4.354-8.679-6.144-13.229l-5.635,2.051C15.464,179.09,17.675,183.817,20.169,188.369z M11.493,168.577
	l5.636-2.052c-1.536-4.58-2.823-9.273-3.792-14.084l-5.888,1.038C8.489,158.633,9.836,163.675,11.493,168.577z M6.417,147.568
	l5.887-1.038c-0.708-4.754-1.105-9.608-1.228-14.53H5.059C5.191,137.278,5.646,142.475,6.417,147.568z M5.075,126h6.001
	c0.123-4.922,0.52-9.776,1.228-14.53l-5.848-1.031C5.691,115.535,5.201,120.721,5.075,126z M7.491,104.528l5.846,1.031
	c0.969-4.811,2.256-9.504,3.792-14.084l-5.602-2.039C9.878,94.338,8.523,99.374,7.491,104.528z M13.582,83.799l5.6,2.038
	c1.79-4.55,3.826-8.976,6.144-13.229l-5.122-2.957C17.718,74.205,15.491,78.921,13.582,83.799z M23.2,64.452l5.136,2.966
	c2.549-4.158,5.363-8.131,8.392-11.927l-4.565-3.83C28.919,55.725,25.921,59.994,23.2,64.452z M47.058,36.012
	c-3.905,3.451-7.59,7.144-11.034,11.056l4.561,3.826c3.222-3.645,6.664-7.087,10.309-10.309L47.058,36.012z M64.438,23.176
	c-4.453,2.73-8.729,5.721-12.788,8.975l3.841,4.577c3.796-3.029,7.769-5.843,11.927-8.392L64.438,23.176z M83.789,13.555
	c-4.875,1.918-9.604,4.125-14.156,6.619l2.975,5.152c4.253-2.318,8.679-4.354,13.229-6.144L83.789,13.555z M104.521,7.451
	c-5.155,1.038-10.2,2.376-15.101,4.033l2.055,5.645c4.58-1.536,9.273-2.823,14.084-3.792L104.521,7.451z M126,5.038
	c-5.282,0.125-10.474,0.601-15.57,1.371l1.04,5.895c4.754-0.709,9.608-1.105,14.53-1.228V5.038z M129,17C67.144,17,17,67.144,17,129
	s50.144,112,112,112s112-50.144,112-112S190.856,17,129,17z M132,5.038v6.038c4.922,0.123,9.776,0.519,14.53,1.228l1.038-5.882
	C142.469,5.656,137.282,5.163,132,5.038z M153.478,7.456l-1.037,5.881c4.811,0.969,9.504,2.256,14.084,3.792l2.049-5.628
	C163.67,9.85,158.634,8.489,153.478,7.456z M174.214,13.547l-2.051,5.635c4.55,1.79,8.976,3.826,13.229,6.144l2.974-5.151
	C183.811,17.686,179.093,15.458,174.214,13.547z M193.562,23.176l-2.98,5.16c4.158,2.549,8.131,5.363,11.927,8.392l3.847-4.585
	C202.292,28.896,198.02,25.9,193.562,23.176z M210.943,36.011l-3.837,4.574c3.645,3.222,7.087,6.664,10.309,10.309l4.578-3.841
	C218.543,43.147,214.854,39.456,210.943,36.011z M225.853,51.647l-4.581,3.844c3.029,3.796,5.843,7.769,8.392,11.927l5.168-2.984
	C232.103,59.979,229.106,55.707,225.853,51.647z M237.831,69.631l-5.157,2.977c2.318,4.253,4.354,8.679,6.144,13.229l5.635-2.051
	C242.536,78.91,240.325,74.183,237.831,69.631z M246.507,89.423l-5.636,2.052c1.536,4.58,2.823,9.273,3.792,14.084l5.888-1.038
	C249.511,99.367,248.164,94.325,246.507,89.423z M245.696,111.47c0.709,4.754,1.105,9.608,1.228,14.53h6.017
	c-0.132-5.278-0.587-10.475-1.358-15.568L245.696,111.47z"/>
</svg>
