<?xml version="1.0" encoding="utf-8"?>
<!-- Generator: Adobe Illustrator 16.0.0, SVG Export Plug-In . SVG Version: 6.00 Build 0)  -->
<!DOCTYPE svg PUBLIC "-//W3C//DTD SVG 1.1//EN" "http://www.w3.org/Graphics/SVG/1.1/DTD/svg11.dtd">
<svg version="1.1" id="eqxiu.com" xmlns="http://www.w3.org/2000/svg" xmlns:xlink="http://www.w3.org/1999/xlink" x="0px" y="0px"
	 width="108.569px" height="76.224px" viewBox="0 0 108.569 76.224" enable-background="new 0 0 108.569 76.224"
	 xml:space="preserve">
<path fill="#C91D39" d="M54.039,20.916H29.312v-9.112h25.216v0h24.727v9.112L54.039,20.916L54.039,20.916z M54.539,54.11h-0.51
	H12.329v22.114h41.701h0.51H96.24V54.11H54.539z M54.029,41.592h30.665V27.438H54.539v0H23.875v14.154L54.029,41.592L54.029,41.592z
	 M54.51,6.853h2.335V6.147c-0.956-0.683-1.581-1.8-1.581-3.065c0-0.007,0.001-0.013,0.001-0.021H54.51h-0.451h-0.756
	c0,0.007,0.001,0.014,0.001,0.021c0,1.265-0.626,2.382-1.581,3.065v0.705h2.335H54.51z"/>
<path fill="#FBEED7" d="M40.674,57.093h10.267V70.17v6.054H40.674V70.17H24.966V57.093H40.674z M33.458,33.627H26.24v7.964h7.218
	V33.627z M47.846,33.627h-7.219v7.964h7.219V33.627z M37.054,37.159c0.614,0,1.112-0.498,1.112-1.112
	c0-0.614-0.499-1.113-1.112-1.113c-0.615,0-1.112,0.499-1.112,1.113C35.942,36.661,36.439,37.159,37.054,37.159z M51.41,37.159
	c0.614,0,1.112-0.498,1.112-1.112c0-0.614-0.499-1.113-1.112-1.113c-0.614,0-1.112,0.499-1.112,1.113
	C50.298,36.661,50.796,37.159,51.41,37.159z M57.627,57.093V70.17v6.054h10.267V70.17h15.708V57.093H67.894H57.627z M54.539,52.18
	h-0.51H14.171v1.93h39.858h0.51h39.858v-1.93H54.539z M82.329,33.627H75.11v7.965h7.219V33.627z M67.942,33.627h-7.22v7.965h7.22
	V33.627z M71.514,37.159c0.614,0,1.112-0.498,1.112-1.111c0-0.615-0.498-1.113-1.112-1.113s-1.112,0.499-1.112,1.113
	C70.402,36.661,70.9,37.159,71.514,37.159z M57.158,37.159c0.615,0,1.112-0.498,1.112-1.111c0-0.615-0.497-1.113-1.112-1.113
	c-0.614,0-1.112,0.499-1.112,1.113C56.045,36.661,56.543,37.159,57.158,37.159z"/>
<path fill="#A60E2D" d="M12.329,58.235h4.748v17.989h-4.748V58.235z M54.539,27.438H23.875v2.514h30.155v0h30.665v-2.514
	L54.539,27.438L54.539,27.438z M54.029,54.11H24.966v2.983h29.063h0.51h29.063V54.11H54.539H54.029z M91.492,58.235v17.989h4.748
	V58.235H91.492z M54.039,13.873h25.216v-2.068H54.529v0H29.312v2.068L54.039,13.873L54.039,13.873z"/>
<path fill="#5B2035" d="M42.407,70.679h2.544v2.793h-2.544V70.679z M42.407,74.711h2.544v-0.564h-2.544V74.711z M36.549,68.415
	h2.544v-10.18h-2.544V68.415z M42.407,69.588h2.544v-0.587h-2.544V69.588z M46.663,74.711h2.544v-0.564h-2.544V74.711z
	 M46.663,69.588h2.544v-0.587h-2.544V69.588z M42.407,68.415h2.544v-10.18h-2.544V68.415z M36.549,69.588h2.544v-0.587h-2.544
	V69.588z M46.663,73.472h2.544v-2.793h-2.544V73.472z M24.936,27.438h29.094v0h29.603c5.925,0,10.732-4.79,10.765-10.708
	c-1.972,2.521-5.037,4.143-8.484,4.143h-9.337V16.36h-4.451v4.513H68.96V16.36h-4.451v4.513h-3.165V16.36h-4.451v4.513h-2.354h-0.51
	h-2.354V16.36h-4.451v4.513h-3.165V16.36h-4.451v4.513h-3.165V16.36h-4.45v4.513h-9.337c-3.447,0-6.513-1.622-8.484-4.143
	C14.203,22.648,19.011,27.438,24.936,27.438z M31.503,68.415h2.545v-10.18h-2.545V68.415z M54.575,5.943V3.772h-0.581v2.171H54.575z
	 M29.84,11.804h24.199v0h24.689c4.516,0,8.18-3.649,8.203-8.159c-1.502,1.92-3.838,3.157-6.466,3.157H54.529v0H28.103
	c-2.628,0-4.964-1.237-6.465-3.157C21.661,8.155,25.324,11.804,29.84,11.804z M26.458,69.588h2.544v-0.587h-2.544V69.588z
	 M31.503,69.588h2.545v-0.587h-2.545V69.588z M26.458,68.415h2.544v-10.18h-2.544V68.415z M56.997,2.547
	c-1.5-0.515-2.501-1.448-2.501-2.515c0-0.011,0.001-0.021,0.001-0.032h-0.426c0,0.011,0.001,0.021,0.001,0.032
	c0,1.067-1.002,2-2.501,2.515v0.515h5.425V2.547z M74.52,69.588h2.546v-0.587H74.52V69.588z M69.474,68.415h2.545v-10.18h-2.545
	V68.415z M74.52,68.415h2.546v-10.18H74.52V68.415z M69.474,69.588h2.545v-0.587h-2.545V69.588z M79.565,68.415h2.545v-10.18h-2.545
	V68.415z M97.793,41.518h-16.93V34.74h-1.661v6.778h-0.968V34.74h-1.659v6.778h-10.1V34.74h-1.66v6.778h-0.969V34.74h-1.659v6.778
	h-7.649h-0.51H46.38V34.74h-1.659v6.778h-0.969V34.74h-1.66v6.778H31.993V34.74h-1.66v6.778h-0.968V34.74h-1.661v6.778H10.774
	c-4.378,0-8.272-2.06-10.774-5.262c0.04,7.517,6.144,13.598,13.669,13.598h0.502v2.326h1.156v-2.326h4.513v2.326h1.155v-2.326h4.513
	v4.256h1.156v-4.256h4.513v2.326h1.156v-2.326h4.511v2.326h1.156v-2.326h4.513v4.256h1.156v-4.256h4.513v2.326h1.156v-2.326h4.224
	v2.326h0.289h0.867h0.289v-2.326h4.223v2.326h1.156v-2.326h4.513v4.256h1.155v-4.256h4.514v2.326h1.155v-2.326h4.512v2.326h1.156
	v-2.326h4.513v4.256h1.156v-4.256h4.513v2.326h1.155v-2.326h4.513v2.326h1.156v-2.326h0.502c7.526,0,13.629-6.08,13.67-13.597
	C106.066,39.458,102.172,41.518,97.793,41.518z M63.617,68.415h2.545v-10.18h-2.545V68.415z M79.565,69.588h2.545v-0.587h-2.545
	V69.588z M59.361,73.472h2.545v-2.793h-2.545V73.472z M59.361,74.711h2.545v-0.564h-2.545V74.711z M46.663,68.415h2.544v-10.18
	h-2.544V68.415z M50.941,76.224h6.687V57.093h-6.687V76.224z M59.361,69.588h2.545v-0.587h-2.545V69.588z M63.617,74.711h2.545
	v-0.564h-2.545V74.711z M63.617,73.472h2.545v-2.793h-2.545V73.472z M63.617,69.588h2.545v-0.587h-2.545V69.588z M59.361,68.415
	h2.545v-10.18h-2.545V68.415z"/>
</svg>
