<?xml version="1.0" encoding="utf-8"?>
<!-- Generator: Adobe Illustrator 17.0.0, SVG Export Plug-In . SVG Version: 6.00 Build 0)  -->
<!DOCTYPE svg PUBLIC "-//W3C//DTD SVG 1.1//EN" "http://www.w3.org/Graphics/SVG/1.1/DTD/svg11.dtd">
<svg version="1.1" id="图层_1" xmlns="http://www.w3.org/2000/svg" xmlns:xlink="http://www.w3.org/1999/xlink" x="0px" y="0px"
	 width="154.741px" height="155.443px" viewBox="0 0 154.741 155.443" enable-background="new 0 0 154.741 155.443"
	 xml:space="preserve">
<path fill="#08A1EF" d="M151.436,101.078l-13.516,3.738l6.213,12.802l-13.999,0.44l3.104,13.961l-13.716-2.885l-0.192,14.373
	l-12.68-6.059l-3.484,14.012l-10.942-8.902l-6.611,12.885l-8.6-11.254l-9.397,11.064l-5.773-13.01l-11.696,8.654l-2.628-14.067
	l-13.368,5.776l0.678-14.368l-14.344,2.591l3.97-13.887l-14.561-0.744l7.048-12.663l-14.003-4.03l9.769-10.75L0,81.653l11.974-8.263
	L1.236,63.599l13.558-5.327L6.57,46.318l14.425-2.109l-5.258-13.468l14.521,1.228l-2.037-14.262l13.861,4.498l1.276-14.281
	l12.465,7.524l4.514-13.535L70.74,12.06L78.234,0l7.807,12.223l10.043-9.936l4.799,13.641l12.052-7.269l1.55,14.309l13.381-4.209
	l-1.77,14.224l13.981-0.929L135.1,45.417l13.806,2.4l-7.892,11.785l12.871,5.607l-10.371,9.571l11.228,8.505l-12.278,6.839
	L151.436,101.078z"/>
</svg>
