<?xml version="1.0" encoding="utf-8"?>
<!-- Generator: Adobe Illustrator 17.0.0, SVG Export Plug-In . SVG Version: 6.00 Build 0)  -->
<!DOCTYPE svg PUBLIC "-//W3C//DTD SVG 1.1//EN" "http://www.w3.org/Graphics/SVG/1.1/DTD/svg11.dtd">
<svg version="1.1" id="图层_1" xmlns:ev="http://www.w3.org/2001/xml-events"
	 xmlns="http://www.w3.org/2000/svg" xmlns:xlink="http://www.w3.org/1999/xlink" x="0px" y="0px" width="228px" height="57px"
	 viewBox="0 0 228 57" enable-background="new 0 0 228 57" xml:space="preserve">
<path fill="#08DCFF" d="M218.524,40.473c-5.234,0-9.682-4.6-9.682-10.274s4.448-10.482,9.682-10.482
	c5.233,0,9.476,4.808,9.476,10.482S223.757,40.473,218.524,40.473z M218.524,24.284c-2.276,0-4.12,2.601-4.12,5.811
	s1.844,5.812,4.12,5.812c2.275,0,4.12-2.602,4.12-5.812S220.799,24.284,218.524,24.284z M203.486,18.057
	c-1.821,0-3.296-1.487-3.296-3.321s1.475-3.321,3.296-3.321c1.82,0,3.296,1.487,3.296,3.321S205.306,18.057,203.486,18.057z
	 M190.92,34.869V12.038l5.562-0.83v22.415c0,0,0.298,2.133,2.678,2.284l-0.618,4.566C198.542,40.473,190.92,40.667,190.92,34.869z
	 M178.765,40.473c-5.233,0-9.476-4.646-9.476-10.378c0-5.731,4.243-10.378,9.476-10.378c5.234,0,9.476,4.647,9.476,10.378
	C188.241,35.827,183.999,40.473,178.765,40.473z M178.765,24.284c-2.275,0-4.12,2.601-4.12,5.811s1.845,5.812,4.12,5.812
	c2.276,0,4.12-2.602,4.12-5.812S181.041,24.284,178.765,24.284z M165.581,15.774c0,0-3.502-0.33-3.502,3.528v1.038h6.592v4.566
	h-6.592v15.152h-5.562V18.057c0,0,0.549-7.057,8.446-7.057c0,0,2.983,0.122,4.738,1.038l-1.03,4.151
	C168.671,16.189,166.798,15.774,165.581,15.774z M140.243,31.133c0.513,6.654,6.18,6.226,6.18,6.226c3.075,0,5.356-0.83,5.356-0.83
	l0.412,2.906c-1.615,0.75-5.768,1.038-5.768,1.038c-10.065,0-9.682-10.378-9.682-10.378c0-10.276,9.27-9.963,9.27-9.963
	c8.823,0,7.622,11.001,7.622,11.001S140.243,31.133,140.243,31.133z M145.393,23.038c0,0-4.662,0.258-4.738,5.397h9.476
	C150.131,28.435,150.254,23.038,145.393,23.038z M126.441,40.473c-3.477,0-5.15-1.453-5.15-1.453l-0.206,7.679h-3.296V21.17
	c4.316-1.008,7.622-1.038,7.622-1.038c9.766,0,9.27,10.378,9.27,10.378C134.681,40.371,126.441,40.473,126.441,40.473z
	 M121.291,23.453v12.661c0,0,2.019,1.453,4.532,1.453c0,0,5.356-0.151,5.356-7.057C131.179,30.51,131.919,21.241,121.291,23.453z
	 M98.424,46.284l0.618-2.49c0,0,5.949,1.998,7.416-3.736c0,0-5.635-10.502-7.622-19.51h3.502c0,0,4.511,14.281,5.562,15.774
	c0,0,3.91-12.208,4.532-15.774h3.297c0,0-4.438,18.326-8.035,23.038C107.694,43.586,105.209,49,98.424,46.284z M93.068,28.02H80.502
	v12.038H77V14.113h3.502v10.793h12.566V14.113h3.502v25.945h-3.502V28.02z M60.34,36.48l-2.58-1.007c0,0-2.968,3.788-9.636,3.615
	l-6.599,16.598c-0.351,0.881-1.357,1.314-2.248,0.966L12.503,46.204c-0.891-0.347-1.329-1.344-0.979-2.225l2.919-7.341
	c0,0-4.637-1.849-5.706-7.205c0,0-7.477-4.139-4.481-12.626c0,0-4.256-6.033,2.945-13.968c0,0,1.488,6.052,7.682,9.266
	c0,0-0.64-7.174,6.303-12.105c0,0-0.453,4.9,4.426,8.549l2.158-5.427c0.351-0.881,1.357-1.314,2.248-0.966l26.774,10.448
	c0.891,0.347,1.329,1.344,0.978,2.225l-2.799,7.041C56.176,22.535,64,27.277,60.34,36.48z M55.79,34.336l-5-1.951l-1.841,4.628
	C54.075,37.176,55.79,34.336,55.79,34.336z M25.512,47.225l2.903,1.133c0.267,0.104,0.569-0.026,0.674-0.29l1.143-2.873
	c0.105-0.264-0.027-0.563-0.294-0.667l-2.903-1.133c-0.267-0.105-0.569,0.025-0.675,0.29l-1.142,2.872
	C25.113,46.822,25.244,47.121,25.512,47.225z M19.951,3.574c-4.352,4.707-3.196,9.445-3.196,9.445
	c3.304,1.94,6.509,1.435,6.509,1.435l1.587-3.99C20.863,7.728,19.951,3.574,19.951,3.574z M55.298,15.892
	c0.316-0.793-0.079-1.69-0.88-2.002l-23.71-9.253C29.906,4.324,29,4.714,28.685,5.507l-4.188,10.534
	c-2.498,0.417-5.394-0.279-9.892-1.832c-4.499-1.554-7.93-7.704-7.93-7.704c-4.124,5.081-0.679,10.612-0.679,10.612
	c-3.079,7.743,4.183,11.035,4.183,11.035c3.355,11.437,13.841,7.858,16.286,5.327l0.865,1.373c0,0-2.28,2.945-7.059,2.953
	l21.328,8.323c0.801,0.313,1.707-0.077,2.022-0.87L55.298,15.892z M54.217,23.767l-2.666,6.703l7.42,2.895
	C58.971,33.365,60.777,26.327,54.217,23.767z M42.826,24.299c-1.693-0.66-2.525-2.553-1.859-4.228
	c0.666-1.675,2.578-2.497,4.27-1.836c1.693,0.66,2.525,2.553,1.859,4.228C46.43,24.137,44.518,24.96,42.826,24.299z M206.37,40.058
	h-5.562V20.34h5.562V40.058z"/>
</svg>
