<?xml version="1.0" encoding="utf-8"?>
<!-- Generator: Adobe Illustrator 17.0.0, SVG Export Plug-In . SVG Version: 6.00 Build 0)  -->
<!DOCTYPE svg PUBLIC "-//W3C//DTD SVG 1.1//EN" "http://www.w3.org/Graphics/SVG/1.1/DTD/svg11.dtd">
<svg version="1.1" id="Layer_1" xmlns="http://www.w3.org/2000/svg" xmlns:xlink="http://www.w3.org/1999/xlink" x="0px" y="0px"
	 width="452.886px" height="436.981px" viewBox="0 0 452.886 436.981" enable-background="new 0 0 452.886 436.981"
	 xml:space="preserve">
<path fill="#B1BC9F" d="M33.064,118.847c-0.011,0.031-0.024,0.062-0.036,0.092c-0.382,0.953,0.871,1.545,1.485,0.959
	c0.231,0.094,0.509,0.08,0.794-0.112c2.002-1.348,14.487-7.276,19.67-12.552c1.948-1.606,3.405-3.621,2.263-5.736
	c-3.262-6.047-15.526,4.88-19.216,9.982c1.152-2.753,2.348-5.486,3.634-8.181c2.292-4.809,4.508-9.192,9.181-11.994
	c6.062-3.634,13.973-5.302,16.471-12.774c0.172-0.513-0.165-1.232-0.775-1.219c-5.217,0.111-9.981,3.693-14.223,7.251
	c1.52-2.611,2.958-5.26,4.135-8.016c0.091,0.003,0.186-0.002,0.284-0.023c5.961-1.23,11.386-4.605,15.928-8.568
	c2.615-2.282,8.018-6.404,7.186-10.524c-0.052-0.257-0.163-0.476-0.312-0.666c0.248-0.511,0.367-1.041,0.232-1.556
	c-0.214-0.816-0.814-1.254-1.524-1.447c-0.005-0.001-0.012-0.002-0.017-0.005c-0.527-0.139-1.112-0.149-1.656-0.063
	c-4.424,0.705-8.513,5.314-11.594,8.247c-0.276,0.264-0.569,0.529-0.871,0.799c2.006-2.831,4.226-5.508,6.317-8.317
	c2.223-2.987,4.641-5.851,7.268-8.502c1.212-0.751,2.572-1.298,3.85-1.93c5.123,0.243,18.939,1.602,18.969-5.403
	c0.012-4.481-10.309-0.518-15.787,1.561c2.418-2.152,4.501-4.758,5.605-7.761c0.561-1.524,0.951-6.741-1.971-6.499
	c-2.384,0.198-3.89,3.369-4.882,5.178c-1.499,2.726-3.145,6.041-3.523,9.175c-0.018,0.149-0.001,0.282,0.033,0.406
	c-0.083,0.185-0.168,0.37-0.252,0.556c-0.06,0.135-0.087,0.267-0.086,0.391c-1.002,0.893-1.974,1.815-2.919,2.763
	c-0.619,0.374-1.202,0.795-1.703,1.312c-0.68,0.702-1.291,1.457-1.882,2.228c1.716-5.865,3.631-13.841-0.567-17.318
	c-0.911-1.066-2.239-2.324-3.635-1.702c-1.488,0.665-1.807,2.685-1.957,4.233c-1.483,4.759-1.331,9.998-0.435,14.968
	c0.067,2.352,0.383,4.704,1.042,7.047c-3.042,3.896-6.131,7.724-8.411,12.145c1.185-5.465,2.451-11.929-1.031-16.514
	c-0.283-0.374-0.939-0.44-1.281-0.107c-3.274,3.213-3.736,8.404-4.051,12.729c-0.39,5.373,0.039,10.751-0.133,16.123
	c-0.001,0.009,0.004,0.018,0.004,0.027c-1.146,2.294-2.509,4.498-3.797,6.724c-0.03-4.011-0.608-8.738-2.799-11.748
	c-0.004-0.015-0.005-0.032-0.008-0.047c-0.063-0.323-0.283-0.535-0.549-0.639c-0.453-0.501-0.959-0.939-1.532-1.295
	c-0.474-0.293-1.194-0.159-1.374,0.43c-1.747,5.717,0.394,11.612,1.667,17.332c0.026,0.245,0.048,0.489,0.073,0.734
	c-0.242-0.686-0.492-1.368-0.759-2.044c-0.479-1.861-1.085-3.683-1.929-5.386c-0.354-0.714-0.89-1.646-1.552-2.523
	c-0.59-1.518-1.52-2.813-3.317-3.773c-2.262-1.206-3.67,0.506-3.845,2.623c-0.517,6.296,3.974,14.694,9.338,17.891
	c0.013,0.007,0.026,0.012,0.039,0.018c-0.865,1.612-1.627,3.281-2.389,4.845c-1.038,2.125-2.002,4.285-2.93,6.462
	c0.02-4.659-0.555-9.499-3.551-12.726c-4.258-4.587-3.948,7.964-3.887,9.382C29.65,107.309,30.406,117.419,33.064,118.847z
	 M84.691,42.208c0.001,0.01,0.003,0.019,0.004,0.028c-0.025-0.001-0.047-0.002-0.071-0.003
	C84.646,42.225,84.669,42.216,84.691,42.208z M452.87,167.272c-0.15,1.148-1.487,1.507-2.535,1.674
	c-3.903,1.336-8.295-3.052-11.403-6.477c0.264,0.685,0.51,1.379,0.694,2.095c0.136,0.526,0.178,1.07,0.174,1.617
	c0.238,0.985,0.45,1.976,0.631,2.976c0.08,0.049,0.155,0.118,0.218,0.211c0.088,0.127,0.173,0.255,0.259,0.382
	c0.093,0.028,0.186,0.069,0.275,0.139c1.874,1.483,3.364,3.855,4.531,5.9c0.775,1.356,2.227,3.581,1.413,5.198
	c-0.998,1.981-4.211-0.332-4.974-1.296c-1.502-1.899-2.361-4.274-2.794-6.684c-0.823,4.356-2.343,12.586-5.228,10.8
	c-4.51-2.788,1.826-11.169,4.007-14.379c0.098-1.075,0.282-2.168,0.276-3.248c-0.674-2.743-1.566-5.436-2.616-8.051
	c-0.988-2.46-1.839-4.95-2.874-7.364c0.056,0.301,0.112,0.596,0.173,0.878c0.675,3.148,2.035,7.609,0.741,10.743
	c-0.159,0.385-0.396,0.759-0.694,1.044c-0.004,0.003-0.007,0.006-0.011,0.009c-0.404,0.382-0.925,0.596-1.536,0.412
	c-0.385-0.117-0.681-0.403-0.912-0.765c-0.182,0.022-0.367,0.007-0.554-0.061c-2.987-1.09-3.514-6.207-3.953-8.797
	c-0.763-4.497-0.8-9.333,0.762-13.667c0.025-0.07,0.06-0.134,0.097-0.192c-1.313-1.849-2.455-3.824-3.54-5.837
	c0.62,4.144,1.05,8.636-0.94,12.046c-0.233,0.4-0.83,0.334-1.093,0.02c-3.836-4.565-1.787-10.331-1.738-15.68
	c0.038-4.123-1.916-7.286-4.115-10.665c-1.231-1.896-2.523-3.747-3.845-5.578c1.836,4.397,4.043,16.631-1.149,16.348
	c-1.817-0.098-2.542-1.834-2.809-3.727c-1.358-5.429-0.251-15.83-0.33-17.656c-0.012-0.26,0.089-0.445,0.241-0.557
	c-0.135-0.627,0.742-1.203,1.206-0.579c0.015,0.019,0.03,0.041,0.045,0.06c1.972-1.153,8.797,2.354,9.804,2.912
	c0.939,0.521,9.163,5.281,4.52,6.217c-3.267,0.66-6.618-0.883-9.618-2.736c1.039,1.459,2.052,2.935,3.014,4.445
	c0.707,1.109,1.483,2.26,2.182,3.456c0.01-0.005,0.017-0.013,0.028-0.018c4.183-2.198,11.379-1.779,15.238,1.042
	c1.298,0.949,1.847,2.534,0.174,3.518c-1.329,0.782-2.533,0.87-3.745,0.651c-0.829,0.08-1.642,0.059-2.243,0.005
	c-1.433-0.128-2.848-0.458-4.239-0.883c-0.542-0.094-1.082-0.204-1.62-0.318c0.168,0.081,0.335,0.163,0.503,0.243
	c4.195,1.438,8.846,2.385,11.847,5.772c0.309,0.348,0.111,0.866-0.265,1.057c-0.455,0.229-0.939,0.383-1.441,0.477
	c-0.171,0.13-0.395,0.189-0.629,0.102c-0.011-0.004-0.022-0.009-0.033-0.013c-2.809,0.225-6.089-1.27-8.69-2.835
	c0.928,1.71,1.812,3.462,2.84,5.108c0.005,0.004,0.012,0.003,0.019,0.008c3.399,2.233,7.04,4.083,10.354,6.457
	c2.667,1.912,5.835,4.262,6.616,7.645c0.08,0.352-0.222,0.75-0.576,0.784c-4.335,0.437-8.008-2.935-11.067-5.859
	c1.954,3.219,3.203,6.725,4.517,10.228c1.773,0.5,3.417,1.226,4.961,2.112c3.562,1.386,7.004,3.357,9.49,6.195
	C451.851,165.045,453.029,166.05,452.87,167.272z M387.795,41.081c-11.019,6.627-22.097,11.968-35.255,11.419
	c-6.02-0.252-12.12-1.011-18.002-2.343c-4.525-1.025-9.315-2.249-12.882-5.378c-0.676-0.595-0.533-1.483,0.227-1.912
	c9.561-5.396,22.084-9.544,33.143-9.823c10.894-0.274,21.196,3.06,31.644,5.672c0.014,0.004,0.026,0.01,0.039,0.014
	c0.16,0.023,0.323,0.082,0.484,0.194c0.191,0.131,0.381,0.264,0.571,0.396C388.304,39.694,388.413,40.709,387.795,41.081z
	 M27.359,181.637c-2.279,5.578-5.062,11.058-8.312,16.139c-2.5,3.908-5.277,7.999-9.431,10.292
	c-0.788,0.434-1.576-0.001-1.721-0.862c-1.832-10.825-1.484-24.013,2.007-34.51c3.438-10.341,10.071-18.899,16.074-27.841
	c0.008-0.012,0.018-0.02,0.026-0.032c0.076-0.143,0.186-0.277,0.347-0.391c0.19-0.134,0.379-0.268,0.568-0.402
	c0.533-0.379,1.525-0.138,1.666,0.57C31.077,157.213,32.341,169.446,27.359,181.637z M324.93,381.626
	c2.545,9.609,9.145,27.954-2.542,34.187c-0.479,0.254-1.157-0.094-1.22-0.634c-0.67-5.684-1.301-11.371-1.355-17.1
	c-0.019-1.946,0.376-4.023,0.763-6.12c-0.218-1.806-0.384-3.883-0.134-5.818c-1.445,1.967-2.816,3.984-4.099,6.046
	c-0.315,0.687-0.644,1.369-1.003,2.03c0.082,0.104,0.135,0.23,0.142,0.384c0.433,9.023-1.458,17.662-5.447,25.501
	c-0.255,0.563-0.543,1.108-0.872,1.628c-1.125,2.032-2.389,4.009-3.799,5.917c-0.536,0.727-1.582,0.304-1.581-0.556
	c0.002-0.66,0.015-1.317,0.039-1.971c-0.049-0.163-0.058-0.339-0.017-0.504c0.014-0.061,0.033-0.121,0.048-0.183
	c0.18-3.85,0.73-7.609,1.606-11.269c-3.505,5.567-7.011,11.122-11.842,15.671c-0.179,0.168-0.366,0.324-0.549,0.485
	c-1.614,1.998-4.127,3.51-6.83,4.516c-0.621,0.331-1.245,0.656-1.873,0.977c-1.862,0.952-4.761,2.713-6.946,2.004
	c-4.198-1.364,2.146-8.167,4.169-10.258c1.016-1.144,2.093-2.224,3.133-3.245c5.233-5.435,10.381-10.735,16.378-15.248
	c-2.614,1.033-5.332,1.817-7.992,2.459c-5.116,1.232-12.969,2.634-17.744-0.404c-3.606-2.293,2.103-4.86,5.349-6.03
	c0.878-0.418,1.829-0.718,2.654-0.986c3.282-1.069,6.711-1.689,10.109-2.252c3.476-0.576,7.014-1.102,10.558-1.463
	c3.219-0.593,6.242-1.584,8.469-4.08c0.93-1.686,1.919-3.343,2.96-4.973c1.072-2.383,1.975-4.828,3.46-6.977
	c-0.494,0.16-0.994,0.312-1.496,0.457c-0.973,0.326-1.977,0.617-2.995,0.871c-5.249,1.971-10.633,3.666-14.715-0.767
	c-0.32-0.348-0.251-0.925,0.099-1.223c5.294-4.499,13.822-2.811,20.435-2.446c1.731-0.503,3.262-1.38,4.253-2.969
	c0.307-0.494,0.837-0.466,1.197-0.194c0.743-0.267,1.674,0.528,1.052,1.234c-0.783,0.887-1.552,1.786-2.306,2.696
	C324.663,381.119,324.847,381.315,324.93,381.626z M429.553,255.051c5.14,11.785,8.998,23.463,6.745,36.438
	c-1.031,5.936-2.576,11.887-4.66,17.546c-1.604,4.353-3.44,8.944-7.005,12.074c-0.677,0.594-1.54,0.337-1.867-0.472
	c-4.109-10.18-6.595-23.137-5.436-34.137c1.142-10.838,5.786-20.62,9.732-30.64c0.006-0.014,0.014-0.025,0.02-0.039
	c0.043-0.156,0.123-0.311,0.255-0.456c0.155-0.171,0.312-0.343,0.467-0.514C428.244,254.366,429.265,254.39,429.553,255.051z
	 M115.221,384.281c-7.054-1.971-14.101-4.175-21.023-6.716c-1.078,3.142-5.213,10.593-8.558,7.334
	c-3.185-3.08,3.042-7.187,6.711-8.016c-4.266-1.61-8.478-3.356-12.61-5.266c-0.767,2.725-4.696,9.902-7.697,6.148
	c-2.482-2.964,2.156-6.395,5.657-7.114c-3.289-1.575-6.523-3.254-9.687-5.06c-0.725,2.84-5.786,10.942-7.416,4.968
	c-0.684-2.596,2.874-5.166,5.743-5.946c-0.515-0.304-1.033-0.601-1.544-0.912c-1.871-1.137-3.723-2.317-5.544-3.546
	c-5.129,9.404-11.534-1.475-3.683-2.604c-3.631-2.663-7.09-5.555-10.279-8.723c-8.552,8.334-10.333-2.893-1.978-2.053
	c-2.4-2.597-4.49-5.331-6.383-8.179c-10.347,6.185-9.119-6.968-2.522-4.019c-1.668-2.814-3.229-5.721-4.778-8.698
	c-14.181-10.584,1.13-13.63,0.769-2.376c0.036,0.047,0.08,0.078,0.111,0.137c2.098,4.057,4.168,8.013,6.503,11.783
	c-0.554-1.464-0.524-2.931,0.107-4.238c1.908-3.802,6.214-2.943,5.797,1.726c-0.192,1.336-3.29,4.096-4.135,5.204l-0.143-0.17
	c1.837,2.737,3.858,5.361,6.189,7.832c0.16-3.766,3.187-12.384,6.801-7.381c1.764,2.678-3.21,7.451-4.558,9.469l-0.316-0.159
	c3.231,3.137,6.685,6.027,10.313,8.686c-1.182-10.77,9.161-8.618,3.005,2.124c2.37,1.616,4.797,3.151,7.281,4.588
	c0.119,0.069,0.239,0.134,0.358,0.202c1.002-16.367,10.864-5.37,2.684,1.399l-0.521-0.178c2.802,1.551,5.649,3.011,8.533,4.391
	c-3.986-12.247,9.859-10.364,2.233,1.046c3.73,1.72,7.518,3.312,11.353,4.792c-5.59-12.741,9.534-8.48,2.699,1.022
	c6.9,2.557,13.932,4.776,21.013,6.755C116.83,382.844,116.351,384.596,115.221,384.281z M191.364,408.991
	c-6.765,9.077-18.522,14.104-28.887,17.749c-9.917,3.487-20.519,6.919-31.143,7.718c-2.127,0.529-4.298,0.823-6.461,0.501
	c-0.107-0.016-0.199-0.05-0.284-0.095c-0.201,0.051-0.406,0.022-0.587-0.055c-0.072,0.013-0.142,0.031-0.214,0.044
	c-0.523,0.1-1.116-0.476-0.974-1.01c2.68-9.991,14.496-14.257,23.12-17.669c2.405-0.951,4.83-1.742,7.267-2.422
	c8.212-3.205,16.801-5.278,25.399-5.209c3.977-0.462,7.976-0.776,11.967-0.975C191.325,407.531,191.84,408.352,191.364,408.991z"/>
<g>
	<g>
		<path fill="#B1BC9F" d="M66.201,269.482c-2.114-0.407-4.396,0.906-6.308,2.257c1.404-5.008,1.615-10.409,2.301-15.513
			c0.311-2.316-3.325-2.286-3.633,0c-0.707,5.263-1.104,10.59-2.634,15.375c-0.734-2.496-1.931-5.641-4.172-4.627
			c-3.614,1.634,0.383,7.041,1.982,9.604c-1.141,1.93-2.619,3.707-4.558,5.274c-1.301-7.535-1.91-15.253-2.839-22.776
			c-0.902-7.312-1.547-14.878-1.416-22.401c1.651-1.008,3.498-1.678,5.032-2.909c1.211-0.973,2.665-3.607,0.979-4.843
			c-1.339-0.983-3.189,0.96-4.041,1.786c-0.616,0.597-1.237,1.237-1.82,1.909c0.067-1.194,0.159-2.386,0.273-3.574
			c3.674-1.63,11.798-4.252,10.193-8.532c-1.516-4.043-6.755,0.681-9.601,3.792c0.874-5.632,2.362-11.146,4.705-16.407
			c0.944-2.121-2.186-3.97-3.137-1.834c-2.255,5.066-3.782,10.325-4.754,15.689c-0.53-1.307-1.217-2.545-2.114-3.649
			c-0.97-1.194-2.938-2.914-4.388-1.454c-1.546,1.557-0.189,4.286,0.862,5.643c1.417,1.831,3.209,3.267,4.846,4.874
			c-0.19,1.666-0.335,3.34-0.436,5.017c-1.036-0.922-2.249-1.573-3.779-1.835c-1.587-0.272-4.166,0.104-3.755,2.304
			c0.535,2.865,4.641,3.675,7.347,4.661c-0.063,4.853,0.177,9.72,0.605,14.542c-2.292-1.038-4.2-2.433-5.87-4.06
			c0.934-3.292,3.307-8.669-0.323-10.534c-1.75-0.899-2.907,1.426-3.315,2.699c-0.311,0.97-0.396,2.026-0.303,3.078
			c-1.731-2.501-3.266-5.219-4.895-7.912c-1.21-2.001-4.353-0.176-3.137,1.834c1.939,3.205,3.776,6.341,5.871,9.171
			c-1.462-0.121-2.948,0.01-4.152,0.568c-1.695,0.786-2.854,3.371-1.57,5.012c1.807,2.31,6.08-0.412,8.728-1.987
			c2.514,2.618,5.496,4.775,9.368,6.188c0.072,0.66,0.146,1.32,0.223,1.977c1.003,8.516,1.814,17.165,3.318,25.64
			c-2.104-0.865-3.986-2.061-5.66-3.56c0.853-1.713,1.779-3.382,2.434-5.19c0.458-1.265,1.109-4.076-0.42-4.958
			c-1.378-0.795-2.463,0.626-3.136,1.671c-1.116,1.736-1.236,3.922-1.235,6.004c-0.262-0.32-0.52-0.646-0.769-0.983
			c-1.9-2.579-3.098-5.572-4.919-8.187c-1.329-1.907-4.48-0.095-3.137,1.833c2.075,2.98,3.471,6.334,5.708,9.232
			c0.335,0.434,0.685,0.851,1.042,1.258c-1.569,0.786-3.044,1.966-4.31,3.013c-1.441,1.191-3.908,3.576-2.489,5.611
			c1.525,2.188,4.162,0.564,5.581-0.784c1.576-1.496,2.785-3.339,3.96-5.174c2.381,1.971,5.113,3.446,8.15,4.355
			c0.107,0.513,0.203,1.029,0.318,1.54c0.485,2.178,1.122,4.314,1.821,6.431c-3.469-1.669-7.271-2.317-11.16-1.715
			c-2.82,0.436-5.959,2.026-5,5.327c1.834,6.32,13.086,1.92,17.618,0.611c0.499,1.405,1.003,2.808,1.485,4.215
			c1.894,5.523,3.77,11.05,5.854,16.505c0.828,2.165,4.341,1.226,3.504-0.966c-2.557-6.69-5.173-13.518-7.43-20.402
			c3.679-1.907,6.645-4.813,9.699-7.57c1.601-1.445,4.507-5.381,1.701-7.247c-2.046-1.36-4.499,0.895-5.922,2.231
			c-3.011,2.828-4.8,6.11-6.358,9.833c-0.637-2.041-1.246-4.085-1.797-6.132c-0.403-1.499-0.757-3.013-1.078-4.535
			c3.239-2.266,5.774-4.974,7.612-8.279c4.219-0.183,10.673,0.102,11.381-4.543C69.2,271.192,67.856,269.8,66.201,269.482z
			 M33.994,241.644c0.031-0.82,0.253-1.553,0.634-2.273c0.705-1.334,1.179,1.502,1.179,1.56c0.015,1.634-0.525,3.231-1.032,4.819
			C34.136,244.479,33.939,243.139,33.994,241.644z M26.256,250.664c-0.597,0.06-0.685-0.118-0.672-0.691
			c0.024-1.081,0.626-1.554,1.597-1.827c1.357-0.381,2.99-0.264,4.443,0.093c0.024,0.028,0.049,0.054,0.073,0.082
			C29.968,249.331,28.228,250.464,26.256,250.664z M47.216,232.992c0.688-0.757,1.595-1.903,2.604-2.369
			c0.001,0.031,0.002,0.052,0.004,0.09c0.01,0.35-0.18,0.663-0.357,0.947c-0.472,0.76-1.386,1.272-2.131,1.716
			c-0.297,0.177-0.602,0.339-0.911,0.497C46.688,233.576,46.954,233.281,47.216,232.992z M49.454,223.347
			c0.408-0.378,5.02-3.954,4.396-1.575c-0.481,1.831-3.871,3.122-5.368,3.853c-0.705,0.344-1.431,0.653-2.157,0.964
			C47.271,225.426,48.362,224.355,49.454,223.347z M37.518,219.343c-0.293-0.877-0.063-1.696,0.845-0.964
			c0.546,0.439,1.015,1,1.414,1.573c0.972,1.397,1.586,3.005,2.011,4.649C40.033,223.067,38.229,221.472,37.518,219.343z
			 M37.077,233.582c-0.468-0.27-0.935-0.595-1.233-1.054c-0.403-0.62,1.009-0.462,1.3-0.441c1.845,0.13,3.192,1.225,4.254,2.603
			c-0.008,0.222-0.014,0.445-0.021,0.668C39.924,234.818,38.435,234.363,37.077,233.582z M40.061,273.621
			c0.075-0.414,0.399-0.856,0.607-1.212c0.144-0.242,0.307-0.472,0.487-0.688c0.478-0.585,0.187,0.364,0.187,0.627
			c-0.002,1.627-0.771,3.253-1.617,4.803C39.764,275.971,39.849,274.797,40.061,273.621z M30.442,288.188
			c-0.745-1.068,2.634-3.513,3.26-3.982c1.006-0.754,2.189-1.634,3.414-2.162c0.015,0.014,0.03,0.029,0.044,0.044
			C35.422,284.743,31.73,290.034,30.442,288.188z M63.48,285.832c0.897,0.741,1.062,1.525,0.495,2.354
			c-0.322,0.671-0.895,1.21-1.407,1.735c-0.827,0.849-1.775,1.576-2.632,2.394c-1.617,1.546-3.33,2.991-5.202,4.2
			c1.009-2.4,2.145-4.708,3.839-6.73C59.805,288.315,61.627,286.465,63.48,285.832z M36.303,300.304
			c-1.587-0.39-2.919-2.335-1.235-3.583c1.064-0.789,2.671-1.012,3.951-1.164c3.736-0.445,7.447,0.685,10.623,2.592
			C45.378,299.329,40.704,301.383,36.303,300.304z M52.497,268.621c0.444-0.302,2.135,5.181,2.359,5.797
			c-0.052,0.115-0.108,0.228-0.161,0.343C53.318,272.674,51.28,269.45,52.497,268.621z M67.109,272.93
			c-0.167,1.096-1.605,1.673-2.487,1.991c-1.936,0.699-4.056,0.708-6.153,0.763c0.138-0.305,0.257-0.627,0.384-0.942
			c1.693-1.238,3.345-2.473,5.343-3.181C65.39,271.138,67.393,271.073,67.109,272.93z"/>
		<path fill="#B1BC9F" d="M74.529,239.315c1.674-1.746,2.916-3.822,3.342-6.421c0.375-2.291-3.125-3.273-3.503-0.966
			c-0.514,3.136-2.545,5.341-5.041,7.118c-0.001-0.005,0-0.009-0.001-0.015c-0.361-1.85-1.151-7.882-4.202-6.907
			c-1.923,0.614-1.85,3.056-1.343,4.584c0.512,1.544,1.456,2.95,2.483,4.248c-1.502,0.843-3.021,1.616-4.381,2.399
			c-2.03,1.168-0.201,4.307,1.833,3.137c1.891-1.088,3.979-2.173,5.963-3.405c3.396,1.272,11.315,4.347,11.319-0.859
			C80.998,239.59,77.631,239.173,74.529,239.315z M65.707,233.836c0.898-0.089,1.718,4.911,1.867,5.677
			c0.022,0.115,0.063,0.209,0.112,0.292c-0.504-0.662-0.98-1.343-1.411-2.06C66.027,237.331,64.347,233.971,65.707,233.836z
			 M67.799,239.951c0.022,0.022,0.044,0.044,0.069,0.062c-0.005,0.003-0.009,0.006-0.014,0.009
			C67.834,239.999,67.816,239.974,67.799,239.951z M74.426,242.732c-0.967-0.253-1.912-0.572-2.852-0.905
			c0.242-0.173,0.48-0.349,0.714-0.529c2.492-0.335,6.324-0.647,6.882,0.922C79.853,244.136,75.035,242.892,74.426,242.732z"/>
	</g>
	<g>
		<path fill="#FD8D89" d="M58.726,258.336c1.638,4.48-6.59,10.561-10.492,6.414c-4.542-5.013-0.856-8.406,3.846-10.877
			c-4.476,0.966-10.285-3.95-8.095-8.916c2.82-6.603,6.92-3.29,9.862-0.441c-2.56-3.464-6.101-9.871,1.128-11.865
			c6.044-1.789,10.047,6.801,6.814,11.032c2.994-0.706,4.613-1.232,7.536,0.457c2.036,1.172,3.775,3.069,5.026,4.989
			c1.492,2.246,1.153,4.504-1.628,5.724c-2.81,1.407-5.17-0.199-7.418-1.883c2.405,2.574,6.11,8.038,1.328,10.402
			c-4.782,2.36-5.851-2.708-8.121-5.551"/>
	</g>
	<g>
		<path fill="#FD8D89" d="M28.539,260.56c3.736-1.135,11.243-3.02,10.96,4.125c-0.255,6.409-6.01,4.577-10.823,4.546
			c4.994,3.567,3.548,11.695-1.988,13.721c-6.678,2.463-6.257-4.099-6.233-8.752c-1.216,6.372-10.162,5.375-11.703-0.304
			c-1.675-6.324,2.914-8.71,8.399-9.455c-3.238-3.338-3.732-11.06,0.862-13.607C24.094,247.225,25.802,256.761,28.539,260.56"/>
	</g>
	<g>
		<path fill="#FD8D89" d="M12.404,216.33c0.868-4.147,7.222-8.987,11.73-6.018c3.697,2.61-0.205,7.03-0.833,10.635
			c2.883-0.663,11.535,0.26,12.89,3.775c1.987,5.735-6.813,7.334-10.148,6.826c5.8,2.249,1.513,12.645-4.315,12.649
			c-6.489,0.035-7.185-6.422-8.991-11.107C1.388,239.708-5.571,220.13,5.813,220C4.97,216.066,8.528,215.582,12.404,216.33"/>
	</g>
	<g>
		<path fill="#FD8D89" d="M59.497,187.55c14.175-7.949,15.829,10.825,0.957,11.441c3.586,4.057,6.754,12.822,2.019,17.005
			c-7.439,6.575-10.919-3.36-13.152-8.613c-12.642,12.137-23.944-3.653-9.977-12.381c-16.663-7.679,4.461-28.755,7.364-11.567
			c3.386-9.255,17.449-5.061,12.688,3.724"/>
	</g>
	<g>
		<path fill="#FD8D89" d="M77.224,214.842c-2.37-12.856,16.987-13.789,12.16,1.688c12.41-3.973,12.806,10.553,0.701,10.884
			c9.196,11.459-14.4,19.775-14.012,4.42c-8.166,11.529-18.488-11.609-6.284-8.308c-9.042-5.81,1.283-12.15,8.241-8.705"/>
	</g>
</g>
<g>
	<path fill="#B1BC9F" d="M378.51,120.579c-2.207-0.697-4.499-0.857-6.76-1.245c-0.792-1.478-1.627-2.935-2.499-4.372
		c1.377,0.168,2.745,0.012,4.152-0.644c1.459-0.68,3.364-2.458,1.773-4.032c-2.071-2.05-5.908-0.377-8.693,0.354
		c-2.712-4.025-5.682-7.888-8.781-11.608c2.475-0.453,4.838-0.393,7.137-0.007c1.108,3.238,2.221,9.009,6.266,8.474
		c1.951-0.258,1.578-2.827,1.188-4.107c-0.297-0.974-0.829-1.89-1.504-2.702c2.847,1.069,5.657,2.429,8.53,3.714
		c2.134,0.955,3.678-2.335,1.533-3.294c-3.42-1.53-6.716-3.06-10.05-4.193c1.271-0.733,2.417-1.688,3.089-2.832
		c0.945-1.611,0.425-4.396-1.564-5.014c-2.802-0.869-4.762,3.801-6.042,6.605c-3.557-0.719-7.237-0.793-11.225,0.25
		c-0.435-0.501-0.872-1.002-1.31-1.498c-5.675-6.428-11.269-13.074-17.332-19.183c2.221-0.487,4.451-0.577,6.68-0.299
		c0.274,1.894,0.464,3.793,0.956,5.653c0.344,1.3,1.41,3.982,3.169,3.836c1.585-0.131,1.669-1.918,1.625-3.16
		c-0.071-2.063-1.218-3.927-2.405-5.638c0.397,0.114,0.795,0.235,1.191,0.37c3.031,1.037,5.721,2.815,8.707,3.926
		c2.178,0.811,3.736-2.474,1.534-3.294c-3.404-1.267-6.461-3.229-9.951-4.336c-0.522-0.166-1.048-0.309-1.573-0.44
		c0.842-1.539,1.382-3.35,1.826-4.931c0.506-1.8,1.174-5.165-1.151-6.03c-2.5-0.929-3.742,1.907-4.141,3.824
		c-0.443,2.127-0.387,4.33-0.307,6.508c-3.079-0.263-6.165,0.08-9.18,1.063c-0.38-0.36-0.753-0.73-1.138-1.085
		c-1.64-1.514-3.38-2.906-5.16-4.249c3.803-0.604,7.296-2.237,10.15-4.948c2.069-1.965,3.744-5.06,1.075-7.227
		c-5.107-4.149-11.849,5.877-14.829,9.533c-1.21-0.87-2.423-1.736-3.622-2.618c-4.703-3.46-9.393-6.935-14.214-10.231
		c-1.913-1.308-4.266,1.465-2.329,2.79c5.912,4.043,11.953,8.164,17.728,12.536c-1.936,3.664-2.719,7.741-3.659,11.747
		c-0.492,2.1-0.64,6.99,2.73,6.925c2.456-0.048,3.188-3.298,3.596-5.207c0.864-4.04,0.465-7.756-0.376-11.703
		c1.686,1.315,3.351,2.648,4.97,4.016c1.185,1.002,2.338,2.045,3.47,3.113c-1.371,3.708-1.912,7.378-1.54,11.14
		c-3.363,2.554-8.83,5.996-6.767,10.218c0.797,1.621,2.695,1.998,4.237,1.318c1.97-0.869,3.097-3.249,3.899-5.448
		c1.699,4.915,4.602,9.475,6.946,14.06c1.064,2.081,4.036-0.015,2.985-2.069c-2.417-4.728-5.125-9.333-6.593-14.137
		c2.025,1.634,4.8,3.536,6.065,1.427c2.039-3.402-4.325-5.569-7.1-6.764c-0.161-2.237,0.041-4.539,0.742-6.932
		c5.362,5.452,10.259,11.449,15.308,17.102c4.906,5.496,9.746,11.347,13.925,17.605c-0.783,1.769-1.92,3.371-2.479,5.257
		c-0.441,1.489-0.136,4.482,1.954,4.538c1.661,0.045,2.075-2.605,2.304-3.77c0.166-0.841,0.312-1.721,0.408-2.606
		c0.624,1.02,1.229,2.051,1.812,3.092c-2.091,3.432-7.274,10.215-3.518,12.819c3.549,2.459,5.164-4.408,5.73-8.586
		c2.489,5.127,4.407,10.506,5.479,16.165c0.433,2.281,4.059,2.018,3.623-0.279c-1.032-5.448-2.773-10.641-5.029-15.603
		c1.181,0.773,2.451,1.399,3.817,1.795c1.477,0.429,4.075,0.721,4.435-1.305C382.816,122.565,380.147,121.096,378.51,120.579z
		 M371.27,91.076c0.456-0.389,0.63-0.293,0.945,0.185c0.597,0.903,0.371,1.634-0.271,2.411c-0.898,1.086-2.307,1.921-3.705,2.454
		c-0.035-0.009-0.071-0.017-0.106-0.026C368.978,94.286,369.762,92.364,371.27,91.076z M370.048,102.898
		c0.441,0.691,0.676,1.42,0.773,2.229c0.18,1.498-1.825-0.563-1.858-0.611c-0.943-1.334-1.409-2.955-1.896-4.549
		C368.316,100.648,369.241,101.638,370.048,102.898z M346.846,80.072c0.173,0.383,0.159,0.93,0.191,1.341
		c0.02,0.281,0.017,0.563-0.008,0.843c-0.059,0.753-0.362-0.193-0.511-0.409c-0.925-1.339-1.219-3.113-1.408-4.869
		C345.751,77.971,346.35,78.985,346.846,80.072z M346.454,62.62c1.22,0.454-0.164,4.388-0.412,5.13
		c-0.397,1.193-0.868,2.59-1.575,3.722c-0.02-0.003-0.041-0.007-0.061-0.011C344.323,68.288,344.344,61.837,346.454,62.62z
		 M322.423,77.333c-0.174,1.909-0.619,4.468-1.781,6.044c-1.16-0.098-1.741-0.649-1.747-1.653c-0.118-0.735,0.046-1.505,0.167-2.228
		c0.196-1.169,0.561-2.306,0.799-3.467c0.448-2.191,1.033-4.355,1.883-6.415C322.281,72.162,322.663,74.706,322.423,77.333z
		 M334.735,56.001c1.527-0.584,3.729,0.257,3.056,2.242c-0.425,1.254-1.619,2.354-2.584,3.207c-2.817,2.494-6.51,3.679-10.207,3.921
		C327.832,61.971,330.503,57.621,334.735,56.001z M328.183,95.513c-0.741,1.028-2.35,2.223-3.174,0.535
		c-0.487-0.996,0.366-2.289,0.91-3.054c1.193-1.677,2.93-2.893,4.622-4.132c0.06,0.329,0.147,0.661,0.221,0.993
		C330.076,91.838,329.421,93.794,328.183,95.513z M339.472,91.266c-0.193,0.501-4.705-3.042-5.241-3.421
		c-0.022-0.124-0.041-0.249-0.062-0.374C336.489,88.403,340.002,89.891,339.472,91.266z M364.109,117.541
		c-0.134,1.015-0.228,2.473-0.791,3.431c-0.019-0.025-0.032-0.042-0.054-0.072c-0.208-0.283-0.229-0.648-0.247-0.982
		c-0.044-0.894,0.415-1.835,0.774-2.625c0.143-0.315,0.302-0.621,0.466-0.927C364.211,116.76,364.16,117.153,364.109,117.541z
		 M367.563,112.269c1.499-0.383,2.983-0.857,4.544-0.989c0.538-0.045,1.107-0.043,1.614,0.163c0.685,0.28-0.566,0.955-0.817,1.103
		c-1.591,0.945-3.321,0.811-4.979,0.284C367.805,112.642,367.683,112.456,367.563,112.269z M367.764,126.742
		c-0.12,0.543-1.873,6.11-2.715,3.798c-0.647-1.779,1.402-4.77,2.217-6.224c0.383-0.684,0.804-1.352,1.224-2.021
		C368.374,123.79,368.087,125.292,367.764,126.742z M379.71,124.508c-0.699-0.05-1.404-0.244-2.058-0.487
		c-1.594-0.594-3.015-1.566-4.301-2.676c2.315,0.26,4.707,0.545,6.504,1.889C380.595,123.788,380.873,124.592,379.71,124.508z
		 M348.377,123.923c-1.3-0.978-2.877-1.595-4.461-2.077c0.754-1.548,1.563-3.049,2.234-4.467c1.003-2.116-2.288-3.655-3.293-1.534
		c-0.934,1.971-2.033,4.053-2.961,6.195c-3.516,0.889-11.776,2.873-8.814,7.154c1.504,2.168,4.508,0.592,6.978-1.291
		c-0.381,2.389-0.22,4.802,0.911,7.181c0.997,2.097,4.433,0.91,3.429-1.201c-1.364-2.87-0.951-5.839,0.088-8.722
		c0.004,0.004,0.005,0.008,0.009,0.012c1.35,1.314,5.436,5.822,7.387,3.283C351.114,126.856,349.663,124.891,348.377,123.923z
		 M338.77,124.995c-1.857,1.695-4.829,4.135-6.182,3.162c-1.65-1.184,3.017-2.906,3.609-3.122c0.939-0.343,1.897-0.618,2.859-0.881
		C338.955,124.434,338.861,124.714,338.77,124.995z M343.137,123.534c0.002-0.005,0.004-0.011,0.006-0.016
		c0.029,0.009,0.057,0.019,0.086,0.028C343.198,123.54,343.168,123.535,343.137,123.534z M348.431,127.38
		c-0.687,0.585-4.209-3.057-4.769-3.603c-0.083-0.081-0.171-0.135-0.258-0.176c0.791,0.257,1.571,0.545,2.333,0.889
		C346.178,124.69,349.472,126.495,348.431,127.38z"/>
	<g>
		<path fill="#FD8D89" d="M340.212,103.267c-3.898-2.749-0.6-12.435,4.969-11.248c6.589,1.533,5.492,6.421,3.035,11.13
			c3.128-3.343,10.703-2.612,11.732,2.717c1.443,7.034-3.814,6.646-7.855,5.981c4.078,1.389,10.637,4.637,5.832,10.394
			c-3.949,4.913-12.132,0.134-11.885-5.186c-2.059,2.286-3.09,3.64-6.455,3.917c-2.341,0.196-4.851-0.372-6.972-1.237
			c-2.506-0.996-3.514-3.045-1.923-5.632c1.508-2.757,4.362-2.782,7.17-2.678c-3.444-0.745-9.601-3.126-7.017-7.793
			c2.586-4.664,6.352-1.107,9.836-0.064"/>
	</g>
	<g>
		<path fill="#FD8D89" d="M363.756,84.243c-2.424,3.061-7.52,8.886-11.358,2.853c-3.441-5.413,2.332-7.185,6.305-9.902
			c-6.137-0.087-9.578-7.591-6.182-12.409c4.086-5.829,7.477-0.196,10.108,3.642c-2.63-5.929,5.291-10.206,9.792-6.417
			c4.979,4.244,2.567,8.818-1.517,12.555c4.562,0.899,9.368,6.964,7.043,11.674C375.005,92.671,368.169,85.806,363.756,84.243"/>
	</g>
	<g>
		<path fill="#FD8D89" d="M402.213,111.404c1.648,3.902-0.816,11.5-6.213,11.628c-4.526-0.039-3.836-5.894-5.374-9.215
			c-1.991,2.188-9.628,6.357-12.744,4.24c-4.9-3.582,1.422-9.908,4.452-11.391c-6.048,1.455-8.447-9.531-3.66-12.854
			c5.313-3.725,9.563,1.186,13.716,4.007c5.558-11.904,22.43,0.223,13.148,6.814C408.473,107.386,405.824,109.811,402.213,111.404"
			/>
	</g>
	<g>
		<path fill="#FD8D89" d="M379.901,161.884c-7.123,14.608-19.176,0.119-7.303-8.858c-5.258-1.293-12.855-6.692-11.346-12.827
			c2.369-9.642,10.888-3.458,15.716-0.414c3.476-17.176,21.761-10.637,15.253,4.493c18.07-3.181,12.714,26.174,0.537,13.701
			c2.489,9.535-11.458,14.1-12.55,4.166"/>
	</g>
	<g>
		<path fill="#FD8D89" d="M349.785,149.552c9.271,9.216-6.107,21.009-10.956,5.54c-7.936,10.335-16.536-1.379-6.776-8.545
			c-14.085-4.18,0.57-24.456,8.999-11.615c0.143-14.127,21.808-0.99,9.897,3.249c10.741-0.375,5.866,10.717-1.815,11.85"/>
	</g>
</g>
<path fill="#686468" d="M286.421,10.942c-5.282-4.644-13.039,4.347-7.606,9.056C286.058,26.154,291.854,15.719,286.421,10.942z"/>
<path fill="#686468" d="M391.875,208.647c-5.282-4.643-13.039,4.346-7.607,9.056C391.512,223.86,397.308,213.424,391.875,208.647z"
	/>
<path fill="#686468" d="M143.4,77.417c-5.282-4.644-13.039,4.346-7.606,9.056C143.037,92.63,148.833,82.195,143.4,77.417z"/>
<path fill="#686468" d="M296.375,363.705c-5.283-4.643-13.039,4.347-7.607,9.056C296.012,378.919,301.809,368.483,296.375,363.705z"
	/>
<path fill="#686468" d="M234.158,51.32c-4.699-0.783-8.693,6.52-3.26,9.056C235.969,62.186,240.678,52.407,234.158,51.32z"/>
<path fill="#686468" d="M290.202,388.232c-4.699-0.783-8.693,6.519-3.26,9.055C292.014,399.098,296.722,389.318,290.202,388.232z"/>
<path fill="#686468" d="M254.962,407.152c-4.699-0.783-8.693,6.52-3.26,9.056C256.773,418.018,261.481,408.238,254.962,407.152z"/>
<path fill="#686468" d="M72.688,300.46c-4.699-0.783-8.693,6.52-3.26,9.056C74.499,311.327,79.208,301.547,72.688,300.46z"/>
<path fill="#686468" d="M443.53,252.959c-4.7-0.783-8.693,6.519-3.26,9.056C445.341,263.825,450.05,254.046,443.53,252.959z"/>
<path fill="#686468" d="M410.608,300.46c-4.699-0.783-8.693,6.52-3.26,9.056C412.419,311.327,417.128,301.547,410.608,300.46z"/>
<path fill="#686468" d="M338.072,387.81c-4.699-0.783-8.693,6.52-3.26,9.056C339.883,398.676,344.592,388.897,338.072,387.81z"/>
<path fill="#686468" d="M362.402,152.846c-4.699-0.783-8.693,6.52-3.26,9.056C364.213,163.713,368.922,153.933,362.402,152.846z"/>
<path fill="#686468" d="M258.491,367.051c-4.699-0.783-8.693,6.521-3.26,9.056C260.302,377.917,265.011,368.137,258.491,367.051z"/>
<path fill="#686468" d="M391.595,78.272c-4.699-0.783-8.693,6.519-3.26,9.056C393.406,89.138,398.114,79.359,391.595,78.272z"/>
<path fill="#686468" d="M114.167,405.39c-4.699-0.783-8.693,6.52-3.26,9.055C115.978,416.256,120.687,406.476,114.167,405.39z"/>
<path fill="#686468" d="M401.136,194.761c-4.698-0.783-8.693,6.52-3.26,9.056C402.948,205.628,407.656,195.848,401.136,194.761z"/>
<path fill="#686468" d="M77.781,78.272c-4.699-0.783-8.693,6.52-3.26,9.056C79.592,89.138,84.3,79.359,77.781,78.272z"/>
<path fill="#686468" d="M26.026,300.352c-3.806,1.384-11.229,8.33-3.984,9.78C29.648,311.218,33.995,297.454,26.026,300.352z"/>
<path fill="#686468" d="M401.959,129.536c-8.395,1.007-8.693,14.126,0.362,11.592C409.565,139.315,408.842,128.71,401.959,129.536z"
	/>
<path fill="#686468" d="M70.298,385.974c-8.395,1.008-8.693,14.126,0.362,11.592C77.904,395.754,77.18,385.148,70.298,385.974z"/>
<path fill="#686468" d="M184.42,360.36c-8.396,1.008-8.693,14.126,0.362,11.591C192.026,370.139,191.302,359.534,184.42,360.36z"/>
<path fill="#686468" d="M232.33,418.508c-8.395,1.008-8.693,14.126,0.363,11.592C239.936,428.287,239.212,417.682,232.33,418.508z"
	/>
<path fill="#686468" d="M386.158,175.01c-8.396,1.008-8.693,14.126,0.363,11.593C393.764,184.79,393.04,174.184,386.158,175.01z"/>
<path fill="#686468" d="M94.819,50.642c-8.525,0-10.865,11.59-1.809,10.503C101.34,60.059,101.248,50.642,94.819,50.642z"/>
<path fill="#686468" d="M108.116,389.852c-8.526,0-10.867,11.59-1.81,10.503C114.636,399.269,114.546,389.852,108.116,389.852z"/>
<path fill="#686468" d="M77.859,202.898c7.416-4.205,3.738-15.441-3.605-10.03C67.543,197.922,72.265,206.069,77.859,202.898z"/>
<path fill="#686468" d="M213.647,17.75c7.416-4.205,3.738-15.441-3.605-10.03C203.331,12.773,208.053,20.92,213.647,17.75z"/>
<path fill="#686468" d="M185.762,381.335c-8.525,0-10.866,11.59-1.81,10.503C192.281,390.751,192.191,381.335,185.762,381.335z"/>
<path fill="#686468" d="M24.081,135.439c2.984-7.987-7.055-14.234-9.206-5.37C12.979,138.252,21.832,141.462,24.081,135.439z"/>
<path fill="#686468" d="M271.503,63.891c2.982-7.988-7.056-14.234-9.207-5.371C260.401,66.704,269.253,69.914,271.503,63.891z"/>
<path fill="#686468" d="M19.072,299.908c2.983-7.988-7.056-14.234-9.206-5.371C7.969,302.721,16.822,305.931,19.072,299.908z"/>
<path fill="#686468" d="M46.321,323.456c-2.887,0.221-6.881-5.07-7.607-8.331c-0.724-4.709,2.9-6.519,6.521-5.433
	c2.083,0.724,3.564,1.918,4.521,3.309C52.628,317.174,50.784,323.117,46.321,323.456z"/>
<path fill="#686468" d="M21.064,117.73c-2.886,0.221-6.88-5.07-7.606-8.33c-0.724-4.71,2.899-6.519,6.52-5.433
	C28.31,106.864,27.014,117.278,21.064,117.73z"/>
<path fill="#686468" d="M385.206,62.961c-2.887,0.221-6.88-5.07-7.606-8.33c-0.724-4.71,2.899-6.52,6.519-5.433
	C392.451,52.095,391.156,62.51,385.206,62.961z"/>
<path fill="#686468" d="M221.933,15.365c-6.953,2.334-1.087,15.213,6.157,9.78C235.335,20.074,229.485,12.83,221.933,15.365z"/>
<path fill="#686468" d="M410.749,320.733c-6.952,2.334-1.087,15.213,6.158,9.78C424.151,325.442,418.301,318.199,410.749,320.733z"
	/>
<path fill="#686468" d="M308.798,88.48c-5.446,0-6.519,7.606-0.725,7.967C315.317,96.81,313.531,88.48,308.798,88.48z"/>
<path fill="#686468" d="M124.227,98.7c-5.445,0-6.52,7.606-0.725,7.967C130.747,107.03,128.961,98.7,124.227,98.7z"/>
<path fill="#686468" d="M323.07,25.654c-5.184,3.888,3.626,11.953,6.886,7.244C333.577,27.828,325.967,23.481,323.07,25.654z"/>
<path fill="#686468" d="M73.313,170.912c-5.184,3.888,3.627,11.953,6.887,7.243C83.821,173.086,76.21,168.738,73.313,170.912z"/>
<path fill="#686468" d="M402.447,342.484c-5.183,3.888,3.627,11.953,6.887,7.243C412.956,344.658,405.345,340.311,402.447,342.484z"
	/>
<path fill="#686468" d="M441.86,194.992c-3.068-5.707-12.361,1.794-8.194,5.723C438.136,205.055,443.575,198.182,441.86,194.992z"/>
<path fill="#686468" d="M72.216,138.955c-5.183,3.888,3.627,11.953,6.887,7.243C82.725,141.128,75.114,136.781,72.216,138.955z"/>
<path fill="#686468" d="M61.805,165.328c-1.389-6.328-12.38-1.654-9.446,3.264C55.472,173.99,62.582,168.865,61.805,165.328z"/>
<path fill="#686468" d="M418.388,260.633c-1.389-6.328-12.381-1.655-9.447,3.264C412.053,269.294,419.164,264.17,418.388,260.633z"
	/>
<path fill="#686468" d="M367.763,379.002c-1.389-6.328-12.381-1.655-9.447,3.264C361.428,387.664,368.539,382.54,367.763,379.002z"
	/>
<path fill="#686468" d="M194.296,418.214c-3.684,0.005-4.903,6.229-0.265,6.229C199.465,424.443,198.447,418.21,194.296,418.214z"/>
<path fill="#686468" d="M58.904,328.858c-3.684,0.005-4.903,6.229-0.265,6.229C64.073,335.087,63.055,328.854,58.904,328.858z"/>
<path fill="#686468" d="M23.86,198.997c-3.684,0.005-4.903,6.229-0.265,6.229C29.029,205.225,28.011,198.992,23.86,198.997z"/>
<path fill="#686468" d="M385.558,254.779c-6.262,0.008-8.335,10.587-0.451,10.587C394.344,265.367,392.615,254.771,385.558,254.779z
	"/>
<g>
	<path fill="#B1BC9F" d="M316.825,35.951c-1.252-0.738-2.562-0.983-3.9-1.016c1.254,0.672,2.395,1.588,3.475,2.731
		c0.807,0.854-0.603,2.001-1.402,1.155c-1.989-2.106-4.121-3.246-7.044-3.346c-0.2-0.007-0.346-0.078-0.468-0.17
		c-0.159,0.007-0.318,0.014-0.477,0.016c-1.033,0.016-0.985-1.393-0.158-1.729c0.101-0.243,0.306-0.437,0.661-0.468
		c2.814-0.238,5.162-1.386,7.299-3.2c0.895-0.759,2.047,0.646,1.155,1.403c-0.851,0.722-1.746,1.352-2.687,1.88
		c1.541,0.052,3.06,0.357,4.609,1.271C318.898,35.074,317.826,36.541,316.825,35.951z M286.669,51.818
		c1.379,1.886-1.421,4.202-2.805,2.311c-4.225-5.782-9.5-11.291-15.886-14.736c0.936,1.683,1.517,3.567,1.622,5.618
		c0.132,2.59-1.461,5.292-4.431,4.459c-4.338-1.218-5.541-8.51-4.774-13.101c-1.857-0.539-3.773-0.977-5.722-1.306
		c2.882,4.458,4.315,11.243-1.843,13.309c-2.873,0.964-4.574-2.146-4.647-4.574c-0.102-3.417,0.689-6.558,2.686-9.238
		c-1.884-0.183-3.777-0.269-5.653-0.259c2.247,3.877,3.871,11.062-1.058,12.611c-3.037,0.954-5.477-0.84-6.075-3.916
		c-0.675-3.469,0.673-6.005,2.639-8.474c-1.477,0.135-2.93,0.327-4.341,0.59c-2.304,0.43-2.878-3.157-0.579-3.586
		c1.125-0.21,2.258-0.366,3.393-0.49c-1.399-1.416-2.621-3.054-3.39-4.805c-0.941-2.14-1.552-5.542,0.866-7.063
		c2.39-1.502,4.979-0.362,6.474,1.91c2.052,3.118,1.488,6.186,1.474,9.666c1.739,0.001,3.479,0.085,5.212,0.249
		c-1.609-3.544-2.667-7.14-0.704-10.919c1.288-2.482,4.404-4.134,6.942-2.249c4.337,3.222,1.09,10.074-1.874,13.713
		c2.305,0.332,4.631,0.72,6.901,1.291c1.589-3.518,4.064-14.835,9.498-11.598c6.96,4.146-0.989,10.36-6.097,12.632
		c0.681,0.246,1.356,0.509,2.016,0.808c0.257,0.116,0.508,0.242,0.762,0.364c0.023-0.005,0.041-0.014,0.064-0.018
		c5.813-1.007,11.8-3.094,17.624-1.063c2.212,0.771,0.902,4.16-1.311,3.389c-3.7-1.289-7.7-0.487-11.557,0.379
		C277.805,41.395,282.641,46.307,286.669,51.818z M241.62,30.828c0.4-0.023,0.799-0.038,1.199-0.052
		c0.019-2.58,0.704-5.405-0.616-7.777c-0.572-1.029-1.497-2.358-2.71-2.683c-1.602-0.429-2.765,1.026-2.741,2.439
		C236.805,25.802,239.253,28.805,241.62,30.828z M243.147,34.419c-1.829,2.041-3.822,4.337-3.445,7.217
		c0.153,1.173,0.447,2.851,1.61,3.486c1.096,0.599,2.731,0.245,3.441-0.822C246.544,41.609,245.044,36.956,243.147,34.419z
		 M264.398,29.051c-0.43,1.124-0.79,2.306-1.226,3.447c2.452-0.839,4.956-2.391,6.689-4.219c0.903-0.953,2.113-2.519,1.343-3.898
		c-0.522-0.933-1.765-2.295-2.953-1.617C266.198,23.936,265.192,26.976,264.398,29.051z M251.936,31.229
		c0.051,0.007,0.102,0.011,0.152,0.018c0.023-0.029,0.031-0.062,0.058-0.09c2.088-2.15,5.496-7.632,3.857-10.724
		c-2.117-3.994-5.976,0.36-6.168,3.244C249.652,26.428,250.758,28.839,251.936,31.229z M252.615,35.276
		c-1.695,2.131-2.533,4.525-2.629,7.328c-0.037,1.06-0.024,2.617,0.716,3.479c1.002,1.164,3.083,0.263,3.867-0.829
		C256.654,42.348,254.638,37.957,252.615,35.276z M267.505,42.979c-0.525-2.054-1.535-3.747-2.921-5.164
		c-0.802-0.323-1.619-0.627-2.454-0.905c-0.487,3.228,0.245,7.632,2.053,9.763c0.861,1.014,3.28,2.1,3.545-0.426
		C267.843,45.151,267.778,44.049,267.505,42.979z M298.853,73.313c-0.49-0.466-1.167-0.26-1.483,0.147
		c-0.481-0.014-0.94,0.361-0.992,0.812c-0.471-0.086-1.005,0.141-1.075,0.754c-0.254,2.22-0.336,4.762-2.247,6.253
		c-0.924,0.721,0.231,2.124,1.155,1.403c2.246-1.753,2.566-4.542,2.866-7.185c1.226,1.667,1.523,3.68,1.38,5.766
		c-0.08,1.168,1.725,1.366,1.806,0.198c0.12-1.742-0.028-3.479-0.627-5.053c1.663,1.407,3.387,2.741,5.072,4.126
		c0.906,0.746,1.964-0.732,1.063-1.473C303.457,77.157,301.03,75.378,298.853,73.313z"/>
	<path fill="#FD8D89" d="M306.749,44.872c3.677-0.742,6.377-3.312,5.032-7.229c-0.682-1.981-2.724-2.853-4.885-3.203
		c2.505-1.122,4.772-2.851,5.461-5.568c0.973-3.849-2.921-5.815-6.037-6.31c-5.677-0.898-10.747-0.202-15.862,1.814
		c-3.719,1.472-8.19,7.236-7.652,11.59C284.144,46.745,298.903,46.452,306.749,44.872z"/>
	<path fill="#FD8D89" d="M298.461,74.355c0.114,0.135,0.278,0.244,0.49,0.296c3.286,0.793,6.613,0.471,8.456-2.667
		c1.794-3.05,0.958-7.128-0.205-10.227c-2.248-5.942-9.495-11.996-16.446-12.774c-1.85-0.21-3.676-0.05-5.382,0.587
		c-8.474,3.16-5.947,16.527-2.215,22.235C286.521,76.941,295.312,81.243,298.461,74.355z"/>
</g>
<g>
	<path fill="#B1BC9F" d="M101.577,126.762c-7.032,3.593-15.574,3.766-23.296,3.648c-0.33-0.005-0.611-0.087-0.854-0.215
		c-4.643,3.549-9.133,7.264-13.113,11.514c-3.1,3.311-6.118,6.781-8.904,10.429c8.102,3.641,17.419,0.623,25.688-1.153
		c2.269-0.487,3.386,2.973,1.091,3.466c-9.423,2.024-19.835,5.218-28.965,0.663c-3.627,5.125-6.745,10.59-8.95,16.45
		c-0.826,2.195-4.058,0.526-3.243-1.639c1.177-3.127,2.622-6.159,4.26-9.101c-0.045-0.053-0.093-0.099-0.135-0.16
		c-3.979-5.781-4.96-12.494-5.03-19.372c-0.024-2.339,3.604-2.523,3.628-0.176c0.058,5.737,0.712,11.269,3.598,16.215
		c3.912-6.264,8.66-12.07,13.617-17.365c0.451-0.481,0.912-0.95,1.374-1.419c-0.145-0.185-0.257-0.418-0.323-0.706
		c-0.966-4.239-2.392-8.888-2.083-13.274c0.29-4.122,1.258-8.058,2.579-11.963c0.744-2.196,4.305-1.463,3.556,0.751
		c-1.19,3.516-2.385,7.296-2.506,11.036c-0.123,3.806,0.82,7.632,1.686,11.345c8.628-7.965,18.692-14.287,27.662-21.853
		c1.763-1.487,4.476,0.935,2.691,2.442c-4.366,3.683-9.037,7.063-13.671,10.491c6.014-0.007,12.427-0.431,17.699-3.124
		C101.698,122.637,103.668,125.694,101.577,126.762z"/>
	<path fill="#FD8D89" d="M67.101,114.436c3.891-1.133,6.735-5.119,8.845-8.335c1.967-2.994,4.442-7.771,2.737-11.405
		c-3.264-6.949-8.478-1.796-11.34,2.724c0.188-2.693-0.049-5.73-2.038-7.123c-3.28-2.307-5.625,0.992-6.78,3.807
		c-1.755,4.276-2.27,9.324-0.808,13.739C59.072,111.951,62.49,115.777,67.101,114.436z"/>
	<path fill="#FD8D89" d="M100.757,151.551c1.619-3.866-2.517-5.185-6.169-5.335c0.556-0.701,0.93-1.543,0.983-2.603
		c0.147-2.935-2.57-3.648-4.904-3.208c-4.86,0.906-15.452,8.786-8.942,14.055c2.642,2.133,8.079,2.801,11.296,2.065
		C93.02,156.525,99.264,155.127,100.757,151.551z"/>
	<path fill="#FD8D89" d="M114.895,109.45c-1.326-1.226-3.035-1.486-4.683-1.32c1.457-1.515,2.836-3.429,2.543-5.497
		c-0.477-3.4-3.425-3.866-5.831-3.72c-3.555,0.217-6.942,2.919-9.513,5.53c-2.161,2.203-5.503,7.028-3.869,10.895
		c1.479,3.499,4.939,3.642,7.816,3.677c4.193,0.042,8.279-0.822,11.897-3.248C114.942,114.64,117.33,111.69,114.895,109.45z"/>
	<path fill="#FD8D89" d="M98.211,127.822c1.88,5.834,12.162,9.064,17.511,7.047c2.012-0.76,3.058-3.509,1.625-5.291
		c-0.68-0.851-1.512-1.466-2.427-1.898c1.568-0.372,2.937-1.118,3.308-2.726c0.623-2.739-1.306-4.257-3.711-4.944
		c-3.704-1.069-8.28,0.354-11.729,1.676C100.624,122.507,97.329,125.098,98.211,127.822z"/>
	<path fill="#FD8D89" d="M45.466,122.512c-2.084,0.63-3.249,2.113-3.842,3.907c-0.574-1.585-1.422-2.93-3.306-3.778
		c-2.551-1.151-4.284,1.747-5.002,3.671c-2.222,5.922,0.483,14.335,7.22,15.507c7.333,1.279,9.944-10.325,9.179-15.593
		C49.426,124.244,47.865,121.786,45.466,122.512z"/>
</g>
<g>
	<path fill="#FDAA68" d="M391.27,248.362c2.294,1.222,4.513-0.097,6.263-2.095c-0.094,0.771-0.106,1.552,0.022,2.348
		c0.277,1.722,2.019,3.198,3.797,2.791c2.673-0.611,4.454-3.441,5.745-6.299c0.057,3.873,0.699,8.308,4.24,6.377
		c2.085-1.137,3.347-3.414,4.359-5.788c-0.186,1.692-0.202,3.356,0.771,5.021c0.947,1.621,2.923,2.37,4.524,1.368
		c1.642-1.028,2.58-3.264,3.139-5.681c0.187,0.66,0.433,1.307,0.778,1.938c0.786,1.435,3.014,2.813,4.633,1.97
		c1.866-0.971,2.523-3.316,2.767-5.779c1.019,2.764,2.631,5.02,5.469,2.945c1.761-1.287,1.573-4.265,0.959-6.939
		c2.285,2.608,5.203,5.334,7.993,3.325c1.614-1.162,1.648-2.827,0.84-4.554c-1.217-2.602-4.578-3.214-6.808-4.626
		c-0.082-0.051-0.161-0.083-0.239-0.106c-0.199-2.289-2.116-21.708-10.686-30.859c-8.774-9.147-19.438-5.13-26.773,3.529
		c-7.141,8.748-9.998,20.978-7.762,32.128c-2.02,1.226-4.116,2.271-5.4,4.374C388.794,245.563,389.538,247.439,391.27,248.362z
		 M412.602,247.467c-1.048,1.808-3.461,4.172-3.69,0.102c-0.108-1.924,0.156-3.812,0.136-5.735c2.003-0.001,4.117-0.045,6.266-0.135
		C414.464,243.646,413.678,245.613,412.602,247.467z M437.14,244.712c-0.276,3.194-2.958,0.404-3.477-1.2
		c-0.403-1.245-0.552-2.55-0.848-3.82c1.3-0.296,2.48-0.624,3.51-0.986C436.914,240.653,437.311,242.732,437.14,244.712z
		 M444.087,238.415c1.307,0.644,2.039,1.549,2.233,2.937c0.326,2.331-3.265,0.692-3.752,0.361c-1.546-1.05-2.68-2.605-3.895-4.05
		c0.658-0.382,1.16-0.792,1.486-1.232C441.419,237.198,442.764,237.762,444.087,238.415z M430.636,240.136
		c-0.112,2.203-0.196,4.392-0.747,6.551c-0.734,2.879-2.949,2.104-3.95-0.38c-0.664-1.645-0.63-3.554-0.779-5.364
		C427.086,240.719,428.93,240.451,430.636,240.136z M423.034,241.169c-0.271,2.447-0.815,4.928-1.686,7.192
		c-0.96,2.496-3.358,3.652-4.027-0.461c-0.341-2.093,0.504-4.195,0.521-6.328C419.586,241.469,421.33,241.336,423.034,241.169z
		 M406.464,241.81c-0.905,2.181-1.935,4.324-3.373,6.197c-0.514,0.672-1.137,1.266-1.929,1.589
		c-2.018,0.825-1.921-2.603-1.757-3.648c0.237-1.514,0.791-2.959,1.205-4.435C402.28,241.665,404.271,241.766,406.464,241.81z
		 M393.523,242.555c0.902-0.661,1.905-1.178,2.875-1.745c0.543,0.182,1.304,0.34,2.24,0.475c-0.931,2.188-2.472,4.281-4.604,5.292
		c-1.385,0.673-2.221,0.002-2.509-2.014C392.012,243.723,392.677,243.053,393.523,242.555z"/>
	<g>
		<path fill="#B1BC9F" d="M402.732,178.797c2.701,0.655,4.954-2.441,6.253-4.374c2.052-3.051,3.585-5.998,4.281-9.628
			c0.075-0.387,0.129-0.737,0.188-1.052c0.469,2.092,0.91,4.19,1.317,6.295c-0.001,0.002-0.002,0.004-0.003,0.007
			c-2.302,5.391-7.273,9.028-9.504,14.391c-1.021,2.455,0.485,6.836,3.838,5.735c2.958-0.971,4.305-4.863,5.287-7.474
			c0.66-1.755,1.18-3.548,1.669-5.35c1.078,6.757,1.857,13.57,2.375,20.426c-2.774,0.285-8.014,1.939-6.661,5.217
			c1.122,2.719,3.511,1.42,5.457-0.349c-0.484,2.309-0.403,4.653,2.218,4.469c1.585-0.111,1.913-1.75,1.799-3.579
			c0.455,0.517,0.966,0.981,1.585,1.34c0.919,0.532,2.982,0.845,3.497-0.462c1.538-3.909-3.372-4.959-6.038-6.135
			c-0.493-6.722-1.232-13.406-2.256-20.037c1.541,2.511,3.532,4.618,6.188,6.34c1.614,1.046,6.919,3.789,7.497,0.051
			c0.439-2.834-3.579-5.267-5.461-6.632c-2.948-2.139-6.094-4-9.246-5.822c-0.417-2.299-0.87-4.592-1.36-6.877
			c3.415,4.011,9.195,8.86,12.914,4.239c4.153-5.16-5.645-7.742-8.749-8.605c-1.536-0.427-3.578-1.007-5.343-0.808
			c-1.595-6.636-3.505-13.207-5.777-19.691c-0.387-1.104-2.106-0.514-1.717,0.594c2.254,6.431,4.148,12.945,5.729,19.525
			c-0.539,0.141-1.001,0.406-1.401,0.766c-4.979,2.404-8.769,7.307-10.451,12.459C400.351,175.333,400.809,178.33,402.732,178.797z"
			/>
	</g>
</g>
<g>
	<path fill="#FD8D89" d="M212.553,417.004c-2.55,0.649-5.014-0.559-5.102-3.413c-0.157-3.251,3.715-4.54,5.928-5.951
		c-2.758-0.543-7.21-1.405-7.834-4.984c-0.728-4.176,3.939-5.604,6.912-7.352c-2.196-0.846-7.409-1.371-7.497-4.224
		c0.077-3.086,3.845-4.973,6.093-6.184c-2.49-0.181-6.227-0.074-7.22-2.634c-1.489-3.837,0.897-4.253,4.009-5.206
		c5.463-1.567,10.961-2.936,16.597-3.509c5.835-0.608,11.973-0.655,17.628,1.228c8.949,3.151,13.64,13.601,10.652,22.317
		c-2.858,8.283-11.085,12.791-19.626,15.509c-6.422,1.939-13.486,2.557-20.141,4.332"/>
	<g>
		<path fill="#B1BC9F" d="M212.224,394.686c-4.206,0.064-8.455,0.163-12.089,2.54c-0.488,0.319-0.033,1.106,0.458,0.784
			c3.503-2.291,7.583-2.354,11.631-2.416C212.809,395.585,212.81,394.677,212.224,394.686L212.224,394.686z"/>
	</g>
	<g>
		<path fill="#B1BC9F" d="M210.386,384.148c-3.526,0.274-7.075,2.001-10.591,0.86c-0.558-0.181-0.796,0.696-0.241,0.876
			c3.635,1.18,7.202-0.546,10.832-0.828C210.967,385.011,210.971,384.103,210.386,384.148L210.386,384.148z"/>
	</g>
	<g>
		<path fill="#B1BC9F" d="M200.645,410.448c2.343,0,2.343-3.633,0-3.633S198.302,410.448,200.645,410.448L200.645,410.448z"/>
	</g>
	<path fill="#B1BC9F" d="M213.734,408.242c-3.986,0.706-7.935,1.502-11.982,0.818c-0.577-0.097-0.332-0.972,0.241-0.876
		c3.872,0.655,7.686-0.142,11.499-0.818C214.065,407.265,214.31,408.14,213.734,408.242z M199.136,395.81
		c-2.343,0-2.342,3.633,0,3.633C201.479,399.443,201.479,395.81,199.136,395.81z M198.378,383.24c-2.343,0-2.343,3.633,0,3.633
		C200.721,386.873,200.721,383.24,198.378,383.24z M308.806,376.347c-9.871,4.145-20.503,9.167-31.397,11.96
		c2.406,3.25,9.391,11.667,3.752,13.734c-2.197,0.806-3.659-2.563-4.682-6.023c-0.163,1.36-0.48,2.685-1.044,3.915
		c-0.844,1.842-3.168,5.297-5.683,4.605c-3.295-0.907-1.125-6.624,1.123-11.1c-3.104,2.755-6.787,5.298-7.267,2.231
		c-0.327-2.086,2.133-3.647,3.612-4.66c0.493-0.338,0.997-0.679,1.51-1.015c-5.026,0.638-10.079,0.634-15.112-0.303
		c-0.267,2.869-1.3,8.982-5.282,6.82c-2.547-1.382-1.008-3.798,0.953-5.664c-2.367,0.237-4.693-0.12-4.28-2.891
		c0.245-1.636,2.374-1.66,4.4-1.292c-1.595-1.897-2.596-4.183,0.053-5.337l1.157,1.789c-0.195-0.155-0.406-0.195-0.638-0.047
		c-0.997,0.635,0.628,2.433,1.921,3.621c-0.153-0.879-0.391-1.925-0.711-2.688l2.493,3.856c5.872,1.139,11.789,0.957,17.663-0.058
		c-3.889-1.027-11.068-3.293-9.293-6.324c0.869-1.484,3.201-1.621,4.595-0.916c0.6,0.304,1.174,0.65,1.738,1.013
		c-2.944-3.533-5.426-7.62-2.657-9.242c2.089-1.224,5.059,2.197,6.019,3.526c1.197,1.657,2.297,3.318,3.153,5.084
		c0.275-1.51,0.926-2.894,2.454-4.212c1.373-1.185,3.166-1.911,4.346-0.063c1.555,2.438-1.58,6.999-3.726,9.655
		c10.545-2.832,20.838-7.733,30.347-11.726C309.403,374.142,309.869,375.901,308.806,376.347z M248.106,389.149
		c0.73-0.024,1.45-0.093,2.167-0.238c0.035-0.007,0.069-0.015,0.103-0.022c-0.074-0.058-0.122-0.132-0.169-0.206
		c-0.9-0.225-1.82-0.367-2.683-0.315C246.304,388.441,247.5,389.169,248.106,389.149z M251.7,391.178
		c-0.305,0.247-0.609,0.496-0.891,0.762c-0.219,0.206-3.161,3.273-1.093,3.087C251.06,394.906,251.515,392.908,251.7,391.178z
		 M276.52,385.217c1.308-1.67,2.521-3.618,3.206-5.507c0.201-0.554,0.627-1.439,0.421-2.037c-0.402-1.164-2.198,1.033-2.46,1.359
		C276.203,380.876,276.44,383.016,276.52,385.217z M266.661,374.942c1.164,4.244,4.958,7.44,7.928,10.592
		c-0.513-2.752-1.876-5.083-3.452-7.396c-0.708-1.038-1.429-2.175-2.405-2.992C268.215,374.714,266.152,373.087,266.661,374.942z
		 M264.031,382.641c1.916,1.696,4.499,2.534,7.045,3.204c-0.506-0.325-1.005-0.661-1.483-1.031c-0.613-0.475-1.78-1.435-2.451-1.871
		C266.278,382.186,265.241,382.086,264.031,382.641z M270.497,391.504c0.468-0.474,0.921-0.965,1.376-1.454
		c-2.512,1.22-5.282,2.98-6.341,4.815c-0.492,0.853,2.276-0.907,2.576-1.159C268.936,393.006,269.735,392.276,270.497,391.504z
		 M274.689,390.304c-1.414,2.656-2.78,5.329-3.9,8.127c-0.163,0.41-1.233,4.975,0.098,4.134
		C274.979,399.978,274.983,394.71,274.689,390.304z M278.852,393.429c-0.573-0.847-1.182-1.668-1.79-2.49
		c0.83,3.111,1.112,6.853,3.254,9.007c1.26,1.267,0.886-2.131,0.646-2.713C280.409,395.891,279.664,394.629,278.852,393.429z
		 M250.618,383.116l0.573,0.886C251.022,383.601,250.832,383.286,250.618,383.116z"/>
</g>
<path fill="#B1BC9F" d="M414.417,282.486c-1.346,3.594-4.42,3.847-7.408,1.803c-3.766-2.575-5.78-6.277-7.483-10.288
	c-1.328,2.784-2.731,5.535-4.207,8.238c3.94,3.612,12.929,9.32,9.039,13.988c-2.33,2.802-6.775,2.633-8.671-0.436
	c-1.779-2.875-2.15-6.208-2.663-9.484c-1.863,3.183-3.852,6.283-5.984,9.281c0.034,0.05,0.064,0.113,0.093,0.175
	c1.296,2.904,1.413,5.929,0.955,8.942c3.509,2.125,13.519,6.153,7.996,10.566c-3.45,2.755-7.729-1.086-9.372-4.96
	c-0.345,1.081-0.709,2.147-1.073,3.195c-2.334,6.693-5.901,12.676-10.55,18.023c-1.518,1.745-4.538-0.279-3.004-2.046
	c3.967-4.561,7.357-9.639,9.461-15.341c1.664-4.492,4.027-10.159,2.892-15.044c-2.888,3.744-6.025,7.297-9.47,10.602
	c-1.448,1.391-2.93,2.723-4.447,4.014c-3.762,3.185-7.735,6.073-11.866,8.721c-2.617,1.679-5.3,3.263-8.028,4.765
	c0.057,0.181,0.093,0.382,0.092,0.605c-0.049,10.257-2.306,19.555-7.675,28.344c-1.226,2.006-4.226-0.052-3.009-2.042
	c4.773-7.806,6.788-16.015,7.041-25.015c-3.303,1.706-6.662,3.308-10.057,4.821c0.216,2.234,0.787,4.419,0.915,6.663
	c0.108,1.713,0.156,4.462-1.806,5.202c-2.349,0.893-4.129-1.472-3.92-3.598c0.26-2.59,1.44-5.025,2.638-7.308
	c-4.487,1.949-9.028,3.77-13.575,5.508c-2.171,0.829-3.727-2.457-1.534-3.298c7.237-2.772,14.515-5.729,21.567-9.129
	c4.621-2.222,9.141-4.636,13.484-7.315c-2.25-1.504-4.593-2.746-7.017-3.752c-0.02,0.079-0.048,0.159-0.088,0.241
	c-1.108,2.183-3.324,9.006-6.474,10.621c-0.667,0.345-1.376,0.447-2.127,0.228c-2.332-0.686-3.456-4.158-2.176-6.145
	c1.82-2.814,5.044-4.221,7.719-6.123c-7.386-2.436-15.351-2.941-23.318-2.252c-2.314,0.196-2.976-3.375-0.636-3.577
	c8.175-0.707,16.364-0.267,24.009,2.046c-2.318-4.817-5.875-13.501,0.567-14.292c8.251-1.011,6.515,10.452,3.859,15.868
	c3.134,1.292,6.15,2.949,9.002,5.021c1.365-0.892,2.702-1.823,4.021-2.786c-1.212,0.116-2.419,0.118-3.503,0.031
	c-1.728-0.144-5.36-1.084-4.481-3.669c0.791-2.319,3.916-1.955,5.825-1.665c1.677,0.252,3.335,0.622,5.008,0.915
	c0.673,0.12,1.491,0.323,2.288,0.391c1.658-1.37,3.268-2.804,4.822-4.302c-3.477,1.098-7.011,0.822-8.487-2.716
	c-1.167-2.791,2.048-4.684,4.291-5.177c3.729-0.821,6.865,2.155,10.367,1.354c1.658-1.927,3.232-3.918,4.733-5.967
	c2.565-3.478,4.919-7.111,7.098-10.857c-3.759,2.132-7.837,4.299-12.092,4.485c-2.698,0.117-8.336-2.408-6.497-6.103
	c1.66-3.337,6.95-3.466,10.135-3.655c3.574-0.21,7.597-0.35,11.133,0.489c1.288-2.392,2.506-4.82,3.675-7.277
	c-3.368,1.602-6.678,3.401-10.364,4.153c-2.625,0.54-8.426,0.45-8.194-3.697c0.195-3.386,5.984-3.685,8.35-3.893
	c3.985-0.362,8.014-0.102,11.99-0.4c2.069-4.567,3.981-9.207,5.799-13.854c0.848-2.177,4.278-0.978,3.424,1.204
	c-1.916,4.905-3.944,9.819-6.141,14.654C407.134,272.291,416.906,275.852,414.417,282.486z"/>
<path fill="#FDAA68" d="M365.406,347.213c-7.008,5.497-22.406-1.132-21.163-12.474c1.369-10.854,19.982-3.946,25.146-1.706
	c-5.458-2.997-1.048-15.099,2.67-17.078c8.765-4.665,7.701,7.497,7.776,11.458c4.356-7.908,10.979-8.465,18.872-3.102
	c4.501,3.263,4.944,8.692,0.945,12.729c-3.737,3.86-8.936,3.933-13.748,4.32c5.719,2.821,12.388,15.121,7.493,21.291
	c-6.301,7.502-15.458-0.446-16.963-7.259c-1.191,4.624-11.538,16.384-15.403,7.918C358.508,358.141,362.966,351.344,365.406,347.213
	"/>
<g>
	<path fill="#FDAA68" d="M346.014,362.612c4.704-2.579,12.854,5.542,8.903,10.579c-4.805,5.897-9.2,2.372-12.741-2.437
		c1.829,4.813-2.654,12.099-8.542,10.505c-7.817-2.019-4.827-7.137-2.158-10.889c-3.419,3.433-9.942,8.451-13.382,0.75
		c-3.008-6.417,5.864-12.32,11.114-9.44c-1.291-3.208-2.15-4.92-0.765-8.455c0.958-2.464,2.774-4.714,4.697-6.43
		c2.244-2.038,4.813-2.043,6.638,0.843c2.039,2.887,0.652,5.779-0.841,8.565c2.457-3.109,7.907-8.15,11.341-3.232
		c3.434,4.916-2.021,6.961-4.798,9.962"/>
</g>
<g>
	<path fill="#FDAA68" d="M322.201,301.171c2.158-4.911,13.569-3.441,13.505,2.962c-0.215,7.603-5.848,7.489-11.586,5.832
		c4.383,2.702,5.27,11.211-0.371,13.536c-7.429,3.163-8.176-2.718-8.347-7.318c-0.618,4.804-2.732,12.757-10.152,8.749
		c-6.296-3.253-2.859-13.34,3.058-14.258c-2.979-1.757-4.703-2.589-5.758-6.236c-0.742-2.537-0.675-5.429-0.195-7.961
		c0.537-2.984,2.571-4.553,5.777-3.377c3.375,1.046,4.039,4.183,4.553,7.302c0.052-3.962,1.301-11.279,7.02-9.473
		c5.719,1.805,2.64,6.75,2.269,10.823"/>
</g>
<g>
	<path fill="#FDAA68" d="M305.394,355.276c-16.643,8.443-29.103-10.622-10.744-14.808c-11.842-12.796,3.308-21.873,13.019-8.219
		c13.846-18.451,33.023,11.93,12.536,16.971C329.2,365.393,304.793,369.129,305.394,355.276"/>
</g>
<g>
	<path fill="#B1BC9F" d="M184.193,72.64c2.3,0.477,2.689-3.134,0.416-3.609c-7.831-1.623-15.317-4.389-21.695-8.84
		c3.108-1.056,6.6-1.481,9.149-3.654c1.796-1.538,1.714-5.186-0.324-6.511c-0.658-0.425-1.365-0.531-2.104-0.391
		c-3.48,0.644-7.559,6.546-9.246,8.32c-0.062,0.067-0.112,0.136-0.154,0.206c-2.033-1.659-3.923-3.52-5.647-5.606
		c4.928-1.322,9.951-2.339,15.015-3.145c7.73-1.237,15.551-1.985,23.279-2.566c2.342-0.177,1.793-3.772-0.525-3.599
		c-4.855,0.362-9.727,0.806-14.584,1.387c1.802-1.844,3.63-3.838,4.622-6.245c0.81-1.977-0.219-4.753-2.724-4.57
		c-2.092,0.147-2.833,2.794-3.221,4.466c-0.52,2.187-0.6,4.444-1.033,6.646c-3.687,0.477-7.364,1.049-11.017,1.737
		c2.821-8.55,7.104-15.838,13.914-21.949c1.736-1.557-0.548-4.389-2.298-2.819c-7.663,6.882-12.489,15.144-15.475,24.956
		c-0.065,0.214-0.088,0.416-0.085,0.606c-3.044,0.658-6.068,1.406-9.057,2.265c-4.715,1.353-9.35,2.982-13.866,4.955
		c-1.824,0.802-3.626,1.654-5.411,2.571c-4.247,2.179-8.271,4.684-12.111,7.444c0.312-5.005,4.2-9.758,7.081-13.585
		c3.65-4.86,8.353-8.754,13.46-11.986c1.976-1.253-0.337-4.058-2.292-2.821c-5.986,3.79-11.117,8.5-15.272,14.244
		c-0.649,0.901-1.304,1.817-1.944,2.754c-0.464-4.182-3.462-9.088-7.558-7.438c-6.555,2.645,1.88,9.373,4.634,12.414
		c-1.302,2.755-2.056,5.687-1.647,8.841c0.01,0.068,0.02,0.136,0.039,0.195c-2.902,2.262-5.696,4.662-8.393,7.177
		c0.447-3.285,1.047-6.585,0.166-9.849c-0.937-3.484-5.147-4.919-8.182-2.903c-5.065,3.358,1.912,11.402,4.652,15.991
		c-2.189,2.167-4.321,4.4-6.391,6.687c-0.483-4.331-1.351-8.455-4.221-12.001c-2.277-2.814-5.295-3.452-7.615-0.395
		c-4.285,5.642,4.057,11.855,9.034,15.546c-3.491,4.003-6.842,8.13-10.083,12.281c-1.444,1.846,1.499,3.977,2.936,2.135
		c3.073-3.931,6.234-7.829,9.525-11.611c3.895,0.854,7.68,2.257,11.602,3.053c2.326,0.478,7.958,1.851,9.115-1.337
		c1.41-3.907-4.122-5.655-6.791-5.89c-3.747-0.336-7.434,0.44-11.119,1.009c1.824-2.02,3.687-3.996,5.606-5.919
		c3.148,1.817,7.042,2.836,10.526,3.658c3.105,0.731,8.21,2.124,10.757-0.597c2.821-3.013-1.857-7.047-4.476-7.709
		c-4.13-1.041-8.658-0.134-12.869,0.833c3.161-2.964,6.457-5.771,9.911-8.368c2.025-1.533,4.104-2.989,6.244-4.36
		c3.584,0.236,5.736,3.986,9.545,4.268c2.291,0.17,5.912-0.722,5.595-3.731c-0.4-3.812-3.708-5.089-7.353-5.034
		c1.918-0.989,3.872-1.902,5.852-2.739c0.744,0.294,1.469,0.723,2.08,1.03c1.52,0.76,3.001,1.59,4.536,2.311
		c1.746,0.825,4.635,2.069,6.058,0.074c1.582-2.224-1.627-4.166-3.241-4.799c-1.013-0.394-2.171-0.738-3.365-0.974
		c1.539-0.545,3.088-1.054,4.65-1.517c2.139,2.803,4.554,5.254,7.185,7.39c-4.097,4.428-9.044,14.912-0.849,16.308
		c6.398,1.089,5.479-8.25,4.639-13.53C168.439,68.206,176.159,70.975,184.193,72.64z"/>
	<g>
		<path fill="#FDAA68" d="M152.031,24.052c8.29-3.259,21.143,7.505,16.702,18.015c-4.422,10.007-20.275-1.946-24.581-5.572
			c4.37,4.435-3.322,14.767-7.451,15.597c-9.734,1.958-5.23-9.389-4.167-13.205c-6.439,6.328-12.945,4.964-18.97-2.435
			c-3.378-4.415-2.245-9.744,2.741-12.466c4.687-2.628,9.689-1.207,14.409-0.199c-4.671-4.342-7.535-18.036-1.078-22.546
			c8.187-5.381,14.682,4.857,14.172,11.816c2.466-4.089,15.749-12.392,17.025-3.173C161.772,15.559,155.554,20.794,152.031,24.052"
			/>
	</g>
	<g>
		<path fill="#FDAA68" d="M175.023,14.856c-5.246,1.122-10.727-8.993-5.499-12.686c6.293-4.273,9.494,0.363,11.509,5.986
			c-0.373-5.135,6.009-10.831,11.194-7.616c6.911,4.174,2.58,8.221-1.053,11.05c4.26-2.309,11.946-5.247,13.036,3.115
			c1.043,7.01-9.148,10.124-13.353,5.86c0.317,3.444,0.65,5.33-1.69,8.319c-1.624,2.086-4.008,3.722-6.342,4.815
			c-2.734,1.31-5.197,0.578-6.118-2.71c-1.126-3.35,1.031-5.724,3.259-7.965c-3.245,2.275-9.91,5.543-11.791-0.153
			c-1.881-5.694,3.931-6.089,7.452-8.17"/>
	</g>
	<g>
		<path fill="#FDAA68" d="M180.233,80.545c-3.475,4.086-13.985-0.592-12.09-6.708c2.385-7.222,7.748-5.499,12.771-2.267
			c-3.424-3.845-1.837-12.251,4.234-12.862c8.024-0.902,7.055,4.947,5.9,9.403c1.969-4.425,6.274-11.44,12.234-5.473
			c5.1,4.921-1.083,13.601-7.016,12.784c2.351,2.537,3.764,3.829,3.731,7.624c-0.017,2.644-0.909,5.395-2.094,7.683
			c-1.369,2.705-3.768,3.626-6.502,1.58c-2.934-1.969-2.671-5.166-2.27-8.301c-1.186,3.781-4.478,10.433-9.441,7.064
			c-4.961-3.368-0.595-7.224,0.928-11.019"/>
	</g>
	<g>
		<path fill="#FDAA68" d="M211.838,33.524c18.365-3.32,24.839,18.515,6.051,17.265c7.678,15.653-9.436,20.009-14.829,4.145
			c-18.552,13.71-28.22-20.892-7.148-19.852C191.929,17.009,216.382,20.423,211.838,33.524"/>
	</g>
</g>
<g>
	<g>
		<g>
			<path fill="#FDAA68" d="M104.533,357.847c-8.242,0.176-17.964-1.613-25.92-5.961c-3.035-1.902-7.821-4.821-9.362-8.34
				c-4.156-10.416,5.094-8.763,11.856-10.904c-2.003-7.234-8.93-16.916,1.623-21.543c7.98-2.813,13.365,3.353,17.332,9.107
				C104.028,325.96,124.67,355.479,104.533,357.847"/>
		</g>
		<path fill="#B1BC9F" d="M165.735,367.732c-1.853,1.199-2.445,3.311-2.691,5.392c-0.024,0.222-0.045,0.448-0.065,0.674
			c-0.569,6.508,2.417,12.346,5.141,18.057c-2.591-1.068-5.162-2.198-7.698-3.402c-0.42-5.229,0.555-10.349,1.248-15.513
			c0.091-0.676,0.177-1.356,0.255-2.035c0.376-3.312-0.748-7.833-4.98-7.475c-2.266,0.182-3.26,2.826-3.695,5.253
			c-0.206,1.153-0.284,2.262-0.312,3.036c-0.196,4.92,1.469,10.158,3.456,14.75c-2.89-1.476-5.727-3.058-8.501-4.752
			c0.918-4.542,3.072-8.865,4.33-13.317c0.058-0.195,0.111-0.394,0.163-0.593c1.119-4.261,1.618-10.529-2.512-13.456
			c-3.333-2.362-5.112,4.002-5.619,6.011c-1.548,6.155-0.782,13.096,0.648,19.243c-0.134-0.008-0.264-0.02-0.39-0.029
			c-1.069-0.701-2.128-1.425-3.162-2.168c-0.23-6.879,0.823-13.711,1.123-20.571c0.129-2.99-0.011-12.172-5.036-11.867
			c-3.576,0.215-4.709,4.378-4.984,7.539c-0.04,0.46-0.064,0.901-0.07,1.303c-0.132,6.919,1.995,13.705,4.418,20.139
			c-2.126-1.704-4.19-3.484-6.206-5.333c-0.118-5.38,0.235-10.838,0.733-16.215c0.127-1.42,0.264-2.833,0.411-4.238
			c0.262-2.514,0.057-10.897-4.482-9.819c-4.009,0.956-3.75,7.561-3.656,10.538c0.173,5.667,1.846,11.16,3.575,16.559
			c-4.327-4.064-8.578-8.192-12.299-12.833c-1.463-1.828-4.43,0.275-2.963,2.098c3.81,4.753,7.917,9.162,12.279,13.239
			c-4.164-1.352-8.31-2.516-12.801-2.291c-3.005,0.157-8.505,0.144-10.278,3.128c-2.22,3.753,5.91,4.998,7.662,5.092
			c6.579,0.377,12.977-1.505,19.473-2.29c2.186,1.879,4.438,3.687,6.735,5.421c-3.406-0.882-6.86-1.209-10.512-0.595
			c-2.547,0.43-8.028,1.293-7.93,4.782c0.101,3.849,7.426,2.373,9.402,2.01c5.149-0.924,9.959-1.858,15.066-1.917
			c0.748,0.509,1.504,1.009,2.264,1.497c-5.017,0.132-9.813,1.438-14.538,3.263c-2.638,1.019-6.952,3.422-4.342,6.648
			c6.367,7.865,17.765-4.333,23.703-6.589c0.116-0.046,0.217-0.103,0.291-0.176c1.584,0.932,3.185,1.834,4.805,2.703
			c-3.358,0.063-6.594,1.009-9.691,2.765c-2.601,1.471-6.247,4.49-6.795,7.622c-0.649,3.668,5.855,2.593,7.467,2.15
			c5.921-1.621,10.194-5.707,14.696-9.621c1.884,0.92,3.797,1.802,5.72,2.654c-3.933,1.104-7.647,3.449-10.779,5.84
			c-1.882,1.433-5.899,5.157-4.834,7.95c1.398,3.658,7.639,1.586,10,0.294c4.92-2.705,6.986-8.71,11.784-11.514
			c2.755,1.078,5.544,2.095,8.359,3.042c2.196,0.739,3.69-2.576,1.463-3.323c-2.722-0.917-5.431-1.887-8.113-2.911
			c0.227-4.193,0.812-8.358,0.925-12.565c0.108-4.047,0.271-9.847-3.034-12.827C169.196,367.142,167.068,366.867,165.735,367.732z"
			/>
	</g>
</g>
</svg>
