<?xml version="1.0" encoding="utf-8"?>
<!-- Generator: Adobe Illustrator 17.0.0, SVG Export Plug-In . SVG Version: 6.00 Build 0)  -->
<!DOCTYPE svg PUBLIC "-//W3C//DTD SVG 1.1//EN" "http://www.w3.org/Graphics/SVG/1.1/DTD/svg11.dtd">
<svg version="1.1" id="图层_1" xmlns="http://www.w3.org/2000/svg" xmlns:xlink="http://www.w3.org/1999/xlink" x="0px" y="0px"
	 width="500px" height="499.997px" viewBox="0 0 500 499.997" enable-background="new 0 0 500 499.997" xml:space="preserve">
<path id="ry" fill="#08A1EF" d="M249.998,50.562c110.146,0,199.438,89.292,199.438,199.439
	c0,110.146-89.292,199.439-199.438,199.439S50.559,360.147,50.559,250.001C50.559,139.854,139.852,50.562,249.998,50.562z
	 M249.998,460.716c-51.441,0-100.977-18.736-139.476-52.752c-29.039-25.664-50.417-58.678-61.822-95.473l-13.576,4.211
	c12.179,39.28,34.997,74.521,65.987,101.908c41.102,36.314,93.977,56.314,148.887,56.314L249.998,460.716L249.998,460.716z
	 M453.685,345.561c14.098-30.014,21.246-62.163,21.246-95.559h-14.212c0,31.29-6.695,61.409-19.896,89.514
	c-25.729,54.747-73.705,95.854-131.622,112.771l3.989,13.645C375.014,447.868,426.223,403.993,453.685,345.561z M423.892,107.328
	c-38.289-46.629-92.314-75.475-152.124-81.221c-7.189-0.688-14.517-1.038-21.77-1.038v14.212c6.803,0,13.671,0.328,20.415,0.973
	c56.017,5.383,106.619,32.407,142.496,76.094L423.892,107.328z M111.721,90.996l-9.333-10.72
	C53.25,123.044,25.069,184.908,25.069,250.003h14.212C39.281,189.021,65.684,131.064,111.721,90.996z M500,250.003
	c0-24.855-3.642-49.4-10.817-72.953c-9.071-29.776-23.499-57.323-42.885-81.875C398.529,34.689,326.981,0,249.998,0v14.212
	c72.607,0,140.09,32.72,185.143,89.769c18.286,23.157,31.895,49.134,40.446,77.209c6.767,22.21,10.199,45.361,10.199,68.812
	c0,25.262-3.973,50.122-11.807,73.888l13.5,4.448C495.787,303.133,500,276.777,500,250.003z M87.081,79.555
	c27.409-26.211,61.042-45.604,97.26-56.082l-3.95-13.654C141.98,20.932,106.317,41.495,77.259,69.283
	c-28.396,27.145-50.251,60.99-63.203,97.872l13.409,4.711C39.68,137.082,60.294,105.163,87.081,79.555z M301.063,494.774
	c41.615-8.641,80.651-28.018,112.883-56.037l-9.323-10.727c-30.4,26.428-67.209,44.699-106.443,52.846
	c-15.766,3.27-31.976,4.928-48.18,4.928c-40.264,0-79.997-10.318-114.907-29.84c-37.063-20.729-67.917-51.107-89.224-87.854
	c-20.713-35.72-31.659-76.556-31.655-118.089H0c-0.003,44.033,11.604,87.333,33.569,125.218
	c22.588,38.951,55.292,71.156,94.583,93.127c37.025,20.705,79.158,31.65,121.846,31.65
	C267.171,499.997,284.351,498.242,301.063,494.774z"/>
</svg>
