<?xml version="1.0" encoding="utf-8"?>
<!-- Generator: Adobe Illustrator 17.0.0, SVG Export Plug-In . SVG Version: 6.00 Build 0)  -->
<!DOCTYPE svg PUBLIC "-//W3C//DTD SVG 1.1//EN" "http://www.w3.org/Graphics/SVG/1.1/DTD/svg11.dtd">
<svg version="1.1" id="objects" xmlns="http://www.w3.org/2000/svg" xmlns:xlink="http://www.w3.org/1999/xlink" x="0px" y="0px"
	 width="452.697px" height="563.383px" viewBox="0 0 452.697 563.383" enable-background="new 0 0 452.697 563.383"
	 xml:space="preserve">
<g>
	<path fill="#F2C5A0" d="M368.985,69.084c0.06,0.77-2.6,3.98-5.57,7.31c-2.859,1.62-5.39,3.27-5.39,3.27
		c-4.04-1.35-12.3,1.12-12.3,1.12c-0.37-0.8-1.601-1.53-2.94-2.21c2.22-2.96,5.95-8.01,7.8-10.84c2.721-4.17,6.021-4.27,6.351-2.74
		c0.22,0.98-3.971,7.19-7.02,11.55c2.66-2.72,5.8-5.98,7.61-8.06c3.61-4.12,7.21-3.71,7.35-1.99c0.04,0.51-1.109,2.08-2.739,4.04
		C365.565,66.995,368.855,67.435,368.985,69.084z"/>
	<path fill="#355566" d="M277.165,229.604c1,22-68.57,42.89-68.57,42.89s-27.43,5.61-38.43-37.89s24.59-105.75,24.59-105.75
		c25,43.87,78.67,22.29,78.67,22.29s0.069,1.52,0.199,4.16c0.34,6.93,1.051,21.59,1.771,36.68
		C276.075,206.145,276.766,220.705,277.165,229.604z"/>
	<path fill="#FFCFA3" d="M371.035,76.334c-3.96,3.01-15.09,11.45-16.57,14.65c-1.489,3.2-5.39,16.15-5.39,16.15l-13.1-4.53
		c0,0,2.34-11.62,1.01-13.17c-1.33-1.55-5.09-9.3-4.15-10.67c0.931-1.38,1.82-15.6,4.87-14.95c3.06,0.65,0.681,10.61,0.96,12.08
		c0.16,0.86,2.24,1.72,4.12,2.68c1.34,0.68,2.57,1.41,2.94,2.21c0,0,8.26-2.47,12.3-1.12c0,0,2.53-1.65,5.39-3.27
		c2.25-1.28,4.71-2.53,6.29-2.96C369.705,73.435,374.995,73.334,371.035,76.334z"/>
	<path fill="#355566" d="M351.235,104.714c0,0-26.4,74.16-75.84,87.27c-0.72-15.09-1.431-29.75-1.771-36.68
		c4.45,2.06,16.011,5.38,29.101-7.02c16.779-15.9,32.5-48.98,32.5-48.98S344.386,103.484,351.235,104.714z"/>
	<polygon fill="#FAFEFF" points="271.51,162.638 262.41,196.688 259,209.478 251.2,197.128 231.32,165.678 	"/>
	<path fill="#FF4547" d="M257.465,175.645l4.94,21.04l-3.41,12.79l-7.8-12.35l3-21.36c-2.52-1.95-6.36-6.57-8.07-8.69
		c0.94-0.97,2-2.06,3.07-3.16c3.11-3.16,6.3-6.35,6.85-6.6c2,2.32,5.38,6.57,7.6,9.4
		C261.955,169.785,259.285,173.794,257.465,175.645z"/>
	<path fill="#E1EFF4" d="M256.045,157.314c-0.55,0.25-3.74,3.44-6.85,6.6c-1.07,1.1-2.13,2.19-3.07,3.16
		c-1.89,1.94-3.28,3.4-3.28,3.4c-10.91-1-51.78-31.99-51.78-34.65c0-2.67,4.75-10.77,4.75-10.77l0.01,0.01
		c0.36,0.95,0.82,1.66,1.4,2.09c8.5,6.38,34.42,30.46,58.52,29.88c0.04,0.02,0.08,0.05,0.12,0.07c0.01,0.02,0.03,0.03,0.04,0.05
		C255.955,157.205,255.995,157.265,256.045,157.314z"/>
	<path fill="#E1EFF4" d="M256.095,157.285c-0.01,0-0.03,0.01-0.05,0.03c-0.06-0.07-0.12-0.14-0.18-0.21
		C256.045,157.214,256.125,157.285,256.095,157.285z"/>
	<path fill="#E1EFF4" d="M273.535,151.064v2.38c0,2.67-1.75,13.55-7.67,16.09c0,0-0.91-1.16-2.22-2.82c-2.22-2.83-5.6-7.08-7.6-9.4
		c0.02-0.02,0.04-0.03,0.05-0.03c0.02,0-0.02-0.04-0.11-0.12c-0.02,0-0.04-0.01-0.06-0.02c-0.02-0.02-0.04-0.03-0.06-0.04
		c-0.03-0.03-0.05-0.06-0.07-0.08c6.1-0.14,12.08-1.88,17.63-5.88C273.465,151.115,273.495,151.095,273.535,151.064z"/>
	<path fill="#E1EFF4" d="M256.095,157.285c-0.01,0-0.03,0.01-0.05,0.03c-0.06-0.07-0.12-0.14-0.18-0.21
		C256.045,157.214,256.125,157.285,256.095,157.285z"/>
	<path fill="#FFCFA3" d="M273.426,117.475c8.909,24.76,3.909,30.8,0.109,33.59c-0.04,0.03-0.07,0.05-0.109,0.08
		c-5.551,4-11.53,5.74-17.63,5.88c-0.02,0.01-0.03,0.01-0.05,0.01c-24.1,0.58-50.02-23.5-58.52-29.88c-0.58-0.43-1.04-1.14-1.4-2.09
		l-0.01-0.01c-6.37-16.68,18.11-108.08,18.11-108.08c4-9.75,51.251,5.25,57.751,9.5s1,28.75,3.75,39.5s14.25,23,14.25,35.25
		S273.426,117.475,273.426,117.475z"/>
	<path fill="#5E331F" d="M220.84,72.645h-5.5c0,0-1.834-7.334-6.334-7c-4.5,0.333-9.667,9.833-3,22.833s-9.118,6.053-9.118,6.053
		s-14.382-75.052,9.618-86.719s93.666-5.333,84.666,18c-8.999,23.333-29.166,12.666-42.166,2.833s-16.999-14.666-22.833-13.333
		C226.174,15.312,208.674,26.645,220.84,72.645z"/>
	<path fill="#FFFFFF" d="M228.803,93.097c0,0-4.284,36.801,14.833,38.167c11.667,0.833,13.666-9.5,13.666-9.5
		S233.803,131.097,228.803,93.097z"/>
	<ellipse fill="#5E331F" cx="242.848" cy="68.478" rx="3.167" ry="5"/>
	<path fill="#5E331F" d="M231.76,63.478c0,0-0.071-0.403-0.039-1.109c0.004-0.357,0.05-0.78,0.118-1.273
		c0.101-0.478,0.169-1.046,0.37-1.625c0.09-0.293,0.188-0.599,0.299-0.914c0.134-0.306,0.273-0.622,0.416-0.947
		c0.294-0.649,0.702-1.293,1.144-1.946c0.489-0.619,0.979-1.287,1.626-1.829c0.318-0.273,0.6-0.601,0.96-0.83l1.066-0.716
		c0.716-0.473,1.534-0.757,2.296-1.103c0.797-0.247,1.601-0.428,2.367-0.594c0.781-0.069,1.535-0.112,2.241-0.14
		c0.706,0.008,1.367,0.125,1.969,0.195c0.299,0.046,0.586,0.09,0.859,0.131c0.27,0.056,0.52,0.151,0.755,0.218
		c0.471,0.137,0.874,0.288,1.203,0.405c0.658,0.238,1.017,0.408,1.017,0.408s-0.406,0.088-1.088,0.185
		c-0.341,0.045-0.752,0.109-1.213,0.147c-0.463,0.023-0.979,0.132-1.531,0.245c-0.55,0.115-1.147,0.173-1.754,0.315
		c-0.602,0.171-1.229,0.339-1.874,0.488c-0.612,0.229-1.245,0.467-1.888,0.707c-0.301,0.157-0.6,0.321-0.909,0.465
		c-0.308,0.148-0.624,0.283-0.895,0.493c-0.577,0.364-1.16,0.72-1.668,1.169c-0.554,0.394-1.007,0.891-1.496,1.333
		c-0.44,0.485-0.897,0.947-1.273,1.438c-0.391,0.482-0.754,0.952-1.062,1.414c-0.339,0.446-0.592,0.893-0.861,1.276
		c-0.219,0.401-0.465,0.743-0.62,1.042C231.947,63.117,231.76,63.478,231.76,63.478z"/>
</g>
<path opacity="0.6" fill="#FFFFFF" enable-background="new    " d="M164.033,449.092l-11.753-15.539l-8.403-11.113l-3.352-4.438
	c0,0-99.429-30.697-137.451,65.917c0,0,8.474-5.051,22.565-3.488c0,0-28.695,32.555-25.371,68.044
	c33.241,12.88,72.385-5.854,72.385-5.854c-2.332,13.975-9.502,20.762-9.502,20.762C166.469,553.137,164.033,449.092,164.033,449.092
	z"/>
<g>
	<path fill="#FF4547" d="M401.606,228.929c0,0,50.613-31.714,51.087-28.969c0.474,2.748-41.108,42.064-41.108,42.064
		L401.606,228.929z"/>
	
		<rect x="106.585" y="417.376" transform="matrix(-0.6139 -0.7894 0.7894 -0.6139 -67.5939 812.8593)" fill="#FF4547" width="116.822" height="11.168"/>
	
		<rect x="119.943" y="424.05" transform="matrix(-0.6139 -0.7894 0.7894 -0.6139 -87.3184 816.556)" fill="#FF4547" width="72.191" height="11.166"/>
	<path fill="#FF4547" d="M180.325,291.754c-26.43,21.96-47.86,46.18-63.12,70.07l-60.72,28.43l58.01-91.39
		c2.85-4.49,9.47-8.05,14.78-7.96L180.325,291.754z"/>
	<path fill="#FF4547" d="M296.886,442.075l-11.73,49.67c-1.22,5.18-6.3,10.71-11.35,12.37l-102.851,33.729l42.52-51.88l0.23-0.13
		h0.01C240.535,476.945,269.185,462.195,296.886,442.075z"/>
	<path fill="#E6DDD9" d="M418.386,273.485c-6.78,47.5-52.021,114.819-111.9,161.38c-3.18,2.479-6.39,4.88-9.6,7.21
		c-27.7,20.12-56.351,34.87-83.17,43.76h-0.01c-0.09,0.03-0.17,0.061-0.26,0.09l-48.65-62.529l-47.72-61.37
		c0.04-0.07,0.09-0.13,0.13-0.2c15.26-23.891,36.69-48.11,63.12-70.07c2.98-2.479,6.03-4.93,9.14-7.35
		c59.87-46.57,136.93-72.97,184.48-68.05c16.12,1.66,28.86,6.94,36.37,16.23c0.14,0.16,0.26,0.32,0.39,0.48
		C418.495,243.075,420.726,257.104,418.386,273.485z"/>
	<path opacity="0.4" fill="#FFFFFF" stroke="#FFD56C" stroke-miterlimit="10" d="M410.317,232.586L164.797,423.39l-47.723-61.363
		c16.992-26.65,41.671-53.731,72.388-77.626c59.87-46.563,136.933-72.971,184.486-68.05
		C390.069,218.014,402.807,223.292,410.317,232.586z"/>
	<circle fill="#FF313C" cx="315.372" cy="306.372" r="49.249"/>
	<path fill="#E1F4FF" d="M340.77,339.029c-18.034,14.029-44.028,10.778-58.056-7.256c-14.029-18.035-10.781-44.029,7.257-58.059
		c18.036-14.028,44.03-10.778,58.058,7.258C362.059,299.005,358.809,325.001,340.77,339.029z"/>
	<path fill="#FF4547" d="M418.389,273.486l-44.444-57.137c16.402,1.694,29.295,7.12,36.763,16.721
		C418.49,243.078,420.725,257.098,418.389,273.486z"/>
	<g>
		<path fill="#FFD56C" d="M155.787,438.935l-4.074-5.387l-2.913-3.853l-1.162-1.538c0,0-34.468-10.642-47.649,22.851
			c0,0,2.938-1.751,7.823-1.209c0,0-9.947,11.285-8.795,23.588c11.523,4.465,25.093-2.029,25.093-2.029
			c-0.809,4.845-3.294,7.197-3.294,7.197C156.632,475.004,155.787,438.935,155.787,438.935z"/>
		<path fill="#FFEABB" d="M154.481,437.206l-2.737-3.631l-2.74-3.634c-20.982,2.145-33.653,31.077-33.653,31.077
			S146.653,456.789,154.481,437.206z"/>
	</g>
</g>
<g>
	<path fill="#355566" d="M204.26,272.73c0,0,41.011,1.248,41.755,6.248c0.745,5-14.459,41.522-14.459,41.522l7.867,2.978
		c0,0,26.424-39.495,17.88-50.748c-8.543-11.252-39.941-19.149-42.043-18.512C210.131,255.772,204.26,272.73,204.26,272.73z"/>
	
		<ellipse transform="matrix(-0.7962 -0.605 0.605 -0.7962 235.7185 738.3447)" fill="#141414" cx="242.206" cy="329.474" rx="13.99" ry="6"/>
</g>
<g>
	<path fill="#FFCFA3" d="M160.255,304.915c-2.1,0.15-1.31-9.87-3.51-11.16c-2.21-1.29-1.83,16.67-1.83,16.67s-2.62,1.4-9.33-3.859
		c-4.87-3.801-0.63-17.67,2.08-25.04l13.79,1.25C162.365,291.054,161.905,304.794,160.255,304.915z"/>
	<path fill="#355566" d="M194.755,186.314c-22.34,35.33-32.83,96.501-32.83,96.501l-0.47-0.04l-13.79-1.25l-0.58-0.051
		c-2.28-70.74,41.48-140.319,41.48-140.319L194.755,186.314z"/>
	<path fill="#29444F" d="M172.046,240.498l17.72-45.532c0,0-18.248,52.792-10.466,61.735
		C179.301,256.701,174.833,249.267,172.046,240.498z"/>
</g>
<g>
	<path fill="#FFD56C" d="M365.636,51.047c3.157-3.465,5.099-8.057,5.099-13.114c0-10.769-8.73-19.499-19.499-19.499
		c-10.769,0-19.499,8.73-19.499,19.499c0,5.057,1.941,9.649,5.099,13.114h-0.03c0,0,7.045,7.302,7.071,16.051
		c0,0,14.088,3.605,14.526,0c1.361-11.184,7.328-15.889,7.264-16.051C365.663,51.04,365.636,51.047,365.636,51.047z"/>
	<path fill="#E6DDD9" d="M359.711,68.638h-17.577c0-0.85,0.63-1.539,1.409-1.539h14.76
		C359.082,67.098,359.711,67.788,359.711,68.638z"/>
	<path fill="#E6DDD9" d="M359.713,71.723c0,0.851-0.633,1.541-1.414,1.541h-14.752c-0.78,0-1.414-0.69-1.414-1.541l0,0
		c0-0.852,0.634-1.542,1.414-1.542h14.752C359.08,70.181,359.713,70.872,359.713,71.723L359.713,71.723z"/>
	<path fill="#E6DDD9" d="M359.713,74.807c0,0.851-0.633,1.541-1.414,1.541h-14.752c-0.78,0-1.414-0.69-1.414-1.541l0,0
		c0-0.852,0.634-1.542,1.414-1.542h14.752C359.08,73.265,359.713,73.955,359.713,74.807L359.713,74.807z"/>
	<path fill="#E6DDD9" d="M359.713,77.89c0,0.851-0.633,1.542-1.414,1.542h-14.752c-0.78,0-1.414-0.69-1.414-1.542l0,0
		c0-0.852,0.634-1.542,1.414-1.542h14.752C359.08,76.348,359.713,77.038,359.713,77.89L359.713,77.89z"/>
	<path fill="#595651" d="M359.711,68.638c0,0.85-0.629,1.54-1.408,1.54h-14.76c-0.779,0-1.409-0.69-1.409-1.54H359.711z"/>
	<path fill="#595651" d="M359.711,71.723c0,0.85-0.629,1.54-1.408,1.54h-14.76c-0.779,0-1.409-0.69-1.409-1.54H359.711z"/>
	<path fill="#595651" d="M359.711,74.809c0,0.85-0.629,1.54-1.408,1.54h-14.76c-0.779,0-1.409-0.69-1.409-1.54H359.711z"/>
	<path fill="#595651" d="M359.711,77.894c0,0.85-0.629,1.54-1.408,1.54h-14.76c-0.779,0-1.409-0.69-1.409-1.54H359.711z"/>
	<path fill="#FFFFFF" d="M352.725,12.031c0,0.995-0.807,1.802-1.802,1.802l0,0c-0.995,0-1.802-0.807-1.802-1.802V1.802
		c0-0.995,0.807-1.802,1.802-1.802l0,0c0.995,0,1.802,0.807,1.802,1.802V12.031z"/>
	<path fill="#FFFFFF" d="M362.643,14.817c-0.393,0.914-1.453,1.336-2.367,0.942l0,0c-0.913-0.393-1.335-1.453-0.942-2.367
		l4.044-9.396c0.394-0.914,1.453-1.335,2.367-0.943l0,0c0.914,0.394,1.336,1.454,0.943,2.368L362.643,14.817z"/>
	<path fill="#FFFFFF" d="M370.653,21.298c-0.723,0.684-1.862,0.652-2.547-0.07l0,0c-0.684-0.723-0.652-1.863,0.07-2.546l7.429-7.032
		c0.723-0.685,1.863-0.653,2.547,0.069l0,0c0.685,0.722,0.652,1.863-0.069,2.547L370.653,21.298z"/>
	<path fill="#FFFFFF" d="M375.447,30.418c-0.934,0.343-1.968-0.138-2.311-1.072l0,0c-0.343-0.934,0.138-1.968,1.07-2.311
		l9.605-3.521c0.934-0.343,1.969,0.137,2.311,1.07l0,0c0.343,0.935-0.138,1.97-1.071,2.314L375.447,30.418z"/>
	<path fill="#FFFFFF" d="M340.065,14.573c0.394,0.914,1.453,1.336,2.367,0.942l0,0c0.913-0.394,1.335-1.453,0.942-2.367
		l-4.044-9.396c-0.393-0.914-1.453-1.336-2.367-0.943l0,0c-0.914,0.394-1.336,1.454-0.943,2.368L340.065,14.573z"/>
	<path fill="#FFFFFF" d="M332.056,21.054c0.723,0.684,1.862,0.652,2.547-0.07l0,0c0.684-0.723,0.652-1.863-0.07-2.546l-7.429-7.032
		c-0.723-0.685-1.863-0.653-2.547,0.069l0,0c-0.685,0.722-0.652,1.863,0.069,2.547L332.056,21.054z"/>
	<path fill="#FFFFFF" d="M327.262,30.174c0.933,0.343,1.968-0.138,2.311-1.072l0,0c0.343-0.934-0.138-1.968-1.071-2.311
		l-9.604-3.521c-0.934-0.343-1.969,0.137-2.312,1.07l0,0c-0.343,0.935,0.138,1.97,1.071,2.313L327.262,30.174z"/>
	<path fill="#FFDE94" d="M356.618,23.402c-3.85,0-7.219,2.126-9.13,5.314c1.664-1.101,3.627-1.748,5.738-1.748
		c5.961,0,10.792,5.08,10.792,11.348c0,2.22-0.615,4.285-1.663,6.033c3.033-2.008,5.055-5.551,5.055-9.599
		C367.41,28.483,362.578,23.402,356.618,23.402z"/>
	<g>
		<path fill="#FFEFCA" d="M362.138,18.435c0,0-0.988,6.5-5.425,7.375c0,0,5.054,2.795,5.405,7.375c0.012,0.164,0.02,0.331,0.02,0.5
			c0,0,0.512-6.125,5.012-7.625C367.149,26.059,362.462,23.684,362.138,18.435z"/>
		<path fill="#FFFFFF" d="M361.794,28.64c0,0,0.453-2.692,2.302-3.026c0,0-2.08-1.194-2.196-3.098
			c-0.003-0.068-0.005-0.138-0.004-0.208c0,0-0.254,2.54-2.132,3.133C359.764,25.441,361.694,26.459,361.794,28.64z"/>
	</g>
</g>
</svg>
