<?xml version="1.0" encoding="utf-8"?>
<!-- Generator: Adobe Illustrator 17.0.0, SVG Export Plug-In . SVG Version: 6.00 Build 0)  -->
<!DOCTYPE svg PUBLIC "-//W3C//DTD SVG 1.1//EN" "http://www.w3.org/Graphics/SVG/1.1/DTD/svg11.dtd">
<svg version="1.1" id="图层_1" xmlns:ev="http://www.w3.org/2001/xml-events"
	 xmlns="http://www.w3.org/2000/svg" xmlns:xlink="http://www.w3.org/1999/xlink" x="0px" y="0px" width="127px" height="84.667px"
	 viewBox="0 0 127 84.667" enable-background="new 0 0 127 84.667" xml:space="preserve">
<path fill="#08A1EF" d="M99.659,84.667c-0.449,0-0.896-0.013-1.335-0.033v0.033H28.676v-0.033c-0.44,0.02-0.886,0.033-1.335,0.033
	C12.241,84.667,0,72.312,0,57.075c0-13.872,10.144-25.354,23.355-27.302c-0.13-1.068-0.199-2.156-0.199-3.26
	C23.156,11.87,34.918,0,49.429,0c9.548,0,17.904,5.139,22.505,12.827c3.129-1.537,6.643-2.4,10.359-2.4
	c11.664,0,21.362,8.509,23.326,19.714C117.853,32.883,127,43.9,127,57.075C127,72.312,114.759,84.667,99.659,84.667z"/>
</svg>
