<?xml version="1.0" encoding="utf-8"?>
<!-- Generator: Adobe Illustrator 17.0.0, SVG Export Plug-In . SVG Version: 6.00 Build 0)  -->
<!DOCTYPE svg PUBLIC "-//W3C//DTD SVG 1.1//EN" "http://www.w3.org/Graphics/SVG/1.1/DTD/svg11.dtd">
<svg version="1.1" id="Objects" xmlns="http://www.w3.org/2000/svg" xmlns:xlink="http://www.w3.org/1999/xlink" x="0px" y="0px"
	 width="76.887px" height="76.887px" viewBox="0 0 76.887 76.887" enable-background="new 0 0 76.887 76.887" xml:space="preserve">
<g>
	<g>
		<g>
			<g>
				<g>
					<path fill="#5E241A" d="M38.444,66.138c-15.271,0-27.695-12.424-27.695-27.695c0-15.271,12.424-27.695,27.695-27.695
						c15.271,0,27.696,12.424,27.696,27.695C66.14,53.714,53.715,66.138,38.444,66.138z M38.444,14.748
						c-13.066,0-23.695,10.63-23.695,23.695c0,13.066,10.629,23.695,23.695,23.695c13.066,0,23.696-10.629,23.696-23.695
						C62.14,25.378,51.51,14.748,38.444,14.748z"/>
				</g>
				<g>
					<path fill="#BF772A" d="M53.525,43.291c-0.347,1.08-0.813,2.104-1.371,3.068l19.584,11.306l-9.203,8.197L49.07,50.17
						c-0.83,0.752-1.736,1.419-2.711,1.983l11.307,19.583l-12.068,2.499l-3.812-20.309c-1.078,0.232-2.194,0.36-3.342,0.36v22.601
						l-11.701-3.871l6.853-19.492c-1.079-0.347-2.102-0.812-3.067-1.37L19.222,71.736l-8.197-9.203l15.692-13.464
						c-0.752-0.829-1.418-1.735-1.983-2.71L5.151,57.665L2.653,45.598l20.307-3.813c-0.232-1.078-0.36-2.194-0.36-3.341H0
						l3.871-11.701l19.492,6.853c0.347-1.079,0.812-2.103,1.371-3.068L5.151,19.221l9.203-8.197l13.464,15.692
						c0.83-0.752,1.735-1.419,2.711-1.983L19.222,5.15L31.29,2.652l3.812,20.307c1.078-0.232,2.195-0.36,3.342-0.36V0l11.699,3.87
						l-6.852,19.491c1.08,0.347,2.104,0.813,3.069,1.372L57.666,5.15l8.197,9.203L50.171,27.818c0.752,0.83,1.418,1.735,1.982,2.71
						l19.584-11.307l2.498,12.068l-20.309,3.812c0.232,1.078,0.36,2.195,0.36,3.342c0,0,0,0.001,0,0.001h22.601l-3.871,11.698
						L53.525,43.291z"/>
					<circle fill="#5E241A" cx="38.444" cy="38.443" r="6.026"/>
				</g>
			</g>
		</g>
	</g>
</g>
</svg>
