<?xml version="1.0" encoding="utf-8"?>
<!-- Generator: Adobe Illustrator 17.0.0, SVG Export Plug-In . SVG Version: 6.00 Build 0)  -->
<!DOCTYPE svg PUBLIC "-//W3C//DTD SVG 1.1//EN" "http://www.w3.org/Graphics/SVG/1.1/DTD/svg11.dtd">
<svg version="1.1" id="Layer_1" xmlns="http://www.w3.org/2000/svg" xmlns:xlink="http://www.w3.org/1999/xlink" x="0px" y="0px"
	 width="83.862px" height="83.862px" viewBox="0 0 83.862 83.862" enable-background="new 0 0 83.862 83.862" xml:space="preserve">
<path fill="#53B87C" d="M41.428,83.862h-2.513c-0.034-0.082-0.069-0.171-0.104-0.264c-0.555-1.493,0.417-3.942,0.417-3.942
	s0,0.837,0.279,2.329C39.675,82.898,40.703,83.388,41.428,83.862z M41.933,61.813c0.637,0.051,2.517,0.156,3.229-0.287
	c0.859-0.539,2.797-1.131,2.583,0c-0.216,1.13-1.724,1.074-2.583,1.074c-0.861,0-1.777-0.215-2.368,0.271
	c-0.594,0.484-0.86,3.282-0.86,4.091c0-0.809-0.27-3.606-0.86-4.091c-0.594-0.485-1.507-0.271-2.37-0.271
	c-0.86,0-2.367,0.056-2.581-1.074c-0.217-1.131,1.721-0.539,2.581,0C39.413,61.969,41.294,61.864,41.933,61.813z M0,11.938
	C0,5.344,5.346,0,11.938,0h59.986c6.594,0,11.938,5.344,11.938,11.938v59.986c0,6.592-5.344,11.938-11.938,11.938H46.362
	c0.056-0.172,0.085-0.32,0.085-0.443c0-0.675-0.657-1.585-1.076-2.065c-0.151-0.099-0.263-0.189-0.312-0.263
	c-0.103-0.157,0.062-0.022,0.312,0.263c0.703,0.463,2.257,1.111,2.257,1.111s-2.084-2.45-2.223-3.645
	c-0.11-0.964,0.185-3.481,0.155-4.671c0.552-0.187,1.032-0.439,1.321-0.786c1.131-1.344,1.239-3.121,1.239-3.121
	c-0.539,0.431-2.96,1.347-3.715,1.347h-2.314h-0.322h-2.315c-0.754,0-3.175-0.916-3.712-1.347c0,0,0.106,1.777,1.236,3.121
	c0.392,0.466,1.122,0.764,1.911,0.955c-0.005,0.608-0.038,1.431-0.149,2.113c-0.21,1.253-1.11,2.925-1.526,4.896
	c-0.199,0.933,0.397,1.839,1.08,2.534H11.938C5.345,83.861,0,78.515,0,71.923C0,71.923,0,11.938,0,11.938z M27.778,26.764
	c-0.32-0.107-5.165-0.538-7.694,0.538c-2.529,1.075-6.242,4.572-9.471,5.22c-3.228,0.645-7.319,0.375-7.319,0.375
	s3.177,1.885,6.082,1.776c2.904-0.107,8.125-4.089,9.793-4.896c1.668-0.808,4.95-0.969,6.296-0.808
	c1.346,0.161,1.993-0.216,2.207-0.808C27.888,27.571,27.778,26.764,27.778,26.764z M27.135,47.643c0,0,0.053,1.774,0.268,3.389
	c0.215,1.614,2.637,5.865,3.66,7.211c1.021,1.345,1.613-0.107,2.638-1.669c1.021-1.561,2.313-10.546,2.313-10.546
	s-0.433,7.587-1.453,10.977c-1.023,3.39-0.377,5.112-0.377,7.318c0,2.206,0.914,3.686,1.157,4.278
	c0.24,0.592,1.237,1.479,2.474,1.801c1.238,0.324,2.585-0.053,3.365-0.241c0.702-0.169,0.749-1.986,0.753-2.932
	c0.002,0.945,0.048,2.763,0.753,2.932c0.78,0.188,2.126,0.565,3.362,0.241c1.237-0.321,2.233-1.209,2.477-1.801
	c0.241-0.593,1.156-2.072,1.156-4.278s0.646-3.929-0.376-7.318c-1.023-3.391-1.454-10.977-1.454-10.977s1.291,8.985,2.314,10.546
	c1.023,1.562,1.614,3.014,2.638,1.669c1.021-1.346,3.444-5.597,3.659-7.211c0.216-1.614,0.268-3.389,0.268-3.389
	s-0.753,0.107-1.67-0.377c-0.913-0.485-1.396-1.508-1.451-1.776c-0.054-0.27-0.054-0.538-0.054-0.538s-0.592,0.592-0.809,1.829
	c-0.215,1.238-0.215,2.207-0.215,2.207s-0.753-3.015,0.432-5.328c1.184-2.313,3.498-2.098,4.197-3.658
	c0.7-1.561,0.323-3.498-1.131-4.789c-1.453-1.292-0.97-4.467-0.97-6.135c0-1.668-0.751-2.313-0.751-2.313s-1.13,2.857-3.714,1.834
	c-2.583-1.021-2.314-4.095-2.314-4.095s0.537,1.937,2.154,2.53c1.613,0.59,2.635-0.485,2.798-0.754
	c0.16-0.27,4.304-5.864,4.034-10.439c-0.27-4.574-4.629-11.678-4.629-11.678s1.294,7.373,0.861,11.194
	c-0.43,3.819-4.949,8.285-4.949,8.285s-0.805-1.184-2.905-0.161c-1.483,0.724-5.939,0.724-7.426,0
	c-2.097-1.023-2.904,0.161-2.904,0.161s-4.521-4.466-4.951-8.285c-0.43-3.821,0.86-11.194,0.86-11.194s-4.357,7.104-4.628,11.678
	c-0.268,4.575,3.875,10.17,4.037,10.439c0.16,0.269,1.184,1.344,2.798,0.754c1.614-0.594,2.151-2.53,2.151-2.53
	s0.27,3.073-2.313,4.095c-2.582,1.023-3.713-1.834-3.713-1.834s-0.753,0.646-0.753,2.313c0,1.668,0.484,4.843-0.97,6.135
	c-1.451,1.291-1.828,3.228-1.128,4.789c0.698,1.561,3.013,1.345,4.196,3.658c1.184,2.313,0.43,5.328,0.43,5.328s0-0.969-0.214-2.207
	c-0.216-1.237-0.808-1.829-0.808-1.829s0,0.269-0.054,0.538s-0.538,1.291-1.453,1.776C27.888,47.75,27.135,47.643,27.135,47.643z
	 M12.873,34.835c0,0,1.614,0.43,2.961,0.592c1.345,0.161,6.079-0.97,7.05-0.915c0.967,0.054,5.11-1.937,5.11-1.937h-1.453
	c-0.753,0-3.551-0.701-3.551-0.701s0.807-0.536,1.722-0.536s2.636-0.97,2.636-0.97s-0.699-0.699-1.56-0.752
	c-0.86-0.055-3.121,0.807-3.121,0.807s-0.591-0.216-1.077-0.431c-0.484-0.215-2.259,1.667-2.259,1.667s-0.861-0.268-1.992,0.215
	C16.211,32.361,12.873,34.835,12.873,34.835z M70.989,34.835c0,0-3.335-2.475-4.466-2.961c-1.13-0.483-1.99-0.215-1.99-0.215
	s-1.777-1.882-2.261-1.667s-1.076,0.431-1.076,0.431s-2.261-0.861-3.122-0.807c-0.86,0.053-1.561,0.752-1.561,0.752
	s1.724,0.97,2.638,0.97c0.915,0,1.722,0.536,1.722,0.536s-2.799,0.701-3.552,0.701H55.87c0,0,4.143,1.99,5.111,1.937
	c0.968-0.055,5.703,1.076,7.05,0.915C69.375,35.265,70.989,34.835,70.989,34.835z M56.084,26.764c0,0-0.106,0.807,0.107,1.398
	c0.216,0.592,0.862,0.969,2.207,0.808c1.344-0.161,4.628,0,6.296,0.808c1.668,0.807,6.888,4.788,9.793,4.896
	c2.906,0.108,6.081-1.776,6.081-1.776s-4.089,0.271-7.318-0.375c-3.229-0.647-6.941-4.144-9.471-5.22
	C61.25,26.226,56.407,26.657,56.084,26.764z"/>
</svg>
