<?xml version="1.0" encoding="utf-8"?>
<!-- Generator: Adobe Illustrator 16.0.0, SVG Export Plug-In . SVG Version: 6.00 Build 0)  -->
<!DOCTYPE svg PUBLIC "-//W3C//DTD SVG 1.1//EN" "http://www.w3.org/Graphics/SVG/1.1/DTD/svg11.dtd">
<svg version="1.1" id="eqxiu.com" xmlns="http://www.w3.org/2000/svg" xmlns:xlink="http://www.w3.org/1999/xlink" x="0px" y="0px"
	 width="36.727px" height="93.353px" viewBox="0 0 36.727 93.353" enable-background="new 0 0 36.727 93.353" xml:space="preserve">
<path id="eqxiu.com_2_" fill="#FFFFFF" d="M36.061,14.025L25.979,88.336l-6.537,4.346L4.81,90.591l-1.987-5.042L0.66,79.65
	L11.437,3.547l4.354-2.876L29.48,2.61l2.831,4.47L36.061,14.025z"/>
<path id="eqxiu.com_1_" d="M32.978,6.961l0.005-0.025l-0.114-0.179l-0.919-1.703L31.92,5.259l-2.055-3.245L15.639,0L10.84,3.17
	L0,79.719l1.841,5.021l-0.03-0.006l0.412,1.046l0.126,0.344l0.01,0.002l1.989,5.05l15.246,2.178l6.982-4.642l10.122-74.6
	l0.028-0.208L32.978,6.961z M35.049,16.7l-2.755-4.908l0.381-2.686l2.721,5.04L35.049,16.7z M34.554,20.353l-2.772-4.939l0.29-2.048
	l2.762,4.921L34.554,20.353z M33.079,31.22l-2.842-4.903l0.265-1.868l2.833,4.888L33.079,31.22z M32.607,34.694l-2.858-4.932
	l0.27-1.9l2.849,4.917L32.607,34.694z M32.138,38.161L29.262,33.2l0.269-1.892l2.865,4.945L32.138,38.161z M31.655,41.716
	l-2.892-4.99l0.279-1.979l2.882,4.973L31.655,41.716z M31.188,45.158l-2.908-5.019l0.265-1.868l2.899,5.004L31.188,45.158z
	 M30.659,49.056l-2.927-5.051l0.329-2.318l2.915,5.03L30.659,49.056z M30.192,52.486l-2.941-5.078l0.263-1.857l2.934,5.063
	L30.192,52.486z M29.691,56.188l-2.961-5.107l0.301-2.127l2.951,5.091L29.691,56.188z M29.176,59.98l-2.978-5.14l0.312-2.214
	l2.968,5.121L29.176,59.98z M28.665,63.748l-2.996-5.17l0.31-2.19l2.986,5.152L28.665,63.748z M28.112,67.821l-3.069-4.818
	l0.406-2.879l3.005,5.184L28.112,67.821z M26.035,83.131l-3.089-5.329l0.259-1.821l3.079,5.315L26.035,83.131z M7.878,87.014
	l2.126,3.669l-1.689-0.24L6.17,86.738L7.878,87.014z M9.108,87.211l1.717,0.276l2.093,3.612l-1.697-0.243L9.108,87.211z
	 M12.054,87.686l1.356,0.218l2.063,3.562l-1.341-0.191L12.054,87.686z M14.64,88.102l1.652,0.267l2.03,3.503l-1.633-0.233
	L14.64,88.102z M17.508,88.54l1.515-1.238l2.043,3.526l-1.611,1.071L17.508,88.54z M19.779,86.684l1.268-1.036l2.172,3.75
	l-1.348,0.896L19.779,86.684z M22.728,79.348l3.083,5.319l0.018-0.01l-0.26,1.916l-3.105-5.357L22.728,79.348z M23.424,74.434
	l0.258-1.826l3.057,5.276l0.01-0.005l-0.252,1.857L23.424,74.434z M23.9,71.062l0.318-2.25l2.969,5.123l0.104-0.06l-0.334,2.461
	L23.9,71.062z M24.438,67.265l0.396-2.793l3.078,4.829l-0.436,3.208L24.438,67.265z M30.721,22.903l0.295-2.077l2.798,4.984
	l-0.268,1.967L30.721,22.903z M34.028,24.224l-2.791-4.972l0.321-2.265l2.779,4.952L34.028,24.224z M1.319,79.58L12.033,3.924
	l3.909-2.582l13.155,1.863l2.545,4.02L20.735,84.24l-3.617,2.957L3.297,84.973L1.319,79.58z M3.835,86.362L4.94,86.54l2.16,3.729
	l-1.83-0.262L3.835,86.362z M24.024,88.861l-2.222-3.832l0.137-0.111l0.305-2.156l3.023,5.219l0.119-0.068L25.38,87.96
	L24.024,88.861z"/>
</svg>
