<?xml version="1.0" encoding="utf-8"?>
<!-- Generator: Adobe Illustrator 16.0.0, SVG Export Plug-In . SVG Version: 6.00 Build 0)  -->
<!DOCTYPE svg PUBLIC "-//W3C//DTD SVG 1.1//EN" "http://www.w3.org/Graphics/SVG/1.1/DTD/svg11.dtd">
<svg version="1.1" id="eqxiu.com" xmlns="http://www.w3.org/2000/svg" xmlns:xlink="http://www.w3.org/1999/xlink" x="0px" y="0px"
	 width="49.682px" height="30.369px" viewBox="0 0 49.682 30.369" enable-background="new 0 0 49.682 30.369" xml:space="preserve">
<path id="eqxiu.com_1_" fill="#595A5A" d="M49.242,9.726c0.244-0.008,0.439-0.208,0.439-0.454c0-0.001,0-0.001,0-0.002
	c-0.002-0.586-1.271-1.788-3.77-3.574L47.615,0.8c0.046-0.131,0.028-0.276-0.046-0.394c-0.075-0.117-0.2-0.193-0.339-0.207
	C26.853-1.844,13.189,12.447,13.053,12.591c-0.171,0.183-0.161,0.47,0.021,0.642c0.183,0.171,0.47,0.162,0.642-0.021
	c0.13-0.141,13.19-13.843,32.852-12.163l-1.524,4.38c-13.893,0.539-27.632,6.997-27.77,7.062c-0.226,0.107-0.322,0.377-0.214,0.604
	c0.077,0.163,0.24,0.259,0.409,0.259c0.066,0,0.132-0.014,0.195-0.044C17.8,13.246,31.482,6.816,45.235,6.33
	c1.398,0.995,2.923,2.211,3.397,2.747c-0.564,0.458-1.329,1.365-1.921,2.195c-13.426-1.83-27.567,3.44-29.244,4.092l0.426-1.172
	c0.062-0.168,0.018-0.357-0.111-0.481c-0.129-0.125-0.321-0.163-0.485-0.095l-4.447,1.8L7.844,8.993
	c-0.12-0.153-0.323-0.213-0.505-0.15C7.156,8.906,7.033,9.078,7.033,9.272v8.344L0.246,21.12c-0.174,0.088-0.271,0.279-0.24,0.473
	c0.031,0.193,0.183,0.346,0.376,0.378l6.675,1.075l0.431,6.898c0.012,0.194,0.148,0.359,0.336,0.409
	c0.039,0.011,0.077,0.016,0.116,0.016c0.151,0,0.294-0.074,0.379-0.205l4.629-7.054h8.149c0.2,0,0.376-0.132,0.434-0.323
	s-0.016-0.396-0.182-0.508l-5.148-3.432l0.971-2.673c0.083,0.076,0.182,0.13,0.295,0.13c0.058,0,0.115-0.011,0.171-0.034
	c0.147-0.058,14.662-5.882,28.518-4.153c-0.202,0.347-0.332,0.633-0.332,0.784c0,0.251,0.118,0.443,0.368,0.443
	c0.217,0.071,1.348,0.792,2.182,1.967c-4.853-0.292-24.547,0.059-30.253,3.906c-0.208,0.141-0.263,0.422-0.123,0.63
	c0.087,0.129,0.231,0.2,0.376,0.2c0.088,0,0.175-0.025,0.253-0.078c6.276-4.23,29.169-3.865,30.435-3.697
	c0.079,0.034,0.172,0.043,0.269,0.02c0.204-0.048,0.35-0.23,0.35-0.441c0-0.07-0.018-0.14-0.05-0.202l0.002-0.001
	c-0.707-1.415-1.99-2.539-2.79-2.988C47.266,11.9,48.71,10.156,49.242,9.726z M15.227,18.872c-0.072,0.195,0.001,0.417,0.174,0.532
	l4.198,2.799h-6.895c-0.153,0-0.295,0.076-0.379,0.205l-4.017,6.12l-0.369-5.9c-0.013-0.211-0.171-0.387-0.38-0.42l-5.673-0.914
	l5.809-2.999c0.151-0.076,0.246-0.232,0.246-0.402v-7.301l4.406,5.651c0.124,0.161,0.344,0.22,0.528,0.142l3.819-1.545
	L15.227,18.872z"/>
</svg>
