<?xml version="1.0" encoding="UTF-8"?>
<svg width="81px" height="81px" viewBox="0 0 81 81" version="1.1" xmlns="http://www.w3.org/2000/svg" xmlns:xlink="http://www.w3.org/1999/xlink">
    <!-- Generator: Sketch 43.1 (39012) - http://www.bohemiancoding.com/sketch -->
    <title>Scald</title>
    <desc>Created with Sketch.</desc>
    <defs></defs>
    <g id="Page-1" stroke="none" stroke-width="1" fill="none" fill-rule="evenodd">
        <g id="Scald">
            <g id="烫伤-copy-2" transform="translate(3.000000, 1.000000)">
                <path d="M38.975751,1.36500834 C38.3317262,0.47939759 37.2810484,0.477857839 36.6278973,1.38596351 C36.6278973,1.38596351 15.5370909,29.1959154 15.5370909,52.238459 C15.5370909,75.2810026 34.8749908,77.3364401 34.8749908,77.3364401 C36.4957533,77.681384 39.1361901,77.7248842 40.744291,77.3339945 C40.744291,77.3339945 60.082191,75.2606197 60.082191,52.238459 C60.082191,29.2162983 38.975751,1.36500834 38.975751,1.36500834 Z" id="Path-9" stroke="#23454D" stroke-width="3"></path>
                <path d="M38.497562,35.496075 C37.9343562,34.5502066 37.0106454,34.5489122 36.4580135,35.4969706 C36.4580135,35.4969706 29.2286951,46.736991 29.2286951,57.3125143 C29.2286951,67.8880377 36.9559832,70.6267871 36.9559832,70.6267871 C37.457338,70.8576181 38.2645096,70.8572197 38.7504806,70.5930611 C38.7504806,70.5930611 45.7268803,67.8959623 45.7268803,57.3125143 C45.7268803,46.7290664 38.497562,35.496075 38.497562,35.496075 Z" id="Path-9" stroke="#23454D" stroke-width="3"></path>
                <g id="网点2-copy" transform="translate(39.699743, 42.752450) rotate(-315.000000) translate(-39.699743, -42.752450) translate(11.699743, 14.752450)" fill="#23454D">
                    <ellipse id="Oval-3-Copy-38" cx="27.9172131" cy="53.9969867" rx="1.5" ry="1.5"></ellipse>
                    <ellipse id="Oval-3-Copy-38" cx="14.7186649" cy="40.877739" rx="1.5" ry="1.5"></ellipse>
                    <circle id="Oval-3-Copy-51" cx="27.9172131" cy="47.4373628" r="1.5"></circle>
                    <ellipse id="Oval-3-Copy-48" cx="21.317939" cy="40.877739" rx="1.5" ry="1.5"></ellipse>
                    <ellipse id="Oval-3-Copy-52" cx="21.317939" cy="47.4373628" rx="1.5" ry="1.5"></ellipse>
                    <circle id="Oval-3-Copy-38" cx="14.7186649" cy="27.7584913" r="1.5"></circle>
                    <ellipse id="Oval-3-Copy-51" cx="14.7186649" cy="34.3181151" rx="1.5" ry="1.5"></ellipse>
                    <circle id="Oval-3-Copy-48" cx="8.11939083" cy="27.7584913" r="1.5"></circle>
                    <ellipse id="Oval-3-Copy-52" cx="8.11939083" cy="34.3181151" rx="1.5" ry="1.5"></ellipse>
                    <circle id="Oval-3-Copy-52" cx="21.317939" cy="34.3181151" r="1.5"></circle>
                    <ellipse id="Oval-3-Copy-38" cx="41.1157612" cy="53.9969867" rx="1.5" ry="1.5"></ellipse>
                    <ellipse id="Oval-3-Copy-48" cx="34.5164871" cy="53.9969867" rx="1.5" ry="1.5"></ellipse>
                    <ellipse id="Oval-3-Copy-48" cx="47.7150353" cy="53.9969867" rx="1.5" ry="1.5"></ellipse>
                    <ellipse id="Oval-3-Copy-38" cx="54.3143094" cy="40.877739" rx="1.5" ry="1.5"></ellipse>
                    <ellipse id="Oval-3-Copy-51" cx="54.3143094" cy="47.4373628" rx="1.5" ry="1.5"></ellipse>
                    <circle id="Oval-3-Copy-48" cx="47.7150353" cy="40.877739" r="1.5"></circle>
                    <circle id="Oval-3-Copy-52" cx="48.4221421" cy="46.730256" r="1.5"></circle>
                    <ellipse id="Oval-3-Copy-38" cx="41.1157612" cy="27.7584913" rx="1.5" ry="1.5"></ellipse>
                    <ellipse id="Oval-3-Copy-48" cx="34.5164871" cy="27.7584913" rx="1.5" ry="1.5"></ellipse>
                    <ellipse id="Oval-3-Copy-51" cx="54.3143094" cy="34.3181151" rx="1.5" ry="1.5"></ellipse>
                    <ellipse id="Oval-3-Copy-48" cx="47.7150353" cy="27.7584913" rx="1.5" ry="1.5"></ellipse>
                    <ellipse id="Oval-3-Copy-52" cx="47.7150353" cy="34.3181151" rx="1.5" ry="1.5"></ellipse>
                    <ellipse id="Oval-3-Copy-38" cx="1.52011675" cy="14.6392436" rx="1.5" ry="1.5"></ellipse>
                    <circle id="Oval-3-Copy-51" cx="1.52011675" cy="21.1988674" r="1.5"></circle>
                    <circle id="Oval-3-Copy-38" cx="1.5" cy="1.5" r="1.5"></circle>
                    <circle id="Oval-3-Copy-58" cx="8.09927408" cy="1.5" r="1.5"></circle>
                    <circle id="Oval-3-Copy-51" cx="1.52011675" cy="8.07961973" r="1.5"></circle>
                    <ellipse id="Oval-3-Copy-38" cx="14.7186649" cy="14.6392436" rx="1.5" ry="1.5"></ellipse>
                    <circle id="Oval-3-Copy-51" cx="14.7186649" cy="21.1988674" r="1.5"></circle>
                    <ellipse id="Oval-3-Copy-48" cx="8.11939083" cy="14.6392436" rx="1.5" ry="1.5"></ellipse>
                    <ellipse id="Oval-3-Copy-52" cx="8.11939083" cy="21.1988674" rx="1.5" ry="1.5"></ellipse>
                    <circle id="Oval-3-Copy-38" cx="27.9172131" cy="14.6392436" r="1.5"></circle>
                    <ellipse id="Oval-3-Copy-51" cx="27.9172131" cy="21.1988674" rx="1.5" ry="1.5"></ellipse>
                    <ellipse id="Oval-3-Copy-48" cx="21.317939" cy="14.6392436" rx="1.5" ry="1.5"></ellipse>
                    <ellipse id="Oval-3-Copy-52" cx="21.317939" cy="21.1988674" rx="1.5" ry="1.5"></ellipse>
                    <ellipse id="Oval-3-Copy-51" cx="14.7186649" cy="8.07961973" rx="1.5" ry="1.5"></ellipse>
                    <circle id="Oval-3-Copy-52" cx="8.11939083" cy="8.07961973" r="1.5"></circle>
                    <ellipse id="Oval-3-Copy-52" cx="21.317939" cy="8.07961973" rx="1.5" ry="1.5"></ellipse>
                    <circle id="Oval-3-Copy-51" cx="41.1157612" cy="21.1988674" r="1.5"></circle>
                    <circle id="Oval-3-Copy-48" cx="34.5164871" cy="14.6392436" r="1.5"></circle>
                    <circle id="Oval-3-Copy-52" cx="34.5164871" cy="21.1988674" r="1.5"></circle>
                    <ellipse id="Oval-3-Copy-52" cx="47.7150353" cy="21.1988674" rx="1.5" ry="1.5"></ellipse>
                </g>
            </g>
        </g>
    </g>
</svg>