<?xml version="1.0" encoding="UTF-8"?>
<svg width="81px" height="81px" viewBox="0 0 81 81" version="1.1" xmlns="http://www.w3.org/2000/svg" xmlns:xlink="http://www.w3.org/1999/xlink">
    <!-- Generator: Sketch 43.1 (39012) - http://www.bohemiancoding.com/sketch -->
    <title>unconsciousness</title>
    <desc>Created with Sketch.</desc>
    <defs></defs>
    <g id="Page-1" stroke="none" stroke-width="1" fill="none" fill-rule="evenodd">
        <g id="unconsciousness">
            <g id="意识丧失" transform="translate(-13.000000, 8.000000)">
                <g id="意识丧失-copy-2" transform="translate(7.665052, 0.613325)" stroke="#23454D" stroke-linecap="round">
                    <path d="M84.2472073,26.6866882 C84.2472073,26.6866882 79.3167014,26.6866882 78.3306002,20.756313 C77.3444991,14.8259379 78.140147,12.1157934 75.6480999,8.36334956 C73.9818368,5.85434469 71.7883816,5.85434469 69.8161792,5.85434469" id="Path-2" stroke-width="3"></path>
                    <path d="M65.6505216,13.3813593 C65.6505216,13.3813593 64.8173901,12.0128112 64.8173901,10.0360195" id="Path-3" stroke-width="3"></path>
                    <path d="M61.484864,3.95358343 C61.484864,3.95358343 61.1106415,3.95358343 58.1523379,3.95358343 C55.1940344,3.95358343 54.6641719,0 51.7058684,0 C48.7475648,0 47.7614636,2.96518757 44.8031601,3.95358343 C41.8448565,4.94197929 30.9977435,3.95358343 24.0950353,5.93037514 C17.192327,7.90716686 11.2757199,14.8259379 9.30351756,22.7331047 C7.3313152,30.6402716 7.3313152,47.4430012 15.2201246,55.350168 C23.1089341,63.2573349 34.9421483,64.2457307 37.9004518,64.2457307 C40.8587554,64.2457307 55.6502731,65.2341266 63.5390825,56.3385639 C71.427892,47.4430012 71.427892,47.4430012 74.3861955,46.4546053" id="Path-4" stroke-width="3"></path>
                    <path d="M78.3306002,50.4081887 C78.3306002,50.4081887 77.3444991,47.4430012 74.3861955,46.4546053 C71.427892,45.4662094 69.4556896,47.4430012 65.5112849,46.4546053 C61.5668802,45.4662094 61.5668802,45.4662094 61.5668802,45.4662094" id="Path-5" stroke-width="3"></path>
                    <path d="M60.6517325,40.1440779 C60.6517325,40.1440779 63.151127,44.3257527 58.9854694,48.5074275 C54.8198118,52.6891022 49.2938305,50.4842192 47.3216282,48.5074275 C45.3494258,46.5306357 45.3494258,44.553844 46.335527,39.6118647 C46.335527,37.635073 35.6577869,37.635073 30.6589978,30.9443934 C25.6602086,24.2537137 32.3252608,16.7266991 27.3264717,5.85434469" id="Path-6" stroke-width="3"></path>
                    <path d="M44.8222336,14.2176943 C44.8222336,14.2176943 47.3216282,18.0952472 47.3216282,20.072039" id="Path-7" stroke-width="3"></path>
                    <path d="M53.1535488,43.4894177 C53.1535488,43.4894177 53.9866803,41.8167478 54.8198118,41.8167478" id="Path-8" stroke-width="2"></path>
                </g>
                <g id="Group-3" transform="translate(36.553066, 41.753042) rotate(-315.000000) translate(-36.553066, -41.753042) translate(5.053066, 22.753042)" fill="#23454D">
                    <ellipse id="Oval-3-Copy-90" cx="34.8252608" cy="22.1890898" rx="1.5" ry="1.5"></ellipse>
                    <circle id="Oval-3-Copy-92" cx="41.490313" cy="22.1890898" r="1.5"></circle>
                    <ellipse id="Oval-3-Copy-94" cx="34.8252608" cy="15.4984102" rx="1.5" ry="1.5"></ellipse>
                    <ellipse id="Oval-3-Copy-96" cx="41.490313" cy="15.4984102" rx="1.5" ry="1.5"></ellipse>
                    <ellipse id="Oval-3-Copy-98" cx="48.1553651" cy="22.1890898" rx="1.5" ry="1.5"></ellipse>
                    <ellipse id="Oval-3-Copy-100" cx="54.8204173" cy="22.1890898" rx="1.5" ry="1.5"></ellipse>
                    <circle id="Oval-3-Copy-102" cx="48.1553651" cy="15.4984102" r="1.5"></circle>
                    <circle id="Oval-3-Copy-104" cx="54.8204173" cy="15.4984102" r="1.5"></circle>
                    <ellipse id="Oval-3-Copy-106" cx="34.8252608" cy="35.5704491" rx="1.5" ry="1.5"></ellipse>
                    <ellipse id="Oval-3-Copy-108" cx="41.490313" cy="35.5704491" rx="1.5" ry="1.5"></ellipse>
                    <circle id="Oval-3-Copy-110" cx="34.8252608" cy="28.8797695" r="1.5"></circle>
                    <circle id="Oval-3-Copy-112" cx="41.490313" cy="28.8797695" r="1.5"></circle>
                    <circle id="Oval-3-Copy-118" cx="48.1553651" cy="28.8797695" r="1.5"></circle>
                    <circle id="Oval-3-Copy-126" cx="61.4854694" cy="15.4984102" r="1.5"></circle>
                    <circle id="Oval-3-Copy-82" cx="61.4854694" cy="8.80773052" r="1.5"></circle>
                    <ellipse id="Oval-3-Copy-84" cx="61.4854694" cy="2.11705087" rx="1.5" ry="1.5"></ellipse>
                    <circle id="Oval-3-Copy-73" cx="1.5" cy="2.11705087" r="1.5"></circle>
                    <ellipse id="Oval-3-Copy-186" cx="8.16505216" cy="22.1890898" rx="1.5" ry="1.5"></ellipse>
                    <ellipse id="Oval-3-Copy-188" cx="14.8301043" cy="22.1890898" rx="1.5" ry="1.5"></ellipse>
                    <ellipse id="Oval-3-Copy-190" cx="8.16505216" cy="15.4984102" rx="1.5" ry="1.5"></ellipse>
                    <ellipse id="Oval-3-Copy-192" cx="14.8301043" cy="15.4984102" rx="1.5" ry="1.5"></ellipse>
                    <ellipse id="Oval-3-Copy-194" cx="21.4951565" cy="22.1890898" rx="1.5" ry="1.5"></ellipse>
                    <ellipse id="Oval-3-Copy-196" cx="28.1602086" cy="22.1890898" rx="1.5" ry="1.5"></ellipse>
                    <circle id="Oval-3-Copy-198" cx="21.4951565" cy="15.4984102" r="1.5"></circle>
                    <circle id="Oval-3-Copy-200" cx="28.1602086" cy="15.4984102" r="1.5"></circle>
                    <ellipse id="Oval-3-Copy-82" cx="8.16505216" cy="8.80773052" rx="1.5" ry="1.5"></ellipse>
                    <ellipse id="Oval-3-Copy-83" cx="14.8301043" cy="8.80773052" rx="1.5" ry="1.5"></ellipse>
                    <ellipse id="Oval-3-Copy-84" cx="8.16505216" cy="2.11705087" rx="1.5" ry="1.5"></ellipse>
                    <ellipse id="Oval-3-Copy-208" cx="14.8301043" cy="28.8797695" rx="1.5" ry="1.5"></ellipse>
                    <circle id="Oval-3-Copy-210" cx="21.4951565" cy="35.5704491" r="1.5"></circle>
                    <ellipse id="Oval-3-Copy-212" cx="28.1602086" cy="35.5704491" rx="1.5" ry="1.5"></ellipse>
                    <ellipse id="Oval-3-Copy-214" cx="21.4951565" cy="28.8797695" rx="1.5" ry="1.5"></ellipse>
                    <circle id="Oval-3-Copy-216" cx="28.1602086" cy="28.8797695" r="1.5"></circle>
                </g>
            </g>
        </g>
    </g>
</svg>